G04 #@! TF.GenerationSoftware,KiCad,Pcbnew,(5.1.5)-3*
G04 #@! TF.CreationDate,2020-03-03T15:35:36+01:00*
G04 #@! TF.ProjectId,PROTEAN_mk2,50524f54-4541-44e5-9f6d-6b322e6b6963,rev?*
G04 #@! TF.SameCoordinates,Original*
G04 #@! TF.FileFunction,Legend,Top*
G04 #@! TF.FilePolarity,Positive*
%FSLAX46Y46*%
G04 Gerber Fmt 4.6, Leading zero omitted, Abs format (unit mm)*
G04 Created by KiCad (PCBNEW (5.1.5)-3) date 2020-03-03 15:35:36*
%MOMM*%
%LPD*%
G04 APERTURE LIST*
%ADD10C,0.300000*%
%ADD11C,0.375000*%
%ADD12C,0.150000*%
%ADD13C,0.304800*%
G04 APERTURE END LIST*
D10*
X227727142Y-153698571D02*
X227727142Y-152198571D01*
X227727142Y-152770000D02*
X227870000Y-152698571D01*
X228155714Y-152698571D01*
X228298571Y-152770000D01*
X228370000Y-152841428D01*
X228441428Y-152984285D01*
X228441428Y-153412857D01*
X228370000Y-153555714D01*
X228298571Y-153627142D01*
X228155714Y-153698571D01*
X227870000Y-153698571D01*
X227727142Y-153627142D01*
X229298571Y-153698571D02*
X229155714Y-153627142D01*
X229084285Y-153555714D01*
X229012857Y-153412857D01*
X229012857Y-152984285D01*
X229084285Y-152841428D01*
X229155714Y-152770000D01*
X229298571Y-152698571D01*
X229512857Y-152698571D01*
X229655714Y-152770000D01*
X229727142Y-152841428D01*
X229798571Y-152984285D01*
X229798571Y-153412857D01*
X229727142Y-153555714D01*
X229655714Y-153627142D01*
X229512857Y-153698571D01*
X229298571Y-153698571D01*
X230441428Y-153698571D02*
X230441428Y-152698571D01*
X230441428Y-152984285D02*
X230512857Y-152841428D01*
X230584285Y-152770000D01*
X230727142Y-152698571D01*
X230870000Y-152698571D01*
X231370000Y-152698571D02*
X231370000Y-153698571D01*
X231370000Y-152841428D02*
X231441428Y-152770000D01*
X231584285Y-152698571D01*
X231798571Y-152698571D01*
X231941428Y-152770000D01*
X232012857Y-152912857D01*
X232012857Y-153698571D01*
X228905714Y-155248571D02*
X229477142Y-155248571D01*
X229120000Y-154748571D02*
X229120000Y-156034285D01*
X229191428Y-156177142D01*
X229334285Y-156248571D01*
X229477142Y-156248571D01*
X230191428Y-156248571D02*
X230048571Y-156177142D01*
X229977142Y-156105714D01*
X229905714Y-155962857D01*
X229905714Y-155534285D01*
X229977142Y-155391428D01*
X230048571Y-155320000D01*
X230191428Y-155248571D01*
X230405714Y-155248571D01*
X230548571Y-155320000D01*
X230620000Y-155391428D01*
X230691428Y-155534285D01*
X230691428Y-155962857D01*
X230620000Y-156105714D01*
X230548571Y-156177142D01*
X230405714Y-156248571D01*
X230191428Y-156248571D01*
X228905714Y-158798571D02*
X228905714Y-157298571D01*
X228905714Y-157870000D02*
X229048571Y-157798571D01*
X229334285Y-157798571D01*
X229477142Y-157870000D01*
X229548571Y-157941428D01*
X229620000Y-158084285D01*
X229620000Y-158512857D01*
X229548571Y-158655714D01*
X229477142Y-158727142D01*
X229334285Y-158798571D01*
X229048571Y-158798571D01*
X228905714Y-158727142D01*
X230834285Y-158727142D02*
X230691428Y-158798571D01*
X230405714Y-158798571D01*
X230262857Y-158727142D01*
X230191428Y-158584285D01*
X230191428Y-158012857D01*
X230262857Y-157870000D01*
X230405714Y-157798571D01*
X230691428Y-157798571D01*
X230834285Y-157870000D01*
X230905714Y-158012857D01*
X230905714Y-158155714D01*
X230191428Y-158298571D01*
X227870000Y-160348571D02*
X228155714Y-161348571D01*
X228441428Y-160634285D01*
X228727142Y-161348571D01*
X229012857Y-160348571D01*
X229584285Y-161348571D02*
X229584285Y-160348571D01*
X229584285Y-159848571D02*
X229512857Y-159920000D01*
X229584285Y-159991428D01*
X229655714Y-159920000D01*
X229584285Y-159848571D01*
X229584285Y-159991428D01*
X230512857Y-161348571D02*
X230370000Y-161277142D01*
X230298571Y-161134285D01*
X230298571Y-159848571D01*
X231727142Y-161348571D02*
X231727142Y-159848571D01*
X231727142Y-161277142D02*
X231584285Y-161348571D01*
X231298571Y-161348571D01*
X231155714Y-161277142D01*
X231084285Y-161205714D01*
X231012857Y-161062857D01*
X231012857Y-160634285D01*
X231084285Y-160491428D01*
X231155714Y-160420000D01*
X231298571Y-160348571D01*
X231584285Y-160348571D01*
X231727142Y-160420000D01*
D11*
X299128571Y-199415000D02*
X297628571Y-199415000D01*
X297628571Y-198843571D01*
X297700000Y-198700714D01*
X297771428Y-198629285D01*
X297914285Y-198557857D01*
X298128571Y-198557857D01*
X298271428Y-198629285D01*
X298342857Y-198700714D01*
X298414285Y-198843571D01*
X298414285Y-199415000D01*
X299128571Y-197057857D02*
X298414285Y-197557857D01*
X299128571Y-197915000D02*
X297628571Y-197915000D01*
X297628571Y-197343571D01*
X297700000Y-197200714D01*
X297771428Y-197129285D01*
X297914285Y-197057857D01*
X298128571Y-197057857D01*
X298271428Y-197129285D01*
X298342857Y-197200714D01*
X298414285Y-197343571D01*
X298414285Y-197915000D01*
X297628571Y-196129285D02*
X297628571Y-195843571D01*
X297700000Y-195700714D01*
X297842857Y-195557857D01*
X298128571Y-195486428D01*
X298628571Y-195486428D01*
X298914285Y-195557857D01*
X299057142Y-195700714D01*
X299128571Y-195843571D01*
X299128571Y-196129285D01*
X299057142Y-196272142D01*
X298914285Y-196415000D01*
X298628571Y-196486428D01*
X298128571Y-196486428D01*
X297842857Y-196415000D01*
X297700000Y-196272142D01*
X297628571Y-196129285D01*
X297628571Y-195057857D02*
X297628571Y-194200714D01*
X299128571Y-194629285D02*
X297628571Y-194629285D01*
X298342857Y-193700714D02*
X298342857Y-193200714D01*
X299128571Y-192986428D02*
X299128571Y-193700714D01*
X297628571Y-193700714D01*
X297628571Y-192986428D01*
X298700000Y-192415000D02*
X298700000Y-191700714D01*
X299128571Y-192557857D02*
X297628571Y-192057857D01*
X299128571Y-191557857D01*
X299128571Y-191057857D02*
X297628571Y-191057857D01*
X299128571Y-190200714D01*
X297628571Y-190200714D01*
X298557142Y-188343571D02*
X298557142Y-187200714D01*
X299128571Y-185343571D02*
X297628571Y-185343571D01*
X298700000Y-184843571D01*
X297628571Y-184343571D01*
X299128571Y-184343571D01*
X299128571Y-183415000D02*
X299057142Y-183557857D01*
X298985714Y-183629285D01*
X298842857Y-183700714D01*
X298414285Y-183700714D01*
X298271428Y-183629285D01*
X298200000Y-183557857D01*
X298128571Y-183415000D01*
X298128571Y-183200714D01*
X298200000Y-183057857D01*
X298271428Y-182986428D01*
X298414285Y-182915000D01*
X298842857Y-182915000D01*
X298985714Y-182986428D01*
X299057142Y-183057857D01*
X299128571Y-183200714D01*
X299128571Y-183415000D01*
X298128571Y-182486428D02*
X298128571Y-181915000D01*
X297628571Y-182272142D02*
X298914285Y-182272142D01*
X299057142Y-182200714D01*
X299128571Y-182057857D01*
X299128571Y-181915000D01*
X299128571Y-181415000D02*
X298128571Y-181415000D01*
X297628571Y-181415000D02*
X297700000Y-181486428D01*
X297771428Y-181415000D01*
X297700000Y-181343571D01*
X297628571Y-181415000D01*
X297771428Y-181415000D01*
X299128571Y-180486428D02*
X299057142Y-180629285D01*
X298985714Y-180700714D01*
X298842857Y-180772142D01*
X298414285Y-180772142D01*
X298271428Y-180700714D01*
X298200000Y-180629285D01*
X298128571Y-180486428D01*
X298128571Y-180272142D01*
X298200000Y-180129285D01*
X298271428Y-180057857D01*
X298414285Y-179986428D01*
X298842857Y-179986428D01*
X298985714Y-180057857D01*
X299057142Y-180129285D01*
X299128571Y-180272142D01*
X299128571Y-180486428D01*
X298128571Y-179343571D02*
X299128571Y-179343571D01*
X298271428Y-179343571D02*
X298200000Y-179272142D01*
X298128571Y-179129285D01*
X298128571Y-178915000D01*
X298200000Y-178772142D01*
X298342857Y-178700714D01*
X299128571Y-178700714D01*
X297628571Y-177057857D02*
X297628571Y-176200714D01*
X299128571Y-176629285D02*
X297628571Y-176629285D01*
X299057142Y-175129285D02*
X299128571Y-175272142D01*
X299128571Y-175557857D01*
X299057142Y-175700714D01*
X298914285Y-175772142D01*
X298342857Y-175772142D01*
X298200000Y-175700714D01*
X298128571Y-175557857D01*
X298128571Y-175272142D01*
X298200000Y-175129285D01*
X298342857Y-175057857D01*
X298485714Y-175057857D01*
X298628571Y-175772142D01*
X299128571Y-174557857D02*
X298128571Y-173772142D01*
X298128571Y-174557857D02*
X299128571Y-173772142D01*
X298128571Y-173415000D02*
X298128571Y-172843571D01*
X297628571Y-173200714D02*
X298914285Y-173200714D01*
X299057142Y-173129285D01*
X299128571Y-172986428D01*
X299128571Y-172843571D01*
X298128571Y-171700714D02*
X299128571Y-171700714D01*
X298128571Y-172343571D02*
X298914285Y-172343571D01*
X299057142Y-172272142D01*
X299128571Y-172129285D01*
X299128571Y-171915000D01*
X299057142Y-171772142D01*
X298985714Y-171700714D01*
X299128571Y-170986428D02*
X298128571Y-170986428D01*
X298414285Y-170986428D02*
X298271428Y-170915000D01*
X298200000Y-170843571D01*
X298128571Y-170700714D01*
X298128571Y-170557857D01*
X299057142Y-169486428D02*
X299128571Y-169629285D01*
X299128571Y-169915000D01*
X299057142Y-170057857D01*
X298914285Y-170129285D01*
X298342857Y-170129285D01*
X298200000Y-170057857D01*
X298128571Y-169915000D01*
X298128571Y-169629285D01*
X298200000Y-169486428D01*
X298342857Y-169415000D01*
X298485714Y-169415000D01*
X298628571Y-170129285D01*
X299057142Y-167700714D02*
X299128571Y-167486428D01*
X299128571Y-167129285D01*
X299057142Y-166986428D01*
X298985714Y-166915000D01*
X298842857Y-166843571D01*
X298700000Y-166843571D01*
X298557142Y-166915000D01*
X298485714Y-166986428D01*
X298414285Y-167129285D01*
X298342857Y-167415000D01*
X298271428Y-167557857D01*
X298200000Y-167629285D01*
X298057142Y-167700714D01*
X297914285Y-167700714D01*
X297771428Y-167629285D01*
X297700000Y-167557857D01*
X297628571Y-167415000D01*
X297628571Y-167057857D01*
X297700000Y-166843571D01*
X299128571Y-165986428D02*
X299057142Y-166129285D01*
X298985714Y-166200714D01*
X298842857Y-166272142D01*
X298414285Y-166272142D01*
X298271428Y-166200714D01*
X298200000Y-166129285D01*
X298128571Y-165986428D01*
X298128571Y-165772142D01*
X298200000Y-165629285D01*
X298271428Y-165557857D01*
X298414285Y-165486428D01*
X298842857Y-165486428D01*
X298985714Y-165557857D01*
X299057142Y-165629285D01*
X299128571Y-165772142D01*
X299128571Y-165986428D01*
X298128571Y-164200714D02*
X299128571Y-164200714D01*
X298128571Y-164843571D02*
X298914285Y-164843571D01*
X299057142Y-164772142D01*
X299128571Y-164629285D01*
X299128571Y-164415000D01*
X299057142Y-164272142D01*
X298985714Y-164200714D01*
X299128571Y-163486428D02*
X298128571Y-163486428D01*
X298414285Y-163486428D02*
X298271428Y-163415000D01*
X298200000Y-163343571D01*
X298128571Y-163200714D01*
X298128571Y-163057857D01*
X299057142Y-161915000D02*
X299128571Y-162057857D01*
X299128571Y-162343571D01*
X299057142Y-162486428D01*
X298985714Y-162557857D01*
X298842857Y-162629285D01*
X298414285Y-162629285D01*
X298271428Y-162557857D01*
X298200000Y-162486428D01*
X298128571Y-162343571D01*
X298128571Y-162057857D01*
X298200000Y-161915000D01*
X299057142Y-160700714D02*
X299128571Y-160843571D01*
X299128571Y-161129285D01*
X299057142Y-161272142D01*
X298914285Y-161343571D01*
X298342857Y-161343571D01*
X298200000Y-161272142D01*
X298128571Y-161129285D01*
X298128571Y-160843571D01*
X298200000Y-160700714D01*
X298342857Y-160629285D01*
X298485714Y-160629285D01*
X298628571Y-161343571D01*
X299128571Y-158843571D02*
X297628571Y-158843571D01*
X298700000Y-158343571D01*
X297628571Y-157843571D01*
X299128571Y-157843571D01*
X299128571Y-157129285D02*
X297628571Y-157129285D01*
X299128571Y-156272142D02*
X298271428Y-156915000D01*
X297628571Y-156272142D02*
X298485714Y-157129285D01*
X297771428Y-155700714D02*
X297700000Y-155629285D01*
X297628571Y-155486428D01*
X297628571Y-155129285D01*
X297700000Y-154986428D01*
X297771428Y-154915000D01*
X297914285Y-154843571D01*
X298057142Y-154843571D01*
X298271428Y-154915000D01*
X299128571Y-155772142D01*
X299128571Y-154843571D01*
D12*
X171450000Y-183515000D02*
X171450000Y-182245000D01*
X171450000Y-182245000D02*
X173990000Y-182245000D01*
X173990000Y-182245000D02*
X173990000Y-183515000D01*
X177800000Y-165735000D02*
X177800000Y-183515000D01*
X175260000Y-183515000D02*
X175260000Y-165735000D01*
X170180000Y-165735000D02*
X170180000Y-183515000D01*
X167640000Y-183515000D02*
X167640000Y-165735000D01*
X167640000Y-183515000D02*
X177800000Y-183515000D01*
X167640000Y-165735000D02*
X177800000Y-165735000D01*
X171450000Y-183515000D02*
X173990000Y-183515000D01*
X257175000Y-177165000D02*
X255905000Y-177165000D01*
X255905000Y-177165000D02*
X255905000Y-174625000D01*
X255905000Y-174625000D02*
X257175000Y-174625000D01*
X239395000Y-170815000D02*
X257175000Y-170815000D01*
X257175000Y-173355000D02*
X239395000Y-173355000D01*
X239395000Y-178435000D02*
X257175000Y-178435000D01*
X257175000Y-180975000D02*
X239395000Y-180975000D01*
X257175000Y-180975000D02*
X257175000Y-170815000D01*
X239395000Y-180975000D02*
X239395000Y-170815000D01*
X257175000Y-177165000D02*
X257175000Y-174625000D01*
X291609214Y-120015000D02*
G75*
G03X291609214Y-120015000I-1414214J0D01*
G01*
X240809214Y-120015000D02*
G75*
G03X240809214Y-120015000I-1414214J0D01*
G01*
X266209214Y-120015000D02*
G75*
G03X266209214Y-120015000I-1414214J0D01*
G01*
X127144214Y-154940000D02*
G75*
G03X127144214Y-154940000I-1414214J0D01*
G01*
X230649214Y-120015000D02*
G75*
G03X230649214Y-120015000I-1414214J0D01*
G01*
X193040000Y-128905000D02*
X193040000Y-129540000D01*
X193040000Y-121920000D02*
X193040000Y-122555000D01*
X193040000Y-122555000D02*
X194310000Y-122555000D01*
X194310000Y-122555000D02*
X194310000Y-128905000D01*
X194310000Y-128905000D02*
X192405000Y-128905000D01*
X192405000Y-128905000D02*
X191770000Y-128905000D01*
X191770000Y-128905000D02*
X191770000Y-122555000D01*
X191770000Y-122555000D02*
X193040000Y-122555000D01*
X142240000Y-128905000D02*
X142240000Y-129540000D01*
X142240000Y-121920000D02*
X142240000Y-122555000D01*
X142240000Y-122555000D02*
X143510000Y-122555000D01*
X143510000Y-122555000D02*
X143510000Y-128905000D01*
X143510000Y-128905000D02*
X141605000Y-128905000D01*
X141605000Y-128905000D02*
X140970000Y-128905000D01*
X140970000Y-128905000D02*
X140970000Y-122555000D01*
X140970000Y-122555000D02*
X142240000Y-122555000D01*
X167640000Y-128905000D02*
X167640000Y-129540000D01*
X167640000Y-121920000D02*
X167640000Y-122555000D01*
X167640000Y-122555000D02*
X168910000Y-122555000D01*
X168910000Y-122555000D02*
X168910000Y-128905000D01*
X168910000Y-128905000D02*
X167005000Y-128905000D01*
X167005000Y-128905000D02*
X166370000Y-128905000D01*
X166370000Y-128905000D02*
X166370000Y-122555000D01*
X166370000Y-122555000D02*
X167640000Y-122555000D01*
X218440000Y-128905000D02*
X218440000Y-129540000D01*
X218440000Y-121920000D02*
X218440000Y-122555000D01*
X218440000Y-122555000D02*
X219710000Y-122555000D01*
X219710000Y-122555000D02*
X219710000Y-128905000D01*
X219710000Y-128905000D02*
X217805000Y-128905000D01*
X217805000Y-128905000D02*
X217170000Y-128905000D01*
X217170000Y-128905000D02*
X217170000Y-122555000D01*
X217170000Y-122555000D02*
X218440000Y-122555000D01*
X194945000Y-189230000D02*
X194310000Y-189230000D01*
X201930000Y-189230000D02*
X201295000Y-189230000D01*
X201295000Y-189230000D02*
X201295000Y-190500000D01*
X201295000Y-190500000D02*
X194945000Y-190500000D01*
X194945000Y-190500000D02*
X194945000Y-188595000D01*
X194945000Y-188595000D02*
X194945000Y-187960000D01*
X194945000Y-187960000D02*
X201295000Y-187960000D01*
X201295000Y-187960000D02*
X201295000Y-189230000D01*
X153035000Y-177800000D02*
X153670000Y-177800000D01*
X146050000Y-177800000D02*
X146685000Y-177800000D01*
X146685000Y-177800000D02*
X146685000Y-176530000D01*
X146685000Y-176530000D02*
X153035000Y-176530000D01*
X153035000Y-176530000D02*
X153035000Y-178435000D01*
X153035000Y-178435000D02*
X153035000Y-179070000D01*
X153035000Y-179070000D02*
X146685000Y-179070000D01*
X146685000Y-179070000D02*
X146685000Y-177800000D01*
X190500000Y-177800000D02*
X189865000Y-177800000D01*
X197485000Y-177800000D02*
X196850000Y-177800000D01*
X196850000Y-177800000D02*
X196850000Y-179070000D01*
X196850000Y-179070000D02*
X190500000Y-179070000D01*
X190500000Y-179070000D02*
X190500000Y-177165000D01*
X190500000Y-177165000D02*
X190500000Y-176530000D01*
X190500000Y-176530000D02*
X196850000Y-176530000D01*
X196850000Y-176530000D02*
X196850000Y-177800000D01*
X169545000Y-189230000D02*
X168910000Y-189230000D01*
X176530000Y-189230000D02*
X175895000Y-189230000D01*
X175895000Y-189230000D02*
X175895000Y-190500000D01*
X175895000Y-190500000D02*
X169545000Y-190500000D01*
X169545000Y-190500000D02*
X169545000Y-188595000D01*
X169545000Y-188595000D02*
X169545000Y-187960000D01*
X169545000Y-187960000D02*
X175895000Y-187960000D01*
X175895000Y-187960000D02*
X175895000Y-189230000D01*
X298450000Y-131445000D02*
X298450000Y-132080000D01*
X298450000Y-124460000D02*
X298450000Y-125095000D01*
X298450000Y-125095000D02*
X299720000Y-125095000D01*
X299720000Y-125095000D02*
X299720000Y-131445000D01*
X299720000Y-131445000D02*
X297815000Y-131445000D01*
X297815000Y-131445000D02*
X297180000Y-131445000D01*
X297180000Y-131445000D02*
X297180000Y-125095000D01*
X297180000Y-125095000D02*
X298450000Y-125095000D01*
X207645000Y-177800000D02*
X207010000Y-177800000D01*
X214630000Y-177800000D02*
X213995000Y-177800000D01*
X213995000Y-177800000D02*
X213995000Y-179070000D01*
X213995000Y-179070000D02*
X207645000Y-179070000D01*
X207645000Y-179070000D02*
X207645000Y-177165000D01*
X207645000Y-177165000D02*
X207645000Y-176530000D01*
X207645000Y-176530000D02*
X213995000Y-176530000D01*
X213995000Y-176530000D02*
X213995000Y-177800000D01*
X229870000Y-144145000D02*
X229870000Y-143510000D01*
X229870000Y-151130000D02*
X229870000Y-150495000D01*
X229870000Y-150495000D02*
X228600000Y-150495000D01*
X228600000Y-150495000D02*
X228600000Y-144145000D01*
X228600000Y-144145000D02*
X230505000Y-144145000D01*
X230505000Y-144145000D02*
X231140000Y-144145000D01*
X231140000Y-144145000D02*
X231140000Y-150495000D01*
X231140000Y-150495000D02*
X229870000Y-150495000D01*
X226695000Y-150495000D02*
X226695000Y-151130000D01*
X226695000Y-143510000D02*
X226695000Y-144145000D01*
X226695000Y-144145000D02*
X227965000Y-144145000D01*
X227965000Y-144145000D02*
X227965000Y-150495000D01*
X227965000Y-150495000D02*
X226060000Y-150495000D01*
X226060000Y-150495000D02*
X225425000Y-150495000D01*
X225425000Y-150495000D02*
X225425000Y-144145000D01*
X225425000Y-144145000D02*
X226695000Y-144145000D01*
X144145000Y-189230000D02*
X143510000Y-189230000D01*
X151130000Y-189230000D02*
X150495000Y-189230000D01*
X150495000Y-189230000D02*
X150495000Y-190500000D01*
X150495000Y-190500000D02*
X144145000Y-190500000D01*
X144145000Y-190500000D02*
X144145000Y-188595000D01*
X144145000Y-188595000D02*
X144145000Y-187960000D01*
X144145000Y-187960000D02*
X150495000Y-187960000D01*
X150495000Y-187960000D02*
X150495000Y-189230000D01*
X271780000Y-156210000D02*
X271780000Y-156845000D01*
X271780000Y-149225000D02*
X271780000Y-149860000D01*
X271780000Y-149860000D02*
X273050000Y-149860000D01*
X273050000Y-149860000D02*
X273050000Y-156210000D01*
X273050000Y-156210000D02*
X271145000Y-156210000D01*
X271145000Y-156210000D02*
X270510000Y-156210000D01*
X270510000Y-156210000D02*
X270510000Y-149860000D01*
X270510000Y-149860000D02*
X271780000Y-149860000D01*
X266700000Y-172720000D02*
X267335000Y-172720000D01*
X259715000Y-172720000D02*
X260350000Y-172720000D01*
X260350000Y-172720000D02*
X260350000Y-171450000D01*
X260350000Y-171450000D02*
X266700000Y-171450000D01*
X266700000Y-171450000D02*
X266700000Y-173355000D01*
X266700000Y-173355000D02*
X266700000Y-173990000D01*
X266700000Y-173990000D02*
X260350000Y-173990000D01*
X260350000Y-173990000D02*
X260350000Y-172720000D01*
X224790000Y-175260000D02*
X224790000Y-175895000D01*
X224790000Y-168275000D02*
X224790000Y-168910000D01*
X224790000Y-168910000D02*
X226060000Y-168910000D01*
X226060000Y-168910000D02*
X226060000Y-175260000D01*
X226060000Y-175260000D02*
X224155000Y-175260000D01*
X224155000Y-175260000D02*
X223520000Y-175260000D01*
X223520000Y-175260000D02*
X223520000Y-168910000D01*
X223520000Y-168910000D02*
X224790000Y-168910000D01*
X272415000Y-131445000D02*
X272415000Y-132080000D01*
X272415000Y-124460000D02*
X272415000Y-125095000D01*
X272415000Y-125095000D02*
X273685000Y-125095000D01*
X273685000Y-125095000D02*
X273685000Y-131445000D01*
X273685000Y-131445000D02*
X271780000Y-131445000D01*
X271780000Y-131445000D02*
X271145000Y-131445000D01*
X271145000Y-131445000D02*
X271145000Y-125095000D01*
X271145000Y-125095000D02*
X272415000Y-125095000D01*
X137795000Y-146050000D02*
X138430000Y-146050000D01*
X130810000Y-146050000D02*
X131445000Y-146050000D01*
X131445000Y-146050000D02*
X131445000Y-144780000D01*
X131445000Y-144780000D02*
X137795000Y-144780000D01*
X137795000Y-144780000D02*
X137795000Y-146685000D01*
X137795000Y-146685000D02*
X137795000Y-147320000D01*
X137795000Y-147320000D02*
X131445000Y-147320000D01*
X131445000Y-147320000D02*
X131445000Y-146050000D01*
X255905000Y-194310000D02*
X255905000Y-194945000D01*
X255905000Y-187325000D02*
X255905000Y-187960000D01*
X255905000Y-187960000D02*
X257175000Y-187960000D01*
X257175000Y-187960000D02*
X257175000Y-194310000D01*
X257175000Y-194310000D02*
X255270000Y-194310000D01*
X255270000Y-194310000D02*
X254635000Y-194310000D01*
X254635000Y-194310000D02*
X254635000Y-187960000D01*
X254635000Y-187960000D02*
X255905000Y-187960000D01*
X247015000Y-131445000D02*
X247015000Y-132080000D01*
X247015000Y-124460000D02*
X247015000Y-125095000D01*
X247015000Y-125095000D02*
X248285000Y-125095000D01*
X248285000Y-125095000D02*
X248285000Y-131445000D01*
X248285000Y-131445000D02*
X246380000Y-131445000D01*
X246380000Y-131445000D02*
X245745000Y-131445000D01*
X245745000Y-131445000D02*
X245745000Y-125095000D01*
X245745000Y-125095000D02*
X247015000Y-125095000D01*
X275590000Y-187960000D02*
X275590000Y-187325000D01*
X275590000Y-194945000D02*
X275590000Y-194310000D01*
X275590000Y-194310000D02*
X274320000Y-194310000D01*
X274320000Y-194310000D02*
X274320000Y-187960000D01*
X274320000Y-187960000D02*
X276225000Y-187960000D01*
X276225000Y-187960000D02*
X276860000Y-187960000D01*
X276860000Y-187960000D02*
X276860000Y-194310000D01*
X276860000Y-194310000D02*
X275590000Y-194310000D01*
X153670000Y-146050000D02*
X154305000Y-146050000D01*
X146685000Y-146050000D02*
X147320000Y-146050000D01*
X147320000Y-146050000D02*
X147320000Y-144780000D01*
X147320000Y-144780000D02*
X153670000Y-144780000D01*
X153670000Y-144780000D02*
X153670000Y-146685000D01*
X153670000Y-146685000D02*
X153670000Y-147320000D01*
X153670000Y-147320000D02*
X147320000Y-147320000D01*
X147320000Y-147320000D02*
X147320000Y-146050000D01*
X279400000Y-187960000D02*
X279400000Y-187325000D01*
X279400000Y-194945000D02*
X279400000Y-194310000D01*
X279400000Y-194310000D02*
X278130000Y-194310000D01*
X278130000Y-194310000D02*
X278130000Y-187960000D01*
X278130000Y-187960000D02*
X280035000Y-187960000D01*
X280035000Y-187960000D02*
X280670000Y-187960000D01*
X280670000Y-187960000D02*
X280670000Y-194310000D01*
X280670000Y-194310000D02*
X279400000Y-194310000D01*
X191135000Y-146050000D02*
X190500000Y-146050000D01*
X198120000Y-146050000D02*
X197485000Y-146050000D01*
X197485000Y-146050000D02*
X197485000Y-147320000D01*
X197485000Y-147320000D02*
X191135000Y-147320000D01*
X191135000Y-147320000D02*
X191135000Y-145415000D01*
X191135000Y-145415000D02*
X191135000Y-144780000D01*
X191135000Y-144780000D02*
X197485000Y-144780000D01*
X197485000Y-144780000D02*
X197485000Y-146050000D01*
X234950000Y-183515000D02*
X234950000Y-184150000D01*
X234950000Y-176530000D02*
X234950000Y-177165000D01*
X234950000Y-177165000D02*
X236220000Y-177165000D01*
X236220000Y-177165000D02*
X236220000Y-183515000D01*
X236220000Y-183515000D02*
X234315000Y-183515000D01*
X234315000Y-183515000D02*
X233680000Y-183515000D01*
X233680000Y-183515000D02*
X233680000Y-177165000D01*
X233680000Y-177165000D02*
X234950000Y-177165000D01*
X221615000Y-187325000D02*
X221615000Y-187960000D01*
X221615000Y-180340000D02*
X221615000Y-180975000D01*
X221615000Y-180975000D02*
X222885000Y-180975000D01*
X222885000Y-180975000D02*
X222885000Y-187325000D01*
X222885000Y-187325000D02*
X220980000Y-187325000D01*
X220980000Y-187325000D02*
X220345000Y-187325000D01*
X220345000Y-187325000D02*
X220345000Y-180975000D01*
X220345000Y-180975000D02*
X221615000Y-180975000D01*
X207645000Y-146050000D02*
X207010000Y-146050000D01*
X214630000Y-146050000D02*
X213995000Y-146050000D01*
X213995000Y-146050000D02*
X213995000Y-147320000D01*
X213995000Y-147320000D02*
X207645000Y-147320000D01*
X207645000Y-147320000D02*
X207645000Y-145415000D01*
X207645000Y-145415000D02*
X207645000Y-144780000D01*
X207645000Y-144780000D02*
X213995000Y-144780000D01*
X213995000Y-144780000D02*
X213995000Y-146050000D01*
X281940000Y-179705000D02*
X280670000Y-179705000D01*
X280670000Y-179705000D02*
X280670000Y-177165000D01*
X280670000Y-177165000D02*
X281940000Y-177165000D01*
X281940000Y-183515000D02*
X271780000Y-183515000D01*
X271780000Y-183515000D02*
X271780000Y-173355000D01*
X271780000Y-173355000D02*
X281940000Y-173355000D01*
X281940000Y-173355000D02*
X281940000Y-183515000D01*
X271780000Y-175895000D02*
X281940000Y-175895000D01*
X281940000Y-180975000D02*
X271780000Y-180975000D01*
X283845000Y-154940000D02*
X282575000Y-154940000D01*
X282575000Y-154940000D02*
X282575000Y-152400000D01*
X282575000Y-152400000D02*
X283845000Y-152400000D01*
X283845000Y-158750000D02*
X273685000Y-158750000D01*
X273685000Y-158750000D02*
X273685000Y-148590000D01*
X273685000Y-148590000D02*
X283845000Y-148590000D01*
X283845000Y-148590000D02*
X283845000Y-158750000D01*
X273685000Y-151130000D02*
X283845000Y-151130000D01*
X283845000Y-156210000D02*
X273685000Y-156210000D01*
X250190000Y-163195000D02*
X250190000Y-161925000D01*
X250190000Y-161925000D02*
X252730000Y-161925000D01*
X252730000Y-161925000D02*
X252730000Y-163195000D01*
X256540000Y-145415000D02*
X256540000Y-163195000D01*
X254000000Y-163195000D02*
X254000000Y-145415000D01*
X248920000Y-145415000D02*
X248920000Y-163195000D01*
X246380000Y-163195000D02*
X246380000Y-145415000D01*
X246380000Y-163195000D02*
X256540000Y-163195000D01*
X246380000Y-145415000D02*
X256540000Y-145415000D01*
X250190000Y-163195000D02*
X252730000Y-163195000D01*
X170815000Y-153035000D02*
X170815000Y-151765000D01*
X170815000Y-151765000D02*
X173355000Y-151765000D01*
X173355000Y-151765000D02*
X173355000Y-153035000D01*
X177165000Y-135255000D02*
X177165000Y-153035000D01*
X174625000Y-153035000D02*
X174625000Y-135255000D01*
X169545000Y-135255000D02*
X169545000Y-153035000D01*
X167005000Y-153035000D02*
X167005000Y-135255000D01*
X167005000Y-153035000D02*
X177165000Y-153035000D01*
X167005000Y-135255000D02*
X177165000Y-135255000D01*
X170815000Y-153035000D02*
X173355000Y-153035000D01*
X264160000Y-151003000D02*
X264160000Y-151257000D01*
X263525000Y-147447000D02*
X263525000Y-151003000D01*
X264795000Y-147447000D02*
X264795000Y-151003000D01*
X264795000Y-151003000D02*
X263525000Y-151003000D01*
X264160000Y-147447000D02*
X264160000Y-147193000D01*
X264160000Y-147193000D02*
X264160000Y-147447000D01*
X264795000Y-147447000D02*
X263525000Y-147447000D01*
X263525000Y-147955000D02*
X264795000Y-147955000D01*
X206375000Y-139065000D02*
X215265000Y-139065000D01*
X215265000Y-139065000D02*
X215265000Y-142875000D01*
X215265000Y-142875000D02*
X206375000Y-142875000D01*
X206375000Y-142875000D02*
X206375000Y-139065000D01*
X161925000Y-173990000D02*
X161925000Y-182880000D01*
X161925000Y-182880000D02*
X158115000Y-182880000D01*
X158115000Y-182880000D02*
X158115000Y-173990000D01*
X158115000Y-173990000D02*
X161925000Y-173990000D01*
X253365000Y-132715000D02*
X253365000Y-123825000D01*
X253365000Y-123825000D02*
X257175000Y-123825000D01*
X257175000Y-123825000D02*
X257175000Y-132715000D01*
X257175000Y-132715000D02*
X253365000Y-132715000D01*
X149225000Y-158115000D02*
X149225000Y-167005000D01*
X149225000Y-167005000D02*
X145415000Y-167005000D01*
X145415000Y-167005000D02*
X145415000Y-158115000D01*
X145415000Y-158115000D02*
X149225000Y-158115000D01*
X139065000Y-142875000D02*
X130175000Y-142875000D01*
X130175000Y-142875000D02*
X130175000Y-139065000D01*
X130175000Y-139065000D02*
X139065000Y-139065000D01*
X139065000Y-139065000D02*
X139065000Y-142875000D01*
X154940000Y-142875000D02*
X146050000Y-142875000D01*
X146050000Y-142875000D02*
X146050000Y-139065000D01*
X146050000Y-139065000D02*
X154940000Y-139065000D01*
X154940000Y-139065000D02*
X154940000Y-142875000D01*
X189865000Y-139065000D02*
X198755000Y-139065000D01*
X198755000Y-139065000D02*
X198755000Y-142875000D01*
X198755000Y-142875000D02*
X189865000Y-142875000D01*
X189865000Y-142875000D02*
X189865000Y-139065000D01*
X202565000Y-196215000D02*
X193675000Y-196215000D01*
X193675000Y-196215000D02*
X193675000Y-192405000D01*
X193675000Y-192405000D02*
X202565000Y-192405000D01*
X202565000Y-192405000D02*
X202565000Y-196215000D01*
X154305000Y-174625000D02*
X145415000Y-174625000D01*
X145415000Y-174625000D02*
X145415000Y-170815000D01*
X145415000Y-170815000D02*
X154305000Y-170815000D01*
X154305000Y-170815000D02*
X154305000Y-174625000D01*
X198120000Y-174625000D02*
X189230000Y-174625000D01*
X189230000Y-174625000D02*
X189230000Y-170815000D01*
X189230000Y-170815000D02*
X198120000Y-170815000D01*
X198120000Y-170815000D02*
X198120000Y-174625000D01*
X170180000Y-129540000D02*
X179070000Y-129540000D01*
X179070000Y-129540000D02*
X179070000Y-133350000D01*
X179070000Y-133350000D02*
X170180000Y-133350000D01*
X170180000Y-133350000D02*
X170180000Y-129540000D01*
X227965000Y-135890000D02*
X219075000Y-135890000D01*
X219075000Y-135890000D02*
X219075000Y-132080000D01*
X219075000Y-132080000D02*
X227965000Y-132080000D01*
X227965000Y-132080000D02*
X227965000Y-135890000D01*
X206375000Y-170815000D02*
X215265000Y-170815000D01*
X215265000Y-170815000D02*
X215265000Y-174625000D01*
X215265000Y-174625000D02*
X206375000Y-174625000D01*
X206375000Y-174625000D02*
X206375000Y-170815000D01*
X151765000Y-196215000D02*
X142875000Y-196215000D01*
X142875000Y-196215000D02*
X142875000Y-192405000D01*
X142875000Y-192405000D02*
X151765000Y-192405000D01*
X151765000Y-192405000D02*
X151765000Y-196215000D01*
X177165000Y-196215000D02*
X168275000Y-196215000D01*
X168275000Y-196215000D02*
X168275000Y-192405000D01*
X168275000Y-192405000D02*
X177165000Y-192405000D01*
X177165000Y-192405000D02*
X177165000Y-196215000D01*
X142925800Y-153098500D02*
X135305800Y-153098500D01*
X142925800Y-168338500D02*
X135305800Y-168338500D01*
X135305800Y-153098500D02*
X135305800Y-168338500D01*
X142925800Y-168338500D02*
X142925800Y-153098500D01*
X280035000Y-139700000D02*
X281305000Y-139700000D01*
X278130000Y-139065000D02*
X278130000Y-140335000D01*
X277495000Y-139700000D02*
X278765000Y-139700000D01*
X281305000Y-141605000D02*
X281305000Y-142240000D01*
X277495000Y-141605000D02*
X277495000Y-142240000D01*
X276606000Y-130175000D02*
X282194000Y-130175000D01*
X276606000Y-141605000D02*
X282194000Y-141605000D01*
X282194000Y-130175000D02*
X282194000Y-141605000D01*
X276606000Y-130175000D02*
X276606000Y-141605000D01*
X240030000Y-141605000D02*
X240030000Y-142875000D01*
X240665000Y-139700000D02*
X239395000Y-139700000D01*
X240030000Y-139065000D02*
X240030000Y-140335000D01*
X238125000Y-142875000D02*
X237490000Y-142875000D01*
X238125000Y-139065000D02*
X237490000Y-139065000D01*
X249555000Y-138176000D02*
X249555000Y-143764000D01*
X238125000Y-138176000D02*
X238125000Y-143764000D01*
X249555000Y-143764000D02*
X238125000Y-143764000D01*
X249555000Y-138176000D02*
X238125000Y-138176000D01*
X228600000Y-194310000D02*
X228600000Y-193040000D01*
X227965000Y-196215000D02*
X229235000Y-196215000D01*
X228600000Y-196850000D02*
X228600000Y-195580000D01*
X230505000Y-193040000D02*
X231140000Y-193040000D01*
X230505000Y-196850000D02*
X231140000Y-196850000D01*
X219075000Y-197739000D02*
X219075000Y-192151000D01*
X230505000Y-197739000D02*
X230505000Y-192151000D01*
X219075000Y-192151000D02*
X230505000Y-192151000D01*
X219075000Y-197739000D02*
X230505000Y-197739000D01*
X265430000Y-141605000D02*
X265430000Y-142875000D01*
X266065000Y-139700000D02*
X264795000Y-139700000D01*
X265430000Y-139065000D02*
X265430000Y-140335000D01*
X263525000Y-142875000D02*
X262890000Y-142875000D01*
X263525000Y-139065000D02*
X262890000Y-139065000D01*
X274955000Y-138176000D02*
X274955000Y-143764000D01*
X263525000Y-138176000D02*
X263525000Y-143764000D01*
X274955000Y-143764000D02*
X263525000Y-143764000D01*
X274955000Y-138176000D02*
X263525000Y-138176000D01*
X290830000Y-141605000D02*
X290830000Y-142875000D01*
X291465000Y-139700000D02*
X290195000Y-139700000D01*
X290830000Y-139065000D02*
X290830000Y-140335000D01*
X288925000Y-142875000D02*
X288290000Y-142875000D01*
X288925000Y-139065000D02*
X288290000Y-139065000D01*
X300355000Y-138176000D02*
X300355000Y-143764000D01*
X288925000Y-138176000D02*
X288925000Y-143764000D01*
X300355000Y-143764000D02*
X288925000Y-143764000D01*
X300355000Y-138176000D02*
X288925000Y-138176000D01*
X134620000Y-182880000D02*
X143510000Y-182880000D01*
X134620000Y-170180000D02*
X143510000Y-170180000D01*
X143510000Y-170180000D02*
X143510000Y-182880000D01*
X134620000Y-182880000D02*
X134620000Y-170180000D01*
X140335000Y-180975000D02*
X141605000Y-180975000D01*
X136525000Y-180975000D02*
X137795000Y-180975000D01*
X137160000Y-180340000D02*
X137160000Y-181610000D01*
X123825000Y-171450000D02*
X132715000Y-171450000D01*
X123825000Y-158750000D02*
X132715000Y-158750000D01*
X132715000Y-158750000D02*
X132715000Y-171450000D01*
X123825000Y-171450000D02*
X123825000Y-158750000D01*
X129540000Y-169545000D02*
X130810000Y-169545000D01*
X125730000Y-169545000D02*
X127000000Y-169545000D01*
X126365000Y-168910000D02*
X126365000Y-170180000D01*
D13*
X131445000Y-177165000D02*
X131445000Y-182245000D01*
X128905000Y-177165000D02*
X128905000Y-182245000D01*
X126365000Y-177165000D02*
X126365000Y-182245000D01*
X132715000Y-182245000D02*
X123825000Y-182245000D01*
X123825000Y-182245000D02*
X123825000Y-197485000D01*
X123825000Y-197485000D02*
X133985000Y-197485000D01*
X132715000Y-182245000D02*
X133985000Y-182245000D01*
X125095000Y-189865000D02*
X133985000Y-189865000D01*
X125095000Y-189865000D02*
X123825000Y-189865000D01*
X133985000Y-182245000D02*
X133985000Y-197485000D01*
D12*
X129540000Y-122174000D02*
X139192000Y-122174000D01*
X129540000Y-126238000D02*
X129540000Y-122174000D01*
X139192000Y-126238000D02*
X139192000Y-122174000D01*
X129540000Y-133858000D02*
X129540000Y-128524000D01*
X129540000Y-133858000D02*
X139192000Y-133858000D01*
X139192000Y-133858000D02*
X139192000Y-128524000D01*
X136271000Y-127373380D02*
X132461000Y-127373380D01*
X134366000Y-125468380D02*
X134366000Y-129278380D01*
X136271000Y-127373380D02*
G75*
G03X136271000Y-127373380I-1905000J0D01*
G01*
X154940000Y-122174000D02*
X164592000Y-122174000D01*
X154940000Y-126238000D02*
X154940000Y-122174000D01*
X164592000Y-126238000D02*
X164592000Y-122174000D01*
X154940000Y-133858000D02*
X154940000Y-128524000D01*
X154940000Y-133858000D02*
X164592000Y-133858000D01*
X164592000Y-133858000D02*
X164592000Y-128524000D01*
X161671000Y-127373380D02*
X157861000Y-127373380D01*
X159766000Y-125468380D02*
X159766000Y-129278380D01*
X161671000Y-127373380D02*
G75*
G03X161671000Y-127373380I-1905000J0D01*
G01*
X180340000Y-122174000D02*
X189992000Y-122174000D01*
X180340000Y-126238000D02*
X180340000Y-122174000D01*
X189992000Y-126238000D02*
X189992000Y-122174000D01*
X180340000Y-133858000D02*
X180340000Y-128524000D01*
X180340000Y-133858000D02*
X189992000Y-133858000D01*
X189992000Y-133858000D02*
X189992000Y-128524000D01*
X187071000Y-127373380D02*
X183261000Y-127373380D01*
X185166000Y-125468380D02*
X185166000Y-129278380D01*
X187071000Y-127373380D02*
G75*
G03X187071000Y-127373380I-1905000J0D01*
G01*
X205740000Y-122174000D02*
X215392000Y-122174000D01*
X205740000Y-126238000D02*
X205740000Y-122174000D01*
X215392000Y-126238000D02*
X215392000Y-122174000D01*
X205740000Y-133858000D02*
X205740000Y-128524000D01*
X205740000Y-133858000D02*
X215392000Y-133858000D01*
X215392000Y-133858000D02*
X215392000Y-128524000D01*
X212471000Y-127373380D02*
X208661000Y-127373380D01*
X210566000Y-125468380D02*
X210566000Y-129278380D01*
X212471000Y-127373380D02*
G75*
G03X212471000Y-127373380I-1905000J0D01*
G01*
X234315000Y-122174000D02*
X243967000Y-122174000D01*
X234315000Y-126238000D02*
X234315000Y-122174000D01*
X243967000Y-126238000D02*
X243967000Y-122174000D01*
X234315000Y-133858000D02*
X234315000Y-128524000D01*
X234315000Y-133858000D02*
X243967000Y-133858000D01*
X243967000Y-133858000D02*
X243967000Y-128524000D01*
X241046000Y-127373380D02*
X237236000Y-127373380D01*
X239141000Y-125468380D02*
X239141000Y-129278380D01*
X241046000Y-127373380D02*
G75*
G03X241046000Y-127373380I-1905000J0D01*
G01*
X259715000Y-122174000D02*
X269367000Y-122174000D01*
X259715000Y-126238000D02*
X259715000Y-122174000D01*
X269367000Y-126238000D02*
X269367000Y-122174000D01*
X259715000Y-133858000D02*
X259715000Y-128524000D01*
X259715000Y-133858000D02*
X269367000Y-133858000D01*
X269367000Y-133858000D02*
X269367000Y-128524000D01*
X266446000Y-127373380D02*
X262636000Y-127373380D01*
X264541000Y-125468380D02*
X264541000Y-129278380D01*
X266446000Y-127373380D02*
G75*
G03X266446000Y-127373380I-1905000J0D01*
G01*
X285115000Y-122174000D02*
X294767000Y-122174000D01*
X285115000Y-126238000D02*
X285115000Y-122174000D01*
X294767000Y-126238000D02*
X294767000Y-122174000D01*
X285115000Y-133858000D02*
X285115000Y-128524000D01*
X285115000Y-133858000D02*
X294767000Y-133858000D01*
X294767000Y-133858000D02*
X294767000Y-128524000D01*
X291846000Y-127373380D02*
X288036000Y-127373380D01*
X289941000Y-125468380D02*
X289941000Y-129278380D01*
X291846000Y-127373380D02*
G75*
G03X291846000Y-127373380I-1905000J0D01*
G01*
X154940000Y-155511500D02*
X164592000Y-155511500D01*
X154940000Y-159575500D02*
X154940000Y-155511500D01*
X164592000Y-159575500D02*
X164592000Y-155511500D01*
X154940000Y-167195500D02*
X154940000Y-161861500D01*
X154940000Y-167195500D02*
X164592000Y-167195500D01*
X164592000Y-167195500D02*
X164592000Y-161861500D01*
X161671000Y-160710880D02*
X157861000Y-160710880D01*
X159766000Y-158805880D02*
X159766000Y-162615880D01*
X161671000Y-160710880D02*
G75*
G03X161671000Y-160710880I-1905000J0D01*
G01*
X180340000Y-155511500D02*
X189992000Y-155511500D01*
X180340000Y-159575500D02*
X180340000Y-155511500D01*
X189992000Y-159575500D02*
X189992000Y-155511500D01*
X180340000Y-167195500D02*
X180340000Y-161861500D01*
X180340000Y-167195500D02*
X189992000Y-167195500D01*
X189992000Y-167195500D02*
X189992000Y-161861500D01*
X187071000Y-160710880D02*
X183261000Y-160710880D01*
X185166000Y-158805880D02*
X185166000Y-162615880D01*
X187071000Y-160710880D02*
G75*
G03X187071000Y-160710880I-1905000J0D01*
G01*
X205740000Y-155511500D02*
X215392000Y-155511500D01*
X205740000Y-159575500D02*
X205740000Y-155511500D01*
X215392000Y-159575500D02*
X215392000Y-155511500D01*
X205740000Y-167195500D02*
X205740000Y-161861500D01*
X205740000Y-167195500D02*
X215392000Y-167195500D01*
X215392000Y-167195500D02*
X215392000Y-161861500D01*
X212471000Y-160710880D02*
X208661000Y-160710880D01*
X210566000Y-158805880D02*
X210566000Y-162615880D01*
X212471000Y-160710880D02*
G75*
G03X212471000Y-160710880I-1905000J0D01*
G01*
X259715000Y-155511500D02*
X269367000Y-155511500D01*
X259715000Y-159575500D02*
X259715000Y-155511500D01*
X269367000Y-159575500D02*
X269367000Y-155511500D01*
X259715000Y-167195500D02*
X259715000Y-161861500D01*
X259715000Y-167195500D02*
X269367000Y-167195500D01*
X269367000Y-167195500D02*
X269367000Y-161861500D01*
X266446000Y-160710880D02*
X262636000Y-160710880D01*
X264541000Y-158805880D02*
X264541000Y-162615880D01*
X266446000Y-160710880D02*
G75*
G03X266446000Y-160710880I-1905000J0D01*
G01*
X285115000Y-155511500D02*
X294767000Y-155511500D01*
X285115000Y-159575500D02*
X285115000Y-155511500D01*
X294767000Y-159575500D02*
X294767000Y-155511500D01*
X285115000Y-167195500D02*
X285115000Y-161861500D01*
X285115000Y-167195500D02*
X294767000Y-167195500D01*
X294767000Y-167195500D02*
X294767000Y-161861500D01*
X291846000Y-160710880D02*
X288036000Y-160710880D01*
X289941000Y-158805880D02*
X289941000Y-162615880D01*
X291846000Y-160710880D02*
G75*
G03X291846000Y-160710880I-1905000J0D01*
G01*
X164592000Y-199263000D02*
X154940000Y-199263000D01*
X164592000Y-195199000D02*
X164592000Y-199263000D01*
X154940000Y-195199000D02*
X154940000Y-199263000D01*
X164592000Y-187579000D02*
X164592000Y-192913000D01*
X164592000Y-187579000D02*
X154940000Y-187579000D01*
X154940000Y-187579000D02*
X154940000Y-192913000D01*
X157861000Y-194063620D02*
X161671000Y-194063620D01*
X159766000Y-195968620D02*
X159766000Y-192158620D01*
X161671000Y-194063620D02*
G75*
G03X161671000Y-194063620I-1905000J0D01*
G01*
X189992000Y-199263000D02*
X180340000Y-199263000D01*
X189992000Y-195199000D02*
X189992000Y-199263000D01*
X180340000Y-195199000D02*
X180340000Y-199263000D01*
X189992000Y-187579000D02*
X189992000Y-192913000D01*
X189992000Y-187579000D02*
X180340000Y-187579000D01*
X180340000Y-187579000D02*
X180340000Y-192913000D01*
X183261000Y-194063620D02*
X187071000Y-194063620D01*
X185166000Y-195968620D02*
X185166000Y-192158620D01*
X187071000Y-194063620D02*
G75*
G03X187071000Y-194063620I-1905000J0D01*
G01*
X215392000Y-199263000D02*
X205740000Y-199263000D01*
X215392000Y-195199000D02*
X215392000Y-199263000D01*
X205740000Y-195199000D02*
X205740000Y-199263000D01*
X215392000Y-187579000D02*
X215392000Y-192913000D01*
X215392000Y-187579000D02*
X205740000Y-187579000D01*
X205740000Y-187579000D02*
X205740000Y-192913000D01*
X208661000Y-194063620D02*
X212471000Y-194063620D01*
X210566000Y-195968620D02*
X210566000Y-192158620D01*
X212471000Y-194063620D02*
G75*
G03X212471000Y-194063620I-1905000J0D01*
G01*
X269367000Y-199263000D02*
X259715000Y-199263000D01*
X269367000Y-195199000D02*
X269367000Y-199263000D01*
X259715000Y-195199000D02*
X259715000Y-199263000D01*
X269367000Y-187579000D02*
X269367000Y-192913000D01*
X269367000Y-187579000D02*
X259715000Y-187579000D01*
X259715000Y-187579000D02*
X259715000Y-192913000D01*
X262636000Y-194063620D02*
X266446000Y-194063620D01*
X264541000Y-195968620D02*
X264541000Y-192158620D01*
X266446000Y-194063620D02*
G75*
G03X266446000Y-194063620I-1905000J0D01*
G01*
X294767000Y-199263000D02*
X285115000Y-199263000D01*
X294767000Y-195199000D02*
X294767000Y-199263000D01*
X285115000Y-195199000D02*
X285115000Y-199263000D01*
X294767000Y-187579000D02*
X294767000Y-192913000D01*
X294767000Y-187579000D02*
X285115000Y-187579000D01*
X285115000Y-187579000D02*
X285115000Y-192913000D01*
X288036000Y-194063620D02*
X291846000Y-194063620D01*
X289941000Y-195968620D02*
X289941000Y-192158620D01*
X291846000Y-194063620D02*
G75*
G03X291846000Y-194063620I-1905000J0D01*
G01*
X175895000Y-156210000D02*
X168275000Y-156210000D01*
X168275000Y-156210000D02*
G75*
G03X167005000Y-157480000I0J-1270000D01*
G01*
X177165000Y-157480000D02*
G75*
G03X175895000Y-156210000I-1270000J0D01*
G01*
X218440000Y-153035000D02*
X218440000Y-160655000D01*
X218440000Y-160655000D02*
G75*
G03X219710000Y-161925000I1270000J0D01*
G01*
X219710000Y-151765000D02*
G75*
G03X218440000Y-153035000I0J-1270000D01*
G01*
X224155000Y-181610000D02*
X224155000Y-189230000D01*
X224155000Y-189230000D02*
G75*
G03X225425000Y-190500000I1270000J0D01*
G01*
X225425000Y-180340000D02*
G75*
G03X224155000Y-181610000I0J-1270000D01*
G01*
X150639214Y-130175000D02*
G75*
G03X150639214Y-130175000I-1414214J0D01*
G01*
X280814214Y-122555000D02*
G75*
G03X280814214Y-122555000I-1414214J0D01*
G01*
X292879214Y-177165000D02*
G75*
G03X292879214Y-177165000I-1414214J0D01*
G01*
X242951000Y-161480500D02*
X242951000Y-159956500D01*
X242189000Y-160718500D02*
X243713000Y-160718500D01*
X236093000Y-160718500D02*
X234823000Y-160718500D01*
D13*
X241681000Y-160718500D02*
G75*
G03X241681000Y-160718500I-2540000J0D01*
G01*
D12*
X242951000Y-194818000D02*
X242951000Y-193294000D01*
X242189000Y-194056000D02*
X243713000Y-194056000D01*
X236093000Y-194056000D02*
X234823000Y-194056000D01*
D13*
X241681000Y-194056000D02*
G75*
G03X241681000Y-194056000I-2540000J0D01*
G01*
D12*
X135001000Y-165735000D02*
X132969000Y-165735000D01*
X132969000Y-160147000D02*
X132969000Y-166497000D01*
X135001000Y-166497000D02*
X132969000Y-166497000D01*
X135001000Y-160147000D02*
X135001000Y-166497000D01*
X133985000Y-160147000D02*
X132969000Y-160147000D01*
X133985000Y-160147000D02*
X135001000Y-160147000D01*
X133985000Y-167132000D02*
X133985000Y-166497000D01*
X133985000Y-159512000D02*
X133985000Y-160147000D01*
X132859214Y-154940000D02*
G75*
G03X132859214Y-154940000I-1414214J0D01*
G01*
X170624761Y-164187142D02*
X170577142Y-164234761D01*
X170434285Y-164282380D01*
X170339047Y-164282380D01*
X170196190Y-164234761D01*
X170100952Y-164139523D01*
X170053333Y-164044285D01*
X170005714Y-163853809D01*
X170005714Y-163710952D01*
X170053333Y-163520476D01*
X170100952Y-163425238D01*
X170196190Y-163330000D01*
X170339047Y-163282380D01*
X170434285Y-163282380D01*
X170577142Y-163330000D01*
X170624761Y-163377619D01*
X171053333Y-164282380D02*
X171053333Y-163282380D01*
X171291428Y-163282380D01*
X171434285Y-163330000D01*
X171529523Y-163425238D01*
X171577142Y-163520476D01*
X171624761Y-163710952D01*
X171624761Y-163853809D01*
X171577142Y-164044285D01*
X171529523Y-164139523D01*
X171434285Y-164234761D01*
X171291428Y-164282380D01*
X171053333Y-164282380D01*
X172481904Y-163615714D02*
X172481904Y-164282380D01*
X172243809Y-163234761D02*
X172005714Y-163949047D01*
X172624761Y-163949047D01*
X173196190Y-163282380D02*
X173291428Y-163282380D01*
X173386666Y-163330000D01*
X173434285Y-163377619D01*
X173481904Y-163472857D01*
X173529523Y-163663333D01*
X173529523Y-163901428D01*
X173481904Y-164091904D01*
X173434285Y-164187142D01*
X173386666Y-164234761D01*
X173291428Y-164282380D01*
X173196190Y-164282380D01*
X173100952Y-164234761D01*
X173053333Y-164187142D01*
X173005714Y-164091904D01*
X172958095Y-163901428D01*
X172958095Y-163663333D01*
X173005714Y-163472857D01*
X173053333Y-163377619D01*
X173100952Y-163330000D01*
X173196190Y-163282380D01*
X174005714Y-164282380D02*
X174196190Y-164282380D01*
X174291428Y-164234761D01*
X174339047Y-164187142D01*
X174434285Y-164044285D01*
X174481904Y-163853809D01*
X174481904Y-163472857D01*
X174434285Y-163377619D01*
X174386666Y-163330000D01*
X174291428Y-163282380D01*
X174100952Y-163282380D01*
X174005714Y-163330000D01*
X173958095Y-163377619D01*
X173910476Y-163472857D01*
X173910476Y-163710952D01*
X173958095Y-163806190D01*
X174005714Y-163853809D01*
X174100952Y-163901428D01*
X174291428Y-163901428D01*
X174386666Y-163853809D01*
X174434285Y-163806190D01*
X174481904Y-163710952D01*
X174815238Y-163282380D02*
X175434285Y-163282380D01*
X175100952Y-163663333D01*
X175243809Y-163663333D01*
X175339047Y-163710952D01*
X175386666Y-163758571D01*
X175434285Y-163853809D01*
X175434285Y-164091904D01*
X175386666Y-164187142D01*
X175339047Y-164234761D01*
X175243809Y-164282380D01*
X174958095Y-164282380D01*
X174862857Y-164234761D01*
X174815238Y-164187142D01*
X245713571Y-169267142D02*
X245665952Y-169314761D01*
X245523095Y-169362380D01*
X245427857Y-169362380D01*
X245285000Y-169314761D01*
X245189761Y-169219523D01*
X245142142Y-169124285D01*
X245094523Y-168933809D01*
X245094523Y-168790952D01*
X245142142Y-168600476D01*
X245189761Y-168505238D01*
X245285000Y-168410000D01*
X245427857Y-168362380D01*
X245523095Y-168362380D01*
X245665952Y-168410000D01*
X245713571Y-168457619D01*
X246142142Y-169362380D02*
X246142142Y-168362380D01*
X246380238Y-168362380D01*
X246523095Y-168410000D01*
X246618333Y-168505238D01*
X246665952Y-168600476D01*
X246713571Y-168790952D01*
X246713571Y-168933809D01*
X246665952Y-169124285D01*
X246618333Y-169219523D01*
X246523095Y-169314761D01*
X246380238Y-169362380D01*
X246142142Y-169362380D01*
X247570714Y-168695714D02*
X247570714Y-169362380D01*
X247332619Y-168314761D02*
X247094523Y-169029047D01*
X247713571Y-169029047D01*
X248285000Y-168362380D02*
X248380238Y-168362380D01*
X248475476Y-168410000D01*
X248523095Y-168457619D01*
X248570714Y-168552857D01*
X248618333Y-168743333D01*
X248618333Y-168981428D01*
X248570714Y-169171904D01*
X248523095Y-169267142D01*
X248475476Y-169314761D01*
X248380238Y-169362380D01*
X248285000Y-169362380D01*
X248189761Y-169314761D01*
X248142142Y-169267142D01*
X248094523Y-169171904D01*
X248046904Y-168981428D01*
X248046904Y-168743333D01*
X248094523Y-168552857D01*
X248142142Y-168457619D01*
X248189761Y-168410000D01*
X248285000Y-168362380D01*
X249570714Y-169362380D02*
X248999285Y-169362380D01*
X249285000Y-169362380D02*
X249285000Y-168362380D01*
X249189761Y-168505238D01*
X249094523Y-168600476D01*
X248999285Y-168648095D01*
X250189761Y-168362380D02*
X250285000Y-168362380D01*
X250380238Y-168410000D01*
X250427857Y-168457619D01*
X250475476Y-168552857D01*
X250523095Y-168743333D01*
X250523095Y-168981428D01*
X250475476Y-169171904D01*
X250427857Y-169267142D01*
X250380238Y-169314761D01*
X250285000Y-169362380D01*
X250189761Y-169362380D01*
X250094523Y-169314761D01*
X250046904Y-169267142D01*
X249999285Y-169171904D01*
X249951666Y-168981428D01*
X249951666Y-168743333D01*
X249999285Y-168552857D01*
X250046904Y-168457619D01*
X250094523Y-168410000D01*
X250189761Y-168362380D01*
X251380238Y-168362380D02*
X251189761Y-168362380D01*
X251094523Y-168410000D01*
X251046904Y-168457619D01*
X250951666Y-168600476D01*
X250904047Y-168790952D01*
X250904047Y-169171904D01*
X250951666Y-169267142D01*
X250999285Y-169314761D01*
X251094523Y-169362380D01*
X251285000Y-169362380D01*
X251380238Y-169314761D01*
X251427857Y-169267142D01*
X251475476Y-169171904D01*
X251475476Y-168933809D01*
X251427857Y-168838571D01*
X251380238Y-168790952D01*
X251285000Y-168743333D01*
X251094523Y-168743333D01*
X250999285Y-168790952D01*
X250951666Y-168838571D01*
X250904047Y-168933809D01*
X293632142Y-120372142D02*
X293584523Y-120419761D01*
X293441666Y-120467380D01*
X293346428Y-120467380D01*
X293203571Y-120419761D01*
X293108333Y-120324523D01*
X293060714Y-120229285D01*
X293013095Y-120038809D01*
X293013095Y-119895952D01*
X293060714Y-119705476D01*
X293108333Y-119610238D01*
X293203571Y-119515000D01*
X293346428Y-119467380D01*
X293441666Y-119467380D01*
X293584523Y-119515000D01*
X293632142Y-119562619D01*
X294060714Y-120467380D02*
X294060714Y-119467380D01*
X294060714Y-119943571D02*
X294632142Y-119943571D01*
X294632142Y-120467380D02*
X294632142Y-119467380D01*
X295060714Y-120181666D02*
X295536904Y-120181666D01*
X294965476Y-120467380D02*
X295298809Y-119467380D01*
X295632142Y-120467380D01*
X296155952Y-119467380D02*
X296346428Y-119467380D01*
X296441666Y-119515000D01*
X296536904Y-119610238D01*
X296584523Y-119800714D01*
X296584523Y-120134047D01*
X296536904Y-120324523D01*
X296441666Y-120419761D01*
X296346428Y-120467380D01*
X296155952Y-120467380D01*
X296060714Y-120419761D01*
X295965476Y-120324523D01*
X295917857Y-120134047D01*
X295917857Y-119800714D01*
X295965476Y-119610238D01*
X296060714Y-119515000D01*
X296155952Y-119467380D01*
X296965476Y-120419761D02*
X297108333Y-120467380D01*
X297346428Y-120467380D01*
X297441666Y-120419761D01*
X297489285Y-120372142D01*
X297536904Y-120276904D01*
X297536904Y-120181666D01*
X297489285Y-120086428D01*
X297441666Y-120038809D01*
X297346428Y-119991190D01*
X297155952Y-119943571D01*
X297060714Y-119895952D01*
X297013095Y-119848333D01*
X296965476Y-119753095D01*
X296965476Y-119657857D01*
X297013095Y-119562619D01*
X297060714Y-119515000D01*
X297155952Y-119467380D01*
X297394047Y-119467380D01*
X297536904Y-119515000D01*
X242681428Y-120372142D02*
X242633809Y-120419761D01*
X242490952Y-120467380D01*
X242395714Y-120467380D01*
X242252857Y-120419761D01*
X242157619Y-120324523D01*
X242110000Y-120229285D01*
X242062380Y-120038809D01*
X242062380Y-119895952D01*
X242110000Y-119705476D01*
X242157619Y-119610238D01*
X242252857Y-119515000D01*
X242395714Y-119467380D01*
X242490952Y-119467380D01*
X242633809Y-119515000D01*
X242681428Y-119562619D01*
X243586190Y-120467380D02*
X243110000Y-120467380D01*
X243110000Y-119467380D01*
X243919523Y-119467380D02*
X243919523Y-120276904D01*
X243967142Y-120372142D01*
X244014761Y-120419761D01*
X244110000Y-120467380D01*
X244300476Y-120467380D01*
X244395714Y-120419761D01*
X244443333Y-120372142D01*
X244490952Y-120276904D01*
X244490952Y-119467380D01*
X244919523Y-120419761D02*
X245062380Y-120467380D01*
X245300476Y-120467380D01*
X245395714Y-120419761D01*
X245443333Y-120372142D01*
X245490952Y-120276904D01*
X245490952Y-120181666D01*
X245443333Y-120086428D01*
X245395714Y-120038809D01*
X245300476Y-119991190D01*
X245110000Y-119943571D01*
X245014761Y-119895952D01*
X244967142Y-119848333D01*
X244919523Y-119753095D01*
X244919523Y-119657857D01*
X244967142Y-119562619D01*
X245014761Y-119515000D01*
X245110000Y-119467380D01*
X245348095Y-119467380D01*
X245490952Y-119515000D01*
X245776666Y-119467380D02*
X246348095Y-119467380D01*
X246062380Y-120467380D02*
X246062380Y-119467380D01*
X246681428Y-119943571D02*
X247014761Y-119943571D01*
X247157619Y-120467380D02*
X246681428Y-120467380D01*
X246681428Y-119467380D01*
X247157619Y-119467380D01*
X248157619Y-120467380D02*
X247824285Y-119991190D01*
X247586190Y-120467380D02*
X247586190Y-119467380D01*
X247967142Y-119467380D01*
X248062380Y-119515000D01*
X248110000Y-119562619D01*
X248157619Y-119657857D01*
X248157619Y-119800714D01*
X248110000Y-119895952D01*
X248062380Y-119943571D01*
X247967142Y-119991190D01*
X247586190Y-119991190D01*
X267764047Y-120467380D02*
X267764047Y-119467380D01*
X268002142Y-119467380D01*
X268145000Y-119515000D01*
X268240238Y-119610238D01*
X268287857Y-119705476D01*
X268335476Y-119895952D01*
X268335476Y-120038809D01*
X268287857Y-120229285D01*
X268240238Y-120324523D01*
X268145000Y-120419761D01*
X268002142Y-120467380D01*
X267764047Y-120467380D01*
X268764047Y-119467380D02*
X268764047Y-120276904D01*
X268811666Y-120372142D01*
X268859285Y-120419761D01*
X268954523Y-120467380D01*
X269145000Y-120467380D01*
X269240238Y-120419761D01*
X269287857Y-120372142D01*
X269335476Y-120276904D01*
X269335476Y-119467380D01*
X269764047Y-120181666D02*
X270240238Y-120181666D01*
X269668809Y-120467380D02*
X270002142Y-119467380D01*
X270335476Y-120467380D01*
X271145000Y-120467380D02*
X270668809Y-120467380D01*
X270668809Y-119467380D01*
X272049761Y-120467380D02*
X271716428Y-119991190D01*
X271478333Y-120467380D02*
X271478333Y-119467380D01*
X271859285Y-119467380D01*
X271954523Y-119515000D01*
X272002142Y-119562619D01*
X272049761Y-119657857D01*
X272049761Y-119800714D01*
X272002142Y-119895952D01*
X271954523Y-119943571D01*
X271859285Y-119991190D01*
X271478333Y-119991190D01*
X272478333Y-120467380D02*
X272478333Y-119467380D01*
X272954523Y-120467380D02*
X272954523Y-119467380D01*
X273525952Y-120467380D01*
X273525952Y-119467380D01*
X274525952Y-119515000D02*
X274430714Y-119467380D01*
X274287857Y-119467380D01*
X274145000Y-119515000D01*
X274049761Y-119610238D01*
X274002142Y-119705476D01*
X273954523Y-119895952D01*
X273954523Y-120038809D01*
X274002142Y-120229285D01*
X274049761Y-120324523D01*
X274145000Y-120419761D01*
X274287857Y-120467380D01*
X274383095Y-120467380D01*
X274525952Y-120419761D01*
X274573571Y-120372142D01*
X274573571Y-120038809D01*
X274383095Y-120038809D01*
X124968095Y-151900000D02*
X124872857Y-151852380D01*
X124730000Y-151852380D01*
X124587142Y-151900000D01*
X124491904Y-151995238D01*
X124444285Y-152090476D01*
X124396666Y-152280952D01*
X124396666Y-152423809D01*
X124444285Y-152614285D01*
X124491904Y-152709523D01*
X124587142Y-152804761D01*
X124730000Y-152852380D01*
X124825238Y-152852380D01*
X124968095Y-152804761D01*
X125015714Y-152757142D01*
X125015714Y-152423809D01*
X124825238Y-152423809D01*
X125444285Y-152852380D02*
X125444285Y-151852380D01*
X126015714Y-152852380D01*
X126015714Y-151852380D01*
X126491904Y-152852380D02*
X126491904Y-151852380D01*
X126730000Y-151852380D01*
X126872857Y-151900000D01*
X126968095Y-151995238D01*
X127015714Y-152090476D01*
X127063333Y-152280952D01*
X127063333Y-152423809D01*
X127015714Y-152614285D01*
X126968095Y-152709523D01*
X126872857Y-152804761D01*
X126730000Y-152852380D01*
X126491904Y-152852380D01*
X224663095Y-119515000D02*
X224567857Y-119467380D01*
X224425000Y-119467380D01*
X224282142Y-119515000D01*
X224186904Y-119610238D01*
X224139285Y-119705476D01*
X224091666Y-119895952D01*
X224091666Y-120038809D01*
X224139285Y-120229285D01*
X224186904Y-120324523D01*
X224282142Y-120419761D01*
X224425000Y-120467380D01*
X224520238Y-120467380D01*
X224663095Y-120419761D01*
X224710714Y-120372142D01*
X224710714Y-120038809D01*
X224520238Y-120038809D01*
X225139285Y-120467380D02*
X225139285Y-119467380D01*
X225710714Y-120467380D01*
X225710714Y-119467380D01*
X226186904Y-120467380D02*
X226186904Y-119467380D01*
X226425000Y-119467380D01*
X226567857Y-119515000D01*
X226663095Y-119610238D01*
X226710714Y-119705476D01*
X226758333Y-119895952D01*
X226758333Y-120038809D01*
X226710714Y-120229285D01*
X226663095Y-120324523D01*
X226567857Y-120419761D01*
X226425000Y-120467380D01*
X226186904Y-120467380D01*
X195683333Y-126182380D02*
X195111904Y-126182380D01*
X195397619Y-126182380D02*
X195397619Y-125182380D01*
X195302380Y-125325238D01*
X195207142Y-125420476D01*
X195111904Y-125468095D01*
X196302380Y-125182380D02*
X196397619Y-125182380D01*
X196492857Y-125230000D01*
X196540476Y-125277619D01*
X196588095Y-125372857D01*
X196635714Y-125563333D01*
X196635714Y-125801428D01*
X196588095Y-125991904D01*
X196540476Y-126087142D01*
X196492857Y-126134761D01*
X196397619Y-126182380D01*
X196302380Y-126182380D01*
X196207142Y-126134761D01*
X196159523Y-126087142D01*
X196111904Y-125991904D01*
X196064285Y-125801428D01*
X196064285Y-125563333D01*
X196111904Y-125372857D01*
X196159523Y-125277619D01*
X196207142Y-125230000D01*
X196302380Y-125182380D01*
X197254761Y-125182380D02*
X197350000Y-125182380D01*
X197445238Y-125230000D01*
X197492857Y-125277619D01*
X197540476Y-125372857D01*
X197588095Y-125563333D01*
X197588095Y-125801428D01*
X197540476Y-125991904D01*
X197492857Y-126087142D01*
X197445238Y-126134761D01*
X197350000Y-126182380D01*
X197254761Y-126182380D01*
X197159523Y-126134761D01*
X197111904Y-126087142D01*
X197064285Y-125991904D01*
X197016666Y-125801428D01*
X197016666Y-125563333D01*
X197064285Y-125372857D01*
X197111904Y-125277619D01*
X197159523Y-125230000D01*
X197254761Y-125182380D01*
X198016666Y-126182380D02*
X198016666Y-125182380D01*
X198588095Y-126182380D02*
X198159523Y-125610952D01*
X198588095Y-125182380D02*
X198016666Y-125753809D01*
X144883333Y-126182380D02*
X144311904Y-126182380D01*
X144597619Y-126182380D02*
X144597619Y-125182380D01*
X144502380Y-125325238D01*
X144407142Y-125420476D01*
X144311904Y-125468095D01*
X145502380Y-125182380D02*
X145597619Y-125182380D01*
X145692857Y-125230000D01*
X145740476Y-125277619D01*
X145788095Y-125372857D01*
X145835714Y-125563333D01*
X145835714Y-125801428D01*
X145788095Y-125991904D01*
X145740476Y-126087142D01*
X145692857Y-126134761D01*
X145597619Y-126182380D01*
X145502380Y-126182380D01*
X145407142Y-126134761D01*
X145359523Y-126087142D01*
X145311904Y-125991904D01*
X145264285Y-125801428D01*
X145264285Y-125563333D01*
X145311904Y-125372857D01*
X145359523Y-125277619D01*
X145407142Y-125230000D01*
X145502380Y-125182380D01*
X146454761Y-125182380D02*
X146550000Y-125182380D01*
X146645238Y-125230000D01*
X146692857Y-125277619D01*
X146740476Y-125372857D01*
X146788095Y-125563333D01*
X146788095Y-125801428D01*
X146740476Y-125991904D01*
X146692857Y-126087142D01*
X146645238Y-126134761D01*
X146550000Y-126182380D01*
X146454761Y-126182380D01*
X146359523Y-126134761D01*
X146311904Y-126087142D01*
X146264285Y-125991904D01*
X146216666Y-125801428D01*
X146216666Y-125563333D01*
X146264285Y-125372857D01*
X146311904Y-125277619D01*
X146359523Y-125230000D01*
X146454761Y-125182380D01*
X147216666Y-126182380D02*
X147216666Y-125182380D01*
X147788095Y-126182380D02*
X147359523Y-125610952D01*
X147788095Y-125182380D02*
X147216666Y-125753809D01*
X170283333Y-126182380D02*
X169711904Y-126182380D01*
X169997619Y-126182380D02*
X169997619Y-125182380D01*
X169902380Y-125325238D01*
X169807142Y-125420476D01*
X169711904Y-125468095D01*
X170902380Y-125182380D02*
X170997619Y-125182380D01*
X171092857Y-125230000D01*
X171140476Y-125277619D01*
X171188095Y-125372857D01*
X171235714Y-125563333D01*
X171235714Y-125801428D01*
X171188095Y-125991904D01*
X171140476Y-126087142D01*
X171092857Y-126134761D01*
X170997619Y-126182380D01*
X170902380Y-126182380D01*
X170807142Y-126134761D01*
X170759523Y-126087142D01*
X170711904Y-125991904D01*
X170664285Y-125801428D01*
X170664285Y-125563333D01*
X170711904Y-125372857D01*
X170759523Y-125277619D01*
X170807142Y-125230000D01*
X170902380Y-125182380D01*
X171854761Y-125182380D02*
X171950000Y-125182380D01*
X172045238Y-125230000D01*
X172092857Y-125277619D01*
X172140476Y-125372857D01*
X172188095Y-125563333D01*
X172188095Y-125801428D01*
X172140476Y-125991904D01*
X172092857Y-126087142D01*
X172045238Y-126134761D01*
X171950000Y-126182380D01*
X171854761Y-126182380D01*
X171759523Y-126134761D01*
X171711904Y-126087142D01*
X171664285Y-125991904D01*
X171616666Y-125801428D01*
X171616666Y-125563333D01*
X171664285Y-125372857D01*
X171711904Y-125277619D01*
X171759523Y-125230000D01*
X171854761Y-125182380D01*
X172616666Y-126182380D02*
X172616666Y-125182380D01*
X173188095Y-126182380D02*
X172759523Y-125610952D01*
X173188095Y-125182380D02*
X172616666Y-125753809D01*
X221083333Y-126182380D02*
X220511904Y-126182380D01*
X220797619Y-126182380D02*
X220797619Y-125182380D01*
X220702380Y-125325238D01*
X220607142Y-125420476D01*
X220511904Y-125468095D01*
X221702380Y-125182380D02*
X221797619Y-125182380D01*
X221892857Y-125230000D01*
X221940476Y-125277619D01*
X221988095Y-125372857D01*
X222035714Y-125563333D01*
X222035714Y-125801428D01*
X221988095Y-125991904D01*
X221940476Y-126087142D01*
X221892857Y-126134761D01*
X221797619Y-126182380D01*
X221702380Y-126182380D01*
X221607142Y-126134761D01*
X221559523Y-126087142D01*
X221511904Y-125991904D01*
X221464285Y-125801428D01*
X221464285Y-125563333D01*
X221511904Y-125372857D01*
X221559523Y-125277619D01*
X221607142Y-125230000D01*
X221702380Y-125182380D01*
X222654761Y-125182380D02*
X222750000Y-125182380D01*
X222845238Y-125230000D01*
X222892857Y-125277619D01*
X222940476Y-125372857D01*
X222988095Y-125563333D01*
X222988095Y-125801428D01*
X222940476Y-125991904D01*
X222892857Y-126087142D01*
X222845238Y-126134761D01*
X222750000Y-126182380D01*
X222654761Y-126182380D01*
X222559523Y-126134761D01*
X222511904Y-126087142D01*
X222464285Y-125991904D01*
X222416666Y-125801428D01*
X222416666Y-125563333D01*
X222464285Y-125372857D01*
X222511904Y-125277619D01*
X222559523Y-125230000D01*
X222654761Y-125182380D01*
X223416666Y-126182380D02*
X223416666Y-125182380D01*
X223988095Y-126182380D02*
X223559523Y-125610952D01*
X223988095Y-125182380D02*
X223416666Y-125753809D01*
X197905714Y-187142380D02*
X197334285Y-187142380D01*
X197620000Y-187142380D02*
X197620000Y-186142380D01*
X197524761Y-186285238D01*
X197429523Y-186380476D01*
X197334285Y-186428095D01*
X198334285Y-187142380D02*
X198334285Y-186142380D01*
X198905714Y-187142380D02*
X198477142Y-186570952D01*
X198905714Y-186142380D02*
X198334285Y-186713809D01*
X148693333Y-180792380D02*
X148121904Y-180792380D01*
X148407619Y-180792380D02*
X148407619Y-179792380D01*
X148312380Y-179935238D01*
X148217142Y-180030476D01*
X148121904Y-180078095D01*
X149312380Y-179792380D02*
X149407619Y-179792380D01*
X149502857Y-179840000D01*
X149550476Y-179887619D01*
X149598095Y-179982857D01*
X149645714Y-180173333D01*
X149645714Y-180411428D01*
X149598095Y-180601904D01*
X149550476Y-180697142D01*
X149502857Y-180744761D01*
X149407619Y-180792380D01*
X149312380Y-180792380D01*
X149217142Y-180744761D01*
X149169523Y-180697142D01*
X149121904Y-180601904D01*
X149074285Y-180411428D01*
X149074285Y-180173333D01*
X149121904Y-179982857D01*
X149169523Y-179887619D01*
X149217142Y-179840000D01*
X149312380Y-179792380D01*
X150264761Y-179792380D02*
X150360000Y-179792380D01*
X150455238Y-179840000D01*
X150502857Y-179887619D01*
X150550476Y-179982857D01*
X150598095Y-180173333D01*
X150598095Y-180411428D01*
X150550476Y-180601904D01*
X150502857Y-180697142D01*
X150455238Y-180744761D01*
X150360000Y-180792380D01*
X150264761Y-180792380D01*
X150169523Y-180744761D01*
X150121904Y-180697142D01*
X150074285Y-180601904D01*
X150026666Y-180411428D01*
X150026666Y-180173333D01*
X150074285Y-179982857D01*
X150121904Y-179887619D01*
X150169523Y-179840000D01*
X150264761Y-179792380D01*
X151026666Y-180792380D02*
X151026666Y-179792380D01*
X151598095Y-180792380D02*
X151169523Y-180220952D01*
X151598095Y-179792380D02*
X151026666Y-180363809D01*
X192603571Y-180792380D02*
X192032142Y-180792380D01*
X192317857Y-180792380D02*
X192317857Y-179792380D01*
X192222619Y-179935238D01*
X192127380Y-180030476D01*
X192032142Y-180078095D01*
X193222619Y-179792380D02*
X193317857Y-179792380D01*
X193413095Y-179840000D01*
X193460714Y-179887619D01*
X193508333Y-179982857D01*
X193555952Y-180173333D01*
X193555952Y-180411428D01*
X193508333Y-180601904D01*
X193460714Y-180697142D01*
X193413095Y-180744761D01*
X193317857Y-180792380D01*
X193222619Y-180792380D01*
X193127380Y-180744761D01*
X193079761Y-180697142D01*
X193032142Y-180601904D01*
X192984523Y-180411428D01*
X192984523Y-180173333D01*
X193032142Y-179982857D01*
X193079761Y-179887619D01*
X193127380Y-179840000D01*
X193222619Y-179792380D01*
X194175000Y-179792380D02*
X194270238Y-179792380D01*
X194365476Y-179840000D01*
X194413095Y-179887619D01*
X194460714Y-179982857D01*
X194508333Y-180173333D01*
X194508333Y-180411428D01*
X194460714Y-180601904D01*
X194413095Y-180697142D01*
X194365476Y-180744761D01*
X194270238Y-180792380D01*
X194175000Y-180792380D01*
X194079761Y-180744761D01*
X194032142Y-180697142D01*
X193984523Y-180601904D01*
X193936904Y-180411428D01*
X193936904Y-180173333D01*
X193984523Y-179982857D01*
X194032142Y-179887619D01*
X194079761Y-179840000D01*
X194175000Y-179792380D01*
X194936904Y-180792380D02*
X194936904Y-179792380D01*
X195032142Y-180411428D02*
X195317857Y-180792380D01*
X195317857Y-180125714D02*
X194936904Y-180506666D01*
X172505714Y-187142380D02*
X171934285Y-187142380D01*
X172220000Y-187142380D02*
X172220000Y-186142380D01*
X172124761Y-186285238D01*
X172029523Y-186380476D01*
X171934285Y-186428095D01*
X172934285Y-187142380D02*
X172934285Y-186142380D01*
X173505714Y-187142380D02*
X173077142Y-186570952D01*
X173505714Y-186142380D02*
X172934285Y-186713809D01*
X297283333Y-135072380D02*
X296711904Y-135072380D01*
X296997619Y-135072380D02*
X296997619Y-134072380D01*
X296902380Y-134215238D01*
X296807142Y-134310476D01*
X296711904Y-134358095D01*
X297902380Y-134072380D02*
X297997619Y-134072380D01*
X298092857Y-134120000D01*
X298140476Y-134167619D01*
X298188095Y-134262857D01*
X298235714Y-134453333D01*
X298235714Y-134691428D01*
X298188095Y-134881904D01*
X298140476Y-134977142D01*
X298092857Y-135024761D01*
X297997619Y-135072380D01*
X297902380Y-135072380D01*
X297807142Y-135024761D01*
X297759523Y-134977142D01*
X297711904Y-134881904D01*
X297664285Y-134691428D01*
X297664285Y-134453333D01*
X297711904Y-134262857D01*
X297759523Y-134167619D01*
X297807142Y-134120000D01*
X297902380Y-134072380D01*
X298854761Y-134072380D02*
X298950000Y-134072380D01*
X299045238Y-134120000D01*
X299092857Y-134167619D01*
X299140476Y-134262857D01*
X299188095Y-134453333D01*
X299188095Y-134691428D01*
X299140476Y-134881904D01*
X299092857Y-134977142D01*
X299045238Y-135024761D01*
X298950000Y-135072380D01*
X298854761Y-135072380D01*
X298759523Y-135024761D01*
X298711904Y-134977142D01*
X298664285Y-134881904D01*
X298616666Y-134691428D01*
X298616666Y-134453333D01*
X298664285Y-134262857D01*
X298711904Y-134167619D01*
X298759523Y-134120000D01*
X298854761Y-134072380D01*
X299616666Y-135072380D02*
X299616666Y-134072380D01*
X300188095Y-135072380D02*
X299759523Y-134500952D01*
X300188095Y-134072380D02*
X299616666Y-134643809D01*
X209748571Y-180792380D02*
X209177142Y-180792380D01*
X209462857Y-180792380D02*
X209462857Y-179792380D01*
X209367619Y-179935238D01*
X209272380Y-180030476D01*
X209177142Y-180078095D01*
X210367619Y-179792380D02*
X210462857Y-179792380D01*
X210558095Y-179840000D01*
X210605714Y-179887619D01*
X210653333Y-179982857D01*
X210700952Y-180173333D01*
X210700952Y-180411428D01*
X210653333Y-180601904D01*
X210605714Y-180697142D01*
X210558095Y-180744761D01*
X210462857Y-180792380D01*
X210367619Y-180792380D01*
X210272380Y-180744761D01*
X210224761Y-180697142D01*
X210177142Y-180601904D01*
X210129523Y-180411428D01*
X210129523Y-180173333D01*
X210177142Y-179982857D01*
X210224761Y-179887619D01*
X210272380Y-179840000D01*
X210367619Y-179792380D01*
X211320000Y-179792380D02*
X211415238Y-179792380D01*
X211510476Y-179840000D01*
X211558095Y-179887619D01*
X211605714Y-179982857D01*
X211653333Y-180173333D01*
X211653333Y-180411428D01*
X211605714Y-180601904D01*
X211558095Y-180697142D01*
X211510476Y-180744761D01*
X211415238Y-180792380D01*
X211320000Y-180792380D01*
X211224761Y-180744761D01*
X211177142Y-180697142D01*
X211129523Y-180601904D01*
X211081904Y-180411428D01*
X211081904Y-180173333D01*
X211129523Y-179982857D01*
X211177142Y-179887619D01*
X211224761Y-179840000D01*
X211320000Y-179792380D01*
X212081904Y-180792380D02*
X212081904Y-179792380D01*
X212177142Y-180411428D02*
X212462857Y-180792380D01*
X212462857Y-180125714D02*
X212081904Y-180506666D01*
X232513333Y-147772380D02*
X231941904Y-147772380D01*
X232227619Y-147772380D02*
X232227619Y-146772380D01*
X232132380Y-146915238D01*
X232037142Y-147010476D01*
X231941904Y-147058095D01*
X233132380Y-146772380D02*
X233227619Y-146772380D01*
X233322857Y-146820000D01*
X233370476Y-146867619D01*
X233418095Y-146962857D01*
X233465714Y-147153333D01*
X233465714Y-147391428D01*
X233418095Y-147581904D01*
X233370476Y-147677142D01*
X233322857Y-147724761D01*
X233227619Y-147772380D01*
X233132380Y-147772380D01*
X233037142Y-147724761D01*
X232989523Y-147677142D01*
X232941904Y-147581904D01*
X232894285Y-147391428D01*
X232894285Y-147153333D01*
X232941904Y-146962857D01*
X232989523Y-146867619D01*
X233037142Y-146820000D01*
X233132380Y-146772380D01*
X234084761Y-146772380D02*
X234180000Y-146772380D01*
X234275238Y-146820000D01*
X234322857Y-146867619D01*
X234370476Y-146962857D01*
X234418095Y-147153333D01*
X234418095Y-147391428D01*
X234370476Y-147581904D01*
X234322857Y-147677142D01*
X234275238Y-147724761D01*
X234180000Y-147772380D01*
X234084761Y-147772380D01*
X233989523Y-147724761D01*
X233941904Y-147677142D01*
X233894285Y-147581904D01*
X233846666Y-147391428D01*
X233846666Y-147153333D01*
X233894285Y-146962857D01*
X233941904Y-146867619D01*
X233989523Y-146820000D01*
X234084761Y-146772380D01*
X234846666Y-147772380D02*
X234846666Y-146772380D01*
X235418095Y-147772380D02*
X234989523Y-147200952D01*
X235418095Y-146772380D02*
X234846666Y-147343809D01*
X221718333Y-147772380D02*
X221146904Y-147772380D01*
X221432619Y-147772380D02*
X221432619Y-146772380D01*
X221337380Y-146915238D01*
X221242142Y-147010476D01*
X221146904Y-147058095D01*
X222337380Y-146772380D02*
X222432619Y-146772380D01*
X222527857Y-146820000D01*
X222575476Y-146867619D01*
X222623095Y-146962857D01*
X222670714Y-147153333D01*
X222670714Y-147391428D01*
X222623095Y-147581904D01*
X222575476Y-147677142D01*
X222527857Y-147724761D01*
X222432619Y-147772380D01*
X222337380Y-147772380D01*
X222242142Y-147724761D01*
X222194523Y-147677142D01*
X222146904Y-147581904D01*
X222099285Y-147391428D01*
X222099285Y-147153333D01*
X222146904Y-146962857D01*
X222194523Y-146867619D01*
X222242142Y-146820000D01*
X222337380Y-146772380D01*
X223289761Y-146772380D02*
X223385000Y-146772380D01*
X223480238Y-146820000D01*
X223527857Y-146867619D01*
X223575476Y-146962857D01*
X223623095Y-147153333D01*
X223623095Y-147391428D01*
X223575476Y-147581904D01*
X223527857Y-147677142D01*
X223480238Y-147724761D01*
X223385000Y-147772380D01*
X223289761Y-147772380D01*
X223194523Y-147724761D01*
X223146904Y-147677142D01*
X223099285Y-147581904D01*
X223051666Y-147391428D01*
X223051666Y-147153333D01*
X223099285Y-146962857D01*
X223146904Y-146867619D01*
X223194523Y-146820000D01*
X223289761Y-146772380D01*
X224051666Y-147772380D02*
X224051666Y-146772380D01*
X224623095Y-147772380D02*
X224194523Y-147200952D01*
X224623095Y-146772380D02*
X224051666Y-147343809D01*
X147105714Y-187142380D02*
X146534285Y-187142380D01*
X146820000Y-187142380D02*
X146820000Y-186142380D01*
X146724761Y-186285238D01*
X146629523Y-186380476D01*
X146534285Y-186428095D01*
X147534285Y-187142380D02*
X147534285Y-186142380D01*
X148105714Y-187142380D02*
X147677142Y-186570952D01*
X148105714Y-186142380D02*
X147534285Y-186713809D01*
X269025714Y-153487380D02*
X268454285Y-153487380D01*
X268740000Y-153487380D02*
X268740000Y-152487380D01*
X268644761Y-152630238D01*
X268549523Y-152725476D01*
X268454285Y-152773095D01*
X269454285Y-153487380D02*
X269454285Y-152487380D01*
X270025714Y-153487380D02*
X269597142Y-152915952D01*
X270025714Y-152487380D02*
X269454285Y-153058809D01*
X262286904Y-174807619D02*
X262334523Y-174760000D01*
X262429761Y-174712380D01*
X262667857Y-174712380D01*
X262763095Y-174760000D01*
X262810714Y-174807619D01*
X262858333Y-174902857D01*
X262858333Y-174998095D01*
X262810714Y-175140952D01*
X262239285Y-175712380D01*
X262858333Y-175712380D01*
X263239285Y-174807619D02*
X263286904Y-174760000D01*
X263382142Y-174712380D01*
X263620238Y-174712380D01*
X263715476Y-174760000D01*
X263763095Y-174807619D01*
X263810714Y-174902857D01*
X263810714Y-174998095D01*
X263763095Y-175140952D01*
X263191666Y-175712380D01*
X263810714Y-175712380D01*
X264429761Y-174712380D02*
X264525000Y-174712380D01*
X264620238Y-174760000D01*
X264667857Y-174807619D01*
X264715476Y-174902857D01*
X264763095Y-175093333D01*
X264763095Y-175331428D01*
X264715476Y-175521904D01*
X264667857Y-175617142D01*
X264620238Y-175664761D01*
X264525000Y-175712380D01*
X264429761Y-175712380D01*
X264334523Y-175664761D01*
X264286904Y-175617142D01*
X264239285Y-175521904D01*
X264191666Y-175331428D01*
X264191666Y-175093333D01*
X264239285Y-174902857D01*
X264286904Y-174807619D01*
X264334523Y-174760000D01*
X264429761Y-174712380D01*
X226941190Y-171870714D02*
X226941190Y-172537380D01*
X226703095Y-171489761D02*
X226465000Y-172204047D01*
X227084047Y-172204047D01*
X227512619Y-172489761D02*
X227512619Y-172537380D01*
X227465000Y-172632619D01*
X227417380Y-172680238D01*
X227845952Y-171537380D02*
X228512619Y-171537380D01*
X228084047Y-172537380D01*
X228893571Y-172537380D02*
X228893571Y-171537380D01*
X229465000Y-172537380D02*
X229036428Y-171965952D01*
X229465000Y-171537380D02*
X228893571Y-172108809D01*
X274963095Y-127817619D02*
X275010714Y-127770000D01*
X275105952Y-127722380D01*
X275344047Y-127722380D01*
X275439285Y-127770000D01*
X275486904Y-127817619D01*
X275534523Y-127912857D01*
X275534523Y-128008095D01*
X275486904Y-128150952D01*
X274915476Y-128722380D01*
X275534523Y-128722380D01*
X275915476Y-127817619D02*
X275963095Y-127770000D01*
X276058333Y-127722380D01*
X276296428Y-127722380D01*
X276391666Y-127770000D01*
X276439285Y-127817619D01*
X276486904Y-127912857D01*
X276486904Y-128008095D01*
X276439285Y-128150952D01*
X275867857Y-128722380D01*
X276486904Y-128722380D01*
X276915476Y-128722380D02*
X276915476Y-127722380D01*
X277486904Y-128722380D02*
X277058333Y-128150952D01*
X277486904Y-127722380D02*
X276915476Y-128293809D01*
X125833333Y-146502380D02*
X125261904Y-146502380D01*
X125547619Y-146502380D02*
X125547619Y-145502380D01*
X125452380Y-145645238D01*
X125357142Y-145740476D01*
X125261904Y-145788095D01*
X126452380Y-145502380D02*
X126547619Y-145502380D01*
X126642857Y-145550000D01*
X126690476Y-145597619D01*
X126738095Y-145692857D01*
X126785714Y-145883333D01*
X126785714Y-146121428D01*
X126738095Y-146311904D01*
X126690476Y-146407142D01*
X126642857Y-146454761D01*
X126547619Y-146502380D01*
X126452380Y-146502380D01*
X126357142Y-146454761D01*
X126309523Y-146407142D01*
X126261904Y-146311904D01*
X126214285Y-146121428D01*
X126214285Y-145883333D01*
X126261904Y-145692857D01*
X126309523Y-145597619D01*
X126357142Y-145550000D01*
X126452380Y-145502380D01*
X127404761Y-145502380D02*
X127500000Y-145502380D01*
X127595238Y-145550000D01*
X127642857Y-145597619D01*
X127690476Y-145692857D01*
X127738095Y-145883333D01*
X127738095Y-146121428D01*
X127690476Y-146311904D01*
X127642857Y-146407142D01*
X127595238Y-146454761D01*
X127500000Y-146502380D01*
X127404761Y-146502380D01*
X127309523Y-146454761D01*
X127261904Y-146407142D01*
X127214285Y-146311904D01*
X127166666Y-146121428D01*
X127166666Y-145883333D01*
X127214285Y-145692857D01*
X127261904Y-145597619D01*
X127309523Y-145550000D01*
X127404761Y-145502380D01*
X128166666Y-146502380D02*
X128166666Y-145502380D01*
X128738095Y-146502380D02*
X128309523Y-145930952D01*
X128738095Y-145502380D02*
X128166666Y-146073809D01*
X253150714Y-191587380D02*
X252579285Y-191587380D01*
X252865000Y-191587380D02*
X252865000Y-190587380D01*
X252769761Y-190730238D01*
X252674523Y-190825476D01*
X252579285Y-190873095D01*
X253579285Y-191587380D02*
X253579285Y-190587380D01*
X254150714Y-191587380D02*
X253722142Y-191015952D01*
X254150714Y-190587380D02*
X253579285Y-191158809D01*
X248928095Y-127817619D02*
X248975714Y-127770000D01*
X249070952Y-127722380D01*
X249309047Y-127722380D01*
X249404285Y-127770000D01*
X249451904Y-127817619D01*
X249499523Y-127912857D01*
X249499523Y-128008095D01*
X249451904Y-128150952D01*
X248880476Y-128722380D01*
X249499523Y-128722380D01*
X249880476Y-127817619D02*
X249928095Y-127770000D01*
X250023333Y-127722380D01*
X250261428Y-127722380D01*
X250356666Y-127770000D01*
X250404285Y-127817619D01*
X250451904Y-127912857D01*
X250451904Y-128008095D01*
X250404285Y-128150952D01*
X249832857Y-128722380D01*
X250451904Y-128722380D01*
X250880476Y-128722380D02*
X250880476Y-127722380D01*
X251451904Y-128722380D02*
X251023333Y-128150952D01*
X251451904Y-127722380D02*
X250880476Y-128293809D01*
X272835714Y-191587380D02*
X272264285Y-191587380D01*
X272550000Y-191587380D02*
X272550000Y-190587380D01*
X272454761Y-190730238D01*
X272359523Y-190825476D01*
X272264285Y-190873095D01*
X273264285Y-191587380D02*
X273264285Y-190587380D01*
X273835714Y-191587380D02*
X273407142Y-191015952D01*
X273835714Y-190587380D02*
X273264285Y-191158809D01*
X142343333Y-146502380D02*
X141771904Y-146502380D01*
X142057619Y-146502380D02*
X142057619Y-145502380D01*
X141962380Y-145645238D01*
X141867142Y-145740476D01*
X141771904Y-145788095D01*
X142962380Y-145502380D02*
X143057619Y-145502380D01*
X143152857Y-145550000D01*
X143200476Y-145597619D01*
X143248095Y-145692857D01*
X143295714Y-145883333D01*
X143295714Y-146121428D01*
X143248095Y-146311904D01*
X143200476Y-146407142D01*
X143152857Y-146454761D01*
X143057619Y-146502380D01*
X142962380Y-146502380D01*
X142867142Y-146454761D01*
X142819523Y-146407142D01*
X142771904Y-146311904D01*
X142724285Y-146121428D01*
X142724285Y-145883333D01*
X142771904Y-145692857D01*
X142819523Y-145597619D01*
X142867142Y-145550000D01*
X142962380Y-145502380D01*
X143914761Y-145502380D02*
X144010000Y-145502380D01*
X144105238Y-145550000D01*
X144152857Y-145597619D01*
X144200476Y-145692857D01*
X144248095Y-145883333D01*
X144248095Y-146121428D01*
X144200476Y-146311904D01*
X144152857Y-146407142D01*
X144105238Y-146454761D01*
X144010000Y-146502380D01*
X143914761Y-146502380D01*
X143819523Y-146454761D01*
X143771904Y-146407142D01*
X143724285Y-146311904D01*
X143676666Y-146121428D01*
X143676666Y-145883333D01*
X143724285Y-145692857D01*
X143771904Y-145597619D01*
X143819523Y-145550000D01*
X143914761Y-145502380D01*
X144676666Y-146502380D02*
X144676666Y-145502380D01*
X145248095Y-146502380D02*
X144819523Y-145930952D01*
X145248095Y-145502380D02*
X144676666Y-146073809D01*
X281336904Y-190682619D02*
X281384523Y-190635000D01*
X281479761Y-190587380D01*
X281717857Y-190587380D01*
X281813095Y-190635000D01*
X281860714Y-190682619D01*
X281908333Y-190777857D01*
X281908333Y-190873095D01*
X281860714Y-191015952D01*
X281289285Y-191587380D01*
X281908333Y-191587380D01*
X282289285Y-190682619D02*
X282336904Y-190635000D01*
X282432142Y-190587380D01*
X282670238Y-190587380D01*
X282765476Y-190635000D01*
X282813095Y-190682619D01*
X282860714Y-190777857D01*
X282860714Y-190873095D01*
X282813095Y-191015952D01*
X282241666Y-191587380D01*
X282860714Y-191587380D01*
X283479761Y-190587380D02*
X283575000Y-190587380D01*
X283670238Y-190635000D01*
X283717857Y-190682619D01*
X283765476Y-190777857D01*
X283813095Y-190968333D01*
X283813095Y-191206428D01*
X283765476Y-191396904D01*
X283717857Y-191492142D01*
X283670238Y-191539761D01*
X283575000Y-191587380D01*
X283479761Y-191587380D01*
X283384523Y-191539761D01*
X283336904Y-191492142D01*
X283289285Y-191396904D01*
X283241666Y-191206428D01*
X283241666Y-190968333D01*
X283289285Y-190777857D01*
X283336904Y-190682619D01*
X283384523Y-190635000D01*
X283479761Y-190587380D01*
X185523333Y-146502380D02*
X184951904Y-146502380D01*
X185237619Y-146502380D02*
X185237619Y-145502380D01*
X185142380Y-145645238D01*
X185047142Y-145740476D01*
X184951904Y-145788095D01*
X186142380Y-145502380D02*
X186237619Y-145502380D01*
X186332857Y-145550000D01*
X186380476Y-145597619D01*
X186428095Y-145692857D01*
X186475714Y-145883333D01*
X186475714Y-146121428D01*
X186428095Y-146311904D01*
X186380476Y-146407142D01*
X186332857Y-146454761D01*
X186237619Y-146502380D01*
X186142380Y-146502380D01*
X186047142Y-146454761D01*
X185999523Y-146407142D01*
X185951904Y-146311904D01*
X185904285Y-146121428D01*
X185904285Y-145883333D01*
X185951904Y-145692857D01*
X185999523Y-145597619D01*
X186047142Y-145550000D01*
X186142380Y-145502380D01*
X187094761Y-145502380D02*
X187190000Y-145502380D01*
X187285238Y-145550000D01*
X187332857Y-145597619D01*
X187380476Y-145692857D01*
X187428095Y-145883333D01*
X187428095Y-146121428D01*
X187380476Y-146311904D01*
X187332857Y-146407142D01*
X187285238Y-146454761D01*
X187190000Y-146502380D01*
X187094761Y-146502380D01*
X186999523Y-146454761D01*
X186951904Y-146407142D01*
X186904285Y-146311904D01*
X186856666Y-146121428D01*
X186856666Y-145883333D01*
X186904285Y-145692857D01*
X186951904Y-145597619D01*
X186999523Y-145550000D01*
X187094761Y-145502380D01*
X187856666Y-146502380D02*
X187856666Y-145502380D01*
X188428095Y-146502380D02*
X187999523Y-145930952D01*
X188428095Y-145502380D02*
X187856666Y-146073809D01*
X230751190Y-180125714D02*
X230751190Y-180792380D01*
X230513095Y-179744761D02*
X230275000Y-180459047D01*
X230894047Y-180459047D01*
X231322619Y-180744761D02*
X231322619Y-180792380D01*
X231275000Y-180887619D01*
X231227380Y-180935238D01*
X231655952Y-179792380D02*
X232322619Y-179792380D01*
X231894047Y-180792380D01*
X232703571Y-180792380D02*
X232703571Y-179792380D01*
X233275000Y-180792380D02*
X232846428Y-180220952D01*
X233275000Y-179792380D02*
X232703571Y-180363809D01*
X217416190Y-183935714D02*
X217416190Y-184602380D01*
X217178095Y-183554761D02*
X216940000Y-184269047D01*
X217559047Y-184269047D01*
X217987619Y-184554761D02*
X217987619Y-184602380D01*
X217940000Y-184697619D01*
X217892380Y-184745238D01*
X218320952Y-183602380D02*
X218987619Y-183602380D01*
X218559047Y-184602380D01*
X219368571Y-184602380D02*
X219368571Y-183602380D01*
X219940000Y-184602380D02*
X219511428Y-184030952D01*
X219940000Y-183602380D02*
X219368571Y-184173809D01*
X202668333Y-146502380D02*
X202096904Y-146502380D01*
X202382619Y-146502380D02*
X202382619Y-145502380D01*
X202287380Y-145645238D01*
X202192142Y-145740476D01*
X202096904Y-145788095D01*
X203287380Y-145502380D02*
X203382619Y-145502380D01*
X203477857Y-145550000D01*
X203525476Y-145597619D01*
X203573095Y-145692857D01*
X203620714Y-145883333D01*
X203620714Y-146121428D01*
X203573095Y-146311904D01*
X203525476Y-146407142D01*
X203477857Y-146454761D01*
X203382619Y-146502380D01*
X203287380Y-146502380D01*
X203192142Y-146454761D01*
X203144523Y-146407142D01*
X203096904Y-146311904D01*
X203049285Y-146121428D01*
X203049285Y-145883333D01*
X203096904Y-145692857D01*
X203144523Y-145597619D01*
X203192142Y-145550000D01*
X203287380Y-145502380D01*
X204239761Y-145502380D02*
X204335000Y-145502380D01*
X204430238Y-145550000D01*
X204477857Y-145597619D01*
X204525476Y-145692857D01*
X204573095Y-145883333D01*
X204573095Y-146121428D01*
X204525476Y-146311904D01*
X204477857Y-146407142D01*
X204430238Y-146454761D01*
X204335000Y-146502380D01*
X204239761Y-146502380D01*
X204144523Y-146454761D01*
X204096904Y-146407142D01*
X204049285Y-146311904D01*
X204001666Y-146121428D01*
X204001666Y-145883333D01*
X204049285Y-145692857D01*
X204096904Y-145597619D01*
X204144523Y-145550000D01*
X204239761Y-145502380D01*
X205001666Y-146502380D02*
X205001666Y-145502380D01*
X205573095Y-146502380D02*
X205144523Y-145930952D01*
X205573095Y-145502380D02*
X205001666Y-146073809D01*
X273717142Y-172251666D02*
X274193333Y-172251666D01*
X273621904Y-172537380D02*
X273955238Y-171537380D01*
X274288571Y-172537380D01*
X274479047Y-171537380D02*
X275050476Y-171537380D01*
X274764761Y-172537380D02*
X274764761Y-171537380D01*
X275240952Y-171537380D02*
X275812380Y-171537380D01*
X275526666Y-172537380D02*
X275526666Y-171537380D01*
X276145714Y-172537380D02*
X276145714Y-171537380D01*
X276621904Y-172537380D02*
X276621904Y-171537380D01*
X277193333Y-172537380D01*
X277193333Y-171537380D01*
X277860000Y-172061190D02*
X277860000Y-172537380D01*
X277526666Y-171537380D02*
X277860000Y-172061190D01*
X278193333Y-171537380D01*
X278955238Y-171870714D02*
X278955238Y-172537380D01*
X278717142Y-171489761D02*
X278479047Y-172204047D01*
X279098095Y-172204047D01*
X279955238Y-171537380D02*
X279479047Y-171537380D01*
X279431428Y-172013571D01*
X279479047Y-171965952D01*
X279574285Y-171918333D01*
X279812380Y-171918333D01*
X279907619Y-171965952D01*
X279955238Y-172013571D01*
X280002857Y-172108809D01*
X280002857Y-172346904D01*
X279955238Y-172442142D01*
X279907619Y-172489761D01*
X279812380Y-172537380D01*
X279574285Y-172537380D01*
X279479047Y-172489761D01*
X279431428Y-172442142D01*
X275622142Y-147486666D02*
X276098333Y-147486666D01*
X275526904Y-147772380D02*
X275860238Y-146772380D01*
X276193571Y-147772380D01*
X276384047Y-146772380D02*
X276955476Y-146772380D01*
X276669761Y-147772380D02*
X276669761Y-146772380D01*
X277145952Y-146772380D02*
X277717380Y-146772380D01*
X277431666Y-147772380D02*
X277431666Y-146772380D01*
X278050714Y-147772380D02*
X278050714Y-146772380D01*
X278526904Y-147772380D02*
X278526904Y-146772380D01*
X279098333Y-147772380D01*
X279098333Y-146772380D01*
X279765000Y-147296190D02*
X279765000Y-147772380D01*
X279431666Y-146772380D02*
X279765000Y-147296190D01*
X280098333Y-146772380D01*
X280860238Y-147105714D02*
X280860238Y-147772380D01*
X280622142Y-146724761D02*
X280384047Y-147439047D01*
X281003095Y-147439047D01*
X281860238Y-146772380D02*
X281384047Y-146772380D01*
X281336428Y-147248571D01*
X281384047Y-147200952D01*
X281479285Y-147153333D01*
X281717380Y-147153333D01*
X281812619Y-147200952D01*
X281860238Y-147248571D01*
X281907857Y-147343809D01*
X281907857Y-147581904D01*
X281860238Y-147677142D01*
X281812619Y-147724761D01*
X281717380Y-147772380D01*
X281479285Y-147772380D01*
X281384047Y-147724761D01*
X281336428Y-147677142D01*
X240474761Y-154662142D02*
X240427142Y-154709761D01*
X240284285Y-154757380D01*
X240189047Y-154757380D01*
X240046190Y-154709761D01*
X239950952Y-154614523D01*
X239903333Y-154519285D01*
X239855714Y-154328809D01*
X239855714Y-154185952D01*
X239903333Y-153995476D01*
X239950952Y-153900238D01*
X240046190Y-153805000D01*
X240189047Y-153757380D01*
X240284285Y-153757380D01*
X240427142Y-153805000D01*
X240474761Y-153852619D01*
X240903333Y-154757380D02*
X240903333Y-153757380D01*
X241141428Y-153757380D01*
X241284285Y-153805000D01*
X241379523Y-153900238D01*
X241427142Y-153995476D01*
X241474761Y-154185952D01*
X241474761Y-154328809D01*
X241427142Y-154519285D01*
X241379523Y-154614523D01*
X241284285Y-154709761D01*
X241141428Y-154757380D01*
X240903333Y-154757380D01*
X242331904Y-154090714D02*
X242331904Y-154757380D01*
X242093809Y-153709761D02*
X241855714Y-154424047D01*
X242474761Y-154424047D01*
X243046190Y-153757380D02*
X243141428Y-153757380D01*
X243236666Y-153805000D01*
X243284285Y-153852619D01*
X243331904Y-153947857D01*
X243379523Y-154138333D01*
X243379523Y-154376428D01*
X243331904Y-154566904D01*
X243284285Y-154662142D01*
X243236666Y-154709761D01*
X243141428Y-154757380D01*
X243046190Y-154757380D01*
X242950952Y-154709761D01*
X242903333Y-154662142D01*
X242855714Y-154566904D01*
X242808095Y-154376428D01*
X242808095Y-154138333D01*
X242855714Y-153947857D01*
X242903333Y-153852619D01*
X242950952Y-153805000D01*
X243046190Y-153757380D01*
X243712857Y-153757380D02*
X244379523Y-153757380D01*
X243950952Y-154757380D01*
X244665238Y-153757380D02*
X245331904Y-153757380D01*
X244903333Y-154757380D01*
X161099761Y-144502142D02*
X161052142Y-144549761D01*
X160909285Y-144597380D01*
X160814047Y-144597380D01*
X160671190Y-144549761D01*
X160575952Y-144454523D01*
X160528333Y-144359285D01*
X160480714Y-144168809D01*
X160480714Y-144025952D01*
X160528333Y-143835476D01*
X160575952Y-143740238D01*
X160671190Y-143645000D01*
X160814047Y-143597380D01*
X160909285Y-143597380D01*
X161052142Y-143645000D01*
X161099761Y-143692619D01*
X161528333Y-144597380D02*
X161528333Y-143597380D01*
X161766428Y-143597380D01*
X161909285Y-143645000D01*
X162004523Y-143740238D01*
X162052142Y-143835476D01*
X162099761Y-144025952D01*
X162099761Y-144168809D01*
X162052142Y-144359285D01*
X162004523Y-144454523D01*
X161909285Y-144549761D01*
X161766428Y-144597380D01*
X161528333Y-144597380D01*
X162956904Y-143930714D02*
X162956904Y-144597380D01*
X162718809Y-143549761D02*
X162480714Y-144264047D01*
X163099761Y-144264047D01*
X163671190Y-143597380D02*
X163766428Y-143597380D01*
X163861666Y-143645000D01*
X163909285Y-143692619D01*
X163956904Y-143787857D01*
X164004523Y-143978333D01*
X164004523Y-144216428D01*
X163956904Y-144406904D01*
X163909285Y-144502142D01*
X163861666Y-144549761D01*
X163766428Y-144597380D01*
X163671190Y-144597380D01*
X163575952Y-144549761D01*
X163528333Y-144502142D01*
X163480714Y-144406904D01*
X163433095Y-144216428D01*
X163433095Y-143978333D01*
X163480714Y-143787857D01*
X163528333Y-143692619D01*
X163575952Y-143645000D01*
X163671190Y-143597380D01*
X164480714Y-144597380D02*
X164671190Y-144597380D01*
X164766428Y-144549761D01*
X164814047Y-144502142D01*
X164909285Y-144359285D01*
X164956904Y-144168809D01*
X164956904Y-143787857D01*
X164909285Y-143692619D01*
X164861666Y-143645000D01*
X164766428Y-143597380D01*
X164575952Y-143597380D01*
X164480714Y-143645000D01*
X164433095Y-143692619D01*
X164385476Y-143787857D01*
X164385476Y-144025952D01*
X164433095Y-144121190D01*
X164480714Y-144168809D01*
X164575952Y-144216428D01*
X164766428Y-144216428D01*
X164861666Y-144168809D01*
X164909285Y-144121190D01*
X164956904Y-144025952D01*
X165290238Y-143597380D02*
X165909285Y-143597380D01*
X165575952Y-143978333D01*
X165718809Y-143978333D01*
X165814047Y-144025952D01*
X165861666Y-144073571D01*
X165909285Y-144168809D01*
X165909285Y-144406904D01*
X165861666Y-144502142D01*
X165814047Y-144549761D01*
X165718809Y-144597380D01*
X165433095Y-144597380D01*
X165337857Y-144549761D01*
X165290238Y-144502142D01*
X258207142Y-149677380D02*
X257635714Y-149677380D01*
X257921428Y-149677380D02*
X257921428Y-148677380D01*
X257826190Y-148820238D01*
X257730952Y-148915476D01*
X257635714Y-148963095D01*
X258635714Y-149677380D02*
X258635714Y-148677380D01*
X259207142Y-149677380D01*
X259207142Y-148677380D01*
X260111904Y-149010714D02*
X260111904Y-149677380D01*
X259873809Y-148629761D02*
X259635714Y-149344047D01*
X260254761Y-149344047D01*
X261159523Y-149677380D02*
X260588095Y-149677380D01*
X260873809Y-149677380D02*
X260873809Y-148677380D01*
X260778571Y-148820238D01*
X260683333Y-148915476D01*
X260588095Y-148963095D01*
X262016666Y-149010714D02*
X262016666Y-149677380D01*
X261778571Y-148629761D02*
X261540476Y-149344047D01*
X262159523Y-149344047D01*
X262683333Y-149105952D02*
X262588095Y-149058333D01*
X262540476Y-149010714D01*
X262492857Y-148915476D01*
X262492857Y-148867857D01*
X262540476Y-148772619D01*
X262588095Y-148725000D01*
X262683333Y-148677380D01*
X262873809Y-148677380D01*
X262969047Y-148725000D01*
X263016666Y-148772619D01*
X263064285Y-148867857D01*
X263064285Y-148915476D01*
X263016666Y-149010714D01*
X262969047Y-149058333D01*
X262873809Y-149105952D01*
X262683333Y-149105952D01*
X262588095Y-149153571D01*
X262540476Y-149201190D01*
X262492857Y-149296428D01*
X262492857Y-149486904D01*
X262540476Y-149582142D01*
X262588095Y-149629761D01*
X262683333Y-149677380D01*
X262873809Y-149677380D01*
X262969047Y-149629761D01*
X263016666Y-149582142D01*
X263064285Y-149486904D01*
X263064285Y-149296428D01*
X263016666Y-149201190D01*
X262969047Y-149153571D01*
X262873809Y-149105952D01*
X202668333Y-140422380D02*
X202477857Y-140422380D01*
X202382619Y-140470000D01*
X202335000Y-140517619D01*
X202239761Y-140660476D01*
X202192142Y-140850952D01*
X202192142Y-141231904D01*
X202239761Y-141327142D01*
X202287380Y-141374761D01*
X202382619Y-141422380D01*
X202573095Y-141422380D01*
X202668333Y-141374761D01*
X202715952Y-141327142D01*
X202763571Y-141231904D01*
X202763571Y-140993809D01*
X202715952Y-140898571D01*
X202668333Y-140850952D01*
X202573095Y-140803333D01*
X202382619Y-140803333D01*
X202287380Y-140850952D01*
X202239761Y-140898571D01*
X202192142Y-140993809D01*
X203335000Y-140850952D02*
X203239761Y-140803333D01*
X203192142Y-140755714D01*
X203144523Y-140660476D01*
X203144523Y-140612857D01*
X203192142Y-140517619D01*
X203239761Y-140470000D01*
X203335000Y-140422380D01*
X203525476Y-140422380D01*
X203620714Y-140470000D01*
X203668333Y-140517619D01*
X203715952Y-140612857D01*
X203715952Y-140660476D01*
X203668333Y-140755714D01*
X203620714Y-140803333D01*
X203525476Y-140850952D01*
X203335000Y-140850952D01*
X203239761Y-140898571D01*
X203192142Y-140946190D01*
X203144523Y-141041428D01*
X203144523Y-141231904D01*
X203192142Y-141327142D01*
X203239761Y-141374761D01*
X203335000Y-141422380D01*
X203525476Y-141422380D01*
X203620714Y-141374761D01*
X203668333Y-141327142D01*
X203715952Y-141231904D01*
X203715952Y-141041428D01*
X203668333Y-140946190D01*
X203620714Y-140898571D01*
X203525476Y-140850952D01*
X204144523Y-140755714D02*
X204144523Y-141422380D01*
X204144523Y-140850952D02*
X204192142Y-140803333D01*
X204287380Y-140755714D01*
X204430238Y-140755714D01*
X204525476Y-140803333D01*
X204573095Y-140898571D01*
X204573095Y-141422380D01*
X205382619Y-140898571D02*
X205049285Y-140898571D01*
X205049285Y-141422380D02*
X205049285Y-140422380D01*
X205525476Y-140422380D01*
X158472380Y-173172380D02*
X157900952Y-173172380D01*
X158186666Y-173172380D02*
X158186666Y-172172380D01*
X158091428Y-172315238D01*
X157996190Y-172410476D01*
X157900952Y-172458095D01*
X159091428Y-172172380D02*
X159186666Y-172172380D01*
X159281904Y-172220000D01*
X159329523Y-172267619D01*
X159377142Y-172362857D01*
X159424761Y-172553333D01*
X159424761Y-172791428D01*
X159377142Y-172981904D01*
X159329523Y-173077142D01*
X159281904Y-173124761D01*
X159186666Y-173172380D01*
X159091428Y-173172380D01*
X158996190Y-173124761D01*
X158948571Y-173077142D01*
X158900952Y-172981904D01*
X158853333Y-172791428D01*
X158853333Y-172553333D01*
X158900952Y-172362857D01*
X158948571Y-172267619D01*
X158996190Y-172220000D01*
X159091428Y-172172380D01*
X160043809Y-172172380D02*
X160139047Y-172172380D01*
X160234285Y-172220000D01*
X160281904Y-172267619D01*
X160329523Y-172362857D01*
X160377142Y-172553333D01*
X160377142Y-172791428D01*
X160329523Y-172981904D01*
X160281904Y-173077142D01*
X160234285Y-173124761D01*
X160139047Y-173172380D01*
X160043809Y-173172380D01*
X159948571Y-173124761D01*
X159900952Y-173077142D01*
X159853333Y-172981904D01*
X159805714Y-172791428D01*
X159805714Y-172553333D01*
X159853333Y-172362857D01*
X159900952Y-172267619D01*
X159948571Y-172220000D01*
X160043809Y-172172380D01*
X160805714Y-172505714D02*
X160805714Y-173172380D01*
X160805714Y-172600952D02*
X160853333Y-172553333D01*
X160948571Y-172505714D01*
X161091428Y-172505714D01*
X161186666Y-172553333D01*
X161234285Y-172648571D01*
X161234285Y-173172380D01*
X162043809Y-172648571D02*
X161710476Y-172648571D01*
X161710476Y-173172380D02*
X161710476Y-172172380D01*
X162186666Y-172172380D01*
X254103333Y-122007380D02*
X253912857Y-122007380D01*
X253817619Y-122055000D01*
X253770000Y-122102619D01*
X253674761Y-122245476D01*
X253627142Y-122435952D01*
X253627142Y-122816904D01*
X253674761Y-122912142D01*
X253722380Y-122959761D01*
X253817619Y-123007380D01*
X254008095Y-123007380D01*
X254103333Y-122959761D01*
X254150952Y-122912142D01*
X254198571Y-122816904D01*
X254198571Y-122578809D01*
X254150952Y-122483571D01*
X254103333Y-122435952D01*
X254008095Y-122388333D01*
X253817619Y-122388333D01*
X253722380Y-122435952D01*
X253674761Y-122483571D01*
X253627142Y-122578809D01*
X254770000Y-122435952D02*
X254674761Y-122388333D01*
X254627142Y-122340714D01*
X254579523Y-122245476D01*
X254579523Y-122197857D01*
X254627142Y-122102619D01*
X254674761Y-122055000D01*
X254770000Y-122007380D01*
X254960476Y-122007380D01*
X255055714Y-122055000D01*
X255103333Y-122102619D01*
X255150952Y-122197857D01*
X255150952Y-122245476D01*
X255103333Y-122340714D01*
X255055714Y-122388333D01*
X254960476Y-122435952D01*
X254770000Y-122435952D01*
X254674761Y-122483571D01*
X254627142Y-122531190D01*
X254579523Y-122626428D01*
X254579523Y-122816904D01*
X254627142Y-122912142D01*
X254674761Y-122959761D01*
X254770000Y-123007380D01*
X254960476Y-123007380D01*
X255055714Y-122959761D01*
X255103333Y-122912142D01*
X255150952Y-122816904D01*
X255150952Y-122626428D01*
X255103333Y-122531190D01*
X255055714Y-122483571D01*
X254960476Y-122435952D01*
X255579523Y-122340714D02*
X255579523Y-123007380D01*
X255579523Y-122435952D02*
X255627142Y-122388333D01*
X255722380Y-122340714D01*
X255865238Y-122340714D01*
X255960476Y-122388333D01*
X256008095Y-122483571D01*
X256008095Y-123007380D01*
X256817619Y-122483571D02*
X256484285Y-122483571D01*
X256484285Y-123007380D02*
X256484285Y-122007380D01*
X256960476Y-122007380D01*
X145772380Y-157297380D02*
X145200952Y-157297380D01*
X145486666Y-157297380D02*
X145486666Y-156297380D01*
X145391428Y-156440238D01*
X145296190Y-156535476D01*
X145200952Y-156583095D01*
X146391428Y-156297380D02*
X146486666Y-156297380D01*
X146581904Y-156345000D01*
X146629523Y-156392619D01*
X146677142Y-156487857D01*
X146724761Y-156678333D01*
X146724761Y-156916428D01*
X146677142Y-157106904D01*
X146629523Y-157202142D01*
X146581904Y-157249761D01*
X146486666Y-157297380D01*
X146391428Y-157297380D01*
X146296190Y-157249761D01*
X146248571Y-157202142D01*
X146200952Y-157106904D01*
X146153333Y-156916428D01*
X146153333Y-156678333D01*
X146200952Y-156487857D01*
X146248571Y-156392619D01*
X146296190Y-156345000D01*
X146391428Y-156297380D01*
X147343809Y-156297380D02*
X147439047Y-156297380D01*
X147534285Y-156345000D01*
X147581904Y-156392619D01*
X147629523Y-156487857D01*
X147677142Y-156678333D01*
X147677142Y-156916428D01*
X147629523Y-157106904D01*
X147581904Y-157202142D01*
X147534285Y-157249761D01*
X147439047Y-157297380D01*
X147343809Y-157297380D01*
X147248571Y-157249761D01*
X147200952Y-157202142D01*
X147153333Y-157106904D01*
X147105714Y-156916428D01*
X147105714Y-156678333D01*
X147153333Y-156487857D01*
X147200952Y-156392619D01*
X147248571Y-156345000D01*
X147343809Y-156297380D01*
X148105714Y-156630714D02*
X148105714Y-157297380D01*
X148105714Y-156725952D02*
X148153333Y-156678333D01*
X148248571Y-156630714D01*
X148391428Y-156630714D01*
X148486666Y-156678333D01*
X148534285Y-156773571D01*
X148534285Y-157297380D01*
X149343809Y-156773571D02*
X149010476Y-156773571D01*
X149010476Y-157297380D02*
X149010476Y-156297380D01*
X149486666Y-156297380D01*
X126468333Y-140422380D02*
X126277857Y-140422380D01*
X126182619Y-140470000D01*
X126135000Y-140517619D01*
X126039761Y-140660476D01*
X125992142Y-140850952D01*
X125992142Y-141231904D01*
X126039761Y-141327142D01*
X126087380Y-141374761D01*
X126182619Y-141422380D01*
X126373095Y-141422380D01*
X126468333Y-141374761D01*
X126515952Y-141327142D01*
X126563571Y-141231904D01*
X126563571Y-140993809D01*
X126515952Y-140898571D01*
X126468333Y-140850952D01*
X126373095Y-140803333D01*
X126182619Y-140803333D01*
X126087380Y-140850952D01*
X126039761Y-140898571D01*
X125992142Y-140993809D01*
X127135000Y-140850952D02*
X127039761Y-140803333D01*
X126992142Y-140755714D01*
X126944523Y-140660476D01*
X126944523Y-140612857D01*
X126992142Y-140517619D01*
X127039761Y-140470000D01*
X127135000Y-140422380D01*
X127325476Y-140422380D01*
X127420714Y-140470000D01*
X127468333Y-140517619D01*
X127515952Y-140612857D01*
X127515952Y-140660476D01*
X127468333Y-140755714D01*
X127420714Y-140803333D01*
X127325476Y-140850952D01*
X127135000Y-140850952D01*
X127039761Y-140898571D01*
X126992142Y-140946190D01*
X126944523Y-141041428D01*
X126944523Y-141231904D01*
X126992142Y-141327142D01*
X127039761Y-141374761D01*
X127135000Y-141422380D01*
X127325476Y-141422380D01*
X127420714Y-141374761D01*
X127468333Y-141327142D01*
X127515952Y-141231904D01*
X127515952Y-141041428D01*
X127468333Y-140946190D01*
X127420714Y-140898571D01*
X127325476Y-140850952D01*
X127944523Y-140755714D02*
X127944523Y-141422380D01*
X127944523Y-140850952D02*
X127992142Y-140803333D01*
X128087380Y-140755714D01*
X128230238Y-140755714D01*
X128325476Y-140803333D01*
X128373095Y-140898571D01*
X128373095Y-141422380D01*
X129182619Y-140898571D02*
X128849285Y-140898571D01*
X128849285Y-141422380D02*
X128849285Y-140422380D01*
X129325476Y-140422380D01*
X142343333Y-140422380D02*
X142152857Y-140422380D01*
X142057619Y-140470000D01*
X142010000Y-140517619D01*
X141914761Y-140660476D01*
X141867142Y-140850952D01*
X141867142Y-141231904D01*
X141914761Y-141327142D01*
X141962380Y-141374761D01*
X142057619Y-141422380D01*
X142248095Y-141422380D01*
X142343333Y-141374761D01*
X142390952Y-141327142D01*
X142438571Y-141231904D01*
X142438571Y-140993809D01*
X142390952Y-140898571D01*
X142343333Y-140850952D01*
X142248095Y-140803333D01*
X142057619Y-140803333D01*
X141962380Y-140850952D01*
X141914761Y-140898571D01*
X141867142Y-140993809D01*
X143010000Y-140850952D02*
X142914761Y-140803333D01*
X142867142Y-140755714D01*
X142819523Y-140660476D01*
X142819523Y-140612857D01*
X142867142Y-140517619D01*
X142914761Y-140470000D01*
X143010000Y-140422380D01*
X143200476Y-140422380D01*
X143295714Y-140470000D01*
X143343333Y-140517619D01*
X143390952Y-140612857D01*
X143390952Y-140660476D01*
X143343333Y-140755714D01*
X143295714Y-140803333D01*
X143200476Y-140850952D01*
X143010000Y-140850952D01*
X142914761Y-140898571D01*
X142867142Y-140946190D01*
X142819523Y-141041428D01*
X142819523Y-141231904D01*
X142867142Y-141327142D01*
X142914761Y-141374761D01*
X143010000Y-141422380D01*
X143200476Y-141422380D01*
X143295714Y-141374761D01*
X143343333Y-141327142D01*
X143390952Y-141231904D01*
X143390952Y-141041428D01*
X143343333Y-140946190D01*
X143295714Y-140898571D01*
X143200476Y-140850952D01*
X143819523Y-140755714D02*
X143819523Y-141422380D01*
X143819523Y-140850952D02*
X143867142Y-140803333D01*
X143962380Y-140755714D01*
X144105238Y-140755714D01*
X144200476Y-140803333D01*
X144248095Y-140898571D01*
X144248095Y-141422380D01*
X145057619Y-140898571D02*
X144724285Y-140898571D01*
X144724285Y-141422380D02*
X144724285Y-140422380D01*
X145200476Y-140422380D01*
X186158333Y-140422380D02*
X185967857Y-140422380D01*
X185872619Y-140470000D01*
X185825000Y-140517619D01*
X185729761Y-140660476D01*
X185682142Y-140850952D01*
X185682142Y-141231904D01*
X185729761Y-141327142D01*
X185777380Y-141374761D01*
X185872619Y-141422380D01*
X186063095Y-141422380D01*
X186158333Y-141374761D01*
X186205952Y-141327142D01*
X186253571Y-141231904D01*
X186253571Y-140993809D01*
X186205952Y-140898571D01*
X186158333Y-140850952D01*
X186063095Y-140803333D01*
X185872619Y-140803333D01*
X185777380Y-140850952D01*
X185729761Y-140898571D01*
X185682142Y-140993809D01*
X186825000Y-140850952D02*
X186729761Y-140803333D01*
X186682142Y-140755714D01*
X186634523Y-140660476D01*
X186634523Y-140612857D01*
X186682142Y-140517619D01*
X186729761Y-140470000D01*
X186825000Y-140422380D01*
X187015476Y-140422380D01*
X187110714Y-140470000D01*
X187158333Y-140517619D01*
X187205952Y-140612857D01*
X187205952Y-140660476D01*
X187158333Y-140755714D01*
X187110714Y-140803333D01*
X187015476Y-140850952D01*
X186825000Y-140850952D01*
X186729761Y-140898571D01*
X186682142Y-140946190D01*
X186634523Y-141041428D01*
X186634523Y-141231904D01*
X186682142Y-141327142D01*
X186729761Y-141374761D01*
X186825000Y-141422380D01*
X187015476Y-141422380D01*
X187110714Y-141374761D01*
X187158333Y-141327142D01*
X187205952Y-141231904D01*
X187205952Y-141041428D01*
X187158333Y-140946190D01*
X187110714Y-140898571D01*
X187015476Y-140850952D01*
X187634523Y-140755714D02*
X187634523Y-141422380D01*
X187634523Y-140850952D02*
X187682142Y-140803333D01*
X187777380Y-140755714D01*
X187920238Y-140755714D01*
X188015476Y-140803333D01*
X188063095Y-140898571D01*
X188063095Y-141422380D01*
X188872619Y-140898571D02*
X188539285Y-140898571D01*
X188539285Y-141422380D02*
X188539285Y-140422380D01*
X189015476Y-140422380D01*
X196572380Y-197937380D02*
X196000952Y-197937380D01*
X196286666Y-197937380D02*
X196286666Y-196937380D01*
X196191428Y-197080238D01*
X196096190Y-197175476D01*
X196000952Y-197223095D01*
X197191428Y-196937380D02*
X197286666Y-196937380D01*
X197381904Y-196985000D01*
X197429523Y-197032619D01*
X197477142Y-197127857D01*
X197524761Y-197318333D01*
X197524761Y-197556428D01*
X197477142Y-197746904D01*
X197429523Y-197842142D01*
X197381904Y-197889761D01*
X197286666Y-197937380D01*
X197191428Y-197937380D01*
X197096190Y-197889761D01*
X197048571Y-197842142D01*
X197000952Y-197746904D01*
X196953333Y-197556428D01*
X196953333Y-197318333D01*
X197000952Y-197127857D01*
X197048571Y-197032619D01*
X197096190Y-196985000D01*
X197191428Y-196937380D01*
X198143809Y-196937380D02*
X198239047Y-196937380D01*
X198334285Y-196985000D01*
X198381904Y-197032619D01*
X198429523Y-197127857D01*
X198477142Y-197318333D01*
X198477142Y-197556428D01*
X198429523Y-197746904D01*
X198381904Y-197842142D01*
X198334285Y-197889761D01*
X198239047Y-197937380D01*
X198143809Y-197937380D01*
X198048571Y-197889761D01*
X198000952Y-197842142D01*
X197953333Y-197746904D01*
X197905714Y-197556428D01*
X197905714Y-197318333D01*
X197953333Y-197127857D01*
X198000952Y-197032619D01*
X198048571Y-196985000D01*
X198143809Y-196937380D01*
X198905714Y-197270714D02*
X198905714Y-197937380D01*
X198905714Y-197365952D02*
X198953333Y-197318333D01*
X199048571Y-197270714D01*
X199191428Y-197270714D01*
X199286666Y-197318333D01*
X199334285Y-197413571D01*
X199334285Y-197937380D01*
X200143809Y-197413571D02*
X199810476Y-197413571D01*
X199810476Y-197937380D02*
X199810476Y-196937380D01*
X200286666Y-196937380D01*
X148217142Y-169092619D02*
X148264761Y-169045000D01*
X148360000Y-168997380D01*
X148598095Y-168997380D01*
X148693333Y-169045000D01*
X148740952Y-169092619D01*
X148788571Y-169187857D01*
X148788571Y-169283095D01*
X148740952Y-169425952D01*
X148169523Y-169997380D01*
X148788571Y-169997380D01*
X149169523Y-169092619D02*
X149217142Y-169045000D01*
X149312380Y-168997380D01*
X149550476Y-168997380D01*
X149645714Y-169045000D01*
X149693333Y-169092619D01*
X149740952Y-169187857D01*
X149740952Y-169283095D01*
X149693333Y-169425952D01*
X149121904Y-169997380D01*
X149740952Y-169997380D01*
X150169523Y-169330714D02*
X150169523Y-169997380D01*
X150169523Y-169425952D02*
X150217142Y-169378333D01*
X150312380Y-169330714D01*
X150455238Y-169330714D01*
X150550476Y-169378333D01*
X150598095Y-169473571D01*
X150598095Y-169997380D01*
X151407619Y-169473571D02*
X151074285Y-169473571D01*
X151074285Y-169997380D02*
X151074285Y-168997380D01*
X151550476Y-168997380D01*
X185618571Y-173807380D02*
X185047142Y-173807380D01*
X185332857Y-173807380D02*
X185332857Y-172807380D01*
X185237619Y-172950238D01*
X185142380Y-173045476D01*
X185047142Y-173093095D01*
X186237619Y-172807380D02*
X186332857Y-172807380D01*
X186428095Y-172855000D01*
X186475714Y-172902619D01*
X186523333Y-172997857D01*
X186570952Y-173188333D01*
X186570952Y-173426428D01*
X186523333Y-173616904D01*
X186475714Y-173712142D01*
X186428095Y-173759761D01*
X186332857Y-173807380D01*
X186237619Y-173807380D01*
X186142380Y-173759761D01*
X186094761Y-173712142D01*
X186047142Y-173616904D01*
X185999523Y-173426428D01*
X185999523Y-173188333D01*
X186047142Y-172997857D01*
X186094761Y-172902619D01*
X186142380Y-172855000D01*
X186237619Y-172807380D01*
X186999523Y-173140714D02*
X186999523Y-173807380D01*
X186999523Y-173235952D02*
X187047142Y-173188333D01*
X187142380Y-173140714D01*
X187285238Y-173140714D01*
X187380476Y-173188333D01*
X187428095Y-173283571D01*
X187428095Y-173807380D01*
X188237619Y-173283571D02*
X187904285Y-173283571D01*
X187904285Y-173807380D02*
X187904285Y-172807380D01*
X188380476Y-172807380D01*
X173077380Y-128722380D02*
X172505952Y-128722380D01*
X172791666Y-128722380D02*
X172791666Y-127722380D01*
X172696428Y-127865238D01*
X172601190Y-127960476D01*
X172505952Y-128008095D01*
X173696428Y-127722380D02*
X173791666Y-127722380D01*
X173886904Y-127770000D01*
X173934523Y-127817619D01*
X173982142Y-127912857D01*
X174029761Y-128103333D01*
X174029761Y-128341428D01*
X173982142Y-128531904D01*
X173934523Y-128627142D01*
X173886904Y-128674761D01*
X173791666Y-128722380D01*
X173696428Y-128722380D01*
X173601190Y-128674761D01*
X173553571Y-128627142D01*
X173505952Y-128531904D01*
X173458333Y-128341428D01*
X173458333Y-128103333D01*
X173505952Y-127912857D01*
X173553571Y-127817619D01*
X173601190Y-127770000D01*
X173696428Y-127722380D01*
X174648809Y-127722380D02*
X174744047Y-127722380D01*
X174839285Y-127770000D01*
X174886904Y-127817619D01*
X174934523Y-127912857D01*
X174982142Y-128103333D01*
X174982142Y-128341428D01*
X174934523Y-128531904D01*
X174886904Y-128627142D01*
X174839285Y-128674761D01*
X174744047Y-128722380D01*
X174648809Y-128722380D01*
X174553571Y-128674761D01*
X174505952Y-128627142D01*
X174458333Y-128531904D01*
X174410714Y-128341428D01*
X174410714Y-128103333D01*
X174458333Y-127912857D01*
X174505952Y-127817619D01*
X174553571Y-127770000D01*
X174648809Y-127722380D01*
X175410714Y-128055714D02*
X175410714Y-128722380D01*
X175410714Y-128150952D02*
X175458333Y-128103333D01*
X175553571Y-128055714D01*
X175696428Y-128055714D01*
X175791666Y-128103333D01*
X175839285Y-128198571D01*
X175839285Y-128722380D01*
X176648809Y-128198571D02*
X176315476Y-128198571D01*
X176315476Y-128722380D02*
X176315476Y-127722380D01*
X176791666Y-127722380D01*
X221972380Y-131262380D02*
X221400952Y-131262380D01*
X221686666Y-131262380D02*
X221686666Y-130262380D01*
X221591428Y-130405238D01*
X221496190Y-130500476D01*
X221400952Y-130548095D01*
X222591428Y-130262380D02*
X222686666Y-130262380D01*
X222781904Y-130310000D01*
X222829523Y-130357619D01*
X222877142Y-130452857D01*
X222924761Y-130643333D01*
X222924761Y-130881428D01*
X222877142Y-131071904D01*
X222829523Y-131167142D01*
X222781904Y-131214761D01*
X222686666Y-131262380D01*
X222591428Y-131262380D01*
X222496190Y-131214761D01*
X222448571Y-131167142D01*
X222400952Y-131071904D01*
X222353333Y-130881428D01*
X222353333Y-130643333D01*
X222400952Y-130452857D01*
X222448571Y-130357619D01*
X222496190Y-130310000D01*
X222591428Y-130262380D01*
X223543809Y-130262380D02*
X223639047Y-130262380D01*
X223734285Y-130310000D01*
X223781904Y-130357619D01*
X223829523Y-130452857D01*
X223877142Y-130643333D01*
X223877142Y-130881428D01*
X223829523Y-131071904D01*
X223781904Y-131167142D01*
X223734285Y-131214761D01*
X223639047Y-131262380D01*
X223543809Y-131262380D01*
X223448571Y-131214761D01*
X223400952Y-131167142D01*
X223353333Y-131071904D01*
X223305714Y-130881428D01*
X223305714Y-130643333D01*
X223353333Y-130452857D01*
X223400952Y-130357619D01*
X223448571Y-130310000D01*
X223543809Y-130262380D01*
X224305714Y-130595714D02*
X224305714Y-131262380D01*
X224305714Y-130690952D02*
X224353333Y-130643333D01*
X224448571Y-130595714D01*
X224591428Y-130595714D01*
X224686666Y-130643333D01*
X224734285Y-130738571D01*
X224734285Y-131262380D01*
X225543809Y-130738571D02*
X225210476Y-130738571D01*
X225210476Y-131262380D02*
X225210476Y-130262380D01*
X225686666Y-130262380D01*
X202192142Y-172902619D02*
X202239761Y-172855000D01*
X202335000Y-172807380D01*
X202573095Y-172807380D01*
X202668333Y-172855000D01*
X202715952Y-172902619D01*
X202763571Y-172997857D01*
X202763571Y-173093095D01*
X202715952Y-173235952D01*
X202144523Y-173807380D01*
X202763571Y-173807380D01*
X203144523Y-172902619D02*
X203192142Y-172855000D01*
X203287380Y-172807380D01*
X203525476Y-172807380D01*
X203620714Y-172855000D01*
X203668333Y-172902619D01*
X203715952Y-172997857D01*
X203715952Y-173093095D01*
X203668333Y-173235952D01*
X203096904Y-173807380D01*
X203715952Y-173807380D01*
X204144523Y-173140714D02*
X204144523Y-173807380D01*
X204144523Y-173235952D02*
X204192142Y-173188333D01*
X204287380Y-173140714D01*
X204430238Y-173140714D01*
X204525476Y-173188333D01*
X204573095Y-173283571D01*
X204573095Y-173807380D01*
X205382619Y-173283571D02*
X205049285Y-173283571D01*
X205049285Y-173807380D02*
X205049285Y-172807380D01*
X205525476Y-172807380D01*
X145772380Y-197937380D02*
X145200952Y-197937380D01*
X145486666Y-197937380D02*
X145486666Y-196937380D01*
X145391428Y-197080238D01*
X145296190Y-197175476D01*
X145200952Y-197223095D01*
X146391428Y-196937380D02*
X146486666Y-196937380D01*
X146581904Y-196985000D01*
X146629523Y-197032619D01*
X146677142Y-197127857D01*
X146724761Y-197318333D01*
X146724761Y-197556428D01*
X146677142Y-197746904D01*
X146629523Y-197842142D01*
X146581904Y-197889761D01*
X146486666Y-197937380D01*
X146391428Y-197937380D01*
X146296190Y-197889761D01*
X146248571Y-197842142D01*
X146200952Y-197746904D01*
X146153333Y-197556428D01*
X146153333Y-197318333D01*
X146200952Y-197127857D01*
X146248571Y-197032619D01*
X146296190Y-196985000D01*
X146391428Y-196937380D01*
X147343809Y-196937380D02*
X147439047Y-196937380D01*
X147534285Y-196985000D01*
X147581904Y-197032619D01*
X147629523Y-197127857D01*
X147677142Y-197318333D01*
X147677142Y-197556428D01*
X147629523Y-197746904D01*
X147581904Y-197842142D01*
X147534285Y-197889761D01*
X147439047Y-197937380D01*
X147343809Y-197937380D01*
X147248571Y-197889761D01*
X147200952Y-197842142D01*
X147153333Y-197746904D01*
X147105714Y-197556428D01*
X147105714Y-197318333D01*
X147153333Y-197127857D01*
X147200952Y-197032619D01*
X147248571Y-196985000D01*
X147343809Y-196937380D01*
X148105714Y-197270714D02*
X148105714Y-197937380D01*
X148105714Y-197365952D02*
X148153333Y-197318333D01*
X148248571Y-197270714D01*
X148391428Y-197270714D01*
X148486666Y-197318333D01*
X148534285Y-197413571D01*
X148534285Y-197937380D01*
X149343809Y-197413571D02*
X149010476Y-197413571D01*
X149010476Y-197937380D02*
X149010476Y-196937380D01*
X149486666Y-196937380D01*
X171172380Y-197937380D02*
X170600952Y-197937380D01*
X170886666Y-197937380D02*
X170886666Y-196937380D01*
X170791428Y-197080238D01*
X170696190Y-197175476D01*
X170600952Y-197223095D01*
X171791428Y-196937380D02*
X171886666Y-196937380D01*
X171981904Y-196985000D01*
X172029523Y-197032619D01*
X172077142Y-197127857D01*
X172124761Y-197318333D01*
X172124761Y-197556428D01*
X172077142Y-197746904D01*
X172029523Y-197842142D01*
X171981904Y-197889761D01*
X171886666Y-197937380D01*
X171791428Y-197937380D01*
X171696190Y-197889761D01*
X171648571Y-197842142D01*
X171600952Y-197746904D01*
X171553333Y-197556428D01*
X171553333Y-197318333D01*
X171600952Y-197127857D01*
X171648571Y-197032619D01*
X171696190Y-196985000D01*
X171791428Y-196937380D01*
X172743809Y-196937380D02*
X172839047Y-196937380D01*
X172934285Y-196985000D01*
X172981904Y-197032619D01*
X173029523Y-197127857D01*
X173077142Y-197318333D01*
X173077142Y-197556428D01*
X173029523Y-197746904D01*
X172981904Y-197842142D01*
X172934285Y-197889761D01*
X172839047Y-197937380D01*
X172743809Y-197937380D01*
X172648571Y-197889761D01*
X172600952Y-197842142D01*
X172553333Y-197746904D01*
X172505714Y-197556428D01*
X172505714Y-197318333D01*
X172553333Y-197127857D01*
X172600952Y-197032619D01*
X172648571Y-196985000D01*
X172743809Y-196937380D01*
X173505714Y-197270714D02*
X173505714Y-197937380D01*
X173505714Y-197365952D02*
X173553333Y-197318333D01*
X173648571Y-197270714D01*
X173791428Y-197270714D01*
X173886666Y-197318333D01*
X173934285Y-197413571D01*
X173934285Y-197937380D01*
X174743809Y-197413571D02*
X174410476Y-197413571D01*
X174410476Y-197937380D02*
X174410476Y-196937380D01*
X174886666Y-196937380D01*
X136541190Y-151217380D02*
X136731666Y-151217380D01*
X136826904Y-151265000D01*
X136922142Y-151360238D01*
X136969761Y-151550714D01*
X136969761Y-151884047D01*
X136922142Y-152074523D01*
X136826904Y-152169761D01*
X136731666Y-152217380D01*
X136541190Y-152217380D01*
X136445952Y-152169761D01*
X136350714Y-152074523D01*
X136303095Y-151884047D01*
X136303095Y-151550714D01*
X136350714Y-151360238D01*
X136445952Y-151265000D01*
X136541190Y-151217380D01*
X137398333Y-152217380D02*
X137398333Y-151217380D01*
X137969761Y-152217380D01*
X137969761Y-151217380D01*
X139160238Y-151169761D02*
X138303095Y-152455476D01*
X139684047Y-151217380D02*
X139874523Y-151217380D01*
X139969761Y-151265000D01*
X140065000Y-151360238D01*
X140112619Y-151550714D01*
X140112619Y-151884047D01*
X140065000Y-152074523D01*
X139969761Y-152169761D01*
X139874523Y-152217380D01*
X139684047Y-152217380D01*
X139588809Y-152169761D01*
X139493571Y-152074523D01*
X139445952Y-151884047D01*
X139445952Y-151550714D01*
X139493571Y-151360238D01*
X139588809Y-151265000D01*
X139684047Y-151217380D01*
X140874523Y-151693571D02*
X140541190Y-151693571D01*
X140541190Y-152217380D02*
X140541190Y-151217380D01*
X141017380Y-151217380D01*
X141731666Y-151693571D02*
X141398333Y-151693571D01*
X141398333Y-152217380D02*
X141398333Y-151217380D01*
X141874523Y-151217380D01*
X273391428Y-136342380D02*
X272820000Y-136342380D01*
X273105714Y-136342380D02*
X273105714Y-135342380D01*
X273010476Y-135485238D01*
X272915238Y-135580476D01*
X272820000Y-135628095D01*
X274010476Y-135342380D02*
X274105714Y-135342380D01*
X274200952Y-135390000D01*
X274248571Y-135437619D01*
X274296190Y-135532857D01*
X274343809Y-135723333D01*
X274343809Y-135961428D01*
X274296190Y-136151904D01*
X274248571Y-136247142D01*
X274200952Y-136294761D01*
X274105714Y-136342380D01*
X274010476Y-136342380D01*
X273915238Y-136294761D01*
X273867619Y-136247142D01*
X273820000Y-136151904D01*
X273772380Y-135961428D01*
X273772380Y-135723333D01*
X273820000Y-135532857D01*
X273867619Y-135437619D01*
X273915238Y-135390000D01*
X274010476Y-135342380D01*
X275200952Y-135675714D02*
X275200952Y-136342380D01*
X274772380Y-135675714D02*
X274772380Y-136199523D01*
X274820000Y-136294761D01*
X274915238Y-136342380D01*
X275058095Y-136342380D01*
X275153333Y-136294761D01*
X275200952Y-136247142D01*
X275534285Y-135675714D02*
X275915238Y-135675714D01*
X275677142Y-136342380D02*
X275677142Y-135485238D01*
X275724761Y-135390000D01*
X275820000Y-135342380D01*
X275915238Y-135342380D01*
X251007619Y-141422380D02*
X250436190Y-141422380D01*
X250721904Y-141422380D02*
X250721904Y-140422380D01*
X250626666Y-140565238D01*
X250531428Y-140660476D01*
X250436190Y-140708095D01*
X251864761Y-140755714D02*
X251864761Y-141422380D01*
X251436190Y-140755714D02*
X251436190Y-141279523D01*
X251483809Y-141374761D01*
X251579047Y-141422380D01*
X251721904Y-141422380D01*
X251817142Y-141374761D01*
X251864761Y-141327142D01*
X252198095Y-140755714D02*
X252579047Y-140755714D01*
X252340952Y-141422380D02*
X252340952Y-140565238D01*
X252388571Y-140470000D01*
X252483809Y-140422380D01*
X252579047Y-140422380D01*
X223861428Y-199842380D02*
X223290000Y-199842380D01*
X223575714Y-199842380D02*
X223575714Y-198842380D01*
X223480476Y-198985238D01*
X223385238Y-199080476D01*
X223290000Y-199128095D01*
X224480476Y-198842380D02*
X224575714Y-198842380D01*
X224670952Y-198890000D01*
X224718571Y-198937619D01*
X224766190Y-199032857D01*
X224813809Y-199223333D01*
X224813809Y-199461428D01*
X224766190Y-199651904D01*
X224718571Y-199747142D01*
X224670952Y-199794761D01*
X224575714Y-199842380D01*
X224480476Y-199842380D01*
X224385238Y-199794761D01*
X224337619Y-199747142D01*
X224290000Y-199651904D01*
X224242380Y-199461428D01*
X224242380Y-199223333D01*
X224290000Y-199032857D01*
X224337619Y-198937619D01*
X224385238Y-198890000D01*
X224480476Y-198842380D01*
X225670952Y-199175714D02*
X225670952Y-199842380D01*
X225242380Y-199175714D02*
X225242380Y-199699523D01*
X225290000Y-199794761D01*
X225385238Y-199842380D01*
X225528095Y-199842380D01*
X225623333Y-199794761D01*
X225670952Y-199747142D01*
X226004285Y-199175714D02*
X226385238Y-199175714D01*
X226147142Y-199842380D02*
X226147142Y-198985238D01*
X226194761Y-198890000D01*
X226290000Y-198842380D01*
X226385238Y-198842380D01*
X258627619Y-141422380D02*
X258056190Y-141422380D01*
X258341904Y-141422380D02*
X258341904Y-140422380D01*
X258246666Y-140565238D01*
X258151428Y-140660476D01*
X258056190Y-140708095D01*
X259484761Y-140755714D02*
X259484761Y-141422380D01*
X259056190Y-140755714D02*
X259056190Y-141279523D01*
X259103809Y-141374761D01*
X259199047Y-141422380D01*
X259341904Y-141422380D01*
X259437142Y-141374761D01*
X259484761Y-141327142D01*
X259818095Y-140755714D02*
X260199047Y-140755714D01*
X259960952Y-141422380D02*
X259960952Y-140565238D01*
X260008571Y-140470000D01*
X260103809Y-140422380D01*
X260199047Y-140422380D01*
X293552619Y-145867380D02*
X292981190Y-145867380D01*
X293266904Y-145867380D02*
X293266904Y-144867380D01*
X293171666Y-145010238D01*
X293076428Y-145105476D01*
X292981190Y-145153095D01*
X294409761Y-145200714D02*
X294409761Y-145867380D01*
X293981190Y-145200714D02*
X293981190Y-145724523D01*
X294028809Y-145819761D01*
X294124047Y-145867380D01*
X294266904Y-145867380D01*
X294362142Y-145819761D01*
X294409761Y-145772142D01*
X294743095Y-145200714D02*
X295124047Y-145200714D01*
X294885952Y-145867380D02*
X294885952Y-145010238D01*
X294933571Y-144915000D01*
X295028809Y-144867380D01*
X295124047Y-144867380D01*
X137517380Y-175712380D02*
X136945952Y-175712380D01*
X137231666Y-175712380D02*
X137231666Y-174712380D01*
X137136428Y-174855238D01*
X137041190Y-174950476D01*
X136945952Y-174998095D01*
X138136428Y-174712380D02*
X138231666Y-174712380D01*
X138326904Y-174760000D01*
X138374523Y-174807619D01*
X138422142Y-174902857D01*
X138469761Y-175093333D01*
X138469761Y-175331428D01*
X138422142Y-175521904D01*
X138374523Y-175617142D01*
X138326904Y-175664761D01*
X138231666Y-175712380D01*
X138136428Y-175712380D01*
X138041190Y-175664761D01*
X137993571Y-175617142D01*
X137945952Y-175521904D01*
X137898333Y-175331428D01*
X137898333Y-175093333D01*
X137945952Y-174902857D01*
X137993571Y-174807619D01*
X138041190Y-174760000D01*
X138136428Y-174712380D01*
X139088809Y-174712380D02*
X139184047Y-174712380D01*
X139279285Y-174760000D01*
X139326904Y-174807619D01*
X139374523Y-174902857D01*
X139422142Y-175093333D01*
X139422142Y-175331428D01*
X139374523Y-175521904D01*
X139326904Y-175617142D01*
X139279285Y-175664761D01*
X139184047Y-175712380D01*
X139088809Y-175712380D01*
X138993571Y-175664761D01*
X138945952Y-175617142D01*
X138898333Y-175521904D01*
X138850714Y-175331428D01*
X138850714Y-175093333D01*
X138898333Y-174902857D01*
X138945952Y-174807619D01*
X138993571Y-174760000D01*
X139088809Y-174712380D01*
X140279285Y-175045714D02*
X140279285Y-175712380D01*
X139850714Y-175045714D02*
X139850714Y-175569523D01*
X139898333Y-175664761D01*
X139993571Y-175712380D01*
X140136428Y-175712380D01*
X140231666Y-175664761D01*
X140279285Y-175617142D01*
X141088809Y-175188571D02*
X140755476Y-175188571D01*
X140755476Y-175712380D02*
X140755476Y-174712380D01*
X141231666Y-174712380D01*
X126770000Y-163615714D02*
X126770000Y-164282380D01*
X126531904Y-163234761D02*
X126293809Y-163949047D01*
X126912857Y-163949047D01*
X127198571Y-163282380D02*
X127865238Y-163282380D01*
X127436666Y-164282380D01*
X128436666Y-163282380D02*
X128531904Y-163282380D01*
X128627142Y-163330000D01*
X128674761Y-163377619D01*
X128722380Y-163472857D01*
X128770000Y-163663333D01*
X128770000Y-163901428D01*
X128722380Y-164091904D01*
X128674761Y-164187142D01*
X128627142Y-164234761D01*
X128531904Y-164282380D01*
X128436666Y-164282380D01*
X128341428Y-164234761D01*
X128293809Y-164187142D01*
X128246190Y-164091904D01*
X128198571Y-163901428D01*
X128198571Y-163663333D01*
X128246190Y-163472857D01*
X128293809Y-163377619D01*
X128341428Y-163330000D01*
X128436666Y-163282380D01*
X129627142Y-163615714D02*
X129627142Y-164282380D01*
X129198571Y-163615714D02*
X129198571Y-164139523D01*
X129246190Y-164234761D01*
X129341428Y-164282380D01*
X129484285Y-164282380D01*
X129579523Y-164234761D01*
X129627142Y-164187142D01*
X129960476Y-163615714D02*
X130341428Y-163615714D01*
X130103333Y-164282380D02*
X130103333Y-163425238D01*
X130150952Y-163330000D01*
X130246190Y-163282380D01*
X130341428Y-163282380D01*
X126738333Y-199842380D02*
X126262142Y-199842380D01*
X126262142Y-198842380D01*
X127071666Y-199842380D02*
X127071666Y-198842380D01*
X127405000Y-199556666D01*
X127738333Y-198842380D01*
X127738333Y-199842380D01*
X128119285Y-198842380D02*
X128785952Y-198842380D01*
X128357380Y-199842380D01*
X129309761Y-199270952D02*
X129214523Y-199223333D01*
X129166904Y-199175714D01*
X129119285Y-199080476D01*
X129119285Y-199032857D01*
X129166904Y-198937619D01*
X129214523Y-198890000D01*
X129309761Y-198842380D01*
X129500238Y-198842380D01*
X129595476Y-198890000D01*
X129643095Y-198937619D01*
X129690714Y-199032857D01*
X129690714Y-199080476D01*
X129643095Y-199175714D01*
X129595476Y-199223333D01*
X129500238Y-199270952D01*
X129309761Y-199270952D01*
X129214523Y-199318571D01*
X129166904Y-199366190D01*
X129119285Y-199461428D01*
X129119285Y-199651904D01*
X129166904Y-199747142D01*
X129214523Y-199794761D01*
X129309761Y-199842380D01*
X129500238Y-199842380D01*
X129595476Y-199794761D01*
X129643095Y-199747142D01*
X129690714Y-199651904D01*
X129690714Y-199461428D01*
X129643095Y-199366190D01*
X129595476Y-199318571D01*
X129500238Y-199270952D01*
X130309761Y-198842380D02*
X130405000Y-198842380D01*
X130500238Y-198890000D01*
X130547857Y-198937619D01*
X130595476Y-199032857D01*
X130643095Y-199223333D01*
X130643095Y-199461428D01*
X130595476Y-199651904D01*
X130547857Y-199747142D01*
X130500238Y-199794761D01*
X130405000Y-199842380D01*
X130309761Y-199842380D01*
X130214523Y-199794761D01*
X130166904Y-199747142D01*
X130119285Y-199651904D01*
X130071666Y-199461428D01*
X130071666Y-199223333D01*
X130119285Y-199032857D01*
X130166904Y-198937619D01*
X130214523Y-198890000D01*
X130309761Y-198842380D01*
X131547857Y-198842380D02*
X131071666Y-198842380D01*
X131024047Y-199318571D01*
X131071666Y-199270952D01*
X131166904Y-199223333D01*
X131405000Y-199223333D01*
X131500238Y-199270952D01*
X131547857Y-199318571D01*
X131595476Y-199413809D01*
X131595476Y-199651904D01*
X131547857Y-199747142D01*
X131500238Y-199794761D01*
X131405000Y-199842380D01*
X131166904Y-199842380D01*
X131071666Y-199794761D01*
X131024047Y-199747142D01*
X133405714Y-120102380D02*
X132929523Y-120102380D01*
X132881904Y-120578571D01*
X132929523Y-120530952D01*
X133024761Y-120483333D01*
X133262857Y-120483333D01*
X133358095Y-120530952D01*
X133405714Y-120578571D01*
X133453333Y-120673809D01*
X133453333Y-120911904D01*
X133405714Y-121007142D01*
X133358095Y-121054761D01*
X133262857Y-121102380D01*
X133024761Y-121102380D01*
X132929523Y-121054761D01*
X132881904Y-121007142D01*
X134072380Y-120102380D02*
X134167619Y-120102380D01*
X134262857Y-120150000D01*
X134310476Y-120197619D01*
X134358095Y-120292857D01*
X134405714Y-120483333D01*
X134405714Y-120721428D01*
X134358095Y-120911904D01*
X134310476Y-121007142D01*
X134262857Y-121054761D01*
X134167619Y-121102380D01*
X134072380Y-121102380D01*
X133977142Y-121054761D01*
X133929523Y-121007142D01*
X133881904Y-120911904D01*
X133834285Y-120721428D01*
X133834285Y-120483333D01*
X133881904Y-120292857D01*
X133929523Y-120197619D01*
X133977142Y-120150000D01*
X134072380Y-120102380D01*
X135024761Y-120102380D02*
X135120000Y-120102380D01*
X135215238Y-120150000D01*
X135262857Y-120197619D01*
X135310476Y-120292857D01*
X135358095Y-120483333D01*
X135358095Y-120721428D01*
X135310476Y-120911904D01*
X135262857Y-121007142D01*
X135215238Y-121054761D01*
X135120000Y-121102380D01*
X135024761Y-121102380D01*
X134929523Y-121054761D01*
X134881904Y-121007142D01*
X134834285Y-120911904D01*
X134786666Y-120721428D01*
X134786666Y-120483333D01*
X134834285Y-120292857D01*
X134881904Y-120197619D01*
X134929523Y-120150000D01*
X135024761Y-120102380D01*
X135786666Y-121102380D02*
X135786666Y-120102380D01*
X136358095Y-121102380D02*
X135929523Y-120530952D01*
X136358095Y-120102380D02*
X135786666Y-120673809D01*
X158805714Y-120102380D02*
X158329523Y-120102380D01*
X158281904Y-120578571D01*
X158329523Y-120530952D01*
X158424761Y-120483333D01*
X158662857Y-120483333D01*
X158758095Y-120530952D01*
X158805714Y-120578571D01*
X158853333Y-120673809D01*
X158853333Y-120911904D01*
X158805714Y-121007142D01*
X158758095Y-121054761D01*
X158662857Y-121102380D01*
X158424761Y-121102380D01*
X158329523Y-121054761D01*
X158281904Y-121007142D01*
X159472380Y-120102380D02*
X159567619Y-120102380D01*
X159662857Y-120150000D01*
X159710476Y-120197619D01*
X159758095Y-120292857D01*
X159805714Y-120483333D01*
X159805714Y-120721428D01*
X159758095Y-120911904D01*
X159710476Y-121007142D01*
X159662857Y-121054761D01*
X159567619Y-121102380D01*
X159472380Y-121102380D01*
X159377142Y-121054761D01*
X159329523Y-121007142D01*
X159281904Y-120911904D01*
X159234285Y-120721428D01*
X159234285Y-120483333D01*
X159281904Y-120292857D01*
X159329523Y-120197619D01*
X159377142Y-120150000D01*
X159472380Y-120102380D01*
X160424761Y-120102380D02*
X160520000Y-120102380D01*
X160615238Y-120150000D01*
X160662857Y-120197619D01*
X160710476Y-120292857D01*
X160758095Y-120483333D01*
X160758095Y-120721428D01*
X160710476Y-120911904D01*
X160662857Y-121007142D01*
X160615238Y-121054761D01*
X160520000Y-121102380D01*
X160424761Y-121102380D01*
X160329523Y-121054761D01*
X160281904Y-121007142D01*
X160234285Y-120911904D01*
X160186666Y-120721428D01*
X160186666Y-120483333D01*
X160234285Y-120292857D01*
X160281904Y-120197619D01*
X160329523Y-120150000D01*
X160424761Y-120102380D01*
X161186666Y-121102380D02*
X161186666Y-120102380D01*
X161758095Y-121102380D02*
X161329523Y-120530952D01*
X161758095Y-120102380D02*
X161186666Y-120673809D01*
X184205714Y-120102380D02*
X183729523Y-120102380D01*
X183681904Y-120578571D01*
X183729523Y-120530952D01*
X183824761Y-120483333D01*
X184062857Y-120483333D01*
X184158095Y-120530952D01*
X184205714Y-120578571D01*
X184253333Y-120673809D01*
X184253333Y-120911904D01*
X184205714Y-121007142D01*
X184158095Y-121054761D01*
X184062857Y-121102380D01*
X183824761Y-121102380D01*
X183729523Y-121054761D01*
X183681904Y-121007142D01*
X184872380Y-120102380D02*
X184967619Y-120102380D01*
X185062857Y-120150000D01*
X185110476Y-120197619D01*
X185158095Y-120292857D01*
X185205714Y-120483333D01*
X185205714Y-120721428D01*
X185158095Y-120911904D01*
X185110476Y-121007142D01*
X185062857Y-121054761D01*
X184967619Y-121102380D01*
X184872380Y-121102380D01*
X184777142Y-121054761D01*
X184729523Y-121007142D01*
X184681904Y-120911904D01*
X184634285Y-120721428D01*
X184634285Y-120483333D01*
X184681904Y-120292857D01*
X184729523Y-120197619D01*
X184777142Y-120150000D01*
X184872380Y-120102380D01*
X185824761Y-120102380D02*
X185920000Y-120102380D01*
X186015238Y-120150000D01*
X186062857Y-120197619D01*
X186110476Y-120292857D01*
X186158095Y-120483333D01*
X186158095Y-120721428D01*
X186110476Y-120911904D01*
X186062857Y-121007142D01*
X186015238Y-121054761D01*
X185920000Y-121102380D01*
X185824761Y-121102380D01*
X185729523Y-121054761D01*
X185681904Y-121007142D01*
X185634285Y-120911904D01*
X185586666Y-120721428D01*
X185586666Y-120483333D01*
X185634285Y-120292857D01*
X185681904Y-120197619D01*
X185729523Y-120150000D01*
X185824761Y-120102380D01*
X186586666Y-121102380D02*
X186586666Y-120102380D01*
X187158095Y-121102380D02*
X186729523Y-120530952D01*
X187158095Y-120102380D02*
X186586666Y-120673809D01*
X209605714Y-120102380D02*
X209129523Y-120102380D01*
X209081904Y-120578571D01*
X209129523Y-120530952D01*
X209224761Y-120483333D01*
X209462857Y-120483333D01*
X209558095Y-120530952D01*
X209605714Y-120578571D01*
X209653333Y-120673809D01*
X209653333Y-120911904D01*
X209605714Y-121007142D01*
X209558095Y-121054761D01*
X209462857Y-121102380D01*
X209224761Y-121102380D01*
X209129523Y-121054761D01*
X209081904Y-121007142D01*
X210272380Y-120102380D02*
X210367619Y-120102380D01*
X210462857Y-120150000D01*
X210510476Y-120197619D01*
X210558095Y-120292857D01*
X210605714Y-120483333D01*
X210605714Y-120721428D01*
X210558095Y-120911904D01*
X210510476Y-121007142D01*
X210462857Y-121054761D01*
X210367619Y-121102380D01*
X210272380Y-121102380D01*
X210177142Y-121054761D01*
X210129523Y-121007142D01*
X210081904Y-120911904D01*
X210034285Y-120721428D01*
X210034285Y-120483333D01*
X210081904Y-120292857D01*
X210129523Y-120197619D01*
X210177142Y-120150000D01*
X210272380Y-120102380D01*
X211224761Y-120102380D02*
X211320000Y-120102380D01*
X211415238Y-120150000D01*
X211462857Y-120197619D01*
X211510476Y-120292857D01*
X211558095Y-120483333D01*
X211558095Y-120721428D01*
X211510476Y-120911904D01*
X211462857Y-121007142D01*
X211415238Y-121054761D01*
X211320000Y-121102380D01*
X211224761Y-121102380D01*
X211129523Y-121054761D01*
X211081904Y-121007142D01*
X211034285Y-120911904D01*
X210986666Y-120721428D01*
X210986666Y-120483333D01*
X211034285Y-120292857D01*
X211081904Y-120197619D01*
X211129523Y-120150000D01*
X211224761Y-120102380D01*
X211986666Y-121102380D02*
X211986666Y-120102380D01*
X212558095Y-121102380D02*
X212129523Y-120530952D01*
X212558095Y-120102380D02*
X211986666Y-120673809D01*
X237228333Y-123991666D02*
X237704523Y-123991666D01*
X237133095Y-124277380D02*
X237466428Y-123277380D01*
X237799761Y-124277380D01*
X238656904Y-124277380D02*
X238085476Y-124277380D01*
X238371190Y-124277380D02*
X238371190Y-123277380D01*
X238275952Y-123420238D01*
X238180714Y-123515476D01*
X238085476Y-123563095D01*
X239275952Y-123277380D02*
X239371190Y-123277380D01*
X239466428Y-123325000D01*
X239514047Y-123372619D01*
X239561666Y-123467857D01*
X239609285Y-123658333D01*
X239609285Y-123896428D01*
X239561666Y-124086904D01*
X239514047Y-124182142D01*
X239466428Y-124229761D01*
X239371190Y-124277380D01*
X239275952Y-124277380D01*
X239180714Y-124229761D01*
X239133095Y-124182142D01*
X239085476Y-124086904D01*
X239037857Y-123896428D01*
X239037857Y-123658333D01*
X239085476Y-123467857D01*
X239133095Y-123372619D01*
X239180714Y-123325000D01*
X239275952Y-123277380D01*
X240228333Y-123277380D02*
X240323571Y-123277380D01*
X240418809Y-123325000D01*
X240466428Y-123372619D01*
X240514047Y-123467857D01*
X240561666Y-123658333D01*
X240561666Y-123896428D01*
X240514047Y-124086904D01*
X240466428Y-124182142D01*
X240418809Y-124229761D01*
X240323571Y-124277380D01*
X240228333Y-124277380D01*
X240133095Y-124229761D01*
X240085476Y-124182142D01*
X240037857Y-124086904D01*
X239990238Y-123896428D01*
X239990238Y-123658333D01*
X240037857Y-123467857D01*
X240085476Y-123372619D01*
X240133095Y-123325000D01*
X240228333Y-123277380D01*
X240990238Y-124277380D02*
X240990238Y-123277380D01*
X241561666Y-124277380D02*
X241133095Y-123705952D01*
X241561666Y-123277380D02*
X240990238Y-123848809D01*
X262628333Y-123991666D02*
X263104523Y-123991666D01*
X262533095Y-124277380D02*
X262866428Y-123277380D01*
X263199761Y-124277380D01*
X264056904Y-124277380D02*
X263485476Y-124277380D01*
X263771190Y-124277380D02*
X263771190Y-123277380D01*
X263675952Y-123420238D01*
X263580714Y-123515476D01*
X263485476Y-123563095D01*
X264675952Y-123277380D02*
X264771190Y-123277380D01*
X264866428Y-123325000D01*
X264914047Y-123372619D01*
X264961666Y-123467857D01*
X265009285Y-123658333D01*
X265009285Y-123896428D01*
X264961666Y-124086904D01*
X264914047Y-124182142D01*
X264866428Y-124229761D01*
X264771190Y-124277380D01*
X264675952Y-124277380D01*
X264580714Y-124229761D01*
X264533095Y-124182142D01*
X264485476Y-124086904D01*
X264437857Y-123896428D01*
X264437857Y-123658333D01*
X264485476Y-123467857D01*
X264533095Y-123372619D01*
X264580714Y-123325000D01*
X264675952Y-123277380D01*
X265628333Y-123277380D02*
X265723571Y-123277380D01*
X265818809Y-123325000D01*
X265866428Y-123372619D01*
X265914047Y-123467857D01*
X265961666Y-123658333D01*
X265961666Y-123896428D01*
X265914047Y-124086904D01*
X265866428Y-124182142D01*
X265818809Y-124229761D01*
X265723571Y-124277380D01*
X265628333Y-124277380D01*
X265533095Y-124229761D01*
X265485476Y-124182142D01*
X265437857Y-124086904D01*
X265390238Y-123896428D01*
X265390238Y-123658333D01*
X265437857Y-123467857D01*
X265485476Y-123372619D01*
X265533095Y-123325000D01*
X265628333Y-123277380D01*
X266390238Y-124277380D02*
X266390238Y-123277380D01*
X266961666Y-124277380D02*
X266533095Y-123705952D01*
X266961666Y-123277380D02*
X266390238Y-123848809D01*
X288028333Y-123991666D02*
X288504523Y-123991666D01*
X287933095Y-124277380D02*
X288266428Y-123277380D01*
X288599761Y-124277380D01*
X289456904Y-124277380D02*
X288885476Y-124277380D01*
X289171190Y-124277380D02*
X289171190Y-123277380D01*
X289075952Y-123420238D01*
X288980714Y-123515476D01*
X288885476Y-123563095D01*
X290075952Y-123277380D02*
X290171190Y-123277380D01*
X290266428Y-123325000D01*
X290314047Y-123372619D01*
X290361666Y-123467857D01*
X290409285Y-123658333D01*
X290409285Y-123896428D01*
X290361666Y-124086904D01*
X290314047Y-124182142D01*
X290266428Y-124229761D01*
X290171190Y-124277380D01*
X290075952Y-124277380D01*
X289980714Y-124229761D01*
X289933095Y-124182142D01*
X289885476Y-124086904D01*
X289837857Y-123896428D01*
X289837857Y-123658333D01*
X289885476Y-123467857D01*
X289933095Y-123372619D01*
X289980714Y-123325000D01*
X290075952Y-123277380D01*
X291028333Y-123277380D02*
X291123571Y-123277380D01*
X291218809Y-123325000D01*
X291266428Y-123372619D01*
X291314047Y-123467857D01*
X291361666Y-123658333D01*
X291361666Y-123896428D01*
X291314047Y-124086904D01*
X291266428Y-124182142D01*
X291218809Y-124229761D01*
X291123571Y-124277380D01*
X291028333Y-124277380D01*
X290933095Y-124229761D01*
X290885476Y-124182142D01*
X290837857Y-124086904D01*
X290790238Y-123896428D01*
X290790238Y-123658333D01*
X290837857Y-123467857D01*
X290885476Y-123372619D01*
X290933095Y-123325000D01*
X291028333Y-123277380D01*
X291790238Y-124277380D02*
X291790238Y-123277380D01*
X292361666Y-124277380D02*
X291933095Y-123705952D01*
X292361666Y-123277380D02*
X291790238Y-123848809D01*
X158805714Y-153757380D02*
X158329523Y-153757380D01*
X158281904Y-154233571D01*
X158329523Y-154185952D01*
X158424761Y-154138333D01*
X158662857Y-154138333D01*
X158758095Y-154185952D01*
X158805714Y-154233571D01*
X158853333Y-154328809D01*
X158853333Y-154566904D01*
X158805714Y-154662142D01*
X158758095Y-154709761D01*
X158662857Y-154757380D01*
X158424761Y-154757380D01*
X158329523Y-154709761D01*
X158281904Y-154662142D01*
X159472380Y-153757380D02*
X159567619Y-153757380D01*
X159662857Y-153805000D01*
X159710476Y-153852619D01*
X159758095Y-153947857D01*
X159805714Y-154138333D01*
X159805714Y-154376428D01*
X159758095Y-154566904D01*
X159710476Y-154662142D01*
X159662857Y-154709761D01*
X159567619Y-154757380D01*
X159472380Y-154757380D01*
X159377142Y-154709761D01*
X159329523Y-154662142D01*
X159281904Y-154566904D01*
X159234285Y-154376428D01*
X159234285Y-154138333D01*
X159281904Y-153947857D01*
X159329523Y-153852619D01*
X159377142Y-153805000D01*
X159472380Y-153757380D01*
X160424761Y-153757380D02*
X160520000Y-153757380D01*
X160615238Y-153805000D01*
X160662857Y-153852619D01*
X160710476Y-153947857D01*
X160758095Y-154138333D01*
X160758095Y-154376428D01*
X160710476Y-154566904D01*
X160662857Y-154662142D01*
X160615238Y-154709761D01*
X160520000Y-154757380D01*
X160424761Y-154757380D01*
X160329523Y-154709761D01*
X160281904Y-154662142D01*
X160234285Y-154566904D01*
X160186666Y-154376428D01*
X160186666Y-154138333D01*
X160234285Y-153947857D01*
X160281904Y-153852619D01*
X160329523Y-153805000D01*
X160424761Y-153757380D01*
X161186666Y-154757380D02*
X161186666Y-153757380D01*
X161758095Y-154757380D02*
X161329523Y-154185952D01*
X161758095Y-153757380D02*
X161186666Y-154328809D01*
X184205714Y-153757380D02*
X183729523Y-153757380D01*
X183681904Y-154233571D01*
X183729523Y-154185952D01*
X183824761Y-154138333D01*
X184062857Y-154138333D01*
X184158095Y-154185952D01*
X184205714Y-154233571D01*
X184253333Y-154328809D01*
X184253333Y-154566904D01*
X184205714Y-154662142D01*
X184158095Y-154709761D01*
X184062857Y-154757380D01*
X183824761Y-154757380D01*
X183729523Y-154709761D01*
X183681904Y-154662142D01*
X184872380Y-153757380D02*
X184967619Y-153757380D01*
X185062857Y-153805000D01*
X185110476Y-153852619D01*
X185158095Y-153947857D01*
X185205714Y-154138333D01*
X185205714Y-154376428D01*
X185158095Y-154566904D01*
X185110476Y-154662142D01*
X185062857Y-154709761D01*
X184967619Y-154757380D01*
X184872380Y-154757380D01*
X184777142Y-154709761D01*
X184729523Y-154662142D01*
X184681904Y-154566904D01*
X184634285Y-154376428D01*
X184634285Y-154138333D01*
X184681904Y-153947857D01*
X184729523Y-153852619D01*
X184777142Y-153805000D01*
X184872380Y-153757380D01*
X185824761Y-153757380D02*
X185920000Y-153757380D01*
X186015238Y-153805000D01*
X186062857Y-153852619D01*
X186110476Y-153947857D01*
X186158095Y-154138333D01*
X186158095Y-154376428D01*
X186110476Y-154566904D01*
X186062857Y-154662142D01*
X186015238Y-154709761D01*
X185920000Y-154757380D01*
X185824761Y-154757380D01*
X185729523Y-154709761D01*
X185681904Y-154662142D01*
X185634285Y-154566904D01*
X185586666Y-154376428D01*
X185586666Y-154138333D01*
X185634285Y-153947857D01*
X185681904Y-153852619D01*
X185729523Y-153805000D01*
X185824761Y-153757380D01*
X186586666Y-154757380D02*
X186586666Y-153757380D01*
X187158095Y-154757380D02*
X186729523Y-154185952D01*
X187158095Y-153757380D02*
X186586666Y-154328809D01*
X209605714Y-153757380D02*
X209129523Y-153757380D01*
X209081904Y-154233571D01*
X209129523Y-154185952D01*
X209224761Y-154138333D01*
X209462857Y-154138333D01*
X209558095Y-154185952D01*
X209605714Y-154233571D01*
X209653333Y-154328809D01*
X209653333Y-154566904D01*
X209605714Y-154662142D01*
X209558095Y-154709761D01*
X209462857Y-154757380D01*
X209224761Y-154757380D01*
X209129523Y-154709761D01*
X209081904Y-154662142D01*
X210272380Y-153757380D02*
X210367619Y-153757380D01*
X210462857Y-153805000D01*
X210510476Y-153852619D01*
X210558095Y-153947857D01*
X210605714Y-154138333D01*
X210605714Y-154376428D01*
X210558095Y-154566904D01*
X210510476Y-154662142D01*
X210462857Y-154709761D01*
X210367619Y-154757380D01*
X210272380Y-154757380D01*
X210177142Y-154709761D01*
X210129523Y-154662142D01*
X210081904Y-154566904D01*
X210034285Y-154376428D01*
X210034285Y-154138333D01*
X210081904Y-153947857D01*
X210129523Y-153852619D01*
X210177142Y-153805000D01*
X210272380Y-153757380D01*
X211224761Y-153757380D02*
X211320000Y-153757380D01*
X211415238Y-153805000D01*
X211462857Y-153852619D01*
X211510476Y-153947857D01*
X211558095Y-154138333D01*
X211558095Y-154376428D01*
X211510476Y-154566904D01*
X211462857Y-154662142D01*
X211415238Y-154709761D01*
X211320000Y-154757380D01*
X211224761Y-154757380D01*
X211129523Y-154709761D01*
X211081904Y-154662142D01*
X211034285Y-154566904D01*
X210986666Y-154376428D01*
X210986666Y-154138333D01*
X211034285Y-153947857D01*
X211081904Y-153852619D01*
X211129523Y-153805000D01*
X211224761Y-153757380D01*
X211986666Y-154757380D02*
X211986666Y-153757380D01*
X212558095Y-154757380D02*
X212129523Y-154185952D01*
X212558095Y-153757380D02*
X211986666Y-154328809D01*
X263580714Y-153757380D02*
X263104523Y-153757380D01*
X263056904Y-154233571D01*
X263104523Y-154185952D01*
X263199761Y-154138333D01*
X263437857Y-154138333D01*
X263533095Y-154185952D01*
X263580714Y-154233571D01*
X263628333Y-154328809D01*
X263628333Y-154566904D01*
X263580714Y-154662142D01*
X263533095Y-154709761D01*
X263437857Y-154757380D01*
X263199761Y-154757380D01*
X263104523Y-154709761D01*
X263056904Y-154662142D01*
X264247380Y-153757380D02*
X264342619Y-153757380D01*
X264437857Y-153805000D01*
X264485476Y-153852619D01*
X264533095Y-153947857D01*
X264580714Y-154138333D01*
X264580714Y-154376428D01*
X264533095Y-154566904D01*
X264485476Y-154662142D01*
X264437857Y-154709761D01*
X264342619Y-154757380D01*
X264247380Y-154757380D01*
X264152142Y-154709761D01*
X264104523Y-154662142D01*
X264056904Y-154566904D01*
X264009285Y-154376428D01*
X264009285Y-154138333D01*
X264056904Y-153947857D01*
X264104523Y-153852619D01*
X264152142Y-153805000D01*
X264247380Y-153757380D01*
X265199761Y-153757380D02*
X265295000Y-153757380D01*
X265390238Y-153805000D01*
X265437857Y-153852619D01*
X265485476Y-153947857D01*
X265533095Y-154138333D01*
X265533095Y-154376428D01*
X265485476Y-154566904D01*
X265437857Y-154662142D01*
X265390238Y-154709761D01*
X265295000Y-154757380D01*
X265199761Y-154757380D01*
X265104523Y-154709761D01*
X265056904Y-154662142D01*
X265009285Y-154566904D01*
X264961666Y-154376428D01*
X264961666Y-154138333D01*
X265009285Y-153947857D01*
X265056904Y-153852619D01*
X265104523Y-153805000D01*
X265199761Y-153757380D01*
X265961666Y-154757380D02*
X265961666Y-153757380D01*
X266533095Y-154757380D02*
X266104523Y-154185952D01*
X266533095Y-153757380D02*
X265961666Y-154328809D01*
X288980714Y-153757380D02*
X288504523Y-153757380D01*
X288456904Y-154233571D01*
X288504523Y-154185952D01*
X288599761Y-154138333D01*
X288837857Y-154138333D01*
X288933095Y-154185952D01*
X288980714Y-154233571D01*
X289028333Y-154328809D01*
X289028333Y-154566904D01*
X288980714Y-154662142D01*
X288933095Y-154709761D01*
X288837857Y-154757380D01*
X288599761Y-154757380D01*
X288504523Y-154709761D01*
X288456904Y-154662142D01*
X289647380Y-153757380D02*
X289742619Y-153757380D01*
X289837857Y-153805000D01*
X289885476Y-153852619D01*
X289933095Y-153947857D01*
X289980714Y-154138333D01*
X289980714Y-154376428D01*
X289933095Y-154566904D01*
X289885476Y-154662142D01*
X289837857Y-154709761D01*
X289742619Y-154757380D01*
X289647380Y-154757380D01*
X289552142Y-154709761D01*
X289504523Y-154662142D01*
X289456904Y-154566904D01*
X289409285Y-154376428D01*
X289409285Y-154138333D01*
X289456904Y-153947857D01*
X289504523Y-153852619D01*
X289552142Y-153805000D01*
X289647380Y-153757380D01*
X290599761Y-153757380D02*
X290695000Y-153757380D01*
X290790238Y-153805000D01*
X290837857Y-153852619D01*
X290885476Y-153947857D01*
X290933095Y-154138333D01*
X290933095Y-154376428D01*
X290885476Y-154566904D01*
X290837857Y-154662142D01*
X290790238Y-154709761D01*
X290695000Y-154757380D01*
X290599761Y-154757380D01*
X290504523Y-154709761D01*
X290456904Y-154662142D01*
X290409285Y-154566904D01*
X290361666Y-154376428D01*
X290361666Y-154138333D01*
X290409285Y-153947857D01*
X290456904Y-153852619D01*
X290504523Y-153805000D01*
X290599761Y-153757380D01*
X291361666Y-154757380D02*
X291361666Y-153757380D01*
X291933095Y-154757380D02*
X291504523Y-154185952D01*
X291933095Y-153757380D02*
X291361666Y-154328809D01*
X158170714Y-200112380D02*
X157694523Y-200112380D01*
X157646904Y-200588571D01*
X157694523Y-200540952D01*
X157789761Y-200493333D01*
X158027857Y-200493333D01*
X158123095Y-200540952D01*
X158170714Y-200588571D01*
X158218333Y-200683809D01*
X158218333Y-200921904D01*
X158170714Y-201017142D01*
X158123095Y-201064761D01*
X158027857Y-201112380D01*
X157789761Y-201112380D01*
X157694523Y-201064761D01*
X157646904Y-201017142D01*
X158837380Y-200112380D02*
X158932619Y-200112380D01*
X159027857Y-200160000D01*
X159075476Y-200207619D01*
X159123095Y-200302857D01*
X159170714Y-200493333D01*
X159170714Y-200731428D01*
X159123095Y-200921904D01*
X159075476Y-201017142D01*
X159027857Y-201064761D01*
X158932619Y-201112380D01*
X158837380Y-201112380D01*
X158742142Y-201064761D01*
X158694523Y-201017142D01*
X158646904Y-200921904D01*
X158599285Y-200731428D01*
X158599285Y-200493333D01*
X158646904Y-200302857D01*
X158694523Y-200207619D01*
X158742142Y-200160000D01*
X158837380Y-200112380D01*
X159789761Y-200112380D02*
X159885000Y-200112380D01*
X159980238Y-200160000D01*
X160027857Y-200207619D01*
X160075476Y-200302857D01*
X160123095Y-200493333D01*
X160123095Y-200731428D01*
X160075476Y-200921904D01*
X160027857Y-201017142D01*
X159980238Y-201064761D01*
X159885000Y-201112380D01*
X159789761Y-201112380D01*
X159694523Y-201064761D01*
X159646904Y-201017142D01*
X159599285Y-200921904D01*
X159551666Y-200731428D01*
X159551666Y-200493333D01*
X159599285Y-200302857D01*
X159646904Y-200207619D01*
X159694523Y-200160000D01*
X159789761Y-200112380D01*
X160551666Y-201112380D02*
X160551666Y-200112380D01*
X161123095Y-201112380D02*
X160694523Y-200540952D01*
X161123095Y-200112380D02*
X160551666Y-200683809D01*
X184205714Y-200112380D02*
X183729523Y-200112380D01*
X183681904Y-200588571D01*
X183729523Y-200540952D01*
X183824761Y-200493333D01*
X184062857Y-200493333D01*
X184158095Y-200540952D01*
X184205714Y-200588571D01*
X184253333Y-200683809D01*
X184253333Y-200921904D01*
X184205714Y-201017142D01*
X184158095Y-201064761D01*
X184062857Y-201112380D01*
X183824761Y-201112380D01*
X183729523Y-201064761D01*
X183681904Y-201017142D01*
X184872380Y-200112380D02*
X184967619Y-200112380D01*
X185062857Y-200160000D01*
X185110476Y-200207619D01*
X185158095Y-200302857D01*
X185205714Y-200493333D01*
X185205714Y-200731428D01*
X185158095Y-200921904D01*
X185110476Y-201017142D01*
X185062857Y-201064761D01*
X184967619Y-201112380D01*
X184872380Y-201112380D01*
X184777142Y-201064761D01*
X184729523Y-201017142D01*
X184681904Y-200921904D01*
X184634285Y-200731428D01*
X184634285Y-200493333D01*
X184681904Y-200302857D01*
X184729523Y-200207619D01*
X184777142Y-200160000D01*
X184872380Y-200112380D01*
X185824761Y-200112380D02*
X185920000Y-200112380D01*
X186015238Y-200160000D01*
X186062857Y-200207619D01*
X186110476Y-200302857D01*
X186158095Y-200493333D01*
X186158095Y-200731428D01*
X186110476Y-200921904D01*
X186062857Y-201017142D01*
X186015238Y-201064761D01*
X185920000Y-201112380D01*
X185824761Y-201112380D01*
X185729523Y-201064761D01*
X185681904Y-201017142D01*
X185634285Y-200921904D01*
X185586666Y-200731428D01*
X185586666Y-200493333D01*
X185634285Y-200302857D01*
X185681904Y-200207619D01*
X185729523Y-200160000D01*
X185824761Y-200112380D01*
X186586666Y-201112380D02*
X186586666Y-200112380D01*
X187158095Y-201112380D02*
X186729523Y-200540952D01*
X187158095Y-200112380D02*
X186586666Y-200683809D01*
X209605714Y-200112380D02*
X209129523Y-200112380D01*
X209081904Y-200588571D01*
X209129523Y-200540952D01*
X209224761Y-200493333D01*
X209462857Y-200493333D01*
X209558095Y-200540952D01*
X209605714Y-200588571D01*
X209653333Y-200683809D01*
X209653333Y-200921904D01*
X209605714Y-201017142D01*
X209558095Y-201064761D01*
X209462857Y-201112380D01*
X209224761Y-201112380D01*
X209129523Y-201064761D01*
X209081904Y-201017142D01*
X210272380Y-200112380D02*
X210367619Y-200112380D01*
X210462857Y-200160000D01*
X210510476Y-200207619D01*
X210558095Y-200302857D01*
X210605714Y-200493333D01*
X210605714Y-200731428D01*
X210558095Y-200921904D01*
X210510476Y-201017142D01*
X210462857Y-201064761D01*
X210367619Y-201112380D01*
X210272380Y-201112380D01*
X210177142Y-201064761D01*
X210129523Y-201017142D01*
X210081904Y-200921904D01*
X210034285Y-200731428D01*
X210034285Y-200493333D01*
X210081904Y-200302857D01*
X210129523Y-200207619D01*
X210177142Y-200160000D01*
X210272380Y-200112380D01*
X211224761Y-200112380D02*
X211320000Y-200112380D01*
X211415238Y-200160000D01*
X211462857Y-200207619D01*
X211510476Y-200302857D01*
X211558095Y-200493333D01*
X211558095Y-200731428D01*
X211510476Y-200921904D01*
X211462857Y-201017142D01*
X211415238Y-201064761D01*
X211320000Y-201112380D01*
X211224761Y-201112380D01*
X211129523Y-201064761D01*
X211081904Y-201017142D01*
X211034285Y-200921904D01*
X210986666Y-200731428D01*
X210986666Y-200493333D01*
X211034285Y-200302857D01*
X211081904Y-200207619D01*
X211129523Y-200160000D01*
X211224761Y-200112380D01*
X211986666Y-201112380D02*
X211986666Y-200112380D01*
X212558095Y-201112380D02*
X212129523Y-200540952D01*
X212558095Y-200112380D02*
X211986666Y-200683809D01*
X263580714Y-200112380D02*
X263104523Y-200112380D01*
X263056904Y-200588571D01*
X263104523Y-200540952D01*
X263199761Y-200493333D01*
X263437857Y-200493333D01*
X263533095Y-200540952D01*
X263580714Y-200588571D01*
X263628333Y-200683809D01*
X263628333Y-200921904D01*
X263580714Y-201017142D01*
X263533095Y-201064761D01*
X263437857Y-201112380D01*
X263199761Y-201112380D01*
X263104523Y-201064761D01*
X263056904Y-201017142D01*
X264247380Y-200112380D02*
X264342619Y-200112380D01*
X264437857Y-200160000D01*
X264485476Y-200207619D01*
X264533095Y-200302857D01*
X264580714Y-200493333D01*
X264580714Y-200731428D01*
X264533095Y-200921904D01*
X264485476Y-201017142D01*
X264437857Y-201064761D01*
X264342619Y-201112380D01*
X264247380Y-201112380D01*
X264152142Y-201064761D01*
X264104523Y-201017142D01*
X264056904Y-200921904D01*
X264009285Y-200731428D01*
X264009285Y-200493333D01*
X264056904Y-200302857D01*
X264104523Y-200207619D01*
X264152142Y-200160000D01*
X264247380Y-200112380D01*
X265199761Y-200112380D02*
X265295000Y-200112380D01*
X265390238Y-200160000D01*
X265437857Y-200207619D01*
X265485476Y-200302857D01*
X265533095Y-200493333D01*
X265533095Y-200731428D01*
X265485476Y-200921904D01*
X265437857Y-201017142D01*
X265390238Y-201064761D01*
X265295000Y-201112380D01*
X265199761Y-201112380D01*
X265104523Y-201064761D01*
X265056904Y-201017142D01*
X265009285Y-200921904D01*
X264961666Y-200731428D01*
X264961666Y-200493333D01*
X265009285Y-200302857D01*
X265056904Y-200207619D01*
X265104523Y-200160000D01*
X265199761Y-200112380D01*
X265961666Y-201112380D02*
X265961666Y-200112380D01*
X266533095Y-201112380D02*
X266104523Y-200540952D01*
X266533095Y-200112380D02*
X265961666Y-200683809D01*
X288980714Y-200112380D02*
X288504523Y-200112380D01*
X288456904Y-200588571D01*
X288504523Y-200540952D01*
X288599761Y-200493333D01*
X288837857Y-200493333D01*
X288933095Y-200540952D01*
X288980714Y-200588571D01*
X289028333Y-200683809D01*
X289028333Y-200921904D01*
X288980714Y-201017142D01*
X288933095Y-201064761D01*
X288837857Y-201112380D01*
X288599761Y-201112380D01*
X288504523Y-201064761D01*
X288456904Y-201017142D01*
X289647380Y-200112380D02*
X289742619Y-200112380D01*
X289837857Y-200160000D01*
X289885476Y-200207619D01*
X289933095Y-200302857D01*
X289980714Y-200493333D01*
X289980714Y-200731428D01*
X289933095Y-200921904D01*
X289885476Y-201017142D01*
X289837857Y-201064761D01*
X289742619Y-201112380D01*
X289647380Y-201112380D01*
X289552142Y-201064761D01*
X289504523Y-201017142D01*
X289456904Y-200921904D01*
X289409285Y-200731428D01*
X289409285Y-200493333D01*
X289456904Y-200302857D01*
X289504523Y-200207619D01*
X289552142Y-200160000D01*
X289647380Y-200112380D01*
X290599761Y-200112380D02*
X290695000Y-200112380D01*
X290790238Y-200160000D01*
X290837857Y-200207619D01*
X290885476Y-200302857D01*
X290933095Y-200493333D01*
X290933095Y-200731428D01*
X290885476Y-200921904D01*
X290837857Y-201017142D01*
X290790238Y-201064761D01*
X290695000Y-201112380D01*
X290599761Y-201112380D01*
X290504523Y-201064761D01*
X290456904Y-201017142D01*
X290409285Y-200921904D01*
X290361666Y-200731428D01*
X290361666Y-200493333D01*
X290409285Y-200302857D01*
X290456904Y-200207619D01*
X290504523Y-200160000D01*
X290599761Y-200112380D01*
X291361666Y-201112380D02*
X291361666Y-200112380D01*
X291933095Y-201112380D02*
X291504523Y-200540952D01*
X291933095Y-200112380D02*
X291361666Y-200683809D01*
X169680238Y-158202380D02*
X169680238Y-158916666D01*
X169632619Y-159059523D01*
X169537380Y-159154761D01*
X169394523Y-159202380D01*
X169299285Y-159202380D01*
X170156428Y-158202380D02*
X170156428Y-159011904D01*
X170204047Y-159107142D01*
X170251666Y-159154761D01*
X170346904Y-159202380D01*
X170537380Y-159202380D01*
X170632619Y-159154761D01*
X170680238Y-159107142D01*
X170727857Y-159011904D01*
X170727857Y-158202380D01*
X171204047Y-159202380D02*
X171204047Y-158202380D01*
X171537380Y-158916666D01*
X171870714Y-158202380D01*
X171870714Y-159202380D01*
X172346904Y-159202380D02*
X172346904Y-158202380D01*
X172727857Y-158202380D01*
X172823095Y-158250000D01*
X172870714Y-158297619D01*
X172918333Y-158392857D01*
X172918333Y-158535714D01*
X172870714Y-158630952D01*
X172823095Y-158678571D01*
X172727857Y-158726190D01*
X172346904Y-158726190D01*
X173346904Y-158678571D02*
X173680238Y-158678571D01*
X173823095Y-159202380D02*
X173346904Y-159202380D01*
X173346904Y-158202380D01*
X173823095Y-158202380D01*
X174823095Y-159202380D02*
X174489761Y-158726190D01*
X174251666Y-159202380D02*
X174251666Y-158202380D01*
X174632619Y-158202380D01*
X174727857Y-158250000D01*
X174775476Y-158297619D01*
X174823095Y-158392857D01*
X174823095Y-158535714D01*
X174775476Y-158630952D01*
X174727857Y-158678571D01*
X174632619Y-158726190D01*
X174251666Y-158726190D01*
X219845238Y-156297380D02*
X219845238Y-157011666D01*
X219797619Y-157154523D01*
X219702380Y-157249761D01*
X219559523Y-157297380D01*
X219464285Y-157297380D01*
X220321428Y-156297380D02*
X220321428Y-157106904D01*
X220369047Y-157202142D01*
X220416666Y-157249761D01*
X220511904Y-157297380D01*
X220702380Y-157297380D01*
X220797619Y-157249761D01*
X220845238Y-157202142D01*
X220892857Y-157106904D01*
X220892857Y-156297380D01*
X221369047Y-157297380D02*
X221369047Y-156297380D01*
X221702380Y-157011666D01*
X222035714Y-156297380D01*
X222035714Y-157297380D01*
X222511904Y-157297380D02*
X222511904Y-156297380D01*
X222892857Y-156297380D01*
X222988095Y-156345000D01*
X223035714Y-156392619D01*
X223083333Y-156487857D01*
X223083333Y-156630714D01*
X223035714Y-156725952D01*
X222988095Y-156773571D01*
X222892857Y-156821190D01*
X222511904Y-156821190D01*
X223511904Y-156773571D02*
X223845238Y-156773571D01*
X223988095Y-157297380D02*
X223511904Y-157297380D01*
X223511904Y-156297380D01*
X223988095Y-156297380D01*
X224988095Y-157297380D02*
X224654761Y-156821190D01*
X224416666Y-157297380D02*
X224416666Y-156297380D01*
X224797619Y-156297380D01*
X224892857Y-156345000D01*
X224940476Y-156392619D01*
X224988095Y-156487857D01*
X224988095Y-156630714D01*
X224940476Y-156725952D01*
X224892857Y-156773571D01*
X224797619Y-156821190D01*
X224416666Y-156821190D01*
X225560238Y-184872380D02*
X225560238Y-185586666D01*
X225512619Y-185729523D01*
X225417380Y-185824761D01*
X225274523Y-185872380D01*
X225179285Y-185872380D01*
X226036428Y-184872380D02*
X226036428Y-185681904D01*
X226084047Y-185777142D01*
X226131666Y-185824761D01*
X226226904Y-185872380D01*
X226417380Y-185872380D01*
X226512619Y-185824761D01*
X226560238Y-185777142D01*
X226607857Y-185681904D01*
X226607857Y-184872380D01*
X227084047Y-185872380D02*
X227084047Y-184872380D01*
X227417380Y-185586666D01*
X227750714Y-184872380D01*
X227750714Y-185872380D01*
X228226904Y-185872380D02*
X228226904Y-184872380D01*
X228607857Y-184872380D01*
X228703095Y-184920000D01*
X228750714Y-184967619D01*
X228798333Y-185062857D01*
X228798333Y-185205714D01*
X228750714Y-185300952D01*
X228703095Y-185348571D01*
X228607857Y-185396190D01*
X228226904Y-185396190D01*
X229226904Y-185348571D02*
X229560238Y-185348571D01*
X229703095Y-185872380D02*
X229226904Y-185872380D01*
X229226904Y-184872380D01*
X229703095Y-184872380D01*
X230703095Y-185872380D02*
X230369761Y-185396190D01*
X230131666Y-185872380D02*
X230131666Y-184872380D01*
X230512619Y-184872380D01*
X230607857Y-184920000D01*
X230655476Y-184967619D01*
X230703095Y-185062857D01*
X230703095Y-185205714D01*
X230655476Y-185300952D01*
X230607857Y-185348571D01*
X230512619Y-185396190D01*
X230131666Y-185396190D01*
X238402904Y-157551380D02*
X238402904Y-156551380D01*
X238641000Y-156551380D01*
X238783857Y-156599000D01*
X238879095Y-156694238D01*
X238926714Y-156789476D01*
X238974333Y-156979952D01*
X238974333Y-157122809D01*
X238926714Y-157313285D01*
X238879095Y-157408523D01*
X238783857Y-157503761D01*
X238641000Y-157551380D01*
X238402904Y-157551380D01*
X239926714Y-157551380D02*
X239355285Y-157551380D01*
X239641000Y-157551380D02*
X239641000Y-156551380D01*
X239545761Y-156694238D01*
X239450523Y-156789476D01*
X239355285Y-156837095D01*
X238402904Y-190952380D02*
X238402904Y-189952380D01*
X238641000Y-189952380D01*
X238783857Y-190000000D01*
X238879095Y-190095238D01*
X238926714Y-190190476D01*
X238974333Y-190380952D01*
X238974333Y-190523809D01*
X238926714Y-190714285D01*
X238879095Y-190809523D01*
X238783857Y-190904761D01*
X238641000Y-190952380D01*
X238402904Y-190952380D01*
X239307666Y-189952380D02*
X239926714Y-189952380D01*
X239593380Y-190333333D01*
X239736238Y-190333333D01*
X239831476Y-190380952D01*
X239879095Y-190428571D01*
X239926714Y-190523809D01*
X239926714Y-190761904D01*
X239879095Y-190857142D01*
X239831476Y-190904761D01*
X239736238Y-190952380D01*
X239450523Y-190952380D01*
X239355285Y-190904761D01*
X239307666Y-190857142D01*
X134329714Y-164573857D02*
X133567714Y-164573857D01*
X133567714Y-164392428D01*
X133604000Y-164283571D01*
X133676571Y-164211000D01*
X133749142Y-164174714D01*
X133894285Y-164138428D01*
X134003142Y-164138428D01*
X134148285Y-164174714D01*
X134220857Y-164211000D01*
X134293428Y-164283571D01*
X134329714Y-164392428D01*
X134329714Y-164573857D01*
X134329714Y-163811857D02*
X133567714Y-163811857D01*
X133567714Y-163303857D02*
X133567714Y-163158714D01*
X133604000Y-163086142D01*
X133676571Y-163013571D01*
X133821714Y-162977285D01*
X134075714Y-162977285D01*
X134220857Y-163013571D01*
X134293428Y-163086142D01*
X134329714Y-163158714D01*
X134329714Y-163303857D01*
X134293428Y-163376428D01*
X134220857Y-163449000D01*
X134075714Y-163485285D01*
X133821714Y-163485285D01*
X133676571Y-163449000D01*
X133604000Y-163376428D01*
X133567714Y-163303857D01*
X134329714Y-162650714D02*
X133567714Y-162650714D01*
X133567714Y-162469285D01*
X133604000Y-162360428D01*
X133676571Y-162287857D01*
X133749142Y-162251571D01*
X133894285Y-162215285D01*
X134003142Y-162215285D01*
X134148285Y-162251571D01*
X134220857Y-162287857D01*
X134293428Y-162360428D01*
X134329714Y-162469285D01*
X134329714Y-162650714D01*
X133930571Y-161888714D02*
X133930571Y-161634714D01*
X134329714Y-161525857D02*
X134329714Y-161888714D01*
X133567714Y-161888714D01*
X133567714Y-161525857D01*
X130825952Y-152852380D02*
X131016428Y-152852380D01*
X131111666Y-152804761D01*
X131159285Y-152757142D01*
X131254523Y-152614285D01*
X131302142Y-152423809D01*
X131302142Y-152042857D01*
X131254523Y-151947619D01*
X131206904Y-151900000D01*
X131111666Y-151852380D01*
X130921190Y-151852380D01*
X130825952Y-151900000D01*
X130778333Y-151947619D01*
X130730714Y-152042857D01*
X130730714Y-152280952D01*
X130778333Y-152376190D01*
X130825952Y-152423809D01*
X130921190Y-152471428D01*
X131111666Y-152471428D01*
X131206904Y-152423809D01*
X131254523Y-152376190D01*
X131302142Y-152280952D01*
X131587857Y-151852380D02*
X131921190Y-152852380D01*
X132254523Y-151852380D01*
M02*
