G04 (created by PCBNEW (2013-07-07 BZR 4022)-stable) date 20/01/2017 15:23:42*
%MOIN*%
G04 Gerber Fmt 3.4, Leading zero omitted, Abs format*
%FSLAX34Y34*%
G01*
G70*
G90*
G04 APERTURE LIST*
%ADD10C,0.005*%
%ADD11C,0.00393701*%
%ADD12C,0.00787402*%
%ADD13C,0.011811*%
G04 APERTURE END LIST*
G54D10*
G54D11*
X48500Y-46500D02*
X118500Y-46500D01*
X118500Y-79500D02*
X118500Y-46500D01*
X48500Y-79500D02*
X118500Y-79500D01*
X48500Y-79500D02*
X48500Y-46500D01*
G54D12*
X49590Y-67840D02*
X49910Y-68160D01*
X49910Y-67840D02*
X49590Y-68160D01*
X51090Y-67840D02*
X51410Y-68160D01*
X51410Y-67840D02*
X51090Y-68160D01*
X51340Y-57340D02*
X51660Y-57660D01*
X51660Y-57340D02*
X51340Y-57660D01*
X51840Y-55340D02*
X52160Y-55660D01*
X52160Y-55340D02*
X51840Y-55660D01*
X53840Y-55340D02*
X54160Y-55660D01*
X54160Y-55340D02*
X53840Y-55660D01*
X53840Y-72340D02*
X54160Y-72660D01*
X54160Y-72340D02*
X53840Y-72660D01*
X54340Y-57340D02*
X54660Y-57660D01*
X54660Y-57340D02*
X54340Y-57660D01*
X55340Y-72340D02*
X55660Y-72660D01*
X55660Y-72340D02*
X55340Y-72660D01*
X55840Y-47840D02*
X56160Y-48160D01*
X56160Y-47840D02*
X55840Y-48160D01*
X55840Y-50840D02*
X56160Y-51160D01*
X56160Y-50840D02*
X55840Y-51160D01*
X56340Y-74340D02*
X56660Y-74660D01*
X56660Y-74340D02*
X56340Y-74660D01*
X56840Y-76340D02*
X57160Y-76660D01*
X57160Y-76340D02*
X56840Y-76660D01*
X57340Y-69840D02*
X57660Y-70160D01*
X57660Y-69840D02*
X57340Y-70160D01*
X57590Y-57340D02*
X57910Y-57660D01*
X57910Y-57340D02*
X57590Y-57660D01*
X57840Y-62840D02*
X58160Y-63160D01*
X58160Y-62840D02*
X57840Y-63160D01*
X57840Y-64840D02*
X58160Y-65160D01*
X58160Y-64840D02*
X57840Y-65160D01*
X57840Y-67840D02*
X58160Y-68160D01*
X58160Y-67840D02*
X57840Y-68160D01*
X58090Y-55340D02*
X58410Y-55660D01*
X58410Y-55340D02*
X58090Y-55660D01*
X58840Y-76340D02*
X59160Y-76660D01*
X59160Y-76340D02*
X58840Y-76660D01*
X59340Y-74340D02*
X59660Y-74660D01*
X59660Y-74340D02*
X59340Y-74660D01*
X59840Y-67840D02*
X60160Y-68160D01*
X60160Y-67840D02*
X59840Y-68160D01*
X60090Y-55340D02*
X60410Y-55660D01*
X60410Y-55340D02*
X60090Y-55660D01*
X60340Y-69840D02*
X60660Y-70160D01*
X60660Y-69840D02*
X60340Y-70160D01*
X60590Y-57340D02*
X60910Y-57660D01*
X60910Y-57340D02*
X60590Y-57660D01*
X62840Y-69090D02*
X63160Y-69410D01*
X63160Y-69090D02*
X62840Y-69410D01*
X62840Y-71090D02*
X63160Y-71410D01*
X63160Y-71090D02*
X62840Y-71410D01*
X65590Y-61840D02*
X65910Y-62160D01*
X65910Y-61840D02*
X65590Y-62160D01*
X65840Y-47840D02*
X66160Y-48160D01*
X66160Y-47840D02*
X65840Y-48160D01*
X65840Y-50840D02*
X66160Y-51160D01*
X66160Y-50840D02*
X65840Y-51160D01*
X66090Y-53590D02*
X66410Y-53910D01*
X66410Y-53590D02*
X66090Y-53910D01*
X66090Y-54590D02*
X66410Y-54910D01*
X66410Y-54590D02*
X66090Y-54910D01*
X66090Y-55590D02*
X66410Y-55910D01*
X66410Y-55590D02*
X66090Y-55910D01*
X66090Y-56590D02*
X66410Y-56910D01*
X66410Y-56590D02*
X66090Y-56910D01*
X66090Y-57590D02*
X66410Y-57910D01*
X66410Y-57590D02*
X66090Y-57910D01*
X66090Y-58590D02*
X66410Y-58910D01*
X66410Y-58590D02*
X66090Y-58910D01*
X66090Y-59590D02*
X66410Y-59910D01*
X66410Y-59590D02*
X66090Y-59910D01*
X66340Y-65590D02*
X66660Y-65910D01*
X66660Y-65590D02*
X66340Y-65910D01*
X66340Y-66590D02*
X66660Y-66910D01*
X66660Y-66590D02*
X66340Y-66910D01*
X66340Y-67590D02*
X66660Y-67910D01*
X66660Y-67590D02*
X66340Y-67910D01*
X66340Y-68590D02*
X66660Y-68910D01*
X66660Y-68590D02*
X66340Y-68910D01*
X66340Y-69590D02*
X66660Y-69910D01*
X66660Y-69590D02*
X66340Y-69910D01*
X66340Y-70590D02*
X66660Y-70910D01*
X66660Y-70590D02*
X66340Y-70910D01*
X66340Y-71590D02*
X66660Y-71910D01*
X66660Y-71590D02*
X66340Y-71910D01*
X66340Y-74340D02*
X66660Y-74660D01*
X66660Y-74340D02*
X66340Y-74660D01*
X66840Y-76340D02*
X67160Y-76660D01*
X67160Y-76340D02*
X66840Y-76660D01*
X67590Y-51590D02*
X67910Y-51910D01*
X67910Y-51590D02*
X67590Y-51910D01*
X68840Y-76340D02*
X69160Y-76660D01*
X69160Y-76340D02*
X68840Y-76660D01*
X69090Y-53590D02*
X69410Y-53910D01*
X69410Y-53590D02*
X69090Y-53910D01*
X69090Y-54590D02*
X69410Y-54910D01*
X69410Y-54590D02*
X69090Y-54910D01*
X69090Y-55590D02*
X69410Y-55910D01*
X69410Y-55590D02*
X69090Y-55910D01*
X69090Y-56590D02*
X69410Y-56910D01*
X69410Y-56590D02*
X69090Y-56910D01*
X69090Y-57590D02*
X69410Y-57910D01*
X69410Y-57590D02*
X69090Y-57910D01*
X69090Y-58590D02*
X69410Y-58910D01*
X69410Y-58590D02*
X69090Y-58910D01*
X69090Y-59590D02*
X69410Y-59910D01*
X69410Y-59590D02*
X69090Y-59910D01*
X69340Y-65590D02*
X69660Y-65910D01*
X69660Y-65590D02*
X69340Y-65910D01*
X69340Y-66590D02*
X69660Y-66910D01*
X69660Y-66590D02*
X69340Y-66910D01*
X69340Y-67590D02*
X69660Y-67910D01*
X69660Y-67590D02*
X69340Y-67910D01*
X69340Y-68590D02*
X69660Y-68910D01*
X69660Y-68590D02*
X69340Y-68910D01*
X69340Y-69590D02*
X69660Y-69910D01*
X69660Y-69590D02*
X69340Y-69910D01*
X69340Y-70590D02*
X69660Y-70910D01*
X69660Y-70590D02*
X69340Y-70910D01*
X69340Y-71590D02*
X69660Y-71910D01*
X69660Y-71590D02*
X69340Y-71910D01*
X69340Y-74340D02*
X69660Y-74660D01*
X69660Y-74340D02*
X69340Y-74660D01*
X69590Y-51590D02*
X69910Y-51910D01*
X69910Y-51590D02*
X69590Y-51910D01*
X69590Y-61840D02*
X69910Y-62160D01*
X69910Y-61840D02*
X69590Y-62160D01*
X74590Y-69840D02*
X74910Y-70160D01*
X74910Y-69840D02*
X74590Y-70160D01*
X74840Y-57340D02*
X75160Y-57660D01*
X75160Y-57340D02*
X74840Y-57660D01*
X75090Y-67840D02*
X75410Y-68160D01*
X75410Y-67840D02*
X75090Y-68160D01*
X75340Y-55340D02*
X75660Y-55660D01*
X75660Y-55340D02*
X75340Y-55660D01*
X75840Y-47840D02*
X76160Y-48160D01*
X76160Y-47840D02*
X75840Y-48160D01*
X75840Y-50840D02*
X76160Y-51160D01*
X76160Y-50840D02*
X75840Y-51160D01*
X76340Y-74340D02*
X76660Y-74660D01*
X76660Y-74340D02*
X76340Y-74660D01*
X76840Y-76340D02*
X77160Y-76660D01*
X77160Y-76340D02*
X76840Y-76660D01*
X77090Y-67840D02*
X77410Y-68160D01*
X77410Y-67840D02*
X77090Y-68160D01*
X77340Y-55340D02*
X77660Y-55660D01*
X77660Y-55340D02*
X77340Y-55660D01*
X77590Y-69840D02*
X77910Y-70160D01*
X77910Y-69840D02*
X77590Y-70160D01*
X77840Y-57340D02*
X78160Y-57660D01*
X78160Y-57340D02*
X77840Y-57660D01*
X78840Y-76340D02*
X79160Y-76660D01*
X79160Y-76340D02*
X78840Y-76660D01*
X79340Y-74340D02*
X79660Y-74660D01*
X79660Y-74340D02*
X79340Y-74660D01*
X81340Y-57340D02*
X81660Y-57660D01*
X81660Y-57340D02*
X81340Y-57660D01*
X81340Y-69840D02*
X81660Y-70160D01*
X81660Y-69840D02*
X81340Y-70160D01*
X81840Y-55340D02*
X82160Y-55660D01*
X82160Y-55340D02*
X81840Y-55660D01*
X81840Y-67840D02*
X82160Y-68160D01*
X82160Y-67840D02*
X81840Y-68160D01*
X83840Y-55340D02*
X84160Y-55660D01*
X84160Y-55340D02*
X83840Y-55660D01*
X83840Y-67840D02*
X84160Y-68160D01*
X84160Y-67840D02*
X83840Y-68160D01*
X84340Y-57340D02*
X84660Y-57660D01*
X84660Y-57340D02*
X84340Y-57660D01*
X84340Y-69840D02*
X84660Y-70160D01*
X84660Y-69840D02*
X84340Y-70160D01*
X85840Y-47840D02*
X86160Y-48160D01*
X86160Y-47840D02*
X85840Y-48160D01*
X85840Y-50840D02*
X86160Y-51160D01*
X86160Y-50840D02*
X85840Y-51160D01*
X86340Y-59590D02*
X86660Y-59910D01*
X86660Y-59590D02*
X86340Y-59910D01*
X86340Y-63590D02*
X86660Y-63910D01*
X86660Y-63590D02*
X86340Y-63910D01*
X86840Y-52590D02*
X87160Y-52910D01*
X87160Y-52590D02*
X86840Y-52910D01*
X87090Y-70840D02*
X87410Y-71160D01*
X87410Y-70840D02*
X87090Y-71160D01*
X87090Y-73840D02*
X87410Y-74160D01*
X87410Y-73840D02*
X87090Y-74160D01*
X88340Y-66090D02*
X88660Y-66410D01*
X88660Y-66090D02*
X88340Y-66410D01*
X88340Y-69090D02*
X88660Y-69410D01*
X88660Y-69090D02*
X88340Y-69410D01*
X88590Y-70840D02*
X88910Y-71160D01*
X88910Y-70840D02*
X88590Y-71160D01*
X88590Y-74840D02*
X88910Y-75160D01*
X88910Y-74840D02*
X88590Y-75160D01*
X88840Y-52590D02*
X89160Y-52910D01*
X89160Y-52590D02*
X88840Y-52910D01*
X89090Y-56340D02*
X89410Y-56660D01*
X89410Y-56340D02*
X89090Y-56660D01*
X89090Y-59340D02*
X89410Y-59660D01*
X89410Y-59340D02*
X89090Y-59660D01*
X90340Y-56340D02*
X90660Y-56660D01*
X90660Y-56340D02*
X90340Y-56660D01*
X90340Y-59340D02*
X90660Y-59660D01*
X90660Y-59340D02*
X90340Y-59660D01*
X91090Y-75840D02*
X91410Y-76160D01*
X91410Y-75840D02*
X91090Y-76160D01*
X91090Y-77340D02*
X91410Y-77660D01*
X91410Y-77340D02*
X91090Y-77660D01*
X92340Y-69340D02*
X92660Y-69660D01*
X92660Y-69340D02*
X92340Y-69660D01*
X92340Y-72340D02*
X92660Y-72660D01*
X92660Y-72340D02*
X92340Y-72660D01*
X93090Y-54590D02*
X93410Y-54910D01*
X93410Y-54590D02*
X93090Y-54910D01*
X93090Y-56090D02*
X93410Y-56410D01*
X93410Y-56090D02*
X93090Y-56410D01*
X93490Y-63115D02*
X93810Y-63435D01*
X93810Y-63115D02*
X93490Y-63435D01*
X93490Y-76240D02*
X93810Y-76560D01*
X93810Y-76240D02*
X93490Y-76560D01*
X94490Y-63115D02*
X94810Y-63435D01*
X94810Y-63115D02*
X94490Y-63435D01*
X94490Y-76240D02*
X94810Y-76560D01*
X94810Y-76240D02*
X94490Y-76560D01*
X94590Y-67590D02*
X94910Y-67910D01*
X94910Y-67590D02*
X94590Y-67910D01*
X94590Y-70590D02*
X94910Y-70910D01*
X94910Y-70590D02*
X94590Y-70910D01*
X95590Y-67590D02*
X95910Y-67910D01*
X95910Y-67590D02*
X95590Y-67910D01*
X95590Y-70590D02*
X95910Y-70910D01*
X95910Y-70590D02*
X95590Y-70910D01*
X96590Y-67590D02*
X96910Y-67910D01*
X96910Y-67590D02*
X96590Y-67910D01*
X96590Y-70590D02*
X96910Y-70910D01*
X96910Y-70590D02*
X96590Y-70910D01*
X97090Y-48840D02*
X97410Y-49160D01*
X97410Y-48840D02*
X97090Y-49160D01*
X97090Y-51840D02*
X97410Y-52160D01*
X97410Y-51840D02*
X97090Y-52160D01*
X97340Y-57590D02*
X97660Y-57910D01*
X97660Y-57590D02*
X97340Y-57910D01*
X97340Y-58590D02*
X97660Y-58910D01*
X97660Y-58590D02*
X97340Y-58910D01*
X97340Y-59590D02*
X97660Y-59910D01*
X97660Y-59590D02*
X97340Y-59910D01*
X97340Y-60590D02*
X97660Y-60910D01*
X97660Y-60590D02*
X97340Y-60910D01*
X97340Y-61590D02*
X97660Y-61910D01*
X97660Y-61590D02*
X97340Y-61910D01*
X97340Y-62590D02*
X97660Y-62910D01*
X97660Y-62590D02*
X97340Y-62910D01*
X97340Y-63590D02*
X97660Y-63910D01*
X97660Y-63590D02*
X97340Y-63910D01*
X97590Y-67590D02*
X97910Y-67910D01*
X97910Y-67590D02*
X97590Y-67910D01*
X97590Y-70590D02*
X97910Y-70910D01*
X97910Y-70590D02*
X97590Y-70910D01*
X98590Y-67590D02*
X98910Y-67910D01*
X98910Y-67590D02*
X98590Y-67910D01*
X98590Y-70590D02*
X98910Y-70910D01*
X98910Y-70590D02*
X98590Y-70910D01*
X99590Y-67590D02*
X99910Y-67910D01*
X99910Y-67590D02*
X99590Y-67910D01*
X99590Y-70590D02*
X99910Y-70910D01*
X99910Y-70590D02*
X99590Y-70910D01*
X100340Y-49340D02*
X100660Y-49660D01*
X100660Y-49340D02*
X100340Y-49660D01*
X100340Y-51340D02*
X100660Y-51660D01*
X100660Y-51340D02*
X100340Y-51660D01*
X100340Y-57590D02*
X100660Y-57910D01*
X100660Y-57590D02*
X100340Y-57910D01*
X100340Y-58590D02*
X100660Y-58910D01*
X100660Y-58590D02*
X100340Y-58910D01*
X100340Y-59590D02*
X100660Y-59910D01*
X100660Y-59590D02*
X100340Y-59910D01*
X100340Y-60590D02*
X100660Y-60910D01*
X100660Y-60590D02*
X100340Y-60910D01*
X100340Y-61590D02*
X100660Y-61910D01*
X100660Y-61590D02*
X100340Y-61910D01*
X100340Y-62590D02*
X100660Y-62910D01*
X100660Y-62590D02*
X100340Y-62910D01*
X100340Y-63590D02*
X100660Y-63910D01*
X100660Y-63590D02*
X100340Y-63910D01*
X100590Y-67590D02*
X100910Y-67910D01*
X100910Y-67590D02*
X100590Y-67910D01*
X100590Y-70590D02*
X100910Y-70910D01*
X100910Y-70590D02*
X100590Y-70910D01*
X100590Y-73590D02*
X100910Y-73910D01*
X100910Y-73590D02*
X100590Y-73910D01*
X100590Y-76590D02*
X100910Y-76910D01*
X100910Y-76590D02*
X100590Y-76910D01*
X102090Y-67840D02*
X102410Y-68160D01*
X102410Y-67840D02*
X102090Y-68160D01*
X103090Y-54590D02*
X103410Y-54910D01*
X103410Y-54590D02*
X103090Y-54910D01*
X103090Y-56090D02*
X103410Y-56410D01*
X103410Y-56090D02*
X103090Y-56410D01*
X103840Y-57590D02*
X104160Y-57910D01*
X104160Y-57590D02*
X103840Y-57910D01*
X103840Y-59590D02*
X104160Y-59910D01*
X104160Y-59590D02*
X103840Y-59910D01*
X105090Y-67840D02*
X105410Y-68160D01*
X105410Y-67840D02*
X105090Y-68160D01*
X106840Y-58590D02*
X107160Y-58910D01*
X107160Y-58590D02*
X106840Y-58910D01*
X106840Y-61590D02*
X107160Y-61910D01*
X107160Y-61590D02*
X106840Y-61910D01*
X107090Y-48840D02*
X107410Y-49160D01*
X107410Y-48840D02*
X107090Y-49160D01*
X107090Y-51840D02*
X107410Y-52160D01*
X107410Y-51840D02*
X107090Y-52160D01*
X107340Y-68590D02*
X107660Y-68910D01*
X107660Y-68590D02*
X107340Y-68910D01*
X107340Y-71590D02*
X107660Y-71910D01*
X107660Y-71590D02*
X107340Y-71910D01*
X108090Y-58840D02*
X108410Y-59160D01*
X108410Y-58840D02*
X108090Y-59160D01*
X108090Y-61840D02*
X108410Y-62160D01*
X108410Y-61840D02*
X108090Y-62160D01*
X108340Y-68590D02*
X108660Y-68910D01*
X108660Y-68590D02*
X108340Y-68910D01*
X108340Y-71590D02*
X108660Y-71910D01*
X108660Y-71590D02*
X108340Y-71910D01*
X108340Y-73590D02*
X108660Y-73910D01*
X108660Y-73590D02*
X108340Y-73910D01*
X108340Y-76590D02*
X108660Y-76910D01*
X108660Y-76590D02*
X108340Y-76910D01*
X109090Y-56090D02*
X109410Y-56410D01*
X109410Y-56090D02*
X109090Y-56410D01*
X109090Y-58840D02*
X109410Y-59160D01*
X109410Y-58840D02*
X109090Y-59160D01*
X109090Y-61840D02*
X109410Y-62160D01*
X109410Y-61840D02*
X109090Y-62160D01*
X109340Y-68590D02*
X109660Y-68910D01*
X109660Y-68590D02*
X109340Y-68910D01*
X109340Y-71590D02*
X109660Y-71910D01*
X109660Y-71590D02*
X109340Y-71910D01*
X109840Y-73590D02*
X110160Y-73910D01*
X110160Y-73590D02*
X109840Y-73910D01*
X109840Y-76590D02*
X110160Y-76910D01*
X110160Y-76590D02*
X109840Y-76910D01*
X110090Y-58840D02*
X110410Y-59160D01*
X110410Y-58840D02*
X110090Y-59160D01*
X110090Y-61840D02*
X110410Y-62160D01*
X110410Y-61840D02*
X110090Y-62160D01*
X110340Y-68590D02*
X110660Y-68910D01*
X110660Y-68590D02*
X110340Y-68910D01*
X110340Y-71590D02*
X110660Y-71910D01*
X110660Y-71590D02*
X110340Y-71910D01*
X110590Y-56090D02*
X110910Y-56410D01*
X110910Y-56090D02*
X110590Y-56410D01*
X111090Y-58840D02*
X111410Y-59160D01*
X111410Y-58840D02*
X111090Y-59160D01*
X111090Y-61840D02*
X111410Y-62160D01*
X111410Y-61840D02*
X111090Y-62160D01*
X113090Y-54590D02*
X113410Y-54910D01*
X113410Y-54590D02*
X113090Y-54910D01*
X113090Y-56090D02*
X113410Y-56410D01*
X113410Y-56090D02*
X113090Y-56410D01*
X117340Y-48840D02*
X117660Y-49160D01*
X117660Y-48840D02*
X117340Y-49160D01*
X117340Y-51840D02*
X117660Y-52160D01*
X117660Y-51840D02*
X117340Y-52160D01*
X52096Y-53100D02*
G75*
G03X52096Y-53100I-196J0D01*
G74*
G01*
X53096Y-53100D02*
G75*
G03X53096Y-53100I-196J0D01*
G74*
G01*
X54096Y-53100D02*
G75*
G03X54096Y-53100I-196J0D01*
G74*
G01*
X62096Y-53100D02*
G75*
G03X62096Y-53100I-196J0D01*
G74*
G01*
X62096Y-66225D02*
G75*
G03X62096Y-66225I-196J0D01*
G74*
G01*
X62096Y-73450D02*
G75*
G03X62096Y-73450I-196J0D01*
G74*
G01*
X63096Y-53100D02*
G75*
G03X63096Y-53100I-196J0D01*
G74*
G01*
X63096Y-66225D02*
G75*
G03X63096Y-66225I-196J0D01*
G74*
G01*
X63096Y-73450D02*
G75*
G03X63096Y-73450I-196J0D01*
G74*
G01*
X64096Y-53100D02*
G75*
G03X64096Y-53100I-196J0D01*
G74*
G01*
X64096Y-66225D02*
G75*
G03X64096Y-66225I-196J0D01*
G74*
G01*
X64096Y-73450D02*
G75*
G03X64096Y-73450I-196J0D01*
G74*
G01*
X72096Y-53100D02*
G75*
G03X72096Y-53100I-196J0D01*
G74*
G01*
X72096Y-66225D02*
G75*
G03X72096Y-66225I-196J0D01*
G74*
G01*
X72096Y-73450D02*
G75*
G03X72096Y-73450I-196J0D01*
G74*
G01*
X73096Y-53100D02*
G75*
G03X73096Y-53100I-196J0D01*
G74*
G01*
X73096Y-66225D02*
G75*
G03X73096Y-66225I-196J0D01*
G74*
G01*
X73096Y-73450D02*
G75*
G03X73096Y-73450I-196J0D01*
G74*
G01*
X74096Y-53100D02*
G75*
G03X74096Y-53100I-196J0D01*
G74*
G01*
X74096Y-66225D02*
G75*
G03X74096Y-66225I-196J0D01*
G74*
G01*
X74096Y-73450D02*
G75*
G03X74096Y-73450I-196J0D01*
G74*
G01*
X82096Y-53100D02*
G75*
G03X82096Y-53100I-196J0D01*
G74*
G01*
X82096Y-66225D02*
G75*
G03X82096Y-66225I-196J0D01*
G74*
G01*
X82096Y-73450D02*
G75*
G03X82096Y-73450I-196J0D01*
G74*
G01*
X83096Y-53100D02*
G75*
G03X83096Y-53100I-196J0D01*
G74*
G01*
X83096Y-66225D02*
G75*
G03X83096Y-66225I-196J0D01*
G74*
G01*
X83096Y-73450D02*
G75*
G03X83096Y-73450I-196J0D01*
G74*
G01*
X84096Y-53100D02*
G75*
G03X84096Y-53100I-196J0D01*
G74*
G01*
X84096Y-66225D02*
G75*
G03X84096Y-66225I-196J0D01*
G74*
G01*
X84096Y-73450D02*
G75*
G03X84096Y-73450I-196J0D01*
G74*
G01*
X93346Y-53100D02*
G75*
G03X93346Y-53100I-196J0D01*
G74*
G01*
X94346Y-53100D02*
G75*
G03X94346Y-53100I-196J0D01*
G74*
G01*
X95346Y-53100D02*
G75*
G03X95346Y-53100I-196J0D01*
G74*
G01*
X103346Y-53100D02*
G75*
G03X103346Y-53100I-196J0D01*
G74*
G01*
X103346Y-66225D02*
G75*
G03X103346Y-66225I-196J0D01*
G74*
G01*
X103346Y-73450D02*
G75*
G03X103346Y-73450I-196J0D01*
G74*
G01*
X104346Y-53100D02*
G75*
G03X104346Y-53100I-196J0D01*
G74*
G01*
X104346Y-66225D02*
G75*
G03X104346Y-66225I-196J0D01*
G74*
G01*
X104346Y-73450D02*
G75*
G03X104346Y-73450I-196J0D01*
G74*
G01*
X105346Y-53100D02*
G75*
G03X105346Y-53100I-196J0D01*
G74*
G01*
X105346Y-66225D02*
G75*
G03X105346Y-66225I-196J0D01*
G74*
G01*
X105346Y-73450D02*
G75*
G03X105346Y-73450I-196J0D01*
G74*
G01*
X113346Y-53100D02*
G75*
G03X113346Y-53100I-196J0D01*
G74*
G01*
X113346Y-66225D02*
G75*
G03X113346Y-66225I-196J0D01*
G74*
G01*
X113346Y-73450D02*
G75*
G03X113346Y-73450I-196J0D01*
G74*
G01*
X114346Y-53100D02*
G75*
G03X114346Y-53100I-196J0D01*
G74*
G01*
X114346Y-66225D02*
G75*
G03X114346Y-66225I-196J0D01*
G74*
G01*
X114346Y-73450D02*
G75*
G03X114346Y-73450I-196J0D01*
G74*
G01*
X115346Y-53100D02*
G75*
G03X115346Y-53100I-196J0D01*
G74*
G01*
X115346Y-66225D02*
G75*
G03X115346Y-66225I-196J0D01*
G74*
G01*
X115346Y-73450D02*
G75*
G03X115346Y-73450I-196J0D01*
G74*
G01*
X49500Y-60800D02*
X49500Y-61200D01*
X49300Y-61000D02*
X49700Y-61000D01*
X51750Y-60800D02*
X51750Y-61200D01*
X51550Y-61000D02*
X51950Y-61000D01*
X52750Y-62100D02*
X52750Y-62500D01*
X52550Y-62300D02*
X52950Y-62300D01*
X52750Y-66100D02*
X52750Y-66500D01*
X52550Y-66300D02*
X52950Y-66300D01*
X90250Y-47050D02*
X90250Y-47450D01*
X90050Y-47250D02*
X90450Y-47250D01*
X94250Y-47050D02*
X94250Y-47450D01*
X94050Y-47250D02*
X94450Y-47250D01*
X104250Y-47050D02*
X104250Y-47450D01*
X104050Y-47250D02*
X104450Y-47250D01*
X114250Y-47050D02*
X114250Y-47450D01*
X114050Y-47250D02*
X114450Y-47250D01*
X49909Y-69909D02*
X49909Y-69590D01*
X49590Y-69590D01*
X49590Y-69909D01*
X49909Y-69909D01*
X50909Y-69909D02*
X50909Y-69590D01*
X50590Y-69590D01*
X50590Y-69909D01*
X50909Y-69909D01*
X51169Y-50305D02*
X51169Y-49986D01*
X50850Y-49986D01*
X50850Y-50305D01*
X51169Y-50305D01*
X51909Y-69909D02*
X51909Y-69590D01*
X51590Y-69590D01*
X51590Y-69909D01*
X51909Y-69909D01*
X54949Y-50309D02*
X54949Y-49990D01*
X54630Y-49990D01*
X54630Y-50309D01*
X54949Y-50309D01*
X61169Y-50305D02*
X61169Y-49986D01*
X60850Y-49986D01*
X60850Y-50305D01*
X61169Y-50305D01*
X61169Y-63430D02*
X61169Y-63111D01*
X60850Y-63111D01*
X60850Y-63430D01*
X61169Y-63430D01*
X61169Y-76559D02*
X61169Y-76240D01*
X60850Y-76240D01*
X60850Y-76559D01*
X61169Y-76559D01*
X64949Y-50309D02*
X64949Y-49990D01*
X64630Y-49990D01*
X64630Y-50309D01*
X64949Y-50309D01*
X64949Y-63434D02*
X64949Y-63115D01*
X64630Y-63115D01*
X64630Y-63434D01*
X64949Y-63434D01*
X64949Y-76563D02*
X64949Y-76244D01*
X64630Y-76244D01*
X64630Y-76563D01*
X64949Y-76563D01*
X71169Y-50305D02*
X71169Y-49986D01*
X70850Y-49986D01*
X70850Y-50305D01*
X71169Y-50305D01*
X71169Y-63430D02*
X71169Y-63111D01*
X70850Y-63111D01*
X70850Y-63430D01*
X71169Y-63430D01*
X71169Y-76559D02*
X71169Y-76240D01*
X70850Y-76240D01*
X70850Y-76559D01*
X71169Y-76559D01*
X74949Y-50309D02*
X74949Y-49990D01*
X74630Y-49990D01*
X74630Y-50309D01*
X74949Y-50309D01*
X74949Y-63434D02*
X74949Y-63115D01*
X74630Y-63115D01*
X74630Y-63434D01*
X74949Y-63434D01*
X74949Y-76563D02*
X74949Y-76244D01*
X74630Y-76244D01*
X74630Y-76563D01*
X74949Y-76563D01*
X81169Y-50305D02*
X81169Y-49986D01*
X80850Y-49986D01*
X80850Y-50305D01*
X81169Y-50305D01*
X81169Y-63430D02*
X81169Y-63111D01*
X80850Y-63111D01*
X80850Y-63430D01*
X81169Y-63430D01*
X81169Y-76559D02*
X81169Y-76240D01*
X80850Y-76240D01*
X80850Y-76559D01*
X81169Y-76559D01*
X84949Y-50309D02*
X84949Y-49990D01*
X84630Y-49990D01*
X84630Y-50309D01*
X84949Y-50309D01*
X84949Y-63434D02*
X84949Y-63115D01*
X84630Y-63115D01*
X84630Y-63434D01*
X84949Y-63434D01*
X84949Y-76563D02*
X84949Y-76244D01*
X84630Y-76244D01*
X84630Y-76563D01*
X84949Y-76563D01*
X92419Y-50305D02*
X92419Y-49986D01*
X92100Y-49986D01*
X92100Y-50305D01*
X92419Y-50305D01*
X96199Y-50309D02*
X96199Y-49990D01*
X95880Y-49990D01*
X95880Y-50309D01*
X96199Y-50309D01*
X102419Y-50305D02*
X102419Y-49986D01*
X102100Y-49986D01*
X102100Y-50305D01*
X102419Y-50305D01*
X102419Y-63430D02*
X102419Y-63111D01*
X102100Y-63111D01*
X102100Y-63430D01*
X102419Y-63430D01*
X102419Y-76559D02*
X102419Y-76240D01*
X102100Y-76240D01*
X102100Y-76559D01*
X102419Y-76559D01*
X106199Y-50309D02*
X106199Y-49990D01*
X105880Y-49990D01*
X105880Y-50309D01*
X106199Y-50309D01*
X106199Y-63434D02*
X106199Y-63115D01*
X105880Y-63115D01*
X105880Y-63434D01*
X106199Y-63434D01*
X106199Y-76563D02*
X106199Y-76244D01*
X105880Y-76244D01*
X105880Y-76563D01*
X106199Y-76563D01*
X112419Y-50305D02*
X112419Y-49986D01*
X112100Y-49986D01*
X112100Y-50305D01*
X112419Y-50305D01*
X112419Y-63430D02*
X112419Y-63111D01*
X112100Y-63111D01*
X112100Y-63430D01*
X112419Y-63430D01*
X112419Y-76559D02*
X112419Y-76240D01*
X112100Y-76240D01*
X112100Y-76559D01*
X112419Y-76559D01*
X116199Y-50309D02*
X116199Y-49990D01*
X115880Y-49990D01*
X115880Y-50309D01*
X116199Y-50309D01*
X116199Y-63434D02*
X116199Y-63115D01*
X115880Y-63115D01*
X115880Y-63434D01*
X116199Y-63434D01*
X116199Y-76563D02*
X116199Y-76244D01*
X115880Y-76244D01*
X115880Y-76563D01*
X116199Y-76563D01*
X54770Y-61708D02*
X55203Y-61275D01*
X54770Y-60841D01*
X54336Y-61275D01*
X54770Y-61708D01*
X54770Y-63708D02*
X55203Y-63275D01*
X54770Y-62841D01*
X54336Y-63275D01*
X54770Y-63708D01*
X54770Y-65708D02*
X55203Y-65275D01*
X54770Y-64841D01*
X54336Y-65275D01*
X54770Y-65708D01*
X58159Y-50659D02*
X59340Y-51840D01*
X59340Y-50659D02*
X58159Y-51840D01*
X59340Y-51250D02*
G75*
G03X59340Y-51250I-590J0D01*
G74*
G01*
X109409Y-47659D02*
X110590Y-48840D01*
X110590Y-47659D02*
X109409Y-48840D01*
X110590Y-48250D02*
G75*
G03X110590Y-48250I-590J0D01*
G74*
G01*
X114159Y-69159D02*
X115340Y-70340D01*
X115340Y-69159D02*
X114159Y-70340D01*
X115340Y-69750D02*
G75*
G03X115340Y-69750I-590J0D01*
G74*
G01*
X50150Y-75650D02*
X51350Y-76850D01*
X51350Y-75650D02*
X50150Y-76850D01*
X50750Y-75650D02*
X50750Y-76850D01*
X50150Y-76250D02*
X51350Y-76250D01*
G54D13*
X49548Y-81296D02*
X49548Y-80115D01*
X49830Y-80115D01*
X49998Y-80172D01*
X50111Y-80284D01*
X50167Y-80397D01*
X50223Y-80622D01*
X50223Y-80790D01*
X50167Y-81015D01*
X50111Y-81128D01*
X49998Y-81240D01*
X49830Y-81296D01*
X49548Y-81296D01*
X50730Y-81296D02*
X50730Y-80509D01*
X50730Y-80734D02*
X50786Y-80622D01*
X50842Y-80565D01*
X50955Y-80509D01*
X51067Y-80509D01*
X51461Y-81296D02*
X51461Y-80509D01*
X51461Y-80115D02*
X51404Y-80172D01*
X51461Y-80228D01*
X51517Y-80172D01*
X51461Y-80115D01*
X51461Y-80228D01*
X52192Y-81296D02*
X52079Y-81240D01*
X52023Y-81128D01*
X52023Y-80115D01*
X52811Y-81296D02*
X52698Y-81240D01*
X52642Y-81128D01*
X52642Y-80115D01*
X54160Y-81296D02*
X54160Y-80115D01*
X54554Y-80959D01*
X54948Y-80115D01*
X54948Y-81296D01*
X56016Y-81296D02*
X56016Y-80678D01*
X55960Y-80565D01*
X55848Y-80509D01*
X55623Y-80509D01*
X55510Y-80565D01*
X56016Y-81240D02*
X55904Y-81296D01*
X55623Y-81296D01*
X55510Y-81240D01*
X55454Y-81128D01*
X55454Y-81015D01*
X55510Y-80903D01*
X55623Y-80847D01*
X55904Y-80847D01*
X56016Y-80790D01*
X56579Y-80509D02*
X56579Y-81690D01*
X56579Y-80565D02*
X56691Y-80509D01*
X56916Y-80509D01*
X57029Y-80565D01*
X57085Y-80622D01*
X57141Y-80734D01*
X57141Y-81071D01*
X57085Y-81184D01*
X57029Y-81240D01*
X56916Y-81296D01*
X56691Y-81296D01*
X56579Y-81240D01*
X57647Y-81184D02*
X57704Y-81240D01*
X57647Y-81296D01*
X57591Y-81240D01*
X57647Y-81184D01*
X57647Y-81296D01*
X57647Y-80565D02*
X57704Y-80622D01*
X57647Y-80678D01*
X57591Y-80622D01*
X57647Y-80565D01*
X57647Y-80678D01*
X48160Y-83139D02*
X48480Y-83459D01*
X48480Y-83139D02*
X48160Y-83459D01*
X49773Y-82596D02*
X49886Y-82596D01*
X49998Y-82652D01*
X50055Y-82708D01*
X50111Y-82821D01*
X50167Y-83046D01*
X50167Y-83327D01*
X50111Y-83552D01*
X50055Y-83664D01*
X49998Y-83721D01*
X49886Y-83777D01*
X49773Y-83777D01*
X49661Y-83721D01*
X49605Y-83664D01*
X49548Y-83552D01*
X49492Y-83327D01*
X49492Y-83046D01*
X49548Y-82821D01*
X49605Y-82708D01*
X49661Y-82652D01*
X49773Y-82596D01*
X50673Y-83664D02*
X50730Y-83721D01*
X50673Y-83777D01*
X50617Y-83721D01*
X50673Y-83664D01*
X50673Y-83777D01*
X51404Y-83102D02*
X51292Y-83046D01*
X51236Y-82989D01*
X51179Y-82877D01*
X51179Y-82821D01*
X51236Y-82708D01*
X51292Y-82652D01*
X51404Y-82596D01*
X51629Y-82596D01*
X51742Y-82652D01*
X51798Y-82708D01*
X51854Y-82821D01*
X51854Y-82877D01*
X51798Y-82989D01*
X51742Y-83046D01*
X51629Y-83102D01*
X51404Y-83102D01*
X51292Y-83158D01*
X51236Y-83214D01*
X51179Y-83327D01*
X51179Y-83552D01*
X51236Y-83664D01*
X51292Y-83721D01*
X51404Y-83777D01*
X51629Y-83777D01*
X51742Y-83721D01*
X51798Y-83664D01*
X51854Y-83552D01*
X51854Y-83327D01*
X51798Y-83214D01*
X51742Y-83158D01*
X51629Y-83102D01*
X52979Y-83777D02*
X52304Y-83777D01*
X52642Y-83777D02*
X52642Y-82596D01*
X52529Y-82764D01*
X52417Y-82877D01*
X52304Y-82933D01*
X53485Y-83777D02*
X53485Y-82989D01*
X53485Y-83102D02*
X53542Y-83046D01*
X53654Y-82989D01*
X53823Y-82989D01*
X53935Y-83046D01*
X53992Y-83158D01*
X53992Y-83777D01*
X53992Y-83158D02*
X54048Y-83046D01*
X54160Y-82989D01*
X54329Y-82989D01*
X54442Y-83046D01*
X54498Y-83158D01*
X54498Y-83777D01*
X55060Y-83777D02*
X55060Y-82989D01*
X55060Y-83102D02*
X55116Y-83046D01*
X55229Y-82989D01*
X55398Y-82989D01*
X55510Y-83046D01*
X55566Y-83158D01*
X55566Y-83777D01*
X55566Y-83158D02*
X55623Y-83046D01*
X55735Y-82989D01*
X55904Y-82989D01*
X56016Y-83046D01*
X56073Y-83158D01*
X56073Y-83777D01*
X58379Y-82539D02*
X57366Y-84058D01*
X59897Y-82596D02*
X60010Y-82596D01*
X60122Y-82652D01*
X60178Y-82708D01*
X60235Y-82821D01*
X60291Y-83046D01*
X60291Y-83327D01*
X60235Y-83552D01*
X60178Y-83664D01*
X60122Y-83721D01*
X60010Y-83777D01*
X59897Y-83777D01*
X59785Y-83721D01*
X59728Y-83664D01*
X59672Y-83552D01*
X59616Y-83327D01*
X59616Y-83046D01*
X59672Y-82821D01*
X59728Y-82708D01*
X59785Y-82652D01*
X59897Y-82596D01*
X60797Y-83664D02*
X60853Y-83721D01*
X60797Y-83777D01*
X60741Y-83721D01*
X60797Y-83664D01*
X60797Y-83777D01*
X61584Y-82596D02*
X61697Y-82596D01*
X61809Y-82652D01*
X61866Y-82708D01*
X61922Y-82821D01*
X61978Y-83046D01*
X61978Y-83327D01*
X61922Y-83552D01*
X61866Y-83664D01*
X61809Y-83721D01*
X61697Y-83777D01*
X61584Y-83777D01*
X61472Y-83721D01*
X61416Y-83664D01*
X61359Y-83552D01*
X61303Y-83327D01*
X61303Y-83046D01*
X61359Y-82821D01*
X61416Y-82708D01*
X61472Y-82652D01*
X61584Y-82596D01*
X62372Y-82596D02*
X63103Y-82596D01*
X62709Y-83046D01*
X62878Y-83046D01*
X62991Y-83102D01*
X63047Y-83158D01*
X63103Y-83271D01*
X63103Y-83552D01*
X63047Y-83664D01*
X62991Y-83721D01*
X62878Y-83777D01*
X62541Y-83777D01*
X62428Y-83721D01*
X62372Y-83664D01*
X63553Y-82708D02*
X63609Y-82652D01*
X63722Y-82596D01*
X64003Y-82596D01*
X64115Y-82652D01*
X64172Y-82708D01*
X64228Y-82821D01*
X64228Y-82933D01*
X64172Y-83102D01*
X63497Y-83777D01*
X64228Y-83777D01*
X64678Y-82596D02*
X64678Y-82821D01*
X65128Y-82596D02*
X65128Y-82821D01*
X66871Y-84227D02*
X66815Y-84170D01*
X66703Y-84002D01*
X66646Y-83889D01*
X66590Y-83721D01*
X66534Y-83439D01*
X66534Y-83214D01*
X66590Y-82933D01*
X66646Y-82764D01*
X66703Y-82652D01*
X66815Y-82483D01*
X66871Y-82427D01*
X67940Y-83777D02*
X67265Y-83777D01*
X67602Y-83777D02*
X67602Y-82596D01*
X67490Y-82764D01*
X67377Y-82877D01*
X67265Y-82933D01*
X68615Y-83102D02*
X68502Y-83046D01*
X68446Y-82989D01*
X68390Y-82877D01*
X68390Y-82821D01*
X68446Y-82708D01*
X68502Y-82652D01*
X68615Y-82596D01*
X68840Y-82596D01*
X68952Y-82652D01*
X69008Y-82708D01*
X69065Y-82821D01*
X69065Y-82877D01*
X69008Y-82989D01*
X68952Y-83046D01*
X68840Y-83102D01*
X68615Y-83102D01*
X68502Y-83158D01*
X68446Y-83214D01*
X68390Y-83327D01*
X68390Y-83552D01*
X68446Y-83664D01*
X68502Y-83721D01*
X68615Y-83777D01*
X68840Y-83777D01*
X68952Y-83721D01*
X69008Y-83664D01*
X69065Y-83552D01*
X69065Y-83327D01*
X69008Y-83214D01*
X68952Y-83158D01*
X68840Y-83102D01*
X69515Y-82708D02*
X69571Y-82652D01*
X69683Y-82596D01*
X69965Y-82596D01*
X70077Y-82652D01*
X70133Y-82708D01*
X70190Y-82821D01*
X70190Y-82933D01*
X70133Y-83102D01*
X69458Y-83777D01*
X70190Y-83777D01*
X71596Y-83777D02*
X71596Y-82596D01*
X72102Y-83777D02*
X72102Y-83158D01*
X72046Y-83046D01*
X71933Y-82989D01*
X71764Y-82989D01*
X71652Y-83046D01*
X71596Y-83102D01*
X72833Y-83777D02*
X72721Y-83721D01*
X72664Y-83664D01*
X72608Y-83552D01*
X72608Y-83214D01*
X72664Y-83102D01*
X72721Y-83046D01*
X72833Y-82989D01*
X73002Y-82989D01*
X73114Y-83046D01*
X73170Y-83102D01*
X73227Y-83214D01*
X73227Y-83552D01*
X73170Y-83664D01*
X73114Y-83721D01*
X73002Y-83777D01*
X72833Y-83777D01*
X73902Y-83777D02*
X73789Y-83721D01*
X73733Y-83608D01*
X73733Y-82596D01*
X74802Y-83721D02*
X74689Y-83777D01*
X74464Y-83777D01*
X74352Y-83721D01*
X74295Y-83608D01*
X74295Y-83158D01*
X74352Y-83046D01*
X74464Y-82989D01*
X74689Y-82989D01*
X74802Y-83046D01*
X74858Y-83158D01*
X74858Y-83271D01*
X74295Y-83383D01*
X75308Y-83721D02*
X75420Y-83777D01*
X75645Y-83777D01*
X75758Y-83721D01*
X75814Y-83608D01*
X75814Y-83552D01*
X75758Y-83439D01*
X75645Y-83383D01*
X75476Y-83383D01*
X75364Y-83327D01*
X75308Y-83214D01*
X75308Y-83158D01*
X75364Y-83046D01*
X75476Y-82989D01*
X75645Y-82989D01*
X75758Y-83046D01*
X76208Y-84227D02*
X76264Y-84170D01*
X76376Y-84002D01*
X76433Y-83889D01*
X76489Y-83721D01*
X76545Y-83439D01*
X76545Y-83214D01*
X76489Y-82933D01*
X76433Y-82764D01*
X76376Y-82652D01*
X76264Y-82483D01*
X76208Y-82427D01*
G54D12*
X48480Y-84858D02*
G75*
G03X48480Y-84858I-196J0D01*
G74*
G01*
G54D13*
X50167Y-85336D02*
X49492Y-85336D01*
X49830Y-85336D02*
X49830Y-84155D01*
X49717Y-84323D01*
X49605Y-84436D01*
X49492Y-84492D01*
X50673Y-85223D02*
X50730Y-85280D01*
X50673Y-85336D01*
X50617Y-85280D01*
X50673Y-85223D01*
X50673Y-85336D01*
X51461Y-84155D02*
X51573Y-84155D01*
X51686Y-84211D01*
X51742Y-84267D01*
X51798Y-84380D01*
X51854Y-84605D01*
X51854Y-84886D01*
X51798Y-85111D01*
X51742Y-85223D01*
X51686Y-85280D01*
X51573Y-85336D01*
X51461Y-85336D01*
X51348Y-85280D01*
X51292Y-85223D01*
X51236Y-85111D01*
X51179Y-84886D01*
X51179Y-84605D01*
X51236Y-84380D01*
X51292Y-84267D01*
X51348Y-84211D01*
X51461Y-84155D01*
X52586Y-84155D02*
X52698Y-84155D01*
X52811Y-84211D01*
X52867Y-84267D01*
X52923Y-84380D01*
X52979Y-84605D01*
X52979Y-84886D01*
X52923Y-85111D01*
X52867Y-85223D01*
X52811Y-85280D01*
X52698Y-85336D01*
X52586Y-85336D01*
X52473Y-85280D01*
X52417Y-85223D01*
X52361Y-85111D01*
X52304Y-84886D01*
X52304Y-84605D01*
X52361Y-84380D01*
X52417Y-84267D01*
X52473Y-84211D01*
X52586Y-84155D01*
X53485Y-85336D02*
X53485Y-84548D01*
X53485Y-84661D02*
X53542Y-84605D01*
X53654Y-84548D01*
X53823Y-84548D01*
X53935Y-84605D01*
X53992Y-84717D01*
X53992Y-85336D01*
X53992Y-84717D02*
X54048Y-84605D01*
X54160Y-84548D01*
X54329Y-84548D01*
X54442Y-84605D01*
X54498Y-84717D01*
X54498Y-85336D01*
X55060Y-85336D02*
X55060Y-84548D01*
X55060Y-84661D02*
X55116Y-84605D01*
X55229Y-84548D01*
X55398Y-84548D01*
X55510Y-84605D01*
X55566Y-84717D01*
X55566Y-85336D01*
X55566Y-84717D02*
X55623Y-84605D01*
X55735Y-84548D01*
X55904Y-84548D01*
X56016Y-84605D01*
X56073Y-84717D01*
X56073Y-85336D01*
X58379Y-84098D02*
X57366Y-85617D01*
X59897Y-84155D02*
X60010Y-84155D01*
X60122Y-84211D01*
X60178Y-84267D01*
X60235Y-84380D01*
X60291Y-84605D01*
X60291Y-84886D01*
X60235Y-85111D01*
X60178Y-85223D01*
X60122Y-85280D01*
X60010Y-85336D01*
X59897Y-85336D01*
X59785Y-85280D01*
X59728Y-85223D01*
X59672Y-85111D01*
X59616Y-84886D01*
X59616Y-84605D01*
X59672Y-84380D01*
X59728Y-84267D01*
X59785Y-84211D01*
X59897Y-84155D01*
X60797Y-85223D02*
X60853Y-85280D01*
X60797Y-85336D01*
X60741Y-85280D01*
X60797Y-85223D01*
X60797Y-85336D01*
X61584Y-84155D02*
X61697Y-84155D01*
X61809Y-84211D01*
X61866Y-84267D01*
X61922Y-84380D01*
X61978Y-84605D01*
X61978Y-84886D01*
X61922Y-85111D01*
X61866Y-85223D01*
X61809Y-85280D01*
X61697Y-85336D01*
X61584Y-85336D01*
X61472Y-85280D01*
X61416Y-85223D01*
X61359Y-85111D01*
X61303Y-84886D01*
X61303Y-84605D01*
X61359Y-84380D01*
X61416Y-84267D01*
X61472Y-84211D01*
X61584Y-84155D01*
X62372Y-84155D02*
X63103Y-84155D01*
X62709Y-84605D01*
X62878Y-84605D01*
X62991Y-84661D01*
X63047Y-84717D01*
X63103Y-84830D01*
X63103Y-85111D01*
X63047Y-85223D01*
X62991Y-85280D01*
X62878Y-85336D01*
X62541Y-85336D01*
X62428Y-85280D01*
X62372Y-85223D01*
X63665Y-85336D02*
X63890Y-85336D01*
X64003Y-85280D01*
X64059Y-85223D01*
X64172Y-85055D01*
X64228Y-84830D01*
X64228Y-84380D01*
X64172Y-84267D01*
X64115Y-84211D01*
X64003Y-84155D01*
X63778Y-84155D01*
X63665Y-84211D01*
X63609Y-84267D01*
X63553Y-84380D01*
X63553Y-84661D01*
X63609Y-84773D01*
X63665Y-84830D01*
X63778Y-84886D01*
X64003Y-84886D01*
X64115Y-84830D01*
X64172Y-84773D01*
X64228Y-84661D01*
X64678Y-84155D02*
X64678Y-84380D01*
X65128Y-84155D02*
X65128Y-84380D01*
X66871Y-85786D02*
X66815Y-85730D01*
X66703Y-85561D01*
X66646Y-85448D01*
X66590Y-85280D01*
X66534Y-84998D01*
X66534Y-84773D01*
X66590Y-84492D01*
X66646Y-84323D01*
X66703Y-84211D01*
X66815Y-84042D01*
X66871Y-83986D01*
X67884Y-84155D02*
X67321Y-84155D01*
X67265Y-84717D01*
X67321Y-84661D01*
X67434Y-84605D01*
X67715Y-84605D01*
X67827Y-84661D01*
X67884Y-84717D01*
X67940Y-84830D01*
X67940Y-85111D01*
X67884Y-85223D01*
X67827Y-85280D01*
X67715Y-85336D01*
X67434Y-85336D01*
X67321Y-85280D01*
X67265Y-85223D01*
X69065Y-85336D02*
X68390Y-85336D01*
X68727Y-85336D02*
X68727Y-84155D01*
X68615Y-84323D01*
X68502Y-84436D01*
X68390Y-84492D01*
X70471Y-85336D02*
X70471Y-84155D01*
X70977Y-85336D02*
X70977Y-84717D01*
X70921Y-84605D01*
X70808Y-84548D01*
X70640Y-84548D01*
X70527Y-84605D01*
X70471Y-84661D01*
X71708Y-85336D02*
X71596Y-85280D01*
X71539Y-85223D01*
X71483Y-85111D01*
X71483Y-84773D01*
X71539Y-84661D01*
X71596Y-84605D01*
X71708Y-84548D01*
X71877Y-84548D01*
X71989Y-84605D01*
X72046Y-84661D01*
X72102Y-84773D01*
X72102Y-85111D01*
X72046Y-85223D01*
X71989Y-85280D01*
X71877Y-85336D01*
X71708Y-85336D01*
X72777Y-85336D02*
X72664Y-85280D01*
X72608Y-85167D01*
X72608Y-84155D01*
X73677Y-85280D02*
X73564Y-85336D01*
X73339Y-85336D01*
X73227Y-85280D01*
X73170Y-85167D01*
X73170Y-84717D01*
X73227Y-84605D01*
X73339Y-84548D01*
X73564Y-84548D01*
X73677Y-84605D01*
X73733Y-84717D01*
X73733Y-84830D01*
X73170Y-84942D01*
X74183Y-85280D02*
X74295Y-85336D01*
X74520Y-85336D01*
X74633Y-85280D01*
X74689Y-85167D01*
X74689Y-85111D01*
X74633Y-84998D01*
X74520Y-84942D01*
X74352Y-84942D01*
X74239Y-84886D01*
X74183Y-84773D01*
X74183Y-84717D01*
X74239Y-84605D01*
X74352Y-84548D01*
X74520Y-84548D01*
X74633Y-84605D01*
X75083Y-85786D02*
X75139Y-85730D01*
X75251Y-85561D01*
X75308Y-85448D01*
X75364Y-85280D01*
X75420Y-84998D01*
X75420Y-84773D01*
X75364Y-84492D01*
X75308Y-84323D01*
X75251Y-84211D01*
X75139Y-84042D01*
X75083Y-83986D01*
X48280Y-86217D02*
X48280Y-86617D01*
X48080Y-86417D02*
X48480Y-86417D01*
X50167Y-86895D02*
X49492Y-86895D01*
X49830Y-86895D02*
X49830Y-85714D01*
X49717Y-85883D01*
X49605Y-85995D01*
X49492Y-86051D01*
X50673Y-86782D02*
X50730Y-86839D01*
X50673Y-86895D01*
X50617Y-86839D01*
X50673Y-86782D01*
X50673Y-86895D01*
X51461Y-85714D02*
X51573Y-85714D01*
X51686Y-85770D01*
X51742Y-85826D01*
X51798Y-85939D01*
X51854Y-86164D01*
X51854Y-86445D01*
X51798Y-86670D01*
X51742Y-86782D01*
X51686Y-86839D01*
X51573Y-86895D01*
X51461Y-86895D01*
X51348Y-86839D01*
X51292Y-86782D01*
X51236Y-86670D01*
X51179Y-86445D01*
X51179Y-86164D01*
X51236Y-85939D01*
X51292Y-85826D01*
X51348Y-85770D01*
X51461Y-85714D01*
X52304Y-85826D02*
X52361Y-85770D01*
X52473Y-85714D01*
X52754Y-85714D01*
X52867Y-85770D01*
X52923Y-85826D01*
X52979Y-85939D01*
X52979Y-86051D01*
X52923Y-86220D01*
X52248Y-86895D01*
X52979Y-86895D01*
X53485Y-86895D02*
X53485Y-86107D01*
X53485Y-86220D02*
X53542Y-86164D01*
X53654Y-86107D01*
X53823Y-86107D01*
X53935Y-86164D01*
X53992Y-86276D01*
X53992Y-86895D01*
X53992Y-86276D02*
X54048Y-86164D01*
X54160Y-86107D01*
X54329Y-86107D01*
X54442Y-86164D01*
X54498Y-86276D01*
X54498Y-86895D01*
X55060Y-86895D02*
X55060Y-86107D01*
X55060Y-86220D02*
X55116Y-86164D01*
X55229Y-86107D01*
X55398Y-86107D01*
X55510Y-86164D01*
X55566Y-86276D01*
X55566Y-86895D01*
X55566Y-86276D02*
X55623Y-86164D01*
X55735Y-86107D01*
X55904Y-86107D01*
X56016Y-86164D01*
X56073Y-86276D01*
X56073Y-86895D01*
X58379Y-85658D02*
X57366Y-87176D01*
X59897Y-85714D02*
X60010Y-85714D01*
X60122Y-85770D01*
X60178Y-85826D01*
X60235Y-85939D01*
X60291Y-86164D01*
X60291Y-86445D01*
X60235Y-86670D01*
X60178Y-86782D01*
X60122Y-86839D01*
X60010Y-86895D01*
X59897Y-86895D01*
X59785Y-86839D01*
X59728Y-86782D01*
X59672Y-86670D01*
X59616Y-86445D01*
X59616Y-86164D01*
X59672Y-85939D01*
X59728Y-85826D01*
X59785Y-85770D01*
X59897Y-85714D01*
X60797Y-86782D02*
X60853Y-86839D01*
X60797Y-86895D01*
X60741Y-86839D01*
X60797Y-86782D01*
X60797Y-86895D01*
X61584Y-85714D02*
X61697Y-85714D01*
X61809Y-85770D01*
X61866Y-85826D01*
X61922Y-85939D01*
X61978Y-86164D01*
X61978Y-86445D01*
X61922Y-86670D01*
X61866Y-86782D01*
X61809Y-86839D01*
X61697Y-86895D01*
X61584Y-86895D01*
X61472Y-86839D01*
X61416Y-86782D01*
X61359Y-86670D01*
X61303Y-86445D01*
X61303Y-86164D01*
X61359Y-85939D01*
X61416Y-85826D01*
X61472Y-85770D01*
X61584Y-85714D01*
X62991Y-86107D02*
X62991Y-86895D01*
X62709Y-85658D02*
X62428Y-86501D01*
X63159Y-86501D01*
X63834Y-85714D02*
X63947Y-85714D01*
X64059Y-85770D01*
X64115Y-85826D01*
X64172Y-85939D01*
X64228Y-86164D01*
X64228Y-86445D01*
X64172Y-86670D01*
X64115Y-86782D01*
X64059Y-86839D01*
X63947Y-86895D01*
X63834Y-86895D01*
X63722Y-86839D01*
X63665Y-86782D01*
X63609Y-86670D01*
X63553Y-86445D01*
X63553Y-86164D01*
X63609Y-85939D01*
X63665Y-85826D01*
X63722Y-85770D01*
X63834Y-85714D01*
X64678Y-85714D02*
X64678Y-85939D01*
X65128Y-85714D02*
X65128Y-85939D01*
X66871Y-87345D02*
X66815Y-87289D01*
X66703Y-87120D01*
X66646Y-87007D01*
X66590Y-86839D01*
X66534Y-86557D01*
X66534Y-86332D01*
X66590Y-86051D01*
X66646Y-85883D01*
X66703Y-85770D01*
X66815Y-85601D01*
X66871Y-85545D01*
X67490Y-86220D02*
X67377Y-86164D01*
X67321Y-86107D01*
X67265Y-85995D01*
X67265Y-85939D01*
X67321Y-85826D01*
X67377Y-85770D01*
X67490Y-85714D01*
X67715Y-85714D01*
X67827Y-85770D01*
X67884Y-85826D01*
X67940Y-85939D01*
X67940Y-85995D01*
X67884Y-86107D01*
X67827Y-86164D01*
X67715Y-86220D01*
X67490Y-86220D01*
X67377Y-86276D01*
X67321Y-86332D01*
X67265Y-86445D01*
X67265Y-86670D01*
X67321Y-86782D01*
X67377Y-86839D01*
X67490Y-86895D01*
X67715Y-86895D01*
X67827Y-86839D01*
X67884Y-86782D01*
X67940Y-86670D01*
X67940Y-86445D01*
X67884Y-86332D01*
X67827Y-86276D01*
X67715Y-86220D01*
X69346Y-86895D02*
X69346Y-85714D01*
X69852Y-86895D02*
X69852Y-86276D01*
X69796Y-86164D01*
X69683Y-86107D01*
X69515Y-86107D01*
X69402Y-86164D01*
X69346Y-86220D01*
X70583Y-86895D02*
X70471Y-86839D01*
X70415Y-86782D01*
X70358Y-86670D01*
X70358Y-86332D01*
X70415Y-86220D01*
X70471Y-86164D01*
X70583Y-86107D01*
X70752Y-86107D01*
X70865Y-86164D01*
X70921Y-86220D01*
X70977Y-86332D01*
X70977Y-86670D01*
X70921Y-86782D01*
X70865Y-86839D01*
X70752Y-86895D01*
X70583Y-86895D01*
X71652Y-86895D02*
X71539Y-86839D01*
X71483Y-86726D01*
X71483Y-85714D01*
X72552Y-86839D02*
X72439Y-86895D01*
X72214Y-86895D01*
X72102Y-86839D01*
X72046Y-86726D01*
X72046Y-86276D01*
X72102Y-86164D01*
X72214Y-86107D01*
X72439Y-86107D01*
X72552Y-86164D01*
X72608Y-86276D01*
X72608Y-86389D01*
X72046Y-86501D01*
X73058Y-86839D02*
X73170Y-86895D01*
X73395Y-86895D01*
X73508Y-86839D01*
X73564Y-86726D01*
X73564Y-86670D01*
X73508Y-86557D01*
X73395Y-86501D01*
X73227Y-86501D01*
X73114Y-86445D01*
X73058Y-86332D01*
X73058Y-86276D01*
X73114Y-86164D01*
X73227Y-86107D01*
X73395Y-86107D01*
X73508Y-86164D01*
X73958Y-87345D02*
X74014Y-87289D01*
X74127Y-87120D01*
X74183Y-87007D01*
X74239Y-86839D01*
X74295Y-86557D01*
X74295Y-86332D01*
X74239Y-86051D01*
X74183Y-85883D01*
X74127Y-85770D01*
X74014Y-85601D01*
X73958Y-85545D01*
G54D12*
X48414Y-88135D02*
X48414Y-87817D01*
X48096Y-87817D01*
X48096Y-88135D01*
X48414Y-88135D01*
G54D13*
X50167Y-88454D02*
X49492Y-88454D01*
X49830Y-88454D02*
X49830Y-87273D01*
X49717Y-87442D01*
X49605Y-87554D01*
X49492Y-87610D01*
X50673Y-88341D02*
X50730Y-88398D01*
X50673Y-88454D01*
X50617Y-88398D01*
X50673Y-88341D01*
X50673Y-88454D01*
X51854Y-88454D02*
X51179Y-88454D01*
X51517Y-88454D02*
X51517Y-87273D01*
X51404Y-87442D01*
X51292Y-87554D01*
X51179Y-87610D01*
X52867Y-87667D02*
X52867Y-88454D01*
X52586Y-87217D02*
X52304Y-88060D01*
X53035Y-88060D01*
X53485Y-88454D02*
X53485Y-87667D01*
X53485Y-87779D02*
X53542Y-87723D01*
X53654Y-87667D01*
X53823Y-87667D01*
X53935Y-87723D01*
X53992Y-87835D01*
X53992Y-88454D01*
X53992Y-87835D02*
X54048Y-87723D01*
X54160Y-87667D01*
X54329Y-87667D01*
X54442Y-87723D01*
X54498Y-87835D01*
X54498Y-88454D01*
X55060Y-88454D02*
X55060Y-87667D01*
X55060Y-87779D02*
X55116Y-87723D01*
X55229Y-87667D01*
X55398Y-87667D01*
X55510Y-87723D01*
X55566Y-87835D01*
X55566Y-88454D01*
X55566Y-87835D02*
X55623Y-87723D01*
X55735Y-87667D01*
X55904Y-87667D01*
X56016Y-87723D01*
X56073Y-87835D01*
X56073Y-88454D01*
X58379Y-87217D02*
X57366Y-88735D01*
X59897Y-87273D02*
X60010Y-87273D01*
X60122Y-87329D01*
X60178Y-87385D01*
X60235Y-87498D01*
X60291Y-87723D01*
X60291Y-88004D01*
X60235Y-88229D01*
X60178Y-88341D01*
X60122Y-88398D01*
X60010Y-88454D01*
X59897Y-88454D01*
X59785Y-88398D01*
X59728Y-88341D01*
X59672Y-88229D01*
X59616Y-88004D01*
X59616Y-87723D01*
X59672Y-87498D01*
X59728Y-87385D01*
X59785Y-87329D01*
X59897Y-87273D01*
X60797Y-88341D02*
X60853Y-88398D01*
X60797Y-88454D01*
X60741Y-88398D01*
X60797Y-88341D01*
X60797Y-88454D01*
X61584Y-87273D02*
X61697Y-87273D01*
X61809Y-87329D01*
X61866Y-87385D01*
X61922Y-87498D01*
X61978Y-87723D01*
X61978Y-88004D01*
X61922Y-88229D01*
X61866Y-88341D01*
X61809Y-88398D01*
X61697Y-88454D01*
X61584Y-88454D01*
X61472Y-88398D01*
X61416Y-88341D01*
X61359Y-88229D01*
X61303Y-88004D01*
X61303Y-87723D01*
X61359Y-87498D01*
X61416Y-87385D01*
X61472Y-87329D01*
X61584Y-87273D01*
X62991Y-87667D02*
X62991Y-88454D01*
X62709Y-87217D02*
X62428Y-88060D01*
X63159Y-88060D01*
X64172Y-87273D02*
X63609Y-87273D01*
X63553Y-87835D01*
X63609Y-87779D01*
X63722Y-87723D01*
X64003Y-87723D01*
X64115Y-87779D01*
X64172Y-87835D01*
X64228Y-87948D01*
X64228Y-88229D01*
X64172Y-88341D01*
X64115Y-88398D01*
X64003Y-88454D01*
X63722Y-88454D01*
X63609Y-88398D01*
X63553Y-88341D01*
X64678Y-87273D02*
X64678Y-87498D01*
X65128Y-87273D02*
X65128Y-87498D01*
X66871Y-88904D02*
X66815Y-88848D01*
X66703Y-88679D01*
X66646Y-88566D01*
X66590Y-88398D01*
X66534Y-88116D01*
X66534Y-87892D01*
X66590Y-87610D01*
X66646Y-87442D01*
X66703Y-87329D01*
X66815Y-87160D01*
X66871Y-87104D01*
X67209Y-87273D02*
X67940Y-87273D01*
X67546Y-87723D01*
X67715Y-87723D01*
X67827Y-87779D01*
X67884Y-87835D01*
X67940Y-87948D01*
X67940Y-88229D01*
X67884Y-88341D01*
X67827Y-88398D01*
X67715Y-88454D01*
X67377Y-88454D01*
X67265Y-88398D01*
X67209Y-88341D01*
X68334Y-87273D02*
X69121Y-87273D01*
X68615Y-88454D01*
X70471Y-88454D02*
X70471Y-87273D01*
X70977Y-88454D02*
X70977Y-87835D01*
X70921Y-87723D01*
X70808Y-87667D01*
X70640Y-87667D01*
X70527Y-87723D01*
X70471Y-87779D01*
X71708Y-88454D02*
X71596Y-88398D01*
X71539Y-88341D01*
X71483Y-88229D01*
X71483Y-87892D01*
X71539Y-87779D01*
X71596Y-87723D01*
X71708Y-87667D01*
X71877Y-87667D01*
X71989Y-87723D01*
X72046Y-87779D01*
X72102Y-87892D01*
X72102Y-88229D01*
X72046Y-88341D01*
X71989Y-88398D01*
X71877Y-88454D01*
X71708Y-88454D01*
X72777Y-88454D02*
X72664Y-88398D01*
X72608Y-88285D01*
X72608Y-87273D01*
X73677Y-88398D02*
X73564Y-88454D01*
X73339Y-88454D01*
X73227Y-88398D01*
X73170Y-88285D01*
X73170Y-87835D01*
X73227Y-87723D01*
X73339Y-87667D01*
X73564Y-87667D01*
X73677Y-87723D01*
X73733Y-87835D01*
X73733Y-87948D01*
X73170Y-88060D01*
X74183Y-88398D02*
X74295Y-88454D01*
X74520Y-88454D01*
X74633Y-88398D01*
X74689Y-88285D01*
X74689Y-88229D01*
X74633Y-88116D01*
X74520Y-88060D01*
X74352Y-88060D01*
X74239Y-88004D01*
X74183Y-87892D01*
X74183Y-87835D01*
X74239Y-87723D01*
X74352Y-87667D01*
X74520Y-87667D01*
X74633Y-87723D01*
X75083Y-88904D02*
X75139Y-88848D01*
X75251Y-88679D01*
X75308Y-88566D01*
X75364Y-88398D01*
X75420Y-88116D01*
X75420Y-87892D01*
X75364Y-87610D01*
X75308Y-87442D01*
X75251Y-87329D01*
X75139Y-87160D01*
X75083Y-87104D01*
G54D12*
X48047Y-89968D02*
X48480Y-89535D01*
X48047Y-89102D01*
X47614Y-89535D01*
X48047Y-89968D01*
G54D13*
X49492Y-88944D02*
X49548Y-88888D01*
X49661Y-88832D01*
X49942Y-88832D01*
X50055Y-88888D01*
X50111Y-88944D01*
X50167Y-89057D01*
X50167Y-89169D01*
X50111Y-89338D01*
X49436Y-90013D01*
X50167Y-90013D01*
X50673Y-89901D02*
X50730Y-89957D01*
X50673Y-90013D01*
X50617Y-89957D01*
X50673Y-89901D01*
X50673Y-90013D01*
X51179Y-88944D02*
X51236Y-88888D01*
X51348Y-88832D01*
X51629Y-88832D01*
X51742Y-88888D01*
X51798Y-88944D01*
X51854Y-89057D01*
X51854Y-89169D01*
X51798Y-89338D01*
X51123Y-90013D01*
X51854Y-90013D01*
X52586Y-88832D02*
X52698Y-88832D01*
X52811Y-88888D01*
X52867Y-88944D01*
X52923Y-89057D01*
X52979Y-89282D01*
X52979Y-89563D01*
X52923Y-89788D01*
X52867Y-89901D01*
X52811Y-89957D01*
X52698Y-90013D01*
X52586Y-90013D01*
X52473Y-89957D01*
X52417Y-89901D01*
X52361Y-89788D01*
X52304Y-89563D01*
X52304Y-89282D01*
X52361Y-89057D01*
X52417Y-88944D01*
X52473Y-88888D01*
X52586Y-88832D01*
X53485Y-90013D02*
X53485Y-89226D01*
X53485Y-89338D02*
X53542Y-89282D01*
X53654Y-89226D01*
X53823Y-89226D01*
X53935Y-89282D01*
X53992Y-89394D01*
X53992Y-90013D01*
X53992Y-89394D02*
X54048Y-89282D01*
X54160Y-89226D01*
X54329Y-89226D01*
X54442Y-89282D01*
X54498Y-89394D01*
X54498Y-90013D01*
X55060Y-90013D02*
X55060Y-89226D01*
X55060Y-89338D02*
X55116Y-89282D01*
X55229Y-89226D01*
X55398Y-89226D01*
X55510Y-89282D01*
X55566Y-89394D01*
X55566Y-90013D01*
X55566Y-89394D02*
X55623Y-89282D01*
X55735Y-89226D01*
X55904Y-89226D01*
X56016Y-89282D01*
X56073Y-89394D01*
X56073Y-90013D01*
X58379Y-88776D02*
X57366Y-90294D01*
X59897Y-88832D02*
X60010Y-88832D01*
X60122Y-88888D01*
X60178Y-88944D01*
X60235Y-89057D01*
X60291Y-89282D01*
X60291Y-89563D01*
X60235Y-89788D01*
X60178Y-89901D01*
X60122Y-89957D01*
X60010Y-90013D01*
X59897Y-90013D01*
X59785Y-89957D01*
X59728Y-89901D01*
X59672Y-89788D01*
X59616Y-89563D01*
X59616Y-89282D01*
X59672Y-89057D01*
X59728Y-88944D01*
X59785Y-88888D01*
X59897Y-88832D01*
X60797Y-89901D02*
X60853Y-89957D01*
X60797Y-90013D01*
X60741Y-89957D01*
X60797Y-89901D01*
X60797Y-90013D01*
X61584Y-88832D02*
X61697Y-88832D01*
X61809Y-88888D01*
X61866Y-88944D01*
X61922Y-89057D01*
X61978Y-89282D01*
X61978Y-89563D01*
X61922Y-89788D01*
X61866Y-89901D01*
X61809Y-89957D01*
X61697Y-90013D01*
X61584Y-90013D01*
X61472Y-89957D01*
X61416Y-89901D01*
X61359Y-89788D01*
X61303Y-89563D01*
X61303Y-89282D01*
X61359Y-89057D01*
X61416Y-88944D01*
X61472Y-88888D01*
X61584Y-88832D01*
X62653Y-89338D02*
X62541Y-89282D01*
X62484Y-89226D01*
X62428Y-89113D01*
X62428Y-89057D01*
X62484Y-88944D01*
X62541Y-88888D01*
X62653Y-88832D01*
X62878Y-88832D01*
X62991Y-88888D01*
X63047Y-88944D01*
X63103Y-89057D01*
X63103Y-89113D01*
X63047Y-89226D01*
X62991Y-89282D01*
X62878Y-89338D01*
X62653Y-89338D01*
X62541Y-89394D01*
X62484Y-89451D01*
X62428Y-89563D01*
X62428Y-89788D01*
X62484Y-89901D01*
X62541Y-89957D01*
X62653Y-90013D01*
X62878Y-90013D01*
X62991Y-89957D01*
X63047Y-89901D01*
X63103Y-89788D01*
X63103Y-89563D01*
X63047Y-89451D01*
X62991Y-89394D01*
X62878Y-89338D01*
X63497Y-88832D02*
X64284Y-88832D01*
X63778Y-90013D01*
X64678Y-88832D02*
X64678Y-89057D01*
X65128Y-88832D02*
X65128Y-89057D01*
X66871Y-90463D02*
X66815Y-90407D01*
X66703Y-90238D01*
X66646Y-90125D01*
X66590Y-89957D01*
X66534Y-89676D01*
X66534Y-89451D01*
X66590Y-89169D01*
X66646Y-89001D01*
X66703Y-88888D01*
X66815Y-88719D01*
X66871Y-88663D01*
X67209Y-88832D02*
X67940Y-88832D01*
X67546Y-89282D01*
X67715Y-89282D01*
X67827Y-89338D01*
X67884Y-89394D01*
X67940Y-89507D01*
X67940Y-89788D01*
X67884Y-89901D01*
X67827Y-89957D01*
X67715Y-90013D01*
X67377Y-90013D01*
X67265Y-89957D01*
X67209Y-89901D01*
X69346Y-90013D02*
X69346Y-88832D01*
X69852Y-90013D02*
X69852Y-89394D01*
X69796Y-89282D01*
X69683Y-89226D01*
X69515Y-89226D01*
X69402Y-89282D01*
X69346Y-89338D01*
X70583Y-90013D02*
X70471Y-89957D01*
X70415Y-89901D01*
X70358Y-89788D01*
X70358Y-89451D01*
X70415Y-89338D01*
X70471Y-89282D01*
X70583Y-89226D01*
X70752Y-89226D01*
X70865Y-89282D01*
X70921Y-89338D01*
X70977Y-89451D01*
X70977Y-89788D01*
X70921Y-89901D01*
X70865Y-89957D01*
X70752Y-90013D01*
X70583Y-90013D01*
X71652Y-90013D02*
X71539Y-89957D01*
X71483Y-89844D01*
X71483Y-88832D01*
X72552Y-89957D02*
X72439Y-90013D01*
X72214Y-90013D01*
X72102Y-89957D01*
X72046Y-89844D01*
X72046Y-89394D01*
X72102Y-89282D01*
X72214Y-89226D01*
X72439Y-89226D01*
X72552Y-89282D01*
X72608Y-89394D01*
X72608Y-89507D01*
X72046Y-89619D01*
X73058Y-89957D02*
X73170Y-90013D01*
X73395Y-90013D01*
X73508Y-89957D01*
X73564Y-89844D01*
X73564Y-89788D01*
X73508Y-89676D01*
X73395Y-89619D01*
X73227Y-89619D01*
X73114Y-89563D01*
X73058Y-89451D01*
X73058Y-89394D01*
X73114Y-89282D01*
X73227Y-89226D01*
X73395Y-89226D01*
X73508Y-89282D01*
X73958Y-90463D02*
X74014Y-90407D01*
X74127Y-90238D01*
X74183Y-90125D01*
X74239Y-89957D01*
X74295Y-89676D01*
X74295Y-89451D01*
X74239Y-89169D01*
X74183Y-89001D01*
X74127Y-88888D01*
X74014Y-88719D01*
X73958Y-88663D01*
X47299Y-90503D02*
X48480Y-91685D01*
X48480Y-90503D02*
X47299Y-91685D01*
G54D12*
X48480Y-91094D02*
G75*
G03X48480Y-91094I-590J0D01*
G74*
G01*
G54D13*
X49436Y-90391D02*
X50167Y-90391D01*
X49773Y-90841D01*
X49942Y-90841D01*
X50055Y-90897D01*
X50111Y-90953D01*
X50167Y-91066D01*
X50167Y-91347D01*
X50111Y-91460D01*
X50055Y-91516D01*
X49942Y-91572D01*
X49605Y-91572D01*
X49492Y-91516D01*
X49436Y-91460D01*
X50673Y-91460D02*
X50730Y-91516D01*
X50673Y-91572D01*
X50617Y-91516D01*
X50673Y-91460D01*
X50673Y-91572D01*
X51461Y-90391D02*
X51573Y-90391D01*
X51686Y-90447D01*
X51742Y-90503D01*
X51798Y-90616D01*
X51854Y-90841D01*
X51854Y-91122D01*
X51798Y-91347D01*
X51742Y-91460D01*
X51686Y-91516D01*
X51573Y-91572D01*
X51461Y-91572D01*
X51348Y-91516D01*
X51292Y-91460D01*
X51236Y-91347D01*
X51179Y-91122D01*
X51179Y-90841D01*
X51236Y-90616D01*
X51292Y-90503D01*
X51348Y-90447D01*
X51461Y-90391D01*
X52586Y-90391D02*
X52698Y-90391D01*
X52811Y-90447D01*
X52867Y-90503D01*
X52923Y-90616D01*
X52979Y-90841D01*
X52979Y-91122D01*
X52923Y-91347D01*
X52867Y-91460D01*
X52811Y-91516D01*
X52698Y-91572D01*
X52586Y-91572D01*
X52473Y-91516D01*
X52417Y-91460D01*
X52361Y-91347D01*
X52304Y-91122D01*
X52304Y-90841D01*
X52361Y-90616D01*
X52417Y-90503D01*
X52473Y-90447D01*
X52586Y-90391D01*
X53485Y-91572D02*
X53485Y-90785D01*
X53485Y-90897D02*
X53542Y-90841D01*
X53654Y-90785D01*
X53823Y-90785D01*
X53935Y-90841D01*
X53992Y-90953D01*
X53992Y-91572D01*
X53992Y-90953D02*
X54048Y-90841D01*
X54160Y-90785D01*
X54329Y-90785D01*
X54442Y-90841D01*
X54498Y-90953D01*
X54498Y-91572D01*
X55060Y-91572D02*
X55060Y-90785D01*
X55060Y-90897D02*
X55116Y-90841D01*
X55229Y-90785D01*
X55398Y-90785D01*
X55510Y-90841D01*
X55566Y-90953D01*
X55566Y-91572D01*
X55566Y-90953D02*
X55623Y-90841D01*
X55735Y-90785D01*
X55904Y-90785D01*
X56016Y-90841D01*
X56073Y-90953D01*
X56073Y-91572D01*
X58379Y-90335D02*
X57366Y-91853D01*
X59897Y-90391D02*
X60010Y-90391D01*
X60122Y-90447D01*
X60178Y-90503D01*
X60235Y-90616D01*
X60291Y-90841D01*
X60291Y-91122D01*
X60235Y-91347D01*
X60178Y-91460D01*
X60122Y-91516D01*
X60010Y-91572D01*
X59897Y-91572D01*
X59785Y-91516D01*
X59728Y-91460D01*
X59672Y-91347D01*
X59616Y-91122D01*
X59616Y-90841D01*
X59672Y-90616D01*
X59728Y-90503D01*
X59785Y-90447D01*
X59897Y-90391D01*
X60797Y-91460D02*
X60853Y-91516D01*
X60797Y-91572D01*
X60741Y-91516D01*
X60797Y-91460D01*
X60797Y-91572D01*
X61978Y-91572D02*
X61303Y-91572D01*
X61641Y-91572D02*
X61641Y-90391D01*
X61528Y-90560D01*
X61416Y-90672D01*
X61303Y-90728D01*
X63103Y-91572D02*
X62428Y-91572D01*
X62766Y-91572D02*
X62766Y-90391D01*
X62653Y-90560D01*
X62541Y-90672D01*
X62428Y-90728D01*
X63778Y-90897D02*
X63665Y-90841D01*
X63609Y-90785D01*
X63553Y-90672D01*
X63553Y-90616D01*
X63609Y-90503D01*
X63665Y-90447D01*
X63778Y-90391D01*
X64003Y-90391D01*
X64115Y-90447D01*
X64172Y-90503D01*
X64228Y-90616D01*
X64228Y-90672D01*
X64172Y-90785D01*
X64115Y-90841D01*
X64003Y-90897D01*
X63778Y-90897D01*
X63665Y-90953D01*
X63609Y-91010D01*
X63553Y-91122D01*
X63553Y-91347D01*
X63609Y-91460D01*
X63665Y-91516D01*
X63778Y-91572D01*
X64003Y-91572D01*
X64115Y-91516D01*
X64172Y-91460D01*
X64228Y-91347D01*
X64228Y-91122D01*
X64172Y-91010D01*
X64115Y-90953D01*
X64003Y-90897D01*
X64678Y-90391D02*
X64678Y-90616D01*
X65128Y-90391D02*
X65128Y-90616D01*
X66871Y-92022D02*
X66815Y-91966D01*
X66703Y-91797D01*
X66646Y-91685D01*
X66590Y-91516D01*
X66534Y-91235D01*
X66534Y-91010D01*
X66590Y-90728D01*
X66646Y-90560D01*
X66703Y-90447D01*
X66815Y-90278D01*
X66871Y-90222D01*
X67209Y-90391D02*
X67940Y-90391D01*
X67546Y-90841D01*
X67715Y-90841D01*
X67827Y-90897D01*
X67884Y-90953D01*
X67940Y-91066D01*
X67940Y-91347D01*
X67884Y-91460D01*
X67827Y-91516D01*
X67715Y-91572D01*
X67377Y-91572D01*
X67265Y-91516D01*
X67209Y-91460D01*
X69346Y-91572D02*
X69346Y-90391D01*
X69852Y-91572D02*
X69852Y-90953D01*
X69796Y-90841D01*
X69683Y-90785D01*
X69515Y-90785D01*
X69402Y-90841D01*
X69346Y-90897D01*
X70583Y-91572D02*
X70471Y-91516D01*
X70415Y-91460D01*
X70358Y-91347D01*
X70358Y-91010D01*
X70415Y-90897D01*
X70471Y-90841D01*
X70583Y-90785D01*
X70752Y-90785D01*
X70865Y-90841D01*
X70921Y-90897D01*
X70977Y-91010D01*
X70977Y-91347D01*
X70921Y-91460D01*
X70865Y-91516D01*
X70752Y-91572D01*
X70583Y-91572D01*
X71652Y-91572D02*
X71539Y-91516D01*
X71483Y-91403D01*
X71483Y-90391D01*
X72552Y-91516D02*
X72439Y-91572D01*
X72214Y-91572D01*
X72102Y-91516D01*
X72046Y-91403D01*
X72046Y-90953D01*
X72102Y-90841D01*
X72214Y-90785D01*
X72439Y-90785D01*
X72552Y-90841D01*
X72608Y-90953D01*
X72608Y-91066D01*
X72046Y-91178D01*
X73058Y-91516D02*
X73170Y-91572D01*
X73395Y-91572D01*
X73508Y-91516D01*
X73564Y-91403D01*
X73564Y-91347D01*
X73508Y-91235D01*
X73395Y-91178D01*
X73227Y-91178D01*
X73114Y-91122D01*
X73058Y-91010D01*
X73058Y-90953D01*
X73114Y-90841D01*
X73227Y-90785D01*
X73395Y-90785D01*
X73508Y-90841D01*
X73958Y-92022D02*
X74014Y-91966D01*
X74127Y-91797D01*
X74183Y-91685D01*
X74239Y-91516D01*
X74295Y-91235D01*
X74295Y-91010D01*
X74239Y-90728D01*
X74183Y-90560D01*
X74127Y-90447D01*
X74014Y-90278D01*
X73958Y-90222D01*
X47280Y-92187D02*
X48480Y-93387D01*
X48480Y-92187D02*
X47280Y-93387D01*
X47880Y-92187D02*
X47880Y-93387D01*
X47280Y-92787D02*
X48480Y-92787D01*
X49436Y-92084D02*
X50167Y-92084D01*
X49773Y-92534D01*
X49942Y-92534D01*
X50055Y-92590D01*
X50111Y-92646D01*
X50167Y-92759D01*
X50167Y-93040D01*
X50111Y-93152D01*
X50055Y-93209D01*
X49942Y-93265D01*
X49605Y-93265D01*
X49492Y-93209D01*
X49436Y-93152D01*
X50673Y-93152D02*
X50730Y-93209D01*
X50673Y-93265D01*
X50617Y-93209D01*
X50673Y-93152D01*
X50673Y-93265D01*
X51461Y-92084D02*
X51573Y-92084D01*
X51686Y-92140D01*
X51742Y-92196D01*
X51798Y-92309D01*
X51854Y-92534D01*
X51854Y-92815D01*
X51798Y-93040D01*
X51742Y-93152D01*
X51686Y-93209D01*
X51573Y-93265D01*
X51461Y-93265D01*
X51348Y-93209D01*
X51292Y-93152D01*
X51236Y-93040D01*
X51179Y-92815D01*
X51179Y-92534D01*
X51236Y-92309D01*
X51292Y-92196D01*
X51348Y-92140D01*
X51461Y-92084D01*
X52923Y-92084D02*
X52361Y-92084D01*
X52304Y-92646D01*
X52361Y-92590D01*
X52473Y-92534D01*
X52754Y-92534D01*
X52867Y-92590D01*
X52923Y-92646D01*
X52979Y-92759D01*
X52979Y-93040D01*
X52923Y-93152D01*
X52867Y-93209D01*
X52754Y-93265D01*
X52473Y-93265D01*
X52361Y-93209D01*
X52304Y-93152D01*
X53485Y-93265D02*
X53485Y-92478D01*
X53485Y-92590D02*
X53542Y-92534D01*
X53654Y-92478D01*
X53823Y-92478D01*
X53935Y-92534D01*
X53992Y-92646D01*
X53992Y-93265D01*
X53992Y-92646D02*
X54048Y-92534D01*
X54160Y-92478D01*
X54329Y-92478D01*
X54442Y-92534D01*
X54498Y-92646D01*
X54498Y-93265D01*
X55060Y-93265D02*
X55060Y-92478D01*
X55060Y-92590D02*
X55116Y-92534D01*
X55229Y-92478D01*
X55398Y-92478D01*
X55510Y-92534D01*
X55566Y-92646D01*
X55566Y-93265D01*
X55566Y-92646D02*
X55623Y-92534D01*
X55735Y-92478D01*
X55904Y-92478D01*
X56016Y-92534D01*
X56073Y-92646D01*
X56073Y-93265D01*
X58379Y-92028D02*
X57366Y-93546D01*
X59897Y-92084D02*
X60010Y-92084D01*
X60122Y-92140D01*
X60178Y-92196D01*
X60235Y-92309D01*
X60291Y-92534D01*
X60291Y-92815D01*
X60235Y-93040D01*
X60178Y-93152D01*
X60122Y-93209D01*
X60010Y-93265D01*
X59897Y-93265D01*
X59785Y-93209D01*
X59728Y-93152D01*
X59672Y-93040D01*
X59616Y-92815D01*
X59616Y-92534D01*
X59672Y-92309D01*
X59728Y-92196D01*
X59785Y-92140D01*
X59897Y-92084D01*
X60797Y-93152D02*
X60853Y-93209D01*
X60797Y-93265D01*
X60741Y-93209D01*
X60797Y-93152D01*
X60797Y-93265D01*
X61978Y-93265D02*
X61303Y-93265D01*
X61641Y-93265D02*
X61641Y-92084D01*
X61528Y-92253D01*
X61416Y-92365D01*
X61303Y-92421D01*
X62428Y-92196D02*
X62484Y-92140D01*
X62597Y-92084D01*
X62878Y-92084D01*
X62991Y-92140D01*
X63047Y-92196D01*
X63103Y-92309D01*
X63103Y-92421D01*
X63047Y-92590D01*
X62372Y-93265D01*
X63103Y-93265D01*
X63834Y-92084D02*
X63947Y-92084D01*
X64059Y-92140D01*
X64115Y-92196D01*
X64172Y-92309D01*
X64228Y-92534D01*
X64228Y-92815D01*
X64172Y-93040D01*
X64115Y-93152D01*
X64059Y-93209D01*
X63947Y-93265D01*
X63834Y-93265D01*
X63722Y-93209D01*
X63665Y-93152D01*
X63609Y-93040D01*
X63553Y-92815D01*
X63553Y-92534D01*
X63609Y-92309D01*
X63665Y-92196D01*
X63722Y-92140D01*
X63834Y-92084D01*
X64678Y-92084D02*
X64678Y-92309D01*
X65128Y-92084D02*
X65128Y-92309D01*
X66871Y-93715D02*
X66815Y-93659D01*
X66703Y-93490D01*
X66646Y-93377D01*
X66590Y-93209D01*
X66534Y-92928D01*
X66534Y-92703D01*
X66590Y-92421D01*
X66646Y-92253D01*
X66703Y-92140D01*
X66815Y-91971D01*
X66871Y-91915D01*
X67940Y-93265D02*
X67265Y-93265D01*
X67602Y-93265D02*
X67602Y-92084D01*
X67490Y-92253D01*
X67377Y-92365D01*
X67265Y-92421D01*
X69346Y-93265D02*
X69346Y-92084D01*
X69852Y-93265D02*
X69852Y-92646D01*
X69796Y-92534D01*
X69683Y-92478D01*
X69515Y-92478D01*
X69402Y-92534D01*
X69346Y-92590D01*
X70583Y-93265D02*
X70471Y-93209D01*
X70415Y-93152D01*
X70358Y-93040D01*
X70358Y-92703D01*
X70415Y-92590D01*
X70471Y-92534D01*
X70583Y-92478D01*
X70752Y-92478D01*
X70865Y-92534D01*
X70921Y-92590D01*
X70977Y-92703D01*
X70977Y-93040D01*
X70921Y-93152D01*
X70865Y-93209D01*
X70752Y-93265D01*
X70583Y-93265D01*
X71652Y-93265D02*
X71539Y-93209D01*
X71483Y-93096D01*
X71483Y-92084D01*
X72552Y-93209D02*
X72439Y-93265D01*
X72214Y-93265D01*
X72102Y-93209D01*
X72046Y-93096D01*
X72046Y-92646D01*
X72102Y-92534D01*
X72214Y-92478D01*
X72439Y-92478D01*
X72552Y-92534D01*
X72608Y-92646D01*
X72608Y-92759D01*
X72046Y-92871D01*
X73002Y-93715D02*
X73058Y-93659D01*
X73170Y-93490D01*
X73227Y-93377D01*
X73283Y-93209D01*
X73339Y-92928D01*
X73339Y-92703D01*
X73283Y-92421D01*
X73227Y-92253D01*
X73170Y-92140D01*
X73058Y-91971D01*
X73002Y-91915D01*
M02*
