%FSLAX45Y45*%
G04 Gerber Fmt 4.5, Leading zero omitted, Abs format (unit mm)*
G04 Created by KiCad (PCBNEW (5.1.5)-3) date 2020-03-03 15:35:43*
%MOMM*%
%LPD*%
G04 APERTURE LIST*
%TA.AperFunction,Profile*%
%ADD10C,0.100000*%
%TD*%
%ADD11C,0.200000*%
%ADD12C,0.300000*%
G04 APERTURE END LIST*
D10*
X12319000Y-11811000D02*
X30099000Y-11811000D01*
X30099000Y-20193000D02*
X30099000Y-11811000D01*
X12319000Y-20193000D02*
X30099000Y-20193000D01*
X12319000Y-20193000D02*
X12319000Y-11811000D01*
D11*
D12*
X12600428Y-20663714D02*
X12600428Y-20363714D01*
X12671857Y-20363714D01*
X12714714Y-20378000D01*
X12743286Y-20406572D01*
X12757571Y-20435143D01*
X12771857Y-20492286D01*
X12771857Y-20535143D01*
X12757571Y-20592286D01*
X12743286Y-20620857D01*
X12714714Y-20649429D01*
X12671857Y-20663714D01*
X12600428Y-20663714D01*
X12900428Y-20663714D02*
X12900428Y-20463714D01*
X12900428Y-20520857D02*
X12914714Y-20492286D01*
X12929000Y-20478000D01*
X12957571Y-20463714D01*
X12986143Y-20463714D01*
X13086143Y-20663714D02*
X13086143Y-20463714D01*
X13086143Y-20363714D02*
X13071857Y-20378000D01*
X13086143Y-20392286D01*
X13100428Y-20378000D01*
X13086143Y-20363714D01*
X13086143Y-20392286D01*
X13271857Y-20663714D02*
X13243286Y-20649429D01*
X13229000Y-20620857D01*
X13229000Y-20363714D01*
X13429000Y-20663714D02*
X13400428Y-20649429D01*
X13386143Y-20620857D01*
X13386143Y-20363714D01*
X13771857Y-20663714D02*
X13771857Y-20363714D01*
X13871857Y-20578000D01*
X13971857Y-20363714D01*
X13971857Y-20663714D01*
X14243286Y-20663714D02*
X14243286Y-20506572D01*
X14229000Y-20478000D01*
X14200428Y-20463714D01*
X14143286Y-20463714D01*
X14114714Y-20478000D01*
X14243286Y-20649429D02*
X14214714Y-20663714D01*
X14143286Y-20663714D01*
X14114714Y-20649429D01*
X14100428Y-20620857D01*
X14100428Y-20592286D01*
X14114714Y-20563714D01*
X14143286Y-20549429D01*
X14214714Y-20549429D01*
X14243286Y-20535143D01*
X14386143Y-20463714D02*
X14386143Y-20763714D01*
X14386143Y-20478000D02*
X14414714Y-20463714D01*
X14471857Y-20463714D01*
X14500428Y-20478000D01*
X14514714Y-20492286D01*
X14529000Y-20520857D01*
X14529000Y-20606572D01*
X14514714Y-20635143D01*
X14500428Y-20649429D01*
X14471857Y-20663714D01*
X14414714Y-20663714D01*
X14386143Y-20649429D01*
X14657571Y-20635143D02*
X14671857Y-20649429D01*
X14657571Y-20663714D01*
X14643286Y-20649429D01*
X14657571Y-20635143D01*
X14657571Y-20663714D01*
X14657571Y-20478000D02*
X14671857Y-20492286D01*
X14657571Y-20506572D01*
X14643286Y-20492286D01*
X14657571Y-20478000D01*
X14657571Y-20506572D01*
M02*
