G04 #@! TF.GenerationSoftware,KiCad,Pcbnew,(5.1.5)-3*
G04 #@! TF.CreationDate,2020-03-03T15:35:35+01:00*
G04 #@! TF.ProjectId,PROTEAN_mk2,50524f54-4541-44e5-9f6d-6b322e6b6963,rev?*
G04 #@! TF.SameCoordinates,Original*
G04 #@! TF.FileFunction,Copper,L1,Top*
G04 #@! TF.FilePolarity,Positive*
%FSLAX46Y46*%
G04 Gerber Fmt 4.6, Leading zero omitted, Abs format (unit mm)*
G04 Created by KiCad (PCBNEW (5.1.5)-3) date 2020-03-03 15:35:35*
%MOMM*%
%LPD*%
G04 APERTURE LIST*
%ADD10R,2.286000X1.574800*%
%ADD11O,2.286000X1.574800*%
%ADD12R,1.574800X2.286000*%
%ADD13O,1.574800X2.286000*%
%ADD14C,2.500000*%
%ADD15C,2.200000*%
%ADD16O,4.000000X3.000000*%
%ADD17R,8.890000X8.890000*%
%ADD18C,2.000000*%
%ADD19R,2.000000X2.000000*%
%ADD20O,1.800000X2.600000*%
%ADD21C,3.000000*%
%ADD22C,1.800000*%
G04 APERTURE END LIST*
D10*
X176530000Y-182245000D03*
D11*
X176530000Y-179705000D03*
X176530000Y-177165000D03*
X176530000Y-174625000D03*
X176530000Y-172085000D03*
X176530000Y-169545000D03*
X176530000Y-167005000D03*
X168910000Y-167005000D03*
X168910000Y-169545000D03*
X168910000Y-172085000D03*
X168910000Y-174625000D03*
X168910000Y-177165000D03*
X168910000Y-179705000D03*
X168910000Y-182245000D03*
D12*
X255905000Y-172085000D03*
D13*
X253365000Y-172085000D03*
X250825000Y-172085000D03*
X248285000Y-172085000D03*
X245745000Y-172085000D03*
X243205000Y-172085000D03*
X240665000Y-172085000D03*
X240665000Y-179705000D03*
X243205000Y-179705000D03*
X245745000Y-179705000D03*
X248285000Y-179705000D03*
X250825000Y-179705000D03*
X253365000Y-179705000D03*
X255905000Y-179705000D03*
D14*
X290195000Y-120015000D03*
X239395000Y-120015000D03*
X264795000Y-120015000D03*
X125730000Y-154940000D03*
X229235000Y-120015000D03*
D15*
X193040000Y-121920000D03*
X193040000Y-129540000D03*
X142240000Y-121920000D03*
X142240000Y-129540000D03*
X167640000Y-121920000D03*
X167640000Y-129540000D03*
X218440000Y-121920000D03*
X218440000Y-129540000D03*
X201930000Y-189230000D03*
X194310000Y-189230000D03*
X146050000Y-177800000D03*
X153670000Y-177800000D03*
X197485000Y-177800000D03*
X189865000Y-177800000D03*
X176530000Y-189230000D03*
X168910000Y-189230000D03*
X298450000Y-124460000D03*
X298450000Y-132080000D03*
X214630000Y-177800000D03*
X207010000Y-177800000D03*
X229870000Y-151130000D03*
X229870000Y-143510000D03*
X226695000Y-143510000D03*
X226695000Y-151130000D03*
X151130000Y-189230000D03*
X143510000Y-189230000D03*
X271780000Y-149225000D03*
X271780000Y-156845000D03*
X259715000Y-172720000D03*
X267335000Y-172720000D03*
X224790000Y-168275000D03*
X224790000Y-175895000D03*
X272415000Y-124460000D03*
X272415000Y-132080000D03*
X130810000Y-146050000D03*
X138430000Y-146050000D03*
X255905000Y-187325000D03*
X255905000Y-194945000D03*
X247015000Y-124460000D03*
X247015000Y-132080000D03*
X275590000Y-194945000D03*
X275590000Y-187325000D03*
X146685000Y-146050000D03*
X154305000Y-146050000D03*
X279400000Y-194945000D03*
X279400000Y-187325000D03*
X198120000Y-146050000D03*
X190500000Y-146050000D03*
X234950000Y-176530000D03*
X234950000Y-184150000D03*
X221615000Y-180340000D03*
X221615000Y-187960000D03*
X214630000Y-146050000D03*
X207010000Y-146050000D03*
D12*
X280670000Y-174625000D03*
D13*
X278130000Y-174625000D03*
X275590000Y-174625000D03*
X273050000Y-174625000D03*
X273050000Y-182245000D03*
X275590000Y-182245000D03*
X278130000Y-182245000D03*
X280670000Y-182245000D03*
D12*
X282575000Y-149860000D03*
D13*
X280035000Y-149860000D03*
X277495000Y-149860000D03*
X274955000Y-149860000D03*
X274955000Y-157480000D03*
X277495000Y-157480000D03*
X280035000Y-157480000D03*
X282575000Y-157480000D03*
D10*
X255270000Y-161925000D03*
D11*
X255270000Y-159385000D03*
X255270000Y-156845000D03*
X255270000Y-154305000D03*
X255270000Y-151765000D03*
X255270000Y-149225000D03*
X255270000Y-146685000D03*
X247650000Y-146685000D03*
X247650000Y-149225000D03*
X247650000Y-151765000D03*
X247650000Y-154305000D03*
X247650000Y-156845000D03*
X247650000Y-159385000D03*
X247650000Y-161925000D03*
D10*
X175895000Y-151765000D03*
D11*
X175895000Y-149225000D03*
X175895000Y-146685000D03*
X175895000Y-144145000D03*
X175895000Y-141605000D03*
X175895000Y-139065000D03*
X175895000Y-136525000D03*
X168275000Y-136525000D03*
X168275000Y-139065000D03*
X168275000Y-141605000D03*
X168275000Y-144145000D03*
X168275000Y-146685000D03*
X168275000Y-149225000D03*
X168275000Y-151765000D03*
D15*
X264160000Y-146685000D03*
X264160000Y-151765000D03*
X208280000Y-140970000D03*
X213360000Y-140970000D03*
X160020000Y-175895000D03*
X160020000Y-180975000D03*
X255270000Y-130810000D03*
X255270000Y-125730000D03*
X147320000Y-160020000D03*
X147320000Y-165100000D03*
X137160000Y-140970000D03*
X132080000Y-140970000D03*
X153035000Y-140970000D03*
X147955000Y-140970000D03*
X191770000Y-140970000D03*
X196850000Y-140970000D03*
X200660000Y-194310000D03*
X195580000Y-194310000D03*
X152400000Y-172720000D03*
X147320000Y-172720000D03*
X196215000Y-172720000D03*
X191135000Y-172720000D03*
X172085000Y-131445000D03*
X177165000Y-131445000D03*
X226060000Y-133985000D03*
X220980000Y-133985000D03*
X208280000Y-172720000D03*
X213360000Y-172720000D03*
X149860000Y-194310000D03*
X144780000Y-194310000D03*
X175260000Y-194310000D03*
X170180000Y-194310000D03*
D16*
X139115800Y-160718500D03*
X139115800Y-165798500D03*
X139115800Y-155638500D03*
D15*
X277495000Y-142875000D03*
X281305000Y-142875000D03*
X236855000Y-139065000D03*
X236855000Y-142875000D03*
X231775000Y-196850000D03*
X231775000Y-193040000D03*
X262255000Y-139065000D03*
X262255000Y-142875000D03*
X287655000Y-139065000D03*
X287655000Y-142875000D03*
X137160000Y-184150000D03*
X140970000Y-184150000D03*
X126365000Y-172720000D03*
X130175000Y-172720000D03*
D17*
X128905000Y-193675000D03*
D18*
X131445000Y-177165000D03*
D19*
X128905000Y-177165000D03*
D18*
X126365000Y-177165000D03*
D20*
X131826000Y-134874000D03*
X134366000Y-134874000D03*
X136906000Y-134874000D03*
D18*
X129565400Y-127370840D03*
X139166600Y-127381000D03*
D20*
X157226000Y-134874000D03*
X159766000Y-134874000D03*
X162306000Y-134874000D03*
D18*
X154965400Y-127370840D03*
X164566600Y-127381000D03*
D20*
X182626000Y-134874000D03*
X185166000Y-134874000D03*
X187706000Y-134874000D03*
D18*
X180365400Y-127370840D03*
X189966600Y-127381000D03*
D20*
X208026000Y-134874000D03*
X210566000Y-134874000D03*
X213106000Y-134874000D03*
D18*
X205765400Y-127370840D03*
X215366600Y-127381000D03*
D20*
X236601000Y-134874000D03*
X239141000Y-134874000D03*
X241681000Y-134874000D03*
D18*
X234340400Y-127370840D03*
X243941600Y-127381000D03*
D20*
X262001000Y-134874000D03*
X264541000Y-134874000D03*
X267081000Y-134874000D03*
D18*
X259740400Y-127370840D03*
X269341600Y-127381000D03*
D20*
X287401000Y-134874000D03*
X289941000Y-134874000D03*
X292481000Y-134874000D03*
D18*
X285140400Y-127370840D03*
X294741600Y-127381000D03*
D20*
X157226000Y-168211500D03*
X159766000Y-168211500D03*
X162306000Y-168211500D03*
D18*
X154965400Y-160708340D03*
X164566600Y-160718500D03*
D20*
X182626000Y-168211500D03*
X185166000Y-168211500D03*
X187706000Y-168211500D03*
D18*
X180365400Y-160708340D03*
X189966600Y-160718500D03*
D20*
X208026000Y-168211500D03*
X210566000Y-168211500D03*
X213106000Y-168211500D03*
D18*
X205765400Y-160708340D03*
X215366600Y-160718500D03*
D20*
X262001000Y-168211500D03*
X264541000Y-168211500D03*
X267081000Y-168211500D03*
D18*
X259740400Y-160708340D03*
X269341600Y-160718500D03*
D20*
X287401000Y-168211500D03*
X289941000Y-168211500D03*
X292481000Y-168211500D03*
D18*
X285140400Y-160708340D03*
X294741600Y-160718500D03*
D20*
X162306000Y-186563000D03*
X159766000Y-186563000D03*
X157226000Y-186563000D03*
D18*
X164566600Y-194066160D03*
X154965400Y-194056000D03*
D20*
X187706000Y-186563000D03*
X185166000Y-186563000D03*
X182626000Y-186563000D03*
D18*
X189966600Y-194066160D03*
X180365400Y-194056000D03*
D20*
X213106000Y-186563000D03*
X210566000Y-186563000D03*
X208026000Y-186563000D03*
D18*
X215366600Y-194066160D03*
X205765400Y-194056000D03*
D20*
X267081000Y-186563000D03*
X264541000Y-186563000D03*
X262001000Y-186563000D03*
D18*
X269341600Y-194066160D03*
X259740400Y-194056000D03*
D20*
X292481000Y-186563000D03*
X289941000Y-186563000D03*
X287401000Y-186563000D03*
D18*
X294741600Y-194066160D03*
X285140400Y-194056000D03*
D15*
X177165000Y-157480000D03*
X167005000Y-157480000D03*
X219710000Y-151765000D03*
X219710000Y-161925000D03*
X225425000Y-180340000D03*
X225425000Y-190500000D03*
D21*
X149225000Y-130175000D03*
X279400000Y-122555000D03*
X291465000Y-177165000D03*
D22*
X240411000Y-160718500D03*
X237871000Y-160718500D03*
X240411000Y-194056000D03*
X237871000Y-194056000D03*
D14*
X133985000Y-158242000D03*
X133985000Y-168402000D03*
X131445000Y-154940000D03*
M02*
