G04 (created by PCBNEW (2013-07-07 BZR 4022)-stable) date 20/01/2017 15:23:36*
%MOIN*%
G04 Gerber Fmt 3.4, Leading zero omitted, Abs format*
%FSLAX34Y34*%
G01*
G70*
G90*
G04 APERTURE LIST*
%ADD10C,0.00590551*%
%ADD11C,0.011811*%
%ADD12C,0.0147638*%
%ADD13C,0.012*%
%ADD14C,0.0001*%
G04 APERTURE END LIST*
G54D10*
G54D11*
X53406Y-74989D02*
X53406Y-74398D01*
X53406Y-74623D02*
X53462Y-74595D01*
X53575Y-74595D01*
X53631Y-74623D01*
X53659Y-74651D01*
X53687Y-74707D01*
X53687Y-74876D01*
X53659Y-74932D01*
X53631Y-74960D01*
X53575Y-74989D01*
X53462Y-74989D01*
X53406Y-74960D01*
X54025Y-74989D02*
X53968Y-74960D01*
X53940Y-74932D01*
X53912Y-74876D01*
X53912Y-74707D01*
X53940Y-74651D01*
X53968Y-74623D01*
X54025Y-74595D01*
X54109Y-74595D01*
X54165Y-74623D01*
X54193Y-74651D01*
X54221Y-74707D01*
X54221Y-74876D01*
X54193Y-74932D01*
X54165Y-74960D01*
X54109Y-74989D01*
X54025Y-74989D01*
X54474Y-74989D02*
X54474Y-74595D01*
X54474Y-74707D02*
X54503Y-74651D01*
X54531Y-74623D01*
X54587Y-74595D01*
X54643Y-74595D01*
X54840Y-74595D02*
X54840Y-74989D01*
X54840Y-74651D02*
X54868Y-74623D01*
X54924Y-74595D01*
X55009Y-74595D01*
X55065Y-74623D01*
X55093Y-74679D01*
X55093Y-74989D01*
X53870Y-75540D02*
X54095Y-75540D01*
X53954Y-75343D02*
X53954Y-75849D01*
X53982Y-75905D01*
X54039Y-75933D01*
X54095Y-75933D01*
X54376Y-75933D02*
X54320Y-75905D01*
X54292Y-75877D01*
X54264Y-75821D01*
X54264Y-75652D01*
X54292Y-75596D01*
X54320Y-75568D01*
X54376Y-75540D01*
X54460Y-75540D01*
X54517Y-75568D01*
X54545Y-75596D01*
X54573Y-75652D01*
X54573Y-75821D01*
X54545Y-75877D01*
X54517Y-75905D01*
X54460Y-75933D01*
X54376Y-75933D01*
X53870Y-76878D02*
X53870Y-76288D01*
X53870Y-76513D02*
X53926Y-76485D01*
X54039Y-76485D01*
X54095Y-76513D01*
X54123Y-76541D01*
X54151Y-76597D01*
X54151Y-76766D01*
X54123Y-76822D01*
X54095Y-76850D01*
X54039Y-76878D01*
X53926Y-76878D01*
X53870Y-76850D01*
X54629Y-76850D02*
X54573Y-76878D01*
X54460Y-76878D01*
X54404Y-76850D01*
X54376Y-76794D01*
X54376Y-76569D01*
X54404Y-76513D01*
X54460Y-76485D01*
X54573Y-76485D01*
X54629Y-76513D01*
X54657Y-76569D01*
X54657Y-76625D01*
X54376Y-76681D01*
X53462Y-77429D02*
X53575Y-77823D01*
X53687Y-77542D01*
X53800Y-77823D01*
X53912Y-77429D01*
X54137Y-77823D02*
X54137Y-77429D01*
X54137Y-77233D02*
X54109Y-77261D01*
X54137Y-77289D01*
X54165Y-77261D01*
X54137Y-77233D01*
X54137Y-77289D01*
X54503Y-77823D02*
X54446Y-77795D01*
X54418Y-77739D01*
X54418Y-77233D01*
X54981Y-77823D02*
X54981Y-77233D01*
X54981Y-77795D02*
X54924Y-77823D01*
X54812Y-77823D01*
X54756Y-77795D01*
X54728Y-77767D01*
X54699Y-77711D01*
X54699Y-77542D01*
X54728Y-77486D01*
X54756Y-77458D01*
X54812Y-77429D01*
X54924Y-77429D01*
X54981Y-77458D01*
G54D12*
X117739Y-78509D02*
X117148Y-78509D01*
X117148Y-78284D01*
X117176Y-78228D01*
X117204Y-78200D01*
X117260Y-78172D01*
X117345Y-78172D01*
X117401Y-78200D01*
X117429Y-78228D01*
X117457Y-78284D01*
X117457Y-78509D01*
X117739Y-77581D02*
X117457Y-77778D01*
X117739Y-77919D02*
X117148Y-77919D01*
X117148Y-77694D01*
X117176Y-77638D01*
X117204Y-77609D01*
X117260Y-77581D01*
X117345Y-77581D01*
X117401Y-77609D01*
X117429Y-77638D01*
X117457Y-77694D01*
X117457Y-77919D01*
X117148Y-77216D02*
X117148Y-77103D01*
X117176Y-77047D01*
X117232Y-76991D01*
X117345Y-76963D01*
X117542Y-76963D01*
X117654Y-76991D01*
X117710Y-77047D01*
X117739Y-77103D01*
X117739Y-77216D01*
X117710Y-77272D01*
X117654Y-77328D01*
X117542Y-77356D01*
X117345Y-77356D01*
X117232Y-77328D01*
X117176Y-77272D01*
X117148Y-77216D01*
X117148Y-76794D02*
X117148Y-76456D01*
X117739Y-76625D02*
X117148Y-76625D01*
X117429Y-76260D02*
X117429Y-76063D01*
X117739Y-75978D02*
X117739Y-76260D01*
X117148Y-76260D01*
X117148Y-75978D01*
X117570Y-75753D02*
X117570Y-75472D01*
X117739Y-75810D02*
X117148Y-75613D01*
X117739Y-75416D01*
X117739Y-75219D02*
X117148Y-75219D01*
X117739Y-74882D01*
X117148Y-74882D01*
X117514Y-74151D02*
X117514Y-73701D01*
X117739Y-72969D02*
X117148Y-72969D01*
X117570Y-72773D01*
X117148Y-72576D01*
X117739Y-72576D01*
X117739Y-72210D02*
X117710Y-72266D01*
X117682Y-72294D01*
X117626Y-72323D01*
X117457Y-72323D01*
X117401Y-72294D01*
X117373Y-72266D01*
X117345Y-72210D01*
X117345Y-72126D01*
X117373Y-72070D01*
X117401Y-72041D01*
X117457Y-72013D01*
X117626Y-72013D01*
X117682Y-72041D01*
X117710Y-72070D01*
X117739Y-72126D01*
X117739Y-72210D01*
X117345Y-71845D02*
X117345Y-71620D01*
X117148Y-71760D02*
X117654Y-71760D01*
X117710Y-71732D01*
X117739Y-71676D01*
X117739Y-71620D01*
X117739Y-71423D02*
X117345Y-71423D01*
X117148Y-71423D02*
X117176Y-71451D01*
X117204Y-71423D01*
X117176Y-71395D01*
X117148Y-71423D01*
X117204Y-71423D01*
X117739Y-71057D02*
X117710Y-71113D01*
X117682Y-71142D01*
X117626Y-71170D01*
X117457Y-71170D01*
X117401Y-71142D01*
X117373Y-71113D01*
X117345Y-71057D01*
X117345Y-70973D01*
X117373Y-70917D01*
X117401Y-70888D01*
X117457Y-70860D01*
X117626Y-70860D01*
X117682Y-70888D01*
X117710Y-70917D01*
X117739Y-70973D01*
X117739Y-71057D01*
X117345Y-70607D02*
X117739Y-70607D01*
X117401Y-70607D02*
X117373Y-70579D01*
X117345Y-70523D01*
X117345Y-70438D01*
X117373Y-70382D01*
X117429Y-70354D01*
X117739Y-70354D01*
X117148Y-69707D02*
X117148Y-69370D01*
X117739Y-69539D02*
X117148Y-69539D01*
X117710Y-68948D02*
X117739Y-69004D01*
X117739Y-69117D01*
X117710Y-69173D01*
X117654Y-69201D01*
X117429Y-69201D01*
X117373Y-69173D01*
X117345Y-69117D01*
X117345Y-69004D01*
X117373Y-68948D01*
X117429Y-68920D01*
X117485Y-68920D01*
X117542Y-69201D01*
X117739Y-68723D02*
X117345Y-68414D01*
X117345Y-68723D02*
X117739Y-68414D01*
X117345Y-68273D02*
X117345Y-68048D01*
X117148Y-68189D02*
X117654Y-68189D01*
X117710Y-68161D01*
X117739Y-68104D01*
X117739Y-68048D01*
X117345Y-67598D02*
X117739Y-67598D01*
X117345Y-67851D02*
X117654Y-67851D01*
X117710Y-67823D01*
X117739Y-67767D01*
X117739Y-67683D01*
X117710Y-67626D01*
X117682Y-67598D01*
X117739Y-67317D02*
X117345Y-67317D01*
X117457Y-67317D02*
X117401Y-67289D01*
X117373Y-67261D01*
X117345Y-67205D01*
X117345Y-67148D01*
X117710Y-66726D02*
X117739Y-66783D01*
X117739Y-66895D01*
X117710Y-66951D01*
X117654Y-66980D01*
X117429Y-66980D01*
X117373Y-66951D01*
X117345Y-66895D01*
X117345Y-66783D01*
X117373Y-66726D01*
X117429Y-66698D01*
X117485Y-66698D01*
X117542Y-66980D01*
X117710Y-66023D02*
X117739Y-65939D01*
X117739Y-65798D01*
X117710Y-65742D01*
X117682Y-65714D01*
X117626Y-65686D01*
X117570Y-65686D01*
X117514Y-65714D01*
X117485Y-65742D01*
X117457Y-65798D01*
X117429Y-65911D01*
X117401Y-65967D01*
X117373Y-65995D01*
X117317Y-66023D01*
X117260Y-66023D01*
X117204Y-65995D01*
X117176Y-65967D01*
X117148Y-65911D01*
X117148Y-65770D01*
X117176Y-65686D01*
X117739Y-65348D02*
X117710Y-65405D01*
X117682Y-65433D01*
X117626Y-65461D01*
X117457Y-65461D01*
X117401Y-65433D01*
X117373Y-65405D01*
X117345Y-65348D01*
X117345Y-65264D01*
X117373Y-65208D01*
X117401Y-65180D01*
X117457Y-65152D01*
X117626Y-65152D01*
X117682Y-65180D01*
X117710Y-65208D01*
X117739Y-65264D01*
X117739Y-65348D01*
X117345Y-64645D02*
X117739Y-64645D01*
X117345Y-64899D02*
X117654Y-64899D01*
X117710Y-64870D01*
X117739Y-64814D01*
X117739Y-64730D01*
X117710Y-64674D01*
X117682Y-64645D01*
X117739Y-64364D02*
X117345Y-64364D01*
X117457Y-64364D02*
X117401Y-64336D01*
X117373Y-64308D01*
X117345Y-64252D01*
X117345Y-64196D01*
X117710Y-63746D02*
X117739Y-63802D01*
X117739Y-63914D01*
X117710Y-63971D01*
X117682Y-63999D01*
X117626Y-64027D01*
X117457Y-64027D01*
X117401Y-63999D01*
X117373Y-63971D01*
X117345Y-63914D01*
X117345Y-63802D01*
X117373Y-63746D01*
X117710Y-63267D02*
X117739Y-63324D01*
X117739Y-63436D01*
X117710Y-63492D01*
X117654Y-63521D01*
X117429Y-63521D01*
X117373Y-63492D01*
X117345Y-63436D01*
X117345Y-63324D01*
X117373Y-63267D01*
X117429Y-63239D01*
X117485Y-63239D01*
X117542Y-63521D01*
X117739Y-62536D02*
X117148Y-62536D01*
X117570Y-62339D01*
X117148Y-62143D01*
X117739Y-62143D01*
X117739Y-61861D02*
X117148Y-61861D01*
X117739Y-61524D02*
X117401Y-61777D01*
X117148Y-61524D02*
X117485Y-61861D01*
X117204Y-61299D02*
X117176Y-61271D01*
X117148Y-61215D01*
X117148Y-61074D01*
X117176Y-61018D01*
X117204Y-60990D01*
X117260Y-60962D01*
X117317Y-60962D01*
X117401Y-60990D01*
X117739Y-61327D01*
X117739Y-60962D01*
G54D10*
X67500Y-72250D02*
X67500Y-71750D01*
X67500Y-71750D02*
X68500Y-71750D01*
X68500Y-71750D02*
X68500Y-72250D01*
X70000Y-65250D02*
X70000Y-72250D01*
X69000Y-72250D02*
X69000Y-65250D01*
X67000Y-65250D02*
X67000Y-72250D01*
X66000Y-72250D02*
X66000Y-65250D01*
X66000Y-72250D02*
X70000Y-72250D01*
X66000Y-65250D02*
X70000Y-65250D01*
X67500Y-72250D02*
X68500Y-72250D01*
X101250Y-69750D02*
X100750Y-69750D01*
X100750Y-69750D02*
X100750Y-68750D01*
X100750Y-68750D02*
X101250Y-68750D01*
X94250Y-67250D02*
X101250Y-67250D01*
X101250Y-68250D02*
X94250Y-68250D01*
X94250Y-70250D02*
X101250Y-70250D01*
X101250Y-71250D02*
X94250Y-71250D01*
X101250Y-71250D02*
X101250Y-67250D01*
X94250Y-71250D02*
X94250Y-67250D01*
X101250Y-69750D02*
X101250Y-68750D01*
X114806Y-47250D02*
G75*
G03X114806Y-47250I-556J0D01*
G74*
G01*
X94806Y-47250D02*
G75*
G03X94806Y-47250I-556J0D01*
G74*
G01*
X104806Y-47250D02*
G75*
G03X104806Y-47250I-556J0D01*
G74*
G01*
X50056Y-61000D02*
G75*
G03X50056Y-61000I-556J0D01*
G74*
G01*
X90806Y-47250D02*
G75*
G03X90806Y-47250I-556J0D01*
G74*
G01*
X76000Y-50750D02*
X76000Y-51000D01*
X76000Y-48000D02*
X76000Y-48250D01*
X76000Y-48250D02*
X76500Y-48250D01*
X76500Y-48250D02*
X76500Y-50750D01*
X76500Y-50750D02*
X75750Y-50750D01*
X75750Y-50750D02*
X75500Y-50750D01*
X75500Y-50750D02*
X75500Y-48250D01*
X75500Y-48250D02*
X76000Y-48250D01*
X56000Y-50750D02*
X56000Y-51000D01*
X56000Y-48000D02*
X56000Y-48250D01*
X56000Y-48250D02*
X56500Y-48250D01*
X56500Y-48250D02*
X56500Y-50750D01*
X56500Y-50750D02*
X55750Y-50750D01*
X55750Y-50750D02*
X55500Y-50750D01*
X55500Y-50750D02*
X55500Y-48250D01*
X55500Y-48250D02*
X56000Y-48250D01*
X66000Y-50750D02*
X66000Y-51000D01*
X66000Y-48000D02*
X66000Y-48250D01*
X66000Y-48250D02*
X66500Y-48250D01*
X66500Y-48250D02*
X66500Y-50750D01*
X66500Y-50750D02*
X65750Y-50750D01*
X65750Y-50750D02*
X65500Y-50750D01*
X65500Y-50750D02*
X65500Y-48250D01*
X65500Y-48250D02*
X66000Y-48250D01*
X86000Y-50750D02*
X86000Y-51000D01*
X86000Y-48000D02*
X86000Y-48250D01*
X86000Y-48250D02*
X86500Y-48250D01*
X86500Y-48250D02*
X86500Y-50750D01*
X86500Y-50750D02*
X85750Y-50750D01*
X85750Y-50750D02*
X85500Y-50750D01*
X85500Y-50750D02*
X85500Y-48250D01*
X85500Y-48250D02*
X86000Y-48250D01*
X76750Y-74500D02*
X76500Y-74500D01*
X79500Y-74500D02*
X79250Y-74500D01*
X79250Y-74500D02*
X79250Y-75000D01*
X79250Y-75000D02*
X76750Y-75000D01*
X76750Y-75000D02*
X76750Y-74250D01*
X76750Y-74250D02*
X76750Y-74000D01*
X76750Y-74000D02*
X79250Y-74000D01*
X79250Y-74000D02*
X79250Y-74500D01*
X60250Y-70000D02*
X60500Y-70000D01*
X57500Y-70000D02*
X57750Y-70000D01*
X57750Y-70000D02*
X57750Y-69500D01*
X57750Y-69500D02*
X60250Y-69500D01*
X60250Y-69500D02*
X60250Y-70250D01*
X60250Y-70250D02*
X60250Y-70500D01*
X60250Y-70500D02*
X57750Y-70500D01*
X57750Y-70500D02*
X57750Y-70000D01*
X75000Y-70000D02*
X74750Y-70000D01*
X77750Y-70000D02*
X77500Y-70000D01*
X77500Y-70000D02*
X77500Y-70500D01*
X77500Y-70500D02*
X75000Y-70500D01*
X75000Y-70500D02*
X75000Y-69750D01*
X75000Y-69750D02*
X75000Y-69500D01*
X75000Y-69500D02*
X77500Y-69500D01*
X77500Y-69500D02*
X77500Y-70000D01*
X66750Y-74500D02*
X66500Y-74500D01*
X69500Y-74500D02*
X69250Y-74500D01*
X69250Y-74500D02*
X69250Y-75000D01*
X69250Y-75000D02*
X66750Y-75000D01*
X66750Y-75000D02*
X66750Y-74250D01*
X66750Y-74250D02*
X66750Y-74000D01*
X66750Y-74000D02*
X69250Y-74000D01*
X69250Y-74000D02*
X69250Y-74500D01*
X117500Y-51750D02*
X117500Y-52000D01*
X117500Y-49000D02*
X117500Y-49250D01*
X117500Y-49250D02*
X118000Y-49250D01*
X118000Y-49250D02*
X118000Y-51750D01*
X118000Y-51750D02*
X117250Y-51750D01*
X117250Y-51750D02*
X117000Y-51750D01*
X117000Y-51750D02*
X117000Y-49250D01*
X117000Y-49250D02*
X117500Y-49250D01*
X81750Y-70000D02*
X81500Y-70000D01*
X84500Y-70000D02*
X84250Y-70000D01*
X84250Y-70000D02*
X84250Y-70500D01*
X84250Y-70500D02*
X81750Y-70500D01*
X81750Y-70500D02*
X81750Y-69750D01*
X81750Y-69750D02*
X81750Y-69500D01*
X81750Y-69500D02*
X84250Y-69500D01*
X84250Y-69500D02*
X84250Y-70000D01*
X90500Y-56750D02*
X90500Y-56500D01*
X90500Y-59500D02*
X90500Y-59250D01*
X90500Y-59250D02*
X90000Y-59250D01*
X90000Y-59250D02*
X90000Y-56750D01*
X90000Y-56750D02*
X90750Y-56750D01*
X90750Y-56750D02*
X91000Y-56750D01*
X91000Y-56750D02*
X91000Y-59250D01*
X91000Y-59250D02*
X90500Y-59250D01*
X89250Y-59250D02*
X89250Y-59500D01*
X89250Y-56500D02*
X89250Y-56750D01*
X89250Y-56750D02*
X89750Y-56750D01*
X89750Y-56750D02*
X89750Y-59250D01*
X89750Y-59250D02*
X89000Y-59250D01*
X89000Y-59250D02*
X88750Y-59250D01*
X88750Y-59250D02*
X88750Y-56750D01*
X88750Y-56750D02*
X89250Y-56750D01*
X56750Y-74500D02*
X56500Y-74500D01*
X59500Y-74500D02*
X59250Y-74500D01*
X59250Y-74500D02*
X59250Y-75000D01*
X59250Y-75000D02*
X56750Y-75000D01*
X56750Y-75000D02*
X56750Y-74250D01*
X56750Y-74250D02*
X56750Y-74000D01*
X56750Y-74000D02*
X59250Y-74000D01*
X59250Y-74000D02*
X59250Y-74500D01*
X107000Y-61500D02*
X107000Y-61750D01*
X107000Y-58750D02*
X107000Y-59000D01*
X107000Y-59000D02*
X107500Y-59000D01*
X107500Y-59000D02*
X107500Y-61500D01*
X107500Y-61500D02*
X106750Y-61500D01*
X106750Y-61500D02*
X106500Y-61500D01*
X106500Y-61500D02*
X106500Y-59000D01*
X106500Y-59000D02*
X107000Y-59000D01*
X105000Y-68000D02*
X105250Y-68000D01*
X102250Y-68000D02*
X102500Y-68000D01*
X102500Y-68000D02*
X102500Y-67500D01*
X102500Y-67500D02*
X105000Y-67500D01*
X105000Y-67500D02*
X105000Y-68250D01*
X105000Y-68250D02*
X105000Y-68500D01*
X105000Y-68500D02*
X102500Y-68500D01*
X102500Y-68500D02*
X102500Y-68000D01*
X88500Y-69000D02*
X88500Y-69250D01*
X88500Y-66250D02*
X88500Y-66500D01*
X88500Y-66500D02*
X89000Y-66500D01*
X89000Y-66500D02*
X89000Y-69000D01*
X89000Y-69000D02*
X88250Y-69000D01*
X88250Y-69000D02*
X88000Y-69000D01*
X88000Y-69000D02*
X88000Y-66500D01*
X88000Y-66500D02*
X88500Y-66500D01*
X107250Y-51750D02*
X107250Y-52000D01*
X107250Y-49000D02*
X107250Y-49250D01*
X107250Y-49250D02*
X107750Y-49250D01*
X107750Y-49250D02*
X107750Y-51750D01*
X107750Y-51750D02*
X107000Y-51750D01*
X107000Y-51750D02*
X106750Y-51750D01*
X106750Y-51750D02*
X106750Y-49250D01*
X106750Y-49250D02*
X107250Y-49250D01*
X54250Y-57500D02*
X54500Y-57500D01*
X51500Y-57500D02*
X51750Y-57500D01*
X51750Y-57500D02*
X51750Y-57000D01*
X51750Y-57000D02*
X54250Y-57000D01*
X54250Y-57000D02*
X54250Y-57750D01*
X54250Y-57750D02*
X54250Y-58000D01*
X54250Y-58000D02*
X51750Y-58000D01*
X51750Y-58000D02*
X51750Y-57500D01*
X100750Y-76500D02*
X100750Y-76750D01*
X100750Y-73750D02*
X100750Y-74000D01*
X100750Y-74000D02*
X101250Y-74000D01*
X101250Y-74000D02*
X101250Y-76500D01*
X101250Y-76500D02*
X100500Y-76500D01*
X100500Y-76500D02*
X100250Y-76500D01*
X100250Y-76500D02*
X100250Y-74000D01*
X100250Y-74000D02*
X100750Y-74000D01*
X97250Y-51750D02*
X97250Y-52000D01*
X97250Y-49000D02*
X97250Y-49250D01*
X97250Y-49250D02*
X97750Y-49250D01*
X97750Y-49250D02*
X97750Y-51750D01*
X97750Y-51750D02*
X97000Y-51750D01*
X97000Y-51750D02*
X96750Y-51750D01*
X96750Y-51750D02*
X96750Y-49250D01*
X96750Y-49250D02*
X97250Y-49250D01*
X108500Y-74000D02*
X108500Y-73750D01*
X108500Y-76750D02*
X108500Y-76500D01*
X108500Y-76500D02*
X108000Y-76500D01*
X108000Y-76500D02*
X108000Y-74000D01*
X108000Y-74000D02*
X108750Y-74000D01*
X108750Y-74000D02*
X109000Y-74000D01*
X109000Y-74000D02*
X109000Y-76500D01*
X109000Y-76500D02*
X108500Y-76500D01*
X60500Y-57500D02*
X60750Y-57500D01*
X57750Y-57500D02*
X58000Y-57500D01*
X58000Y-57500D02*
X58000Y-57000D01*
X58000Y-57000D02*
X60500Y-57000D01*
X60500Y-57000D02*
X60500Y-57750D01*
X60500Y-57750D02*
X60500Y-58000D01*
X60500Y-58000D02*
X58000Y-58000D01*
X58000Y-58000D02*
X58000Y-57500D01*
X110000Y-74000D02*
X110000Y-73750D01*
X110000Y-76750D02*
X110000Y-76500D01*
X110000Y-76500D02*
X109500Y-76500D01*
X109500Y-76500D02*
X109500Y-74000D01*
X109500Y-74000D02*
X110250Y-74000D01*
X110250Y-74000D02*
X110500Y-74000D01*
X110500Y-74000D02*
X110500Y-76500D01*
X110500Y-76500D02*
X110000Y-76500D01*
X75250Y-57500D02*
X75000Y-57500D01*
X78000Y-57500D02*
X77750Y-57500D01*
X77750Y-57500D02*
X77750Y-58000D01*
X77750Y-58000D02*
X75250Y-58000D01*
X75250Y-58000D02*
X75250Y-57250D01*
X75250Y-57250D02*
X75250Y-57000D01*
X75250Y-57000D02*
X77750Y-57000D01*
X77750Y-57000D02*
X77750Y-57500D01*
X92500Y-72250D02*
X92500Y-72500D01*
X92500Y-69500D02*
X92500Y-69750D01*
X92500Y-69750D02*
X93000Y-69750D01*
X93000Y-69750D02*
X93000Y-72250D01*
X93000Y-72250D02*
X92250Y-72250D01*
X92250Y-72250D02*
X92000Y-72250D01*
X92000Y-72250D02*
X92000Y-69750D01*
X92000Y-69750D02*
X92500Y-69750D01*
X87250Y-73750D02*
X87250Y-74000D01*
X87250Y-71000D02*
X87250Y-71250D01*
X87250Y-71250D02*
X87750Y-71250D01*
X87750Y-71250D02*
X87750Y-73750D01*
X87750Y-73750D02*
X87000Y-73750D01*
X87000Y-73750D02*
X86750Y-73750D01*
X86750Y-73750D02*
X86750Y-71250D01*
X86750Y-71250D02*
X87250Y-71250D01*
X81750Y-57500D02*
X81500Y-57500D01*
X84500Y-57500D02*
X84250Y-57500D01*
X84250Y-57500D02*
X84250Y-58000D01*
X84250Y-58000D02*
X81750Y-58000D01*
X81750Y-58000D02*
X81750Y-57250D01*
X81750Y-57250D02*
X81750Y-57000D01*
X81750Y-57000D02*
X84250Y-57000D01*
X84250Y-57000D02*
X84250Y-57500D01*
X111000Y-70750D02*
X110500Y-70750D01*
X110500Y-70750D02*
X110500Y-69750D01*
X110500Y-69750D02*
X111000Y-69750D01*
X111000Y-72250D02*
X107000Y-72250D01*
X107000Y-72250D02*
X107000Y-68250D01*
X107000Y-68250D02*
X111000Y-68250D01*
X111000Y-68250D02*
X111000Y-72250D01*
X107000Y-69250D02*
X111000Y-69250D01*
X111000Y-71250D02*
X107000Y-71250D01*
X111750Y-61000D02*
X111250Y-61000D01*
X111250Y-61000D02*
X111250Y-60000D01*
X111250Y-60000D02*
X111750Y-60000D01*
X111750Y-62500D02*
X107750Y-62500D01*
X107750Y-62500D02*
X107750Y-58500D01*
X107750Y-58500D02*
X111750Y-58500D01*
X111750Y-58500D02*
X111750Y-62500D01*
X107750Y-59500D02*
X111750Y-59500D01*
X111750Y-61500D02*
X107750Y-61500D01*
X98500Y-64250D02*
X98500Y-63750D01*
X98500Y-63750D02*
X99500Y-63750D01*
X99500Y-63750D02*
X99500Y-64250D01*
X101000Y-57250D02*
X101000Y-64250D01*
X100000Y-64250D02*
X100000Y-57250D01*
X98000Y-57250D02*
X98000Y-64250D01*
X97000Y-64250D02*
X97000Y-57250D01*
X97000Y-64250D02*
X101000Y-64250D01*
X97000Y-57250D02*
X101000Y-57250D01*
X98500Y-64250D02*
X99500Y-64250D01*
X67250Y-60250D02*
X67250Y-59750D01*
X67250Y-59750D02*
X68250Y-59750D01*
X68250Y-59750D02*
X68250Y-60250D01*
X69750Y-53250D02*
X69750Y-60250D01*
X68750Y-60250D02*
X68750Y-53250D01*
X66750Y-53250D02*
X66750Y-60250D01*
X65750Y-60250D02*
X65750Y-53250D01*
X65750Y-60250D02*
X69750Y-60250D01*
X65750Y-53250D02*
X69750Y-53250D01*
X67250Y-60250D02*
X68250Y-60250D01*
X104000Y-59450D02*
X104000Y-59550D01*
X103750Y-58050D02*
X103750Y-59450D01*
X104250Y-58050D02*
X104250Y-59450D01*
X104250Y-59450D02*
X103750Y-59450D01*
X104000Y-58050D02*
X104000Y-57950D01*
X104000Y-57950D02*
X104000Y-58050D01*
X104250Y-58050D02*
X103750Y-58050D01*
X103750Y-58250D02*
X104250Y-58250D01*
X81250Y-54750D02*
X84750Y-54750D01*
X84750Y-54750D02*
X84750Y-56250D01*
X84750Y-56250D02*
X81250Y-56250D01*
X81250Y-56250D02*
X81250Y-54750D01*
X63750Y-68500D02*
X63750Y-72000D01*
X63750Y-72000D02*
X62250Y-72000D01*
X62250Y-72000D02*
X62250Y-68500D01*
X62250Y-68500D02*
X63750Y-68500D01*
X99750Y-52250D02*
X99750Y-48750D01*
X99750Y-48750D02*
X101250Y-48750D01*
X101250Y-48750D02*
X101250Y-52250D01*
X101250Y-52250D02*
X99750Y-52250D01*
X58750Y-62250D02*
X58750Y-65750D01*
X58750Y-65750D02*
X57250Y-65750D01*
X57250Y-65750D02*
X57250Y-62250D01*
X57250Y-62250D02*
X58750Y-62250D01*
X54750Y-56250D02*
X51250Y-56250D01*
X51250Y-56250D02*
X51250Y-54750D01*
X51250Y-54750D02*
X54750Y-54750D01*
X54750Y-54750D02*
X54750Y-56250D01*
X61000Y-56250D02*
X57500Y-56250D01*
X57500Y-56250D02*
X57500Y-54750D01*
X57500Y-54750D02*
X61000Y-54750D01*
X61000Y-54750D02*
X61000Y-56250D01*
X74750Y-54750D02*
X78250Y-54750D01*
X78250Y-54750D02*
X78250Y-56250D01*
X78250Y-56250D02*
X74750Y-56250D01*
X74750Y-56250D02*
X74750Y-54750D01*
X79750Y-77250D02*
X76250Y-77250D01*
X76250Y-77250D02*
X76250Y-75750D01*
X76250Y-75750D02*
X79750Y-75750D01*
X79750Y-75750D02*
X79750Y-77250D01*
X60750Y-68750D02*
X57250Y-68750D01*
X57250Y-68750D02*
X57250Y-67250D01*
X57250Y-67250D02*
X60750Y-67250D01*
X60750Y-67250D02*
X60750Y-68750D01*
X78000Y-68750D02*
X74500Y-68750D01*
X74500Y-68750D02*
X74500Y-67250D01*
X74500Y-67250D02*
X78000Y-67250D01*
X78000Y-67250D02*
X78000Y-68750D01*
X67000Y-51000D02*
X70500Y-51000D01*
X70500Y-51000D02*
X70500Y-52500D01*
X70500Y-52500D02*
X67000Y-52500D01*
X67000Y-52500D02*
X67000Y-51000D01*
X89750Y-53500D02*
X86250Y-53500D01*
X86250Y-53500D02*
X86250Y-52000D01*
X86250Y-52000D02*
X89750Y-52000D01*
X89750Y-52000D02*
X89750Y-53500D01*
X81250Y-67250D02*
X84750Y-67250D01*
X84750Y-67250D02*
X84750Y-68750D01*
X84750Y-68750D02*
X81250Y-68750D01*
X81250Y-68750D02*
X81250Y-67250D01*
X59750Y-77250D02*
X56250Y-77250D01*
X56250Y-77250D02*
X56250Y-75750D01*
X56250Y-75750D02*
X59750Y-75750D01*
X59750Y-75750D02*
X59750Y-77250D01*
X69750Y-77250D02*
X66250Y-77250D01*
X66250Y-77250D02*
X66250Y-75750D01*
X66250Y-75750D02*
X69750Y-75750D01*
X69750Y-75750D02*
X69750Y-77250D01*
X56270Y-60275D02*
X53270Y-60275D01*
X56270Y-66275D02*
X53270Y-66275D01*
X53270Y-60275D02*
X53270Y-66275D01*
X56270Y-66275D02*
X56270Y-60275D01*
X110250Y-55000D02*
X110750Y-55000D01*
X109500Y-54750D02*
X109500Y-55250D01*
X109250Y-55000D02*
X109750Y-55000D01*
X110750Y-55750D02*
X110750Y-56000D01*
X109250Y-55750D02*
X109250Y-56000D01*
X108900Y-51250D02*
X111100Y-51250D01*
X108900Y-55750D02*
X111100Y-55750D01*
X111100Y-51250D02*
X111100Y-55750D01*
X108900Y-51250D02*
X108900Y-55750D01*
X94500Y-55750D02*
X94500Y-56250D01*
X94750Y-55000D02*
X94250Y-55000D01*
X94500Y-54750D02*
X94500Y-55250D01*
X93750Y-56250D02*
X93500Y-56250D01*
X93750Y-54750D02*
X93500Y-54750D01*
X98250Y-54400D02*
X98250Y-56600D01*
X93750Y-54400D02*
X93750Y-56600D01*
X98250Y-56600D02*
X93750Y-56600D01*
X98250Y-54400D02*
X93750Y-54400D01*
X90000Y-76500D02*
X90000Y-76000D01*
X89750Y-77250D02*
X90250Y-77250D01*
X90000Y-77500D02*
X90000Y-77000D01*
X90750Y-76000D02*
X91000Y-76000D01*
X90750Y-77500D02*
X91000Y-77500D01*
X86250Y-77850D02*
X86250Y-75650D01*
X90750Y-77850D02*
X90750Y-75650D01*
X86250Y-75650D02*
X90750Y-75650D01*
X86250Y-77850D02*
X90750Y-77850D01*
X104500Y-55750D02*
X104500Y-56250D01*
X104750Y-55000D02*
X104250Y-55000D01*
X104500Y-54750D02*
X104500Y-55250D01*
X103750Y-56250D02*
X103500Y-56250D01*
X103750Y-54750D02*
X103500Y-54750D01*
X108250Y-54400D02*
X108250Y-56600D01*
X103750Y-54400D02*
X103750Y-56600D01*
X108250Y-56600D02*
X103750Y-56600D01*
X108250Y-54400D02*
X103750Y-54400D01*
X114500Y-55750D02*
X114500Y-56250D01*
X114750Y-55000D02*
X114250Y-55000D01*
X114500Y-54750D02*
X114500Y-55250D01*
X113750Y-56250D02*
X113500Y-56250D01*
X113750Y-54750D02*
X113500Y-54750D01*
X118250Y-54400D02*
X118250Y-56600D01*
X113750Y-54400D02*
X113750Y-56600D01*
X118250Y-56600D02*
X113750Y-56600D01*
X118250Y-54400D02*
X113750Y-54400D01*
X53000Y-72000D02*
X56500Y-72000D01*
X53000Y-67000D02*
X56500Y-67000D01*
X56500Y-67000D02*
X56500Y-72000D01*
X53000Y-72000D02*
X53000Y-67000D01*
X55250Y-71250D02*
X55750Y-71250D01*
X53750Y-71250D02*
X54250Y-71250D01*
X54000Y-71000D02*
X54000Y-71500D01*
X48750Y-67500D02*
X52250Y-67500D01*
X48750Y-62500D02*
X52250Y-62500D01*
X52250Y-62500D02*
X52250Y-67500D01*
X48750Y-67500D02*
X48750Y-62500D01*
X51000Y-66750D02*
X51500Y-66750D01*
X49500Y-66750D02*
X50000Y-66750D01*
X49750Y-66500D02*
X49750Y-67000D01*
G54D13*
X51750Y-69750D02*
X51750Y-71750D01*
X50750Y-69750D02*
X50750Y-71750D01*
X49750Y-69750D02*
X49750Y-71750D01*
X52250Y-71750D02*
X48750Y-71750D01*
X48750Y-71750D02*
X48750Y-77750D01*
X48750Y-77750D02*
X52750Y-77750D01*
X52250Y-71750D02*
X52750Y-71750D01*
X49250Y-74750D02*
X52750Y-74750D01*
X49250Y-74750D02*
X48750Y-74750D01*
X52750Y-71750D02*
X52750Y-77750D01*
G54D10*
X51000Y-48100D02*
X54800Y-48100D01*
X51000Y-49700D02*
X51000Y-48100D01*
X54800Y-49700D02*
X54800Y-48100D01*
X51000Y-52700D02*
X51000Y-50600D01*
X51000Y-52700D02*
X54800Y-52700D01*
X54800Y-52700D02*
X54800Y-50600D01*
X53650Y-50147D02*
X52150Y-50147D01*
X52900Y-49397D02*
X52900Y-50897D01*
X53650Y-50147D02*
G75*
G03X53650Y-50147I-750J0D01*
G74*
G01*
X61000Y-48100D02*
X64800Y-48100D01*
X61000Y-49700D02*
X61000Y-48100D01*
X64800Y-49700D02*
X64800Y-48100D01*
X61000Y-52700D02*
X61000Y-50600D01*
X61000Y-52700D02*
X64800Y-52700D01*
X64800Y-52700D02*
X64800Y-50600D01*
X63650Y-50147D02*
X62150Y-50147D01*
X62900Y-49397D02*
X62900Y-50897D01*
X63650Y-50147D02*
G75*
G03X63650Y-50147I-750J0D01*
G74*
G01*
X71000Y-48100D02*
X74800Y-48100D01*
X71000Y-49700D02*
X71000Y-48100D01*
X74800Y-49700D02*
X74800Y-48100D01*
X71000Y-52700D02*
X71000Y-50600D01*
X71000Y-52700D02*
X74800Y-52700D01*
X74800Y-52700D02*
X74800Y-50600D01*
X73650Y-50147D02*
X72150Y-50147D01*
X72900Y-49397D02*
X72900Y-50897D01*
X73650Y-50147D02*
G75*
G03X73650Y-50147I-750J0D01*
G74*
G01*
X81000Y-48100D02*
X84800Y-48100D01*
X81000Y-49700D02*
X81000Y-48100D01*
X84800Y-49700D02*
X84800Y-48100D01*
X81000Y-52700D02*
X81000Y-50600D01*
X81000Y-52700D02*
X84800Y-52700D01*
X84800Y-52700D02*
X84800Y-50600D01*
X83650Y-50147D02*
X82150Y-50147D01*
X82900Y-49397D02*
X82900Y-50897D01*
X83650Y-50147D02*
G75*
G03X83650Y-50147I-750J0D01*
G74*
G01*
X92250Y-48100D02*
X96050Y-48100D01*
X92250Y-49700D02*
X92250Y-48100D01*
X96050Y-49700D02*
X96050Y-48100D01*
X92250Y-52700D02*
X92250Y-50600D01*
X92250Y-52700D02*
X96050Y-52700D01*
X96050Y-52700D02*
X96050Y-50600D01*
X94900Y-50147D02*
X93400Y-50147D01*
X94150Y-49397D02*
X94150Y-50897D01*
X94900Y-50147D02*
G75*
G03X94900Y-50147I-750J0D01*
G74*
G01*
X102250Y-48100D02*
X106050Y-48100D01*
X102250Y-49700D02*
X102250Y-48100D01*
X106050Y-49700D02*
X106050Y-48100D01*
X102250Y-52700D02*
X102250Y-50600D01*
X102250Y-52700D02*
X106050Y-52700D01*
X106050Y-52700D02*
X106050Y-50600D01*
X104900Y-50147D02*
X103400Y-50147D01*
X104150Y-49397D02*
X104150Y-50897D01*
X104900Y-50147D02*
G75*
G03X104900Y-50147I-750J0D01*
G74*
G01*
X112250Y-48100D02*
X116050Y-48100D01*
X112250Y-49700D02*
X112250Y-48100D01*
X116050Y-49700D02*
X116050Y-48100D01*
X112250Y-52700D02*
X112250Y-50600D01*
X112250Y-52700D02*
X116050Y-52700D01*
X116050Y-52700D02*
X116050Y-50600D01*
X114900Y-50147D02*
X113400Y-50147D01*
X114150Y-49397D02*
X114150Y-50897D01*
X114900Y-50147D02*
G75*
G03X114900Y-50147I-750J0D01*
G74*
G01*
X61000Y-61225D02*
X64800Y-61225D01*
X61000Y-62825D02*
X61000Y-61225D01*
X64800Y-62825D02*
X64800Y-61225D01*
X61000Y-65825D02*
X61000Y-63725D01*
X61000Y-65825D02*
X64800Y-65825D01*
X64800Y-65825D02*
X64800Y-63725D01*
X63650Y-63272D02*
X62150Y-63272D01*
X62900Y-62522D02*
X62900Y-64022D01*
X63650Y-63272D02*
G75*
G03X63650Y-63272I-750J0D01*
G74*
G01*
X71000Y-61225D02*
X74800Y-61225D01*
X71000Y-62825D02*
X71000Y-61225D01*
X74800Y-62825D02*
X74800Y-61225D01*
X71000Y-65825D02*
X71000Y-63725D01*
X71000Y-65825D02*
X74800Y-65825D01*
X74800Y-65825D02*
X74800Y-63725D01*
X73650Y-63272D02*
X72150Y-63272D01*
X72900Y-62522D02*
X72900Y-64022D01*
X73650Y-63272D02*
G75*
G03X73650Y-63272I-750J0D01*
G74*
G01*
X81000Y-61225D02*
X84800Y-61225D01*
X81000Y-62825D02*
X81000Y-61225D01*
X84800Y-62825D02*
X84800Y-61225D01*
X81000Y-65825D02*
X81000Y-63725D01*
X81000Y-65825D02*
X84800Y-65825D01*
X84800Y-65825D02*
X84800Y-63725D01*
X83650Y-63272D02*
X82150Y-63272D01*
X82900Y-62522D02*
X82900Y-64022D01*
X83650Y-63272D02*
G75*
G03X83650Y-63272I-750J0D01*
G74*
G01*
X102250Y-61225D02*
X106050Y-61225D01*
X102250Y-62825D02*
X102250Y-61225D01*
X106050Y-62825D02*
X106050Y-61225D01*
X102250Y-65825D02*
X102250Y-63725D01*
X102250Y-65825D02*
X106050Y-65825D01*
X106050Y-65825D02*
X106050Y-63725D01*
X104900Y-63272D02*
X103400Y-63272D01*
X104150Y-62522D02*
X104150Y-64022D01*
X104900Y-63272D02*
G75*
G03X104900Y-63272I-750J0D01*
G74*
G01*
X112250Y-61225D02*
X116050Y-61225D01*
X112250Y-62825D02*
X112250Y-61225D01*
X116050Y-62825D02*
X116050Y-61225D01*
X112250Y-65825D02*
X112250Y-63725D01*
X112250Y-65825D02*
X116050Y-65825D01*
X116050Y-65825D02*
X116050Y-63725D01*
X114900Y-63272D02*
X113400Y-63272D01*
X114150Y-62522D02*
X114150Y-64022D01*
X114900Y-63272D02*
G75*
G03X114900Y-63272I-750J0D01*
G74*
G01*
X64800Y-78450D02*
X61000Y-78450D01*
X64800Y-76850D02*
X64800Y-78450D01*
X61000Y-76850D02*
X61000Y-78450D01*
X64800Y-73850D02*
X64800Y-75950D01*
X64800Y-73850D02*
X61000Y-73850D01*
X61000Y-73850D02*
X61000Y-75950D01*
X62150Y-76403D02*
X63650Y-76403D01*
X62900Y-77153D02*
X62900Y-75653D01*
X63650Y-76403D02*
G75*
G03X63650Y-76403I-750J0D01*
G74*
G01*
X74800Y-78450D02*
X71000Y-78450D01*
X74800Y-76850D02*
X74800Y-78450D01*
X71000Y-76850D02*
X71000Y-78450D01*
X74800Y-73850D02*
X74800Y-75950D01*
X74800Y-73850D02*
X71000Y-73850D01*
X71000Y-73850D02*
X71000Y-75950D01*
X72150Y-76403D02*
X73650Y-76403D01*
X72900Y-77153D02*
X72900Y-75653D01*
X73650Y-76403D02*
G75*
G03X73650Y-76403I-750J0D01*
G74*
G01*
X84800Y-78450D02*
X81000Y-78450D01*
X84800Y-76850D02*
X84800Y-78450D01*
X81000Y-76850D02*
X81000Y-78450D01*
X84800Y-73850D02*
X84800Y-75950D01*
X84800Y-73850D02*
X81000Y-73850D01*
X81000Y-73850D02*
X81000Y-75950D01*
X82150Y-76403D02*
X83650Y-76403D01*
X82900Y-77153D02*
X82900Y-75653D01*
X83650Y-76403D02*
G75*
G03X83650Y-76403I-750J0D01*
G74*
G01*
X106050Y-78450D02*
X102250Y-78450D01*
X106050Y-76850D02*
X106050Y-78450D01*
X102250Y-76850D02*
X102250Y-78450D01*
X106050Y-73850D02*
X106050Y-75950D01*
X106050Y-73850D02*
X102250Y-73850D01*
X102250Y-73850D02*
X102250Y-75950D01*
X103400Y-76403D02*
X104900Y-76403D01*
X104150Y-77153D02*
X104150Y-75653D01*
X104900Y-76403D02*
G75*
G03X104900Y-76403I-750J0D01*
G74*
G01*
X116050Y-78450D02*
X112250Y-78450D01*
X116050Y-76850D02*
X116050Y-78450D01*
X112250Y-76850D02*
X112250Y-78450D01*
X116050Y-73850D02*
X116050Y-75950D01*
X116050Y-73850D02*
X112250Y-73850D01*
X112250Y-73850D02*
X112250Y-75950D01*
X113400Y-76403D02*
X114900Y-76403D01*
X114150Y-77153D02*
X114150Y-75653D01*
X114900Y-76403D02*
G75*
G03X114900Y-76403I-750J0D01*
G74*
G01*
X69250Y-61500D02*
X66250Y-61500D01*
X66250Y-61500D02*
G75*
G03X65750Y-62000I0J-500D01*
G74*
G01*
X69750Y-62000D02*
G75*
G03X69250Y-61500I-500J0D01*
G74*
G01*
X86000Y-60250D02*
X86000Y-63250D01*
X86000Y-63250D02*
G75*
G03X86500Y-63750I500J0D01*
G74*
G01*
X86500Y-59750D02*
G75*
G03X86000Y-60250I0J-500D01*
G74*
G01*
X88250Y-71500D02*
X88250Y-74500D01*
X88250Y-74500D02*
G75*
G03X88750Y-75000I500J0D01*
G74*
G01*
X88750Y-71000D02*
G75*
G03X88250Y-71500I0J-500D01*
G74*
G01*
X59306Y-51250D02*
G75*
G03X59306Y-51250I-556J0D01*
G74*
G01*
X110556Y-48250D02*
G75*
G03X110556Y-48250I-556J0D01*
G74*
G01*
X115306Y-69750D02*
G75*
G03X115306Y-69750I-556J0D01*
G74*
G01*
G54D14*
G36*
X78935Y-62802D02*
X78948Y-62802D01*
X78957Y-62803D01*
X78964Y-62805D01*
X78971Y-62808D01*
X78976Y-62813D01*
X78981Y-62817D01*
X78985Y-62822D01*
X78988Y-62827D01*
X78991Y-62833D01*
X78993Y-62841D01*
X78994Y-62850D01*
X78995Y-62861D01*
X78996Y-62875D01*
X78996Y-62891D01*
X78997Y-62911D01*
X78997Y-62930D01*
X78996Y-62950D01*
X78996Y-62967D01*
X78996Y-62981D01*
X78996Y-62992D01*
X78995Y-63001D01*
X78994Y-63007D01*
X78994Y-63009D01*
X78989Y-63024D01*
X78983Y-63035D01*
X78974Y-63044D01*
X78963Y-63050D01*
X78949Y-63052D01*
X78941Y-63053D01*
X78929Y-63053D01*
X78929Y-63039D01*
X78929Y-63025D01*
X78942Y-63024D01*
X78952Y-63022D01*
X78959Y-63020D01*
X78964Y-63016D01*
X78968Y-63010D01*
X78970Y-63001D01*
X78972Y-62989D01*
X78973Y-62985D01*
X78973Y-62976D01*
X78974Y-62964D01*
X78974Y-62950D01*
X78974Y-62936D01*
X78974Y-62921D01*
X78973Y-62905D01*
X78973Y-62891D01*
X78972Y-62878D01*
X78971Y-62867D01*
X78971Y-62858D01*
X78970Y-62852D01*
X78969Y-62851D01*
X78966Y-62842D01*
X78960Y-62836D01*
X78952Y-62832D01*
X78942Y-62831D01*
X78940Y-62831D01*
X78928Y-62831D01*
X78920Y-62833D01*
X78913Y-62838D01*
X78909Y-62843D01*
X78908Y-62845D01*
X78907Y-62847D01*
X78906Y-62850D01*
X78906Y-62854D01*
X78905Y-62860D01*
X78905Y-62867D01*
X78905Y-62876D01*
X78905Y-62889D01*
X78904Y-62904D01*
X78904Y-62921D01*
X78904Y-62937D01*
X78903Y-62953D01*
X78903Y-62968D01*
X78902Y-62980D01*
X78902Y-62991D01*
X78901Y-62999D01*
X78901Y-63003D01*
X78897Y-63018D01*
X78892Y-63030D01*
X78886Y-63039D01*
X78878Y-63046D01*
X78867Y-63050D01*
X78854Y-63052D01*
X78851Y-63052D01*
X78835Y-63052D01*
X78821Y-63050D01*
X78810Y-63044D01*
X78802Y-63036D01*
X78795Y-63024D01*
X78790Y-63009D01*
X78790Y-63009D01*
X78789Y-63002D01*
X78788Y-62993D01*
X78787Y-62980D01*
X78786Y-62966D01*
X78786Y-62951D01*
X78786Y-62935D01*
X78786Y-62919D01*
X78786Y-62904D01*
X78786Y-62891D01*
X78787Y-62880D01*
X78788Y-62863D01*
X78791Y-62850D01*
X78793Y-62839D01*
X78797Y-62830D01*
X78802Y-62823D01*
X78805Y-62819D01*
X78813Y-62813D01*
X78822Y-62809D01*
X78833Y-62807D01*
X78838Y-62807D01*
X78848Y-62807D01*
X78848Y-62821D01*
X78848Y-62835D01*
X78838Y-62836D01*
X78828Y-62838D01*
X78820Y-62843D01*
X78816Y-62849D01*
X78814Y-62856D01*
X78812Y-62866D01*
X78811Y-62880D01*
X78810Y-62898D01*
X78810Y-62920D01*
X78810Y-62943D01*
X78811Y-62960D01*
X78811Y-62975D01*
X78812Y-62986D01*
X78812Y-62995D01*
X78814Y-63002D01*
X78815Y-63007D01*
X78817Y-63011D01*
X78820Y-63015D01*
X78822Y-63017D01*
X78828Y-63020D01*
X78836Y-63023D01*
X78845Y-63024D01*
X78854Y-63024D01*
X78859Y-63022D01*
X78864Y-63020D01*
X78868Y-63017D01*
X78871Y-63012D01*
X78872Y-63010D01*
X78877Y-63001D01*
X78878Y-62925D01*
X78878Y-62906D01*
X78879Y-62891D01*
X78879Y-62878D01*
X78879Y-62868D01*
X78879Y-62860D01*
X78880Y-62853D01*
X78880Y-62848D01*
X78881Y-62844D01*
X78882Y-62841D01*
X78883Y-62838D01*
X78888Y-62825D01*
X78894Y-62816D01*
X78902Y-62809D01*
X78907Y-62806D01*
X78912Y-62804D01*
X78917Y-62803D01*
X78922Y-62802D01*
X78930Y-62802D01*
X78935Y-62802D01*
X78935Y-62802D01*
X78935Y-62802D01*
G37*
G36*
X78892Y-62473D02*
X78911Y-62473D01*
X78928Y-62474D01*
X78942Y-62476D01*
X78953Y-62478D01*
X78959Y-62480D01*
X78972Y-62487D01*
X78982Y-62496D01*
X78987Y-62505D01*
X78906Y-62505D01*
X78891Y-62505D01*
X78875Y-62505D01*
X78863Y-62505D01*
X78854Y-62505D01*
X78847Y-62506D01*
X78842Y-62506D01*
X78838Y-62507D01*
X78835Y-62507D01*
X78832Y-62508D01*
X78830Y-62509D01*
X78822Y-62516D01*
X78816Y-62524D01*
X78812Y-62535D01*
X78811Y-62540D01*
X78811Y-62548D01*
X78810Y-62559D01*
X78810Y-62573D01*
X78810Y-62590D01*
X78810Y-62609D01*
X78810Y-62616D01*
X78810Y-62636D01*
X78810Y-62653D01*
X78810Y-62667D01*
X78810Y-62678D01*
X78811Y-62687D01*
X78812Y-62694D01*
X78813Y-62699D01*
X78814Y-62704D01*
X78816Y-62707D01*
X78818Y-62711D01*
X78820Y-62712D01*
X78822Y-62715D01*
X78826Y-62718D01*
X78829Y-62720D01*
X78834Y-62722D01*
X78840Y-62723D01*
X78849Y-62723D01*
X78860Y-62724D01*
X78873Y-62724D01*
X78890Y-62724D01*
X78904Y-62724D01*
X78917Y-62724D01*
X78929Y-62724D01*
X78938Y-62723D01*
X78945Y-62723D01*
X78948Y-62722D01*
X78957Y-62718D01*
X78964Y-62710D01*
X78969Y-62700D01*
X78972Y-62687D01*
X78973Y-62681D01*
X78973Y-62672D01*
X78973Y-62661D01*
X78973Y-62648D01*
X78973Y-62634D01*
X78973Y-62619D01*
X78973Y-62603D01*
X78973Y-62588D01*
X78973Y-62574D01*
X78972Y-62560D01*
X78972Y-62549D01*
X78971Y-62540D01*
X78971Y-62534D01*
X78970Y-62531D01*
X78965Y-62521D01*
X78958Y-62513D01*
X78951Y-62509D01*
X78948Y-62508D01*
X78945Y-62507D01*
X78941Y-62506D01*
X78935Y-62506D01*
X78928Y-62505D01*
X78919Y-62505D01*
X78906Y-62505D01*
X78987Y-62505D01*
X78989Y-62509D01*
X78994Y-62524D01*
X78995Y-62525D01*
X78995Y-62530D01*
X78996Y-62539D01*
X78996Y-62550D01*
X78996Y-62563D01*
X78997Y-62578D01*
X78997Y-62594D01*
X78997Y-62610D01*
X78997Y-62627D01*
X78996Y-62644D01*
X78996Y-62660D01*
X78996Y-62674D01*
X78995Y-62687D01*
X78995Y-62697D01*
X78994Y-62705D01*
X78994Y-62708D01*
X78989Y-62723D01*
X78981Y-62735D01*
X78971Y-62744D01*
X78961Y-62749D01*
X78952Y-62752D01*
X78940Y-62754D01*
X78924Y-62755D01*
X78905Y-62756D01*
X78891Y-62756D01*
X78869Y-62756D01*
X78851Y-62755D01*
X78836Y-62753D01*
X78823Y-62749D01*
X78813Y-62745D01*
X78805Y-62739D01*
X78799Y-62731D01*
X78794Y-62722D01*
X78790Y-62713D01*
X78789Y-62710D01*
X78789Y-62706D01*
X78788Y-62702D01*
X78787Y-62697D01*
X78787Y-62691D01*
X78787Y-62683D01*
X78786Y-62673D01*
X78786Y-62660D01*
X78786Y-62644D01*
X78786Y-62630D01*
X78785Y-62605D01*
X78785Y-62583D01*
X78786Y-62565D01*
X78786Y-62550D01*
X78787Y-62537D01*
X78789Y-62526D01*
X78791Y-62517D01*
X78793Y-62510D01*
X78796Y-62503D01*
X78799Y-62498D01*
X78803Y-62493D01*
X78804Y-62493D01*
X78810Y-62487D01*
X78818Y-62482D01*
X78828Y-62479D01*
X78839Y-62476D01*
X78853Y-62474D01*
X78870Y-62473D01*
X78890Y-62473D01*
X78892Y-62473D01*
X78892Y-62473D01*
X78892Y-62473D01*
G37*
G36*
X78925Y-61747D02*
X78943Y-61748D01*
X78957Y-61750D01*
X78969Y-61753D01*
X78978Y-61759D01*
X78985Y-61767D01*
X78991Y-61777D01*
X78992Y-61780D01*
X78993Y-61783D01*
X78994Y-61786D01*
X78994Y-61789D01*
X78995Y-61793D01*
X78995Y-61799D01*
X78995Y-61806D01*
X78996Y-61816D01*
X78996Y-61828D01*
X78996Y-61842D01*
X78996Y-61860D01*
X78996Y-61872D01*
X78996Y-61894D01*
X78996Y-61913D01*
X78996Y-61928D01*
X78996Y-61940D01*
X78995Y-61949D01*
X78995Y-61957D01*
X78995Y-61961D01*
X78994Y-61964D01*
X78989Y-61979D01*
X78981Y-61991D01*
X78971Y-62000D01*
X78963Y-62004D01*
X78957Y-62007D01*
X78950Y-62009D01*
X78943Y-62010D01*
X78934Y-62011D01*
X78924Y-62012D01*
X78911Y-62012D01*
X78895Y-62012D01*
X78884Y-62012D01*
X78869Y-62011D01*
X78858Y-62011D01*
X78849Y-62011D01*
X78842Y-62010D01*
X78837Y-62010D01*
X78832Y-62009D01*
X78829Y-62008D01*
X78826Y-62007D01*
X78813Y-62001D01*
X78803Y-61993D01*
X78796Y-61982D01*
X78791Y-61969D01*
X78787Y-61953D01*
X78787Y-61950D01*
X78787Y-61942D01*
X78786Y-61931D01*
X78786Y-61917D01*
X78785Y-61902D01*
X78785Y-61886D01*
X78785Y-61870D01*
X78785Y-61854D01*
X78786Y-61839D01*
X78786Y-61826D01*
X78786Y-61815D01*
X78787Y-61807D01*
X78787Y-61806D01*
X78790Y-61790D01*
X78795Y-61777D01*
X78801Y-61767D01*
X78810Y-61759D01*
X78821Y-61755D01*
X78835Y-61752D01*
X78839Y-61752D01*
X78855Y-61751D01*
X78855Y-61765D01*
X78855Y-61779D01*
X78842Y-61780D01*
X78832Y-61781D01*
X78824Y-61784D01*
X78818Y-61789D01*
X78814Y-61795D01*
X78813Y-61797D01*
X78813Y-61799D01*
X78812Y-61802D01*
X78812Y-61806D01*
X78811Y-61811D01*
X78811Y-61818D01*
X78811Y-61828D01*
X78810Y-61840D01*
X78810Y-61855D01*
X78810Y-61872D01*
X78810Y-61892D01*
X78810Y-61909D01*
X78810Y-61923D01*
X78810Y-61934D01*
X78811Y-61943D01*
X78812Y-61950D01*
X78813Y-61955D01*
X78815Y-61960D01*
X78817Y-61964D01*
X78819Y-61967D01*
X78821Y-61969D01*
X78824Y-61973D01*
X78827Y-61975D01*
X78831Y-61977D01*
X78836Y-61979D01*
X78842Y-61980D01*
X78850Y-61980D01*
X78860Y-61981D01*
X78873Y-61981D01*
X78890Y-61981D01*
X78892Y-61981D01*
X78907Y-61981D01*
X78919Y-61981D01*
X78928Y-61981D01*
X78935Y-61980D01*
X78940Y-61980D01*
X78944Y-61979D01*
X78947Y-61979D01*
X78950Y-61977D01*
X78952Y-61976D01*
X78958Y-61973D01*
X78962Y-61969D01*
X78966Y-61963D01*
X78967Y-61960D01*
X78973Y-61949D01*
X78974Y-61894D01*
X78974Y-61868D01*
X78974Y-61846D01*
X78973Y-61828D01*
X78972Y-61813D01*
X78971Y-61802D01*
X78969Y-61794D01*
X78968Y-61791D01*
X78963Y-61785D01*
X78956Y-61781D01*
X78947Y-61778D01*
X78939Y-61777D01*
X78925Y-61776D01*
X78925Y-61761D01*
X78925Y-61747D01*
X78925Y-61747D01*
X78925Y-61747D01*
G37*
G36*
X78925Y-60338D02*
X78941Y-60339D01*
X78949Y-60340D01*
X78958Y-60341D01*
X78964Y-60342D01*
X78965Y-60342D01*
X78974Y-60347D01*
X78983Y-60355D01*
X78989Y-60366D01*
X78991Y-60370D01*
X78992Y-60372D01*
X78993Y-60375D01*
X78994Y-60378D01*
X78995Y-60382D01*
X78995Y-60386D01*
X78995Y-60392D01*
X78996Y-60400D01*
X78996Y-60410D01*
X78996Y-60422D01*
X78996Y-60438D01*
X78996Y-60456D01*
X78996Y-60463D01*
X78996Y-60485D01*
X78996Y-60503D01*
X78996Y-60519D01*
X78996Y-60531D01*
X78995Y-60540D01*
X78995Y-60547D01*
X78995Y-60552D01*
X78994Y-60555D01*
X78989Y-60570D01*
X78981Y-60582D01*
X78970Y-60591D01*
X78958Y-60597D01*
X78955Y-60598D01*
X78951Y-60599D01*
X78947Y-60600D01*
X78942Y-60601D01*
X78936Y-60601D01*
X78928Y-60602D01*
X78917Y-60602D01*
X78904Y-60602D01*
X78891Y-60602D01*
X78875Y-60602D01*
X78862Y-60602D01*
X78852Y-60601D01*
X78845Y-60601D01*
X78839Y-60601D01*
X78834Y-60600D01*
X78830Y-60599D01*
X78828Y-60599D01*
X78815Y-60593D01*
X78804Y-60584D01*
X78796Y-60573D01*
X78791Y-60560D01*
X78787Y-60543D01*
X78787Y-60540D01*
X78786Y-60532D01*
X78786Y-60521D01*
X78786Y-60508D01*
X78785Y-60493D01*
X78785Y-60477D01*
X78785Y-60461D01*
X78785Y-60445D01*
X78786Y-60430D01*
X78786Y-60417D01*
X78786Y-60406D01*
X78787Y-60398D01*
X78787Y-60397D01*
X78790Y-60382D01*
X78793Y-60370D01*
X78799Y-60361D01*
X78801Y-60357D01*
X78809Y-60351D01*
X78818Y-60346D01*
X78830Y-60344D01*
X78839Y-60343D01*
X78855Y-60342D01*
X78855Y-60356D01*
X78855Y-60370D01*
X78842Y-60371D01*
X78832Y-60372D01*
X78824Y-60375D01*
X78818Y-60380D01*
X78814Y-60386D01*
X78813Y-60388D01*
X78813Y-60390D01*
X78812Y-60393D01*
X78812Y-60397D01*
X78811Y-60402D01*
X78811Y-60409D01*
X78811Y-60419D01*
X78810Y-60431D01*
X78810Y-60446D01*
X78810Y-60461D01*
X78810Y-60482D01*
X78810Y-60499D01*
X78810Y-60512D01*
X78810Y-60524D01*
X78811Y-60533D01*
X78812Y-60540D01*
X78813Y-60546D01*
X78814Y-60550D01*
X78816Y-60554D01*
X78819Y-60557D01*
X78820Y-60558D01*
X78823Y-60562D01*
X78826Y-60565D01*
X78830Y-60567D01*
X78835Y-60569D01*
X78841Y-60570D01*
X78849Y-60571D01*
X78860Y-60572D01*
X78874Y-60572D01*
X78884Y-60572D01*
X78903Y-60572D01*
X78919Y-60572D01*
X78931Y-60572D01*
X78941Y-60570D01*
X78949Y-60569D01*
X78955Y-60566D01*
X78960Y-60562D01*
X78964Y-60558D01*
X78967Y-60552D01*
X78968Y-60550D01*
X78969Y-60547D01*
X78971Y-60544D01*
X78971Y-60541D01*
X78972Y-60537D01*
X78973Y-60531D01*
X78973Y-60524D01*
X78973Y-60515D01*
X78973Y-60503D01*
X78974Y-60488D01*
X78974Y-60485D01*
X78974Y-60459D01*
X78974Y-60437D01*
X78973Y-60418D01*
X78972Y-60404D01*
X78970Y-60392D01*
X78969Y-60385D01*
X78968Y-60382D01*
X78963Y-60375D01*
X78956Y-60371D01*
X78947Y-60369D01*
X78939Y-60369D01*
X78925Y-60369D01*
X78925Y-60353D01*
X78925Y-60338D01*
X78925Y-60338D01*
X78925Y-60338D01*
G37*
G36*
X78932Y-59787D02*
X78941Y-59787D01*
X78951Y-59787D01*
X78957Y-59788D01*
X78962Y-59789D01*
X78966Y-59790D01*
X78970Y-59793D01*
X78971Y-59793D01*
X78977Y-59798D01*
X78982Y-59803D01*
X78986Y-59810D01*
X78987Y-59811D01*
X78990Y-59820D01*
X78993Y-59829D01*
X78995Y-59836D01*
X78995Y-59841D01*
X78996Y-59849D01*
X78996Y-59860D01*
X78996Y-59873D01*
X78996Y-59888D01*
X78996Y-59903D01*
X78996Y-59919D01*
X78996Y-59935D01*
X78996Y-59950D01*
X78996Y-59963D01*
X78996Y-59975D01*
X78995Y-59984D01*
X78995Y-59990D01*
X78995Y-59991D01*
X78992Y-60002D01*
X78987Y-60014D01*
X78980Y-60023D01*
X78977Y-60026D01*
X78968Y-60032D01*
X78957Y-60036D01*
X78944Y-60038D01*
X78940Y-60038D01*
X78929Y-60038D01*
X78929Y-60024D01*
X78929Y-60010D01*
X78941Y-60009D01*
X78949Y-60008D01*
X78955Y-60006D01*
X78960Y-60004D01*
X78964Y-60000D01*
X78968Y-59995D01*
X78970Y-59987D01*
X78972Y-59978D01*
X78973Y-59966D01*
X78973Y-59951D01*
X78974Y-59933D01*
X78974Y-59916D01*
X78974Y-59895D01*
X78973Y-59878D01*
X78973Y-59863D01*
X78972Y-59851D01*
X78970Y-59842D01*
X78968Y-59834D01*
X78966Y-59829D01*
X78963Y-59824D01*
X78959Y-59821D01*
X78958Y-59820D01*
X78955Y-59818D01*
X78951Y-59817D01*
X78945Y-59816D01*
X78937Y-59816D01*
X78936Y-59816D01*
X78928Y-59816D01*
X78922Y-59817D01*
X78919Y-59818D01*
X78916Y-59820D01*
X78916Y-59820D01*
X78913Y-59822D01*
X78911Y-59824D01*
X78909Y-59827D01*
X78908Y-59831D01*
X78907Y-59835D01*
X78906Y-59841D01*
X78905Y-59849D01*
X78905Y-59859D01*
X78905Y-59872D01*
X78904Y-59888D01*
X78904Y-59906D01*
X78903Y-59928D01*
X78903Y-59947D01*
X78902Y-59963D01*
X78901Y-59977D01*
X78900Y-59988D01*
X78899Y-59997D01*
X78897Y-60004D01*
X78895Y-60010D01*
X78892Y-60016D01*
X78889Y-60020D01*
X78888Y-60022D01*
X78882Y-60029D01*
X78873Y-60033D01*
X78862Y-60036D01*
X78848Y-60037D01*
X78847Y-60037D01*
X78834Y-60037D01*
X78824Y-60035D01*
X78817Y-60033D01*
X78810Y-60029D01*
X78807Y-60026D01*
X78800Y-60019D01*
X78795Y-60010D01*
X78791Y-59998D01*
X78790Y-59993D01*
X78788Y-59987D01*
X78788Y-59977D01*
X78787Y-59965D01*
X78786Y-59950D01*
X78786Y-59935D01*
X78786Y-59918D01*
X78786Y-59902D01*
X78786Y-59886D01*
X78787Y-59871D01*
X78787Y-59858D01*
X78788Y-59847D01*
X78789Y-59839D01*
X78790Y-59838D01*
X78793Y-59825D01*
X78796Y-59816D01*
X78801Y-59809D01*
X78806Y-59803D01*
X78807Y-59802D01*
X78813Y-59798D01*
X78820Y-59795D01*
X78829Y-59793D01*
X78837Y-59791D01*
X78848Y-59790D01*
X78848Y-59805D01*
X78848Y-59821D01*
X78840Y-59821D01*
X78830Y-59822D01*
X78822Y-59826D01*
X78816Y-59833D01*
X78813Y-59841D01*
X78813Y-59845D01*
X78812Y-59852D01*
X78812Y-59862D01*
X78811Y-59875D01*
X78811Y-59888D01*
X78810Y-59902D01*
X78810Y-59917D01*
X78810Y-59931D01*
X78810Y-59944D01*
X78810Y-59956D01*
X78811Y-59965D01*
X78811Y-59972D01*
X78811Y-59973D01*
X78814Y-59986D01*
X78818Y-59996D01*
X78823Y-60002D01*
X78831Y-60006D01*
X78841Y-60008D01*
X78844Y-60008D01*
X78855Y-60008D01*
X78862Y-60006D01*
X78868Y-60002D01*
X78872Y-59996D01*
X78872Y-59995D01*
X78874Y-59992D01*
X78874Y-59990D01*
X78875Y-59987D01*
X78876Y-59984D01*
X78876Y-59979D01*
X78877Y-59973D01*
X78877Y-59964D01*
X78877Y-59953D01*
X78877Y-59940D01*
X78878Y-59923D01*
X78878Y-59910D01*
X78878Y-59890D01*
X78879Y-59873D01*
X78879Y-59859D01*
X78880Y-59848D01*
X78880Y-59838D01*
X78881Y-59831D01*
X78882Y-59825D01*
X78884Y-59820D01*
X78885Y-59815D01*
X78887Y-59811D01*
X78890Y-59807D01*
X78895Y-59799D01*
X78902Y-59794D01*
X78909Y-59790D01*
X78919Y-59788D01*
X78932Y-59787D01*
X78932Y-59787D01*
X78932Y-59787D01*
G37*
G36*
X78995Y-65486D02*
X78995Y-65501D01*
X78995Y-65516D01*
X78948Y-65516D01*
X78900Y-65516D01*
X78900Y-65614D01*
X78900Y-65713D01*
X78948Y-65713D01*
X78995Y-65713D01*
X78995Y-65728D01*
X78995Y-65743D01*
X78891Y-65743D01*
X78787Y-65743D01*
X78787Y-65728D01*
X78788Y-65714D01*
X78832Y-65713D01*
X78876Y-65713D01*
X78876Y-65614D01*
X78876Y-65516D01*
X78831Y-65516D01*
X78787Y-65516D01*
X78787Y-65502D01*
X78788Y-65487D01*
X78891Y-65486D01*
X78995Y-65486D01*
X78995Y-65486D01*
X78995Y-65486D01*
G37*
G36*
X78994Y-65157D02*
X78994Y-65173D01*
X78995Y-65180D01*
X78995Y-65186D01*
X78994Y-65190D01*
X78994Y-65190D01*
X78992Y-65192D01*
X78988Y-65195D01*
X78981Y-65200D01*
X78974Y-65205D01*
X78972Y-65206D01*
X78951Y-65219D01*
X78951Y-65235D01*
X78926Y-65235D01*
X78924Y-65236D01*
X78919Y-65238D01*
X78912Y-65243D01*
X78904Y-65248D01*
X78894Y-65254D01*
X78883Y-65261D01*
X78871Y-65269D01*
X78860Y-65276D01*
X78849Y-65283D01*
X78839Y-65290D01*
X78830Y-65296D01*
X78822Y-65301D01*
X78817Y-65304D01*
X78815Y-65306D01*
X78815Y-65307D01*
X78817Y-65308D01*
X78821Y-65311D01*
X78828Y-65315D01*
X78837Y-65321D01*
X78847Y-65327D01*
X78858Y-65334D01*
X78870Y-65342D01*
X78881Y-65349D01*
X78892Y-65356D01*
X78903Y-65362D01*
X78911Y-65368D01*
X78919Y-65372D01*
X78924Y-65375D01*
X78926Y-65376D01*
X78926Y-65376D01*
X78926Y-65375D01*
X78926Y-65369D01*
X78927Y-65361D01*
X78927Y-65351D01*
X78927Y-65338D01*
X78927Y-65323D01*
X78927Y-65307D01*
X78927Y-65306D01*
X78927Y-65290D01*
X78927Y-65275D01*
X78927Y-65262D01*
X78927Y-65251D01*
X78926Y-65243D01*
X78926Y-65237D01*
X78926Y-65235D01*
X78926Y-65235D01*
X78951Y-65235D01*
X78951Y-65306D01*
X78951Y-65393D01*
X78973Y-65406D01*
X78994Y-65419D01*
X78994Y-65437D01*
X78995Y-65454D01*
X78990Y-65451D01*
X78987Y-65450D01*
X78982Y-65446D01*
X78974Y-65441D01*
X78963Y-65435D01*
X78951Y-65427D01*
X78937Y-65418D01*
X78922Y-65409D01*
X78905Y-65398D01*
X78887Y-65387D01*
X78886Y-65386D01*
X78788Y-65324D01*
X78788Y-65306D01*
X78788Y-65287D01*
X78891Y-65222D01*
X78994Y-65157D01*
X78994Y-65157D01*
X78994Y-65157D01*
G37*
G36*
X78995Y-64853D02*
X78995Y-64875D01*
X78995Y-64898D01*
X78905Y-64997D01*
X78815Y-65096D01*
X78905Y-65096D01*
X78995Y-65097D01*
X78995Y-65112D01*
X78995Y-65127D01*
X78891Y-65127D01*
X78788Y-65126D01*
X78787Y-65105D01*
X78787Y-65084D01*
X78800Y-65069D01*
X78804Y-65065D01*
X78810Y-65058D01*
X78817Y-65050D01*
X78827Y-65039D01*
X78838Y-65027D01*
X78850Y-65013D01*
X78864Y-64998D01*
X78877Y-64983D01*
X78890Y-64969D01*
X78967Y-64884D01*
X78877Y-64883D01*
X78788Y-64882D01*
X78787Y-64868D01*
X78787Y-64853D01*
X78891Y-64853D01*
X78995Y-64853D01*
X78995Y-64853D01*
X78995Y-64853D01*
G37*
G36*
X78896Y-64530D02*
X78909Y-64530D01*
X78921Y-64531D01*
X78930Y-64532D01*
X78932Y-64532D01*
X78949Y-64536D01*
X78963Y-64543D01*
X78974Y-64552D01*
X78980Y-64560D01*
X78891Y-64560D01*
X78874Y-64561D01*
X78860Y-64561D01*
X78850Y-64563D01*
X78841Y-64565D01*
X78833Y-64568D01*
X78827Y-64573D01*
X78824Y-64575D01*
X78822Y-64578D01*
X78819Y-64580D01*
X78818Y-64583D01*
X78816Y-64586D01*
X78815Y-64590D01*
X78814Y-64595D01*
X78813Y-64602D01*
X78813Y-64611D01*
X78813Y-64622D01*
X78812Y-64635D01*
X78812Y-64652D01*
X78812Y-64672D01*
X78812Y-64681D01*
X78811Y-64768D01*
X78891Y-64768D01*
X78970Y-64768D01*
X78970Y-64686D01*
X78970Y-64665D01*
X78970Y-64647D01*
X78970Y-64630D01*
X78970Y-64617D01*
X78969Y-64606D01*
X78969Y-64599D01*
X78968Y-64595D01*
X78964Y-64585D01*
X78958Y-64575D01*
X78949Y-64569D01*
X78948Y-64568D01*
X78941Y-64565D01*
X78933Y-64563D01*
X78923Y-64562D01*
X78911Y-64561D01*
X78896Y-64560D01*
X78891Y-64560D01*
X78980Y-64560D01*
X78983Y-64564D01*
X78989Y-64579D01*
X78991Y-64583D01*
X78991Y-64587D01*
X78992Y-64594D01*
X78993Y-64604D01*
X78993Y-64617D01*
X78994Y-64631D01*
X78994Y-64647D01*
X78994Y-64663D01*
X78995Y-64681D01*
X78995Y-64698D01*
X78995Y-64716D01*
X78995Y-64732D01*
X78995Y-64748D01*
X78995Y-64763D01*
X78994Y-64775D01*
X78994Y-64786D01*
X78994Y-64793D01*
X78993Y-64798D01*
X78993Y-64799D01*
X78990Y-64800D01*
X78985Y-64800D01*
X78976Y-64800D01*
X78964Y-64800D01*
X78950Y-64800D01*
X78935Y-64800D01*
X78917Y-64800D01*
X78898Y-64800D01*
X78889Y-64800D01*
X78788Y-64799D01*
X78788Y-64700D01*
X78788Y-64676D01*
X78788Y-64655D01*
X78788Y-64638D01*
X78789Y-64623D01*
X78789Y-64611D01*
X78789Y-64601D01*
X78790Y-64593D01*
X78791Y-64586D01*
X78792Y-64580D01*
X78793Y-64575D01*
X78795Y-64571D01*
X78796Y-64567D01*
X78804Y-64555D01*
X78814Y-64545D01*
X78827Y-64538D01*
X78843Y-64533D01*
X78848Y-64532D01*
X78857Y-64531D01*
X78869Y-64530D01*
X78882Y-64530D01*
X78896Y-64530D01*
X78896Y-64530D01*
X78896Y-64530D01*
G37*
G36*
X78995Y-64132D02*
X78995Y-64147D01*
X78995Y-64162D01*
X78905Y-64162D01*
X78815Y-64163D01*
X78905Y-64229D01*
X78995Y-64295D01*
X78994Y-64306D01*
X78994Y-64317D01*
X78905Y-64383D01*
X78816Y-64448D01*
X78905Y-64448D01*
X78995Y-64449D01*
X78995Y-64464D01*
X78995Y-64479D01*
X78891Y-64479D01*
X78787Y-64479D01*
X78787Y-64456D01*
X78788Y-64433D01*
X78873Y-64370D01*
X78889Y-64358D01*
X78904Y-64347D01*
X78917Y-64337D01*
X78929Y-64328D01*
X78940Y-64320D01*
X78948Y-64314D01*
X78954Y-64309D01*
X78958Y-64306D01*
X78958Y-64306D01*
X78957Y-64304D01*
X78953Y-64301D01*
X78946Y-64296D01*
X78937Y-64289D01*
X78926Y-64281D01*
X78914Y-64272D01*
X78900Y-64261D01*
X78885Y-64250D01*
X78877Y-64244D01*
X78861Y-64232D01*
X78846Y-64221D01*
X78832Y-64211D01*
X78820Y-64202D01*
X78810Y-64194D01*
X78801Y-64188D01*
X78795Y-64183D01*
X78791Y-64181D01*
X78791Y-64180D01*
X78789Y-64178D01*
X78788Y-64176D01*
X78787Y-64172D01*
X78787Y-64166D01*
X78787Y-64157D01*
X78787Y-64155D01*
X78788Y-64132D01*
X78891Y-64132D01*
X78995Y-64132D01*
X78995Y-64132D01*
X78995Y-64132D01*
G37*
G36*
X78994Y-63805D02*
X78994Y-63820D01*
X78995Y-63828D01*
X78995Y-63834D01*
X78994Y-63837D01*
X78994Y-63838D01*
X78992Y-63839D01*
X78988Y-63843D01*
X78982Y-63847D01*
X78974Y-63852D01*
X78972Y-63853D01*
X78951Y-63866D01*
X78951Y-63882D01*
X78926Y-63882D01*
X78924Y-63883D01*
X78920Y-63886D01*
X78913Y-63890D01*
X78904Y-63895D01*
X78894Y-63902D01*
X78883Y-63908D01*
X78872Y-63916D01*
X78860Y-63923D01*
X78849Y-63930D01*
X78839Y-63936D01*
X78830Y-63942D01*
X78823Y-63946D01*
X78818Y-63950D01*
X78816Y-63951D01*
X78816Y-63951D01*
X78816Y-63952D01*
X78817Y-63954D01*
X78820Y-63956D01*
X78825Y-63960D01*
X78832Y-63965D01*
X78842Y-63971D01*
X78855Y-63979D01*
X78869Y-63988D01*
X78882Y-63996D01*
X78894Y-64004D01*
X78904Y-64011D01*
X78913Y-64016D01*
X78920Y-64020D01*
X78924Y-64023D01*
X78925Y-64024D01*
X78926Y-64022D01*
X78926Y-64017D01*
X78926Y-64009D01*
X78927Y-63998D01*
X78927Y-63986D01*
X78927Y-63971D01*
X78927Y-63955D01*
X78927Y-63953D01*
X78927Y-63937D01*
X78927Y-63923D01*
X78927Y-63909D01*
X78927Y-63899D01*
X78926Y-63890D01*
X78926Y-63884D01*
X78926Y-63882D01*
X78951Y-63882D01*
X78951Y-63953D01*
X78951Y-64040D01*
X78973Y-64053D01*
X78994Y-64067D01*
X78994Y-64084D01*
X78995Y-64092D01*
X78995Y-64097D01*
X78994Y-64100D01*
X78993Y-64100D01*
X78992Y-64100D01*
X78989Y-64098D01*
X78984Y-64095D01*
X78977Y-64090D01*
X78967Y-64084D01*
X78954Y-64076D01*
X78941Y-64068D01*
X78925Y-64058D01*
X78909Y-64048D01*
X78891Y-64037D01*
X78888Y-64035D01*
X78788Y-63972D01*
X78788Y-63953D01*
X78788Y-63934D01*
X78891Y-63869D01*
X78994Y-63805D01*
X78994Y-63805D01*
X78994Y-63805D01*
G37*
G36*
X78890Y-63504D02*
X78913Y-63505D01*
X78932Y-63507D01*
X78948Y-63511D01*
X78961Y-63516D01*
X78972Y-63524D01*
X78980Y-63533D01*
X78981Y-63535D01*
X78878Y-63535D01*
X78862Y-63536D01*
X78849Y-63538D01*
X78838Y-63541D01*
X78830Y-63545D01*
X78823Y-63551D01*
X78818Y-63558D01*
X78817Y-63560D01*
X78813Y-63570D01*
X78812Y-63656D01*
X78811Y-63742D01*
X78891Y-63742D01*
X78970Y-63742D01*
X78970Y-63660D01*
X78970Y-63639D01*
X78970Y-63622D01*
X78970Y-63608D01*
X78970Y-63597D01*
X78970Y-63588D01*
X78969Y-63581D01*
X78969Y-63575D01*
X78968Y-63571D01*
X78968Y-63568D01*
X78967Y-63567D01*
X78962Y-63555D01*
X78954Y-63547D01*
X78943Y-63540D01*
X78940Y-63539D01*
X78934Y-63538D01*
X78927Y-63537D01*
X78917Y-63536D01*
X78905Y-63535D01*
X78898Y-63535D01*
X78878Y-63535D01*
X78981Y-63535D01*
X78986Y-63545D01*
X78991Y-63559D01*
X78993Y-63571D01*
X78993Y-63577D01*
X78994Y-63586D01*
X78994Y-63598D01*
X78994Y-63613D01*
X78995Y-63630D01*
X78995Y-63650D01*
X78995Y-63672D01*
X78995Y-63680D01*
X78995Y-63775D01*
X78891Y-63774D01*
X78788Y-63774D01*
X78788Y-63673D01*
X78788Y-63651D01*
X78788Y-63632D01*
X78788Y-63616D01*
X78788Y-63603D01*
X78789Y-63592D01*
X78789Y-63583D01*
X78789Y-63576D01*
X78790Y-63570D01*
X78790Y-63565D01*
X78791Y-63561D01*
X78791Y-63558D01*
X78795Y-63545D01*
X78800Y-63534D01*
X78807Y-63525D01*
X78817Y-63518D01*
X78828Y-63512D01*
X78842Y-63508D01*
X78859Y-63506D01*
X78879Y-63505D01*
X78890Y-63504D01*
X78890Y-63504D01*
X78890Y-63504D01*
G37*
G36*
X78995Y-63236D02*
X78995Y-63345D01*
X78995Y-63453D01*
X78891Y-63453D01*
X78788Y-63452D01*
X78788Y-63345D01*
X78787Y-63238D01*
X78799Y-63238D01*
X78812Y-63238D01*
X78812Y-63330D01*
X78812Y-63421D01*
X78844Y-63421D01*
X78876Y-63421D01*
X78876Y-63333D01*
X78877Y-63245D01*
X78888Y-63245D01*
X78899Y-63245D01*
X78900Y-63333D01*
X78900Y-63421D01*
X78935Y-63421D01*
X78970Y-63421D01*
X78970Y-63329D01*
X78970Y-63236D01*
X78983Y-63236D01*
X78995Y-63236D01*
X78995Y-63236D01*
X78995Y-63236D01*
G37*
G36*
X78995Y-62150D02*
X78995Y-62172D01*
X78995Y-62195D01*
X78905Y-62294D01*
X78816Y-62393D01*
X78905Y-62393D01*
X78995Y-62394D01*
X78995Y-62409D01*
X78995Y-62424D01*
X78891Y-62424D01*
X78787Y-62424D01*
X78787Y-62402D01*
X78787Y-62381D01*
X78877Y-62281D01*
X78968Y-62181D01*
X78877Y-62181D01*
X78787Y-62180D01*
X78787Y-62166D01*
X78788Y-62151D01*
X78891Y-62150D01*
X78995Y-62150D01*
X78995Y-62150D01*
X78995Y-62150D01*
G37*
G36*
X78995Y-62063D02*
X78995Y-62079D01*
X78995Y-62095D01*
X78891Y-62095D01*
X78788Y-62094D01*
X78788Y-62079D01*
X78788Y-62064D01*
X78891Y-62064D01*
X78995Y-62063D01*
X78995Y-62063D01*
X78995Y-62063D01*
G37*
G36*
X78901Y-61289D02*
X78919Y-61289D01*
X78933Y-61291D01*
X78946Y-61294D01*
X78956Y-61298D01*
X78965Y-61303D01*
X78973Y-61309D01*
X78973Y-61310D01*
X78978Y-61314D01*
X78981Y-61319D01*
X78981Y-61319D01*
X78897Y-61319D01*
X78883Y-61319D01*
X78870Y-61320D01*
X78859Y-61321D01*
X78849Y-61322D01*
X78842Y-61323D01*
X78842Y-61323D01*
X78831Y-61329D01*
X78822Y-61336D01*
X78817Y-61345D01*
X78816Y-61347D01*
X78815Y-61350D01*
X78814Y-61352D01*
X78814Y-61356D01*
X78813Y-61361D01*
X78813Y-61367D01*
X78813Y-61375D01*
X78812Y-61386D01*
X78812Y-61399D01*
X78812Y-61415D01*
X78812Y-61435D01*
X78812Y-61440D01*
X78811Y-61527D01*
X78891Y-61527D01*
X78970Y-61527D01*
X78970Y-61444D01*
X78970Y-61422D01*
X78970Y-61402D01*
X78970Y-61385D01*
X78970Y-61371D01*
X78969Y-61361D01*
X78968Y-61355D01*
X78968Y-61353D01*
X78964Y-61342D01*
X78957Y-61333D01*
X78947Y-61326D01*
X78939Y-61323D01*
X78932Y-61322D01*
X78922Y-61321D01*
X78910Y-61320D01*
X78897Y-61319D01*
X78981Y-61319D01*
X78984Y-61324D01*
X78987Y-61329D01*
X78989Y-61336D01*
X78991Y-61343D01*
X78992Y-61352D01*
X78993Y-61363D01*
X78994Y-61377D01*
X78994Y-61393D01*
X78995Y-61411D01*
X78995Y-61433D01*
X78995Y-61458D01*
X78995Y-61464D01*
X78995Y-61559D01*
X78891Y-61558D01*
X78788Y-61558D01*
X78788Y-61458D01*
X78788Y-61435D01*
X78788Y-61416D01*
X78788Y-61400D01*
X78788Y-61387D01*
X78789Y-61376D01*
X78789Y-61367D01*
X78789Y-61360D01*
X78790Y-61354D01*
X78790Y-61349D01*
X78791Y-61345D01*
X78791Y-61342D01*
X78796Y-61327D01*
X78803Y-61315D01*
X78812Y-61305D01*
X78824Y-61298D01*
X78834Y-61294D01*
X78839Y-61292D01*
X78845Y-61291D01*
X78852Y-61290D01*
X78861Y-61290D01*
X78872Y-61289D01*
X78881Y-61289D01*
X78901Y-61289D01*
X78901Y-61289D01*
X78901Y-61289D01*
G37*
G36*
X78995Y-61020D02*
X78995Y-61129D01*
X78995Y-61238D01*
X78891Y-61237D01*
X78788Y-61237D01*
X78788Y-61129D01*
X78787Y-61022D01*
X78799Y-61022D01*
X78812Y-61022D01*
X78812Y-61114D01*
X78812Y-61205D01*
X78844Y-61205D01*
X78876Y-61205D01*
X78876Y-61117D01*
X78877Y-61029D01*
X78888Y-61029D01*
X78899Y-61029D01*
X78900Y-61117D01*
X78900Y-61205D01*
X78935Y-61205D01*
X78970Y-61205D01*
X78970Y-61113D01*
X78970Y-61020D01*
X78983Y-61020D01*
X78995Y-61020D01*
X78995Y-61020D01*
X78995Y-61020D01*
G37*
G36*
X78789Y-60722D02*
X78791Y-60723D01*
X78796Y-60725D01*
X78804Y-60730D01*
X78814Y-60735D01*
X78826Y-60742D01*
X78840Y-60750D01*
X78855Y-60760D01*
X78872Y-60769D01*
X78890Y-60780D01*
X78893Y-60782D01*
X78995Y-60841D01*
X78995Y-60860D01*
X78995Y-60878D01*
X78893Y-60938D01*
X78875Y-60948D01*
X78858Y-60958D01*
X78842Y-60967D01*
X78828Y-60976D01*
X78816Y-60983D01*
X78805Y-60989D01*
X78797Y-60993D01*
X78792Y-60996D01*
X78789Y-60998D01*
X78789Y-60998D01*
X78788Y-60996D01*
X78787Y-60991D01*
X78787Y-60983D01*
X78787Y-60981D01*
X78788Y-60965D01*
X78877Y-60913D01*
X78894Y-60903D01*
X78910Y-60894D01*
X78924Y-60885D01*
X78937Y-60878D01*
X78948Y-60871D01*
X78956Y-60866D01*
X78963Y-60862D01*
X78966Y-60860D01*
X78967Y-60860D01*
X78965Y-60859D01*
X78960Y-60856D01*
X78953Y-60851D01*
X78944Y-60846D01*
X78932Y-60839D01*
X78918Y-60831D01*
X78903Y-60822D01*
X78887Y-60812D01*
X78877Y-60807D01*
X78788Y-60754D01*
X78787Y-60738D01*
X78787Y-60729D01*
X78788Y-60724D01*
X78789Y-60722D01*
X78789Y-60722D01*
X78789Y-60722D01*
X78789Y-60722D01*
G37*
G36*
X78994Y-60655D02*
X78994Y-60670D01*
X78995Y-60686D01*
X78892Y-60685D01*
X78788Y-60685D01*
X78788Y-60670D01*
X78788Y-60655D01*
X78891Y-60655D01*
X78994Y-60655D01*
X78994Y-60655D01*
X78994Y-60655D01*
G37*
G36*
X78995Y-60076D02*
X78995Y-60184D01*
X78995Y-60293D01*
X78891Y-60293D01*
X78788Y-60292D01*
X78788Y-60185D01*
X78787Y-60078D01*
X78799Y-60078D01*
X78812Y-60078D01*
X78812Y-60169D01*
X78812Y-60261D01*
X78844Y-60261D01*
X78876Y-60261D01*
X78876Y-60173D01*
X78876Y-60085D01*
X78888Y-60085D01*
X78900Y-60085D01*
X78900Y-60173D01*
X78900Y-60261D01*
X78935Y-60261D01*
X78970Y-60261D01*
X78970Y-60168D01*
X78970Y-60076D01*
X78983Y-60076D01*
X78995Y-60076D01*
X78995Y-60076D01*
X78995Y-60076D01*
G37*
G36*
X78606Y-59796D02*
X78606Y-62769D01*
X78606Y-62897D01*
X78606Y-63022D01*
X78606Y-63143D01*
X78606Y-63261D01*
X78606Y-63375D01*
X78606Y-63485D01*
X78606Y-63592D01*
X78606Y-63696D01*
X78606Y-63796D01*
X78606Y-63893D01*
X78606Y-63987D01*
X78606Y-64078D01*
X78606Y-64165D01*
X78606Y-64250D01*
X78606Y-64331D01*
X78606Y-64409D01*
X78606Y-64485D01*
X78606Y-64558D01*
X78606Y-64627D01*
X78606Y-64694D01*
X78606Y-64759D01*
X78606Y-64821D01*
X78606Y-64880D01*
X78605Y-64936D01*
X78605Y-64990D01*
X78605Y-65042D01*
X78605Y-65092D01*
X78605Y-65139D01*
X78605Y-65183D01*
X78605Y-65226D01*
X78605Y-65266D01*
X78605Y-65304D01*
X78605Y-65341D01*
X78605Y-65375D01*
X78605Y-65407D01*
X78605Y-65438D01*
X78605Y-65466D01*
X78605Y-65493D01*
X78605Y-65518D01*
X78605Y-65541D01*
X78605Y-65563D01*
X78605Y-65583D01*
X78605Y-65602D01*
X78605Y-65619D01*
X78604Y-65635D01*
X78604Y-65650D01*
X78604Y-65663D01*
X78604Y-65675D01*
X78604Y-65685D01*
X78604Y-65695D01*
X78604Y-65704D01*
X78604Y-65711D01*
X78604Y-65718D01*
X78604Y-65723D01*
X78604Y-65728D01*
X78603Y-65732D01*
X78603Y-65735D01*
X78603Y-65738D01*
X78603Y-65740D01*
X78603Y-65741D01*
X78603Y-65742D01*
X78603Y-65742D01*
X78599Y-65742D01*
X78598Y-65742D01*
X78598Y-65740D01*
X78598Y-65734D01*
X78598Y-65725D01*
X78598Y-65712D01*
X78598Y-65695D01*
X78598Y-65674D01*
X78598Y-65650D01*
X78597Y-65623D01*
X78597Y-65592D01*
X78597Y-65558D01*
X78597Y-65520D01*
X78597Y-65478D01*
X78597Y-65434D01*
X78597Y-65386D01*
X78597Y-65335D01*
X78597Y-65280D01*
X78597Y-65222D01*
X78597Y-65161D01*
X78597Y-65097D01*
X78597Y-65030D01*
X78597Y-64959D01*
X78597Y-64886D01*
X78597Y-64809D01*
X78597Y-64730D01*
X78597Y-64647D01*
X78597Y-64562D01*
X78597Y-64474D01*
X78597Y-64383D01*
X78597Y-64289D01*
X78597Y-64192D01*
X78597Y-64092D01*
X78597Y-63990D01*
X78597Y-63885D01*
X78597Y-63777D01*
X78597Y-63667D01*
X78597Y-63554D01*
X78597Y-63439D01*
X78597Y-63321D01*
X78597Y-63201D01*
X78597Y-63078D01*
X78597Y-62953D01*
X78597Y-62825D01*
X78597Y-62768D01*
X78597Y-59797D01*
X78601Y-59797D01*
X78606Y-59796D01*
X78606Y-59796D01*
X78606Y-59796D01*
G37*
G36*
X77467Y-64244D02*
X77527Y-64244D01*
X77585Y-64248D01*
X77644Y-64256D01*
X77700Y-64266D01*
X77752Y-64279D01*
X77810Y-64298D01*
X77867Y-64319D01*
X77923Y-64345D01*
X77976Y-64373D01*
X78028Y-64405D01*
X78077Y-64439D01*
X78109Y-64465D01*
X77489Y-64465D01*
X77469Y-64465D01*
X77451Y-64466D01*
X77433Y-64466D01*
X77418Y-64467D01*
X77405Y-64468D01*
X77402Y-64468D01*
X77348Y-64477D01*
X77295Y-64489D01*
X77244Y-64504D01*
X77194Y-64523D01*
X77146Y-64545D01*
X77100Y-64571D01*
X77055Y-64600D01*
X77030Y-64618D01*
X77009Y-64633D01*
X77026Y-64650D01*
X77029Y-64653D01*
X77035Y-64659D01*
X77043Y-64667D01*
X77053Y-64678D01*
X77065Y-64690D01*
X77079Y-64705D01*
X77094Y-64721D01*
X77112Y-64739D01*
X77130Y-64759D01*
X77150Y-64780D01*
X77164Y-64795D01*
X76860Y-64795D01*
X76854Y-64803D01*
X76848Y-64813D01*
X76840Y-64826D01*
X76831Y-64840D01*
X76823Y-64855D01*
X76815Y-64869D01*
X76808Y-64883D01*
X76806Y-64887D01*
X76784Y-64935D01*
X76765Y-64984D01*
X76750Y-65035D01*
X76739Y-65086D01*
X76731Y-65138D01*
X76726Y-65190D01*
X76725Y-65242D01*
X76728Y-65294D01*
X76735Y-65346D01*
X76744Y-65398D01*
X76758Y-65449D01*
X76775Y-65499D01*
X76776Y-65502D01*
X76784Y-65522D01*
X77082Y-65522D01*
X77380Y-65522D01*
X77379Y-65430D01*
X77379Y-65337D01*
X77119Y-65066D01*
X76860Y-64795D01*
X77164Y-64795D01*
X77171Y-64802D01*
X77193Y-64825D01*
X77216Y-64849D01*
X77240Y-64874D01*
X77264Y-64899D01*
X77266Y-64901D01*
X77490Y-65135D01*
X77504Y-65121D01*
X77507Y-65117D01*
X77514Y-65111D01*
X77522Y-65102D01*
X77532Y-65092D01*
X77544Y-65079D01*
X77558Y-65065D01*
X77573Y-65049D01*
X77589Y-65032D01*
X77607Y-65013D01*
X77626Y-64994D01*
X77645Y-64974D01*
X77665Y-64953D01*
X77686Y-64931D01*
X77707Y-64909D01*
X77729Y-64886D01*
X77750Y-64864D01*
X77771Y-64842D01*
X77792Y-64820D01*
X77813Y-64798D01*
X77833Y-64777D01*
X77852Y-64757D01*
X77870Y-64738D01*
X77888Y-64720D01*
X77904Y-64703D01*
X77918Y-64688D01*
X77932Y-64674D01*
X77943Y-64662D01*
X77953Y-64652D01*
X77960Y-64644D01*
X77965Y-64638D01*
X77968Y-64635D01*
X77969Y-64634D01*
X77968Y-64633D01*
X77964Y-64629D01*
X77958Y-64625D01*
X77950Y-64619D01*
X77946Y-64616D01*
X77903Y-64586D01*
X77859Y-64559D01*
X77814Y-64536D01*
X77768Y-64516D01*
X77720Y-64500D01*
X77670Y-64486D01*
X77619Y-64475D01*
X77568Y-64468D01*
X77557Y-64466D01*
X77542Y-64466D01*
X77526Y-64465D01*
X77508Y-64465D01*
X77489Y-64465D01*
X78109Y-64465D01*
X78125Y-64477D01*
X78170Y-64518D01*
X78213Y-64562D01*
X78227Y-64577D01*
X78266Y-64624D01*
X78301Y-64673D01*
X78334Y-64724D01*
X78363Y-64776D01*
X78373Y-64796D01*
X78120Y-64796D01*
X78097Y-64819D01*
X78094Y-64823D01*
X78088Y-64830D01*
X78079Y-64838D01*
X78069Y-64850D01*
X78056Y-64863D01*
X78041Y-64878D01*
X78025Y-64895D01*
X78007Y-64914D01*
X77988Y-64934D01*
X77968Y-64955D01*
X77946Y-64978D01*
X77923Y-65002D01*
X77899Y-65026D01*
X77875Y-65052D01*
X77850Y-65078D01*
X77837Y-65091D01*
X77599Y-65340D01*
X77599Y-65431D01*
X77599Y-65522D01*
X77896Y-65522D01*
X78194Y-65522D01*
X78198Y-65513D01*
X78201Y-65506D01*
X78204Y-65496D01*
X78209Y-65484D01*
X78213Y-65470D01*
X78218Y-65456D01*
X78222Y-65442D01*
X78226Y-65429D01*
X78229Y-65417D01*
X78231Y-65408D01*
X78236Y-65387D01*
X78240Y-65365D01*
X78244Y-65343D01*
X78247Y-65318D01*
X78250Y-65291D01*
X78251Y-65282D01*
X78252Y-65275D01*
X78252Y-65266D01*
X78252Y-65254D01*
X78252Y-65240D01*
X78252Y-65226D01*
X78252Y-65211D01*
X78252Y-65197D01*
X78251Y-65184D01*
X78251Y-65174D01*
X78251Y-65166D01*
X78250Y-65165D01*
X78244Y-65110D01*
X78234Y-65057D01*
X78220Y-65005D01*
X78203Y-64955D01*
X78182Y-64906D01*
X78158Y-64858D01*
X78131Y-64814D01*
X78120Y-64796D01*
X78373Y-64796D01*
X78389Y-64830D01*
X78411Y-64885D01*
X78431Y-64942D01*
X78446Y-64999D01*
X78458Y-65058D01*
X78467Y-65117D01*
X78472Y-65177D01*
X78473Y-65238D01*
X78471Y-65290D01*
X78466Y-65349D01*
X78457Y-65409D01*
X78444Y-65467D01*
X78427Y-65524D01*
X78408Y-65580D01*
X78385Y-65635D01*
X78358Y-65688D01*
X78329Y-65740D01*
X78327Y-65743D01*
X77599Y-65743D01*
X77551Y-65743D01*
X77502Y-65743D01*
X77453Y-65743D01*
X77405Y-65743D01*
X77357Y-65743D01*
X77311Y-65743D01*
X77268Y-65743D01*
X77227Y-65743D01*
X77207Y-65743D01*
X76925Y-65744D01*
X76948Y-65767D01*
X76987Y-65803D01*
X77029Y-65837D01*
X77072Y-65868D01*
X77117Y-65895D01*
X77164Y-65919D01*
X77212Y-65940D01*
X77261Y-65957D01*
X77311Y-65971D01*
X77362Y-65981D01*
X77414Y-65988D01*
X77467Y-65991D01*
X77520Y-65991D01*
X77573Y-65987D01*
X77626Y-65980D01*
X77638Y-65977D01*
X77686Y-65966D01*
X77734Y-65951D01*
X77782Y-65933D01*
X77828Y-65912D01*
X77873Y-65888D01*
X77916Y-65861D01*
X77920Y-65858D01*
X77943Y-65842D01*
X77965Y-65825D01*
X77986Y-65808D01*
X78007Y-65789D01*
X78026Y-65770D01*
X78052Y-65744D01*
X77771Y-65743D01*
X77732Y-65743D01*
X77690Y-65743D01*
X77645Y-65743D01*
X77599Y-65743D01*
X78327Y-65743D01*
X78296Y-65790D01*
X78261Y-65838D01*
X78222Y-65884D01*
X78181Y-65927D01*
X78136Y-65968D01*
X78095Y-66003D01*
X78047Y-66038D01*
X77997Y-66071D01*
X77945Y-66100D01*
X77891Y-66126D01*
X77836Y-66149D01*
X77780Y-66168D01*
X77723Y-66184D01*
X77665Y-66196D01*
X77609Y-66205D01*
X77554Y-66210D01*
X77498Y-66212D01*
X77441Y-66211D01*
X77386Y-66207D01*
X77356Y-66203D01*
X77297Y-66193D01*
X77240Y-66180D01*
X77183Y-66163D01*
X77127Y-66143D01*
X77072Y-66119D01*
X77019Y-66092D01*
X76967Y-66062D01*
X76917Y-66028D01*
X76877Y-65998D01*
X76858Y-65982D01*
X76837Y-65964D01*
X76815Y-65944D01*
X76795Y-65924D01*
X76775Y-65904D01*
X76757Y-65885D01*
X76746Y-65873D01*
X76708Y-65825D01*
X76672Y-65776D01*
X76640Y-65724D01*
X76611Y-65672D01*
X76585Y-65617D01*
X76563Y-65561D01*
X76545Y-65505D01*
X76530Y-65447D01*
X76518Y-65388D01*
X76510Y-65328D01*
X76506Y-65267D01*
X76505Y-65229D01*
X76507Y-65168D01*
X76512Y-65108D01*
X76522Y-65048D01*
X76534Y-64989D01*
X76551Y-64931D01*
X76570Y-64875D01*
X76594Y-64819D01*
X76621Y-64765D01*
X76651Y-64713D01*
X76668Y-64686D01*
X76704Y-64636D01*
X76742Y-64588D01*
X76783Y-64543D01*
X76827Y-64500D01*
X76873Y-64461D01*
X76922Y-64424D01*
X76948Y-64406D01*
X76999Y-64374D01*
X77052Y-64346D01*
X77107Y-64321D01*
X77163Y-64299D01*
X77220Y-64281D01*
X77278Y-64266D01*
X77337Y-64255D01*
X77396Y-64248D01*
X77408Y-64247D01*
X77467Y-64244D01*
X77467Y-64244D01*
X77467Y-64244D01*
G37*
G36*
X78242Y-62632D02*
X78262Y-62632D01*
X78279Y-62632D01*
X78294Y-62632D01*
X78305Y-62633D01*
X78315Y-62634D01*
X78323Y-62635D01*
X78330Y-62637D01*
X78337Y-62639D01*
X78343Y-62641D01*
X78346Y-62643D01*
X78359Y-62651D01*
X78370Y-62661D01*
X78377Y-62672D01*
X78265Y-62672D01*
X78250Y-62672D01*
X78235Y-62672D01*
X78220Y-62672D01*
X78205Y-62672D01*
X78192Y-62673D01*
X78180Y-62673D01*
X78171Y-62674D01*
X78164Y-62674D01*
X78162Y-62675D01*
X78153Y-62679D01*
X78145Y-62686D01*
X78138Y-62694D01*
X78133Y-62702D01*
X78129Y-62712D01*
X78128Y-62810D01*
X78128Y-62834D01*
X78128Y-62854D01*
X78128Y-62871D01*
X78128Y-62886D01*
X78128Y-62898D01*
X78129Y-62907D01*
X78129Y-62915D01*
X78130Y-62921D01*
X78131Y-62926D01*
X78132Y-62931D01*
X78134Y-62934D01*
X78135Y-62937D01*
X78142Y-62947D01*
X78152Y-62955D01*
X78160Y-62959D01*
X78163Y-62960D01*
X78166Y-62961D01*
X78170Y-62962D01*
X78174Y-62962D01*
X78180Y-62963D01*
X78188Y-62963D01*
X78198Y-62963D01*
X78211Y-62963D01*
X78227Y-62964D01*
X78233Y-62964D01*
X78254Y-62964D01*
X78272Y-62964D01*
X78286Y-62964D01*
X78298Y-62963D01*
X78308Y-62962D01*
X78316Y-62961D01*
X78322Y-62960D01*
X78327Y-62958D01*
X78329Y-62957D01*
X78339Y-62950D01*
X78347Y-62940D01*
X78353Y-62927D01*
X78354Y-62923D01*
X78355Y-62920D01*
X78355Y-62913D01*
X78355Y-62904D01*
X78356Y-62891D01*
X78356Y-62877D01*
X78356Y-62860D01*
X78356Y-62843D01*
X78356Y-62824D01*
X78356Y-62819D01*
X78356Y-62796D01*
X78356Y-62777D01*
X78356Y-62761D01*
X78356Y-62748D01*
X78356Y-62738D01*
X78356Y-62729D01*
X78355Y-62723D01*
X78355Y-62718D01*
X78354Y-62714D01*
X78354Y-62710D01*
X78353Y-62710D01*
X78348Y-62697D01*
X78341Y-62687D01*
X78330Y-62679D01*
X78317Y-62674D01*
X78315Y-62673D01*
X78310Y-62673D01*
X78302Y-62672D01*
X78292Y-62672D01*
X78279Y-62672D01*
X78265Y-62672D01*
X78377Y-62672D01*
X78379Y-62675D01*
X78385Y-62691D01*
X78386Y-62694D01*
X78387Y-62698D01*
X78387Y-62701D01*
X78388Y-62706D01*
X78388Y-62712D01*
X78388Y-62720D01*
X78389Y-62730D01*
X78389Y-62742D01*
X78389Y-62756D01*
X78389Y-62774D01*
X78389Y-62795D01*
X78389Y-62807D01*
X78390Y-62827D01*
X78390Y-62846D01*
X78390Y-62864D01*
X78389Y-62880D01*
X78389Y-62895D01*
X78389Y-62907D01*
X78389Y-62916D01*
X78389Y-62922D01*
X78388Y-62923D01*
X78385Y-62942D01*
X78380Y-62957D01*
X78373Y-62970D01*
X78363Y-62981D01*
X78357Y-62986D01*
X78351Y-62991D01*
X78344Y-62994D01*
X78336Y-62997D01*
X78326Y-62999D01*
X78315Y-63001D01*
X78302Y-63002D01*
X78287Y-63003D01*
X78268Y-63004D01*
X78246Y-63004D01*
X78243Y-63004D01*
X78222Y-63004D01*
X78205Y-63003D01*
X78191Y-63003D01*
X78179Y-63002D01*
X78169Y-63001D01*
X78160Y-63000D01*
X78153Y-62998D01*
X78146Y-62996D01*
X78140Y-62993D01*
X78129Y-62987D01*
X78118Y-62978D01*
X78110Y-62968D01*
X78108Y-62965D01*
X78105Y-62959D01*
X78102Y-62951D01*
X78099Y-62942D01*
X78099Y-62942D01*
X78098Y-62938D01*
X78097Y-62935D01*
X78097Y-62931D01*
X78096Y-62926D01*
X78096Y-62920D01*
X78095Y-62913D01*
X78095Y-62903D01*
X78095Y-62892D01*
X78095Y-62878D01*
X78095Y-62860D01*
X78094Y-62840D01*
X78094Y-62836D01*
X78094Y-62808D01*
X78094Y-62784D01*
X78094Y-62763D01*
X78095Y-62745D01*
X78095Y-62729D01*
X78096Y-62716D01*
X78097Y-62705D01*
X78099Y-62695D01*
X78101Y-62687D01*
X78103Y-62680D01*
X78106Y-62674D01*
X78109Y-62668D01*
X78112Y-62664D01*
X78119Y-62656D01*
X78126Y-62650D01*
X78134Y-62645D01*
X78140Y-62642D01*
X78146Y-62639D01*
X78152Y-62637D01*
X78159Y-62635D01*
X78167Y-62634D01*
X78176Y-62633D01*
X78187Y-62632D01*
X78201Y-62632D01*
X78217Y-62632D01*
X78237Y-62632D01*
X78242Y-62632D01*
X78242Y-62632D01*
X78242Y-62632D01*
G37*
G36*
X78260Y-61063D02*
X78275Y-61063D01*
X78288Y-61063D01*
X78297Y-61063D01*
X78305Y-61064D01*
X78312Y-61064D01*
X78317Y-61065D01*
X78322Y-61066D01*
X78323Y-61066D01*
X78341Y-61071D01*
X78355Y-61079D01*
X78367Y-61089D01*
X78376Y-61102D01*
X78377Y-61103D01*
X78242Y-61103D01*
X78221Y-61103D01*
X78203Y-61104D01*
X78189Y-61104D01*
X78178Y-61104D01*
X78170Y-61105D01*
X78166Y-61105D01*
X78165Y-61106D01*
X78153Y-61111D01*
X78143Y-61118D01*
X78136Y-61129D01*
X78131Y-61142D01*
X78131Y-61143D01*
X78130Y-61147D01*
X78129Y-61155D01*
X78129Y-61166D01*
X78128Y-61180D01*
X78128Y-61195D01*
X78128Y-61212D01*
X78127Y-61229D01*
X78127Y-61248D01*
X78128Y-61266D01*
X78128Y-61284D01*
X78128Y-61300D01*
X78128Y-61316D01*
X78129Y-61330D01*
X78129Y-61341D01*
X78130Y-61350D01*
X78131Y-61355D01*
X78131Y-61356D01*
X78136Y-61369D01*
X78143Y-61379D01*
X78152Y-61387D01*
X78164Y-61392D01*
X78165Y-61392D01*
X78169Y-61393D01*
X78176Y-61393D01*
X78186Y-61394D01*
X78198Y-61394D01*
X78212Y-61394D01*
X78227Y-61394D01*
X78242Y-61394D01*
X78257Y-61394D01*
X78272Y-61394D01*
X78286Y-61394D01*
X78298Y-61394D01*
X78308Y-61393D01*
X78315Y-61393D01*
X78319Y-61392D01*
X78332Y-61387D01*
X78342Y-61379D01*
X78349Y-61368D01*
X78353Y-61357D01*
X78354Y-61353D01*
X78355Y-61345D01*
X78355Y-61335D01*
X78356Y-61322D01*
X78356Y-61307D01*
X78356Y-61291D01*
X78356Y-61274D01*
X78356Y-61256D01*
X78356Y-61237D01*
X78356Y-61220D01*
X78356Y-61203D01*
X78356Y-61187D01*
X78356Y-61173D01*
X78355Y-61161D01*
X78355Y-61151D01*
X78354Y-61145D01*
X78354Y-61143D01*
X78349Y-61129D01*
X78342Y-61119D01*
X78332Y-61111D01*
X78319Y-61106D01*
X78315Y-61105D01*
X78308Y-61104D01*
X78298Y-61104D01*
X78285Y-61104D01*
X78268Y-61103D01*
X78248Y-61103D01*
X78242Y-61103D01*
X78377Y-61103D01*
X78383Y-61117D01*
X78386Y-61125D01*
X78387Y-61128D01*
X78387Y-61131D01*
X78388Y-61136D01*
X78388Y-61141D01*
X78388Y-61148D01*
X78389Y-61157D01*
X78389Y-61168D01*
X78389Y-61181D01*
X78389Y-61197D01*
X78389Y-61216D01*
X78390Y-61238D01*
X78390Y-61258D01*
X78390Y-61277D01*
X78390Y-61295D01*
X78389Y-61312D01*
X78389Y-61326D01*
X78389Y-61339D01*
X78389Y-61348D01*
X78389Y-61354D01*
X78388Y-61356D01*
X78385Y-61374D01*
X78379Y-61390D01*
X78371Y-61404D01*
X78360Y-61415D01*
X78347Y-61423D01*
X78344Y-61425D01*
X78339Y-61427D01*
X78333Y-61429D01*
X78327Y-61431D01*
X78319Y-61432D01*
X78311Y-61433D01*
X78301Y-61434D01*
X78288Y-61435D01*
X78273Y-61435D01*
X78255Y-61435D01*
X78241Y-61435D01*
X78223Y-61435D01*
X78208Y-61435D01*
X78196Y-61435D01*
X78186Y-61434D01*
X78178Y-61434D01*
X78172Y-61433D01*
X78167Y-61433D01*
X78162Y-61432D01*
X78161Y-61432D01*
X78144Y-61426D01*
X78129Y-61419D01*
X78117Y-61409D01*
X78108Y-61396D01*
X78101Y-61381D01*
X78098Y-61371D01*
X78097Y-61367D01*
X78097Y-61364D01*
X78096Y-61360D01*
X78096Y-61355D01*
X78096Y-61348D01*
X78095Y-61340D01*
X78095Y-61330D01*
X78095Y-61318D01*
X78095Y-61303D01*
X78095Y-61285D01*
X78095Y-61264D01*
X78095Y-61249D01*
X78095Y-61225D01*
X78095Y-61206D01*
X78095Y-61189D01*
X78095Y-61175D01*
X78095Y-61164D01*
X78095Y-61154D01*
X78096Y-61147D01*
X78096Y-61141D01*
X78096Y-61136D01*
X78097Y-61132D01*
X78098Y-61129D01*
X78098Y-61127D01*
X78104Y-61110D01*
X78112Y-61096D01*
X78122Y-61085D01*
X78135Y-61076D01*
X78150Y-61069D01*
X78161Y-61066D01*
X78165Y-61065D01*
X78170Y-61065D01*
X78175Y-61064D01*
X78182Y-61064D01*
X78190Y-61063D01*
X78200Y-61063D01*
X78213Y-61063D01*
X78229Y-61063D01*
X78242Y-61063D01*
X78260Y-61063D01*
X78260Y-61063D01*
X78260Y-61063D01*
G37*
G36*
X78302Y-59790D02*
X78315Y-59791D01*
X78327Y-59792D01*
X78337Y-59793D01*
X78342Y-59794D01*
X78355Y-59800D01*
X78366Y-59809D01*
X78375Y-59821D01*
X78377Y-59825D01*
X78380Y-59831D01*
X78382Y-59836D01*
X78384Y-59841D01*
X78385Y-59847D01*
X78386Y-59853D01*
X78387Y-59861D01*
X78388Y-59870D01*
X78389Y-59882D01*
X78389Y-59895D01*
X78389Y-59912D01*
X78389Y-59931D01*
X78389Y-59949D01*
X78390Y-59967D01*
X78390Y-59985D01*
X78390Y-60001D01*
X78389Y-60016D01*
X78389Y-60028D01*
X78389Y-60038D01*
X78389Y-60045D01*
X78388Y-60048D01*
X78385Y-60068D01*
X78379Y-60084D01*
X78371Y-60098D01*
X78361Y-60108D01*
X78349Y-60116D01*
X78334Y-60121D01*
X78317Y-60123D01*
X78307Y-60123D01*
X78295Y-60122D01*
X78294Y-60104D01*
X78294Y-60086D01*
X78311Y-60085D01*
X78323Y-60084D01*
X78331Y-60082D01*
X78338Y-60079D01*
X78343Y-60074D01*
X78346Y-60072D01*
X78348Y-60069D01*
X78350Y-60067D01*
X78351Y-60064D01*
X78352Y-60060D01*
X78353Y-60055D01*
X78354Y-60049D01*
X78355Y-60041D01*
X78355Y-60031D01*
X78355Y-60019D01*
X78355Y-60004D01*
X78355Y-59986D01*
X78355Y-59965D01*
X78355Y-59959D01*
X78355Y-59937D01*
X78355Y-59919D01*
X78355Y-59905D01*
X78355Y-59893D01*
X78355Y-59883D01*
X78355Y-59875D01*
X78354Y-59869D01*
X78354Y-59865D01*
X78353Y-59861D01*
X78353Y-59858D01*
X78352Y-59856D01*
X78347Y-59846D01*
X78340Y-59838D01*
X78331Y-59832D01*
X78327Y-59830D01*
X78319Y-59829D01*
X78310Y-59828D01*
X78300Y-59828D01*
X78290Y-59829D01*
X78284Y-59830D01*
X78275Y-59835D01*
X78268Y-59841D01*
X78264Y-59850D01*
X78264Y-59851D01*
X78263Y-59855D01*
X78262Y-59862D01*
X78262Y-59874D01*
X78261Y-59889D01*
X78261Y-59907D01*
X78260Y-59929D01*
X78260Y-59944D01*
X78259Y-59972D01*
X78259Y-59996D01*
X78258Y-60017D01*
X78257Y-60035D01*
X78255Y-60050D01*
X78254Y-60063D01*
X78251Y-60073D01*
X78249Y-60082D01*
X78246Y-60090D01*
X78242Y-60096D01*
X78238Y-60102D01*
X78233Y-60106D01*
X78229Y-60110D01*
X78221Y-60114D01*
X78214Y-60118D01*
X78205Y-60120D01*
X78195Y-60121D01*
X78182Y-60122D01*
X78177Y-60122D01*
X78166Y-60122D01*
X78158Y-60121D01*
X78152Y-60121D01*
X78147Y-60120D01*
X78142Y-60118D01*
X78140Y-60117D01*
X78131Y-60113D01*
X78123Y-60108D01*
X78116Y-60101D01*
X78111Y-60093D01*
X78106Y-60083D01*
X78102Y-60071D01*
X78099Y-60056D01*
X78097Y-60039D01*
X78095Y-60019D01*
X78094Y-59997D01*
X78094Y-59971D01*
X78094Y-59941D01*
X78095Y-59936D01*
X78095Y-59916D01*
X78096Y-59900D01*
X78096Y-59886D01*
X78097Y-59875D01*
X78099Y-59865D01*
X78100Y-59856D01*
X78102Y-59848D01*
X78105Y-59839D01*
X78105Y-59838D01*
X78108Y-59830D01*
X78112Y-59824D01*
X78118Y-59817D01*
X78120Y-59815D01*
X78129Y-59807D01*
X78136Y-59803D01*
X78138Y-59802D01*
X78144Y-59801D01*
X78152Y-59799D01*
X78160Y-59798D01*
X78168Y-59797D01*
X78175Y-59797D01*
X78179Y-59797D01*
X78180Y-59797D01*
X78181Y-59798D01*
X78182Y-59802D01*
X78182Y-59808D01*
X78183Y-59816D01*
X78183Y-59834D01*
X78176Y-59835D01*
X78171Y-59836D01*
X78164Y-59836D01*
X78161Y-59837D01*
X78152Y-59839D01*
X78145Y-59842D01*
X78140Y-59848D01*
X78135Y-59856D01*
X78132Y-59867D01*
X78130Y-59882D01*
X78130Y-59884D01*
X78129Y-59892D01*
X78129Y-59903D01*
X78128Y-59916D01*
X78128Y-59930D01*
X78128Y-59946D01*
X78128Y-59963D01*
X78128Y-59979D01*
X78129Y-59995D01*
X78129Y-60010D01*
X78130Y-60024D01*
X78130Y-60036D01*
X78131Y-60045D01*
X78132Y-60051D01*
X78132Y-60053D01*
X78136Y-60064D01*
X78141Y-60073D01*
X78148Y-60078D01*
X78157Y-60082D01*
X78169Y-60084D01*
X78178Y-60084D01*
X78189Y-60084D01*
X78198Y-60082D01*
X78205Y-60080D01*
X78210Y-60076D01*
X78213Y-60072D01*
X78215Y-60069D01*
X78217Y-60066D01*
X78218Y-60062D01*
X78219Y-60057D01*
X78220Y-60051D01*
X78221Y-60044D01*
X78222Y-60034D01*
X78222Y-60022D01*
X78223Y-60008D01*
X78223Y-59991D01*
X78224Y-59970D01*
X78224Y-59950D01*
X78224Y-59928D01*
X78225Y-59910D01*
X78225Y-59894D01*
X78225Y-59882D01*
X78226Y-59871D01*
X78226Y-59863D01*
X78227Y-59857D01*
X78227Y-59852D01*
X78228Y-59848D01*
X78229Y-59845D01*
X78229Y-59844D01*
X78235Y-59828D01*
X78243Y-59814D01*
X78253Y-59803D01*
X78264Y-59796D01*
X78270Y-59794D01*
X78278Y-59792D01*
X78289Y-59791D01*
X78302Y-59790D01*
X78302Y-59790D01*
X78302Y-59790D01*
G37*
G36*
X78387Y-63861D02*
X78387Y-63994D01*
X78387Y-64126D01*
X78242Y-64126D01*
X78098Y-64126D01*
X78098Y-64106D01*
X78098Y-64086D01*
X78226Y-64086D01*
X78354Y-64086D01*
X78354Y-63974D01*
X78354Y-63861D01*
X78371Y-63861D01*
X78387Y-63861D01*
X78387Y-63861D01*
X78387Y-63861D01*
G37*
G36*
X78385Y-63456D02*
X78386Y-63457D01*
X78386Y-63462D01*
X78386Y-63469D01*
X78387Y-63477D01*
X78387Y-63478D01*
X78387Y-63500D01*
X78356Y-63518D01*
X78326Y-63535D01*
X78326Y-63555D01*
X78292Y-63555D01*
X78278Y-63564D01*
X78274Y-63567D01*
X78266Y-63571D01*
X78256Y-63577D01*
X78245Y-63584D01*
X78231Y-63592D01*
X78217Y-63600D01*
X78202Y-63609D01*
X78201Y-63609D01*
X78187Y-63618D01*
X78174Y-63625D01*
X78162Y-63633D01*
X78152Y-63639D01*
X78144Y-63644D01*
X78138Y-63647D01*
X78135Y-63649D01*
X78135Y-63649D01*
X78134Y-63650D01*
X78135Y-63651D01*
X78137Y-63653D01*
X78140Y-63655D01*
X78145Y-63658D01*
X78152Y-63663D01*
X78161Y-63668D01*
X78173Y-63676D01*
X78187Y-63684D01*
X78205Y-63695D01*
X78208Y-63696D01*
X78223Y-63705D01*
X78238Y-63714D01*
X78251Y-63722D01*
X78263Y-63729D01*
X78273Y-63735D01*
X78281Y-63740D01*
X78286Y-63743D01*
X78288Y-63744D01*
X78292Y-63747D01*
X78292Y-63651D01*
X78292Y-63555D01*
X78326Y-63555D01*
X78326Y-63651D01*
X78326Y-63766D01*
X78356Y-63784D01*
X78387Y-63802D01*
X78387Y-63824D01*
X78386Y-63833D01*
X78386Y-63840D01*
X78386Y-63845D01*
X78386Y-63846D01*
X78384Y-63845D01*
X78379Y-63843D01*
X78372Y-63838D01*
X78361Y-63832D01*
X78349Y-63825D01*
X78335Y-63816D01*
X78318Y-63807D01*
X78300Y-63796D01*
X78281Y-63785D01*
X78261Y-63773D01*
X78241Y-63761D01*
X78098Y-63675D01*
X78098Y-63651D01*
X78098Y-63626D01*
X78240Y-63541D01*
X78262Y-63529D01*
X78282Y-63516D01*
X78301Y-63505D01*
X78319Y-63495D01*
X78335Y-63485D01*
X78350Y-63476D01*
X78362Y-63469D01*
X78372Y-63463D01*
X78379Y-63459D01*
X78383Y-63456D01*
X78385Y-63456D01*
X78385Y-63456D01*
X78385Y-63456D01*
G37*
G36*
X78306Y-63071D02*
X78321Y-63071D01*
X78332Y-63072D01*
X78340Y-63073D01*
X78347Y-63075D01*
X78353Y-63078D01*
X78359Y-63082D01*
X78364Y-63087D01*
X78371Y-63095D01*
X78376Y-63104D01*
X78379Y-63112D01*
X78313Y-63112D01*
X78303Y-63112D01*
X78292Y-63112D01*
X78284Y-63112D01*
X78279Y-63113D01*
X78275Y-63114D01*
X78272Y-63115D01*
X78270Y-63117D01*
X78265Y-63122D01*
X78261Y-63128D01*
X78259Y-63130D01*
X78258Y-63132D01*
X78258Y-63134D01*
X78257Y-63136D01*
X78257Y-63140D01*
X78256Y-63144D01*
X78256Y-63149D01*
X78256Y-63156D01*
X78255Y-63165D01*
X78255Y-63176D01*
X78255Y-63190D01*
X78255Y-63207D01*
X78255Y-63226D01*
X78255Y-63249D01*
X78255Y-63252D01*
X78254Y-63365D01*
X78304Y-63365D01*
X78354Y-63365D01*
X78354Y-63261D01*
X78354Y-63241D01*
X78354Y-63222D01*
X78354Y-63204D01*
X78354Y-63188D01*
X78354Y-63174D01*
X78353Y-63162D01*
X78353Y-63153D01*
X78353Y-63147D01*
X78353Y-63146D01*
X78350Y-63133D01*
X78345Y-63124D01*
X78339Y-63117D01*
X78336Y-63116D01*
X78333Y-63114D01*
X78330Y-63113D01*
X78326Y-63112D01*
X78321Y-63112D01*
X78313Y-63112D01*
X78379Y-63112D01*
X78380Y-63115D01*
X78383Y-63124D01*
X78384Y-63127D01*
X78384Y-63130D01*
X78385Y-63134D01*
X78385Y-63138D01*
X78386Y-63143D01*
X78386Y-63149D01*
X78386Y-63157D01*
X78386Y-63167D01*
X78386Y-63179D01*
X78386Y-63194D01*
X78387Y-63211D01*
X78387Y-63231D01*
X78387Y-63254D01*
X78387Y-63272D01*
X78387Y-63406D01*
X78242Y-63406D01*
X78098Y-63406D01*
X78098Y-63279D01*
X78098Y-63255D01*
X78098Y-63233D01*
X78098Y-63212D01*
X78098Y-63193D01*
X78098Y-63177D01*
X78099Y-63163D01*
X78099Y-63151D01*
X78099Y-63143D01*
X78099Y-63139D01*
X78099Y-63139D01*
X78103Y-63126D01*
X78108Y-63113D01*
X78114Y-63102D01*
X78121Y-63096D01*
X78127Y-63091D01*
X78134Y-63087D01*
X78142Y-63084D01*
X78152Y-63083D01*
X78164Y-63082D01*
X78174Y-63082D01*
X78185Y-63082D01*
X78192Y-63082D01*
X78198Y-63083D01*
X78202Y-63084D01*
X78205Y-63085D01*
X78209Y-63087D01*
X78210Y-63088D01*
X78219Y-63095D01*
X78226Y-63106D01*
X78231Y-63118D01*
X78232Y-63123D01*
X78164Y-63123D01*
X78155Y-63124D01*
X78148Y-63125D01*
X78143Y-63128D01*
X78140Y-63131D01*
X78137Y-63136D01*
X78136Y-63137D01*
X78135Y-63140D01*
X78134Y-63144D01*
X78133Y-63149D01*
X78132Y-63154D01*
X78131Y-63161D01*
X78131Y-63170D01*
X78130Y-63181D01*
X78130Y-63194D01*
X78130Y-63210D01*
X78130Y-63229D01*
X78130Y-63251D01*
X78130Y-63266D01*
X78130Y-63365D01*
X78176Y-63365D01*
X78222Y-63365D01*
X78222Y-63257D01*
X78221Y-63150D01*
X78217Y-63141D01*
X78213Y-63135D01*
X78210Y-63130D01*
X78205Y-63127D01*
X78200Y-63125D01*
X78192Y-63124D01*
X78181Y-63123D01*
X78176Y-63123D01*
X78164Y-63123D01*
X78232Y-63123D01*
X78233Y-63127D01*
X78234Y-63118D01*
X78238Y-63103D01*
X78244Y-63091D01*
X78253Y-63082D01*
X78265Y-63075D01*
X78268Y-63074D01*
X78272Y-63072D01*
X78277Y-63072D01*
X78282Y-63071D01*
X78290Y-63071D01*
X78300Y-63071D01*
X78306Y-63071D01*
X78306Y-63071D01*
X78306Y-63071D01*
G37*
G36*
X78185Y-62231D02*
X78198Y-62231D01*
X78210Y-62232D01*
X78219Y-62233D01*
X78223Y-62234D01*
X78235Y-62239D01*
X78244Y-62247D01*
X78251Y-62258D01*
X78256Y-62272D01*
X78185Y-62272D01*
X78171Y-62272D01*
X78160Y-62273D01*
X78151Y-62275D01*
X78145Y-62279D01*
X78141Y-62284D01*
X78137Y-62292D01*
X78134Y-62301D01*
X78133Y-62304D01*
X78133Y-62308D01*
X78132Y-62312D01*
X78132Y-62317D01*
X78132Y-62324D01*
X78131Y-62333D01*
X78131Y-62343D01*
X78131Y-62357D01*
X78131Y-62372D01*
X78131Y-62391D01*
X78131Y-62414D01*
X78131Y-62416D01*
X78131Y-62519D01*
X78185Y-62520D01*
X78239Y-62520D01*
X78239Y-62411D01*
X78239Y-62388D01*
X78239Y-62368D01*
X78238Y-62352D01*
X78238Y-62338D01*
X78238Y-62327D01*
X78238Y-62318D01*
X78238Y-62311D01*
X78237Y-62306D01*
X78237Y-62302D01*
X78236Y-62299D01*
X78236Y-62296D01*
X78235Y-62294D01*
X78228Y-62284D01*
X78220Y-62276D01*
X78218Y-62275D01*
X78214Y-62274D01*
X78210Y-62273D01*
X78203Y-62272D01*
X78194Y-62272D01*
X78185Y-62272D01*
X78256Y-62272D01*
X78256Y-62272D01*
X78257Y-62276D01*
X78259Y-62281D01*
X78261Y-62274D01*
X78266Y-62261D01*
X78272Y-62251D01*
X78278Y-62245D01*
X78282Y-62242D01*
X78287Y-62240D01*
X78293Y-62238D01*
X78299Y-62237D01*
X78308Y-62236D01*
X78319Y-62235D01*
X78333Y-62235D01*
X78344Y-62235D01*
X78387Y-62235D01*
X78387Y-62254D01*
X78387Y-62273D01*
X78348Y-62273D01*
X78332Y-62273D01*
X78319Y-62273D01*
X78310Y-62274D01*
X78302Y-62275D01*
X78296Y-62277D01*
X78291Y-62280D01*
X78287Y-62283D01*
X78285Y-62285D01*
X78282Y-62287D01*
X78280Y-62290D01*
X78279Y-62293D01*
X78277Y-62296D01*
X78276Y-62301D01*
X78275Y-62307D01*
X78275Y-62315D01*
X78274Y-62324D01*
X78274Y-62335D01*
X78274Y-62349D01*
X78273Y-62366D01*
X78273Y-62386D01*
X78273Y-62410D01*
X78273Y-62417D01*
X78273Y-62520D01*
X78330Y-62520D01*
X78387Y-62520D01*
X78387Y-62540D01*
X78387Y-62560D01*
X78242Y-62560D01*
X78097Y-62560D01*
X78098Y-62427D01*
X78098Y-62399D01*
X78099Y-62373D01*
X78099Y-62352D01*
X78099Y-62334D01*
X78099Y-62318D01*
X78100Y-62306D01*
X78100Y-62297D01*
X78101Y-62290D01*
X78101Y-62285D01*
X78101Y-62284D01*
X78106Y-62268D01*
X78114Y-62255D01*
X78124Y-62245D01*
X78136Y-62238D01*
X78140Y-62236D01*
X78148Y-62234D01*
X78159Y-62233D01*
X78172Y-62232D01*
X78185Y-62231D01*
X78185Y-62231D01*
X78185Y-62231D01*
G37*
G36*
X78386Y-61799D02*
X78386Y-61800D01*
X78386Y-61805D01*
X78386Y-61812D01*
X78387Y-61821D01*
X78387Y-61843D01*
X78356Y-61861D01*
X78326Y-61878D01*
X78326Y-61898D01*
X78292Y-61898D01*
X78288Y-61901D01*
X78285Y-61902D01*
X78280Y-61906D01*
X78272Y-61910D01*
X78262Y-61916D01*
X78250Y-61924D01*
X78236Y-61932D01*
X78222Y-61940D01*
X78208Y-61949D01*
X78190Y-61959D01*
X78175Y-61968D01*
X78163Y-61975D01*
X78153Y-61981D01*
X78146Y-61986D01*
X78141Y-61989D01*
X78137Y-61992D01*
X78135Y-61994D01*
X78134Y-61995D01*
X78135Y-61996D01*
X78135Y-61996D01*
X78137Y-61997D01*
X78142Y-62000D01*
X78150Y-62005D01*
X78160Y-62011D01*
X78172Y-62018D01*
X78185Y-62026D01*
X78200Y-62035D01*
X78213Y-62042D01*
X78228Y-62051D01*
X78243Y-62060D01*
X78256Y-62068D01*
X78267Y-62074D01*
X78277Y-62080D01*
X78284Y-62084D01*
X78288Y-62087D01*
X78290Y-62088D01*
X78290Y-62088D01*
X78291Y-62086D01*
X78291Y-62082D01*
X78291Y-62076D01*
X78292Y-62068D01*
X78292Y-62057D01*
X78292Y-62044D01*
X78292Y-62027D01*
X78292Y-62007D01*
X78292Y-61994D01*
X78292Y-61898D01*
X78326Y-61898D01*
X78326Y-61994D01*
X78326Y-62109D01*
X78356Y-62127D01*
X78387Y-62145D01*
X78387Y-62167D01*
X78386Y-62176D01*
X78386Y-62183D01*
X78386Y-62188D01*
X78385Y-62189D01*
X78385Y-62189D01*
X78383Y-62188D01*
X78378Y-62185D01*
X78371Y-62181D01*
X78361Y-62175D01*
X78348Y-62168D01*
X78334Y-62159D01*
X78317Y-62149D01*
X78299Y-62139D01*
X78280Y-62127D01*
X78259Y-62115D01*
X78240Y-62104D01*
X78098Y-62019D01*
X78098Y-61994D01*
X78098Y-61969D01*
X78241Y-61884D01*
X78262Y-61871D01*
X78283Y-61859D01*
X78302Y-61848D01*
X78320Y-61837D01*
X78336Y-61828D01*
X78350Y-61819D01*
X78362Y-61812D01*
X78372Y-61806D01*
X78380Y-61802D01*
X78384Y-61799D01*
X78386Y-61799D01*
X78386Y-61799D01*
X78386Y-61799D01*
G37*
G36*
X78130Y-61477D02*
X78130Y-61550D01*
X78130Y-61623D01*
X78258Y-61623D01*
X78387Y-61623D01*
X78387Y-61644D01*
X78387Y-61664D01*
X78258Y-61664D01*
X78130Y-61664D01*
X78130Y-61737D01*
X78130Y-61810D01*
X78114Y-61810D01*
X78098Y-61810D01*
X78098Y-61644D01*
X78098Y-61477D01*
X78114Y-61477D01*
X78130Y-61477D01*
X78130Y-61477D01*
X78130Y-61477D01*
G37*
G36*
X78196Y-60663D02*
X78209Y-60664D01*
X78218Y-60665D01*
X78226Y-60666D01*
X78232Y-60669D01*
X78238Y-60672D01*
X78243Y-60676D01*
X78248Y-60682D01*
X78251Y-60689D01*
X78254Y-60697D01*
X78256Y-60704D01*
X78184Y-60704D01*
X78172Y-60704D01*
X78162Y-60705D01*
X78155Y-60706D01*
X78149Y-60708D01*
X78145Y-60711D01*
X78141Y-60715D01*
X78141Y-60716D01*
X78139Y-60719D01*
X78137Y-60722D01*
X78136Y-60726D01*
X78134Y-60730D01*
X78134Y-60735D01*
X78133Y-60742D01*
X78132Y-60751D01*
X78132Y-60762D01*
X78131Y-60775D01*
X78131Y-60791D01*
X78131Y-60810D01*
X78130Y-60832D01*
X78130Y-60847D01*
X78129Y-60950D01*
X78184Y-60950D01*
X78239Y-60950D01*
X78239Y-60842D01*
X78238Y-60734D01*
X78233Y-60723D01*
X78229Y-60716D01*
X78225Y-60711D01*
X78221Y-60708D01*
X78215Y-60706D01*
X78207Y-60705D01*
X78196Y-60704D01*
X78184Y-60704D01*
X78256Y-60704D01*
X78259Y-60711D01*
X78262Y-60701D01*
X78268Y-60688D01*
X78277Y-60678D01*
X78287Y-60671D01*
X78292Y-60669D01*
X78296Y-60668D01*
X78304Y-60668D01*
X78315Y-60667D01*
X78329Y-60667D01*
X78342Y-60667D01*
X78387Y-60667D01*
X78387Y-60686D01*
X78387Y-60705D01*
X78344Y-60705D01*
X78330Y-60705D01*
X78319Y-60706D01*
X78311Y-60706D01*
X78305Y-60706D01*
X78301Y-60707D01*
X78298Y-60708D01*
X78295Y-60709D01*
X78292Y-60710D01*
X78285Y-60715D01*
X78280Y-60722D01*
X78279Y-60725D01*
X78274Y-60734D01*
X78274Y-60842D01*
X78273Y-60950D01*
X78330Y-60950D01*
X78387Y-60950D01*
X78387Y-60971D01*
X78387Y-60992D01*
X78243Y-60992D01*
X78099Y-60991D01*
X78099Y-60862D01*
X78099Y-60835D01*
X78099Y-60811D01*
X78099Y-60791D01*
X78099Y-60774D01*
X78099Y-60759D01*
X78099Y-60746D01*
X78100Y-60736D01*
X78100Y-60728D01*
X78101Y-60721D01*
X78102Y-60715D01*
X78103Y-60710D01*
X78104Y-60705D01*
X78106Y-60702D01*
X78107Y-60698D01*
X78108Y-60696D01*
X78115Y-60684D01*
X78125Y-60675D01*
X78137Y-60669D01*
X78141Y-60667D01*
X78146Y-60666D01*
X78151Y-60665D01*
X78159Y-60665D01*
X78168Y-60664D01*
X78180Y-60664D01*
X78181Y-60664D01*
X78196Y-60663D01*
X78196Y-60663D01*
X78196Y-60663D01*
G37*
G36*
X78387Y-60548D02*
X78387Y-60568D01*
X78387Y-60588D01*
X78242Y-60588D01*
X78098Y-60588D01*
X78098Y-60568D01*
X78098Y-60548D01*
X78242Y-60548D01*
X78387Y-60548D01*
X78387Y-60548D01*
X78387Y-60548D01*
G37*
G36*
X78387Y-60180D02*
X78387Y-60322D01*
X78387Y-60465D01*
X78242Y-60465D01*
X78098Y-60465D01*
X78098Y-60323D01*
X78098Y-60182D01*
X78114Y-60182D01*
X78130Y-60182D01*
X78130Y-60303D01*
X78130Y-60425D01*
X78176Y-60425D01*
X78222Y-60425D01*
X78222Y-60308D01*
X78222Y-60191D01*
X78238Y-60191D01*
X78254Y-60191D01*
X78254Y-60308D01*
X78254Y-60425D01*
X78304Y-60425D01*
X78354Y-60425D01*
X78354Y-60302D01*
X78354Y-60180D01*
X78371Y-60180D01*
X78387Y-60180D01*
X78387Y-60180D01*
X78387Y-60180D01*
G37*
G36*
X77230Y-61100D02*
X77230Y-61277D01*
X77230Y-61455D01*
X77555Y-61455D01*
X77880Y-61455D01*
X77880Y-61527D01*
X77880Y-61598D01*
X77555Y-61598D01*
X77230Y-61598D01*
X77230Y-61777D01*
X77230Y-61955D01*
X77166Y-61955D01*
X77102Y-61955D01*
X77102Y-61528D01*
X77102Y-61100D01*
X77166Y-61100D01*
X77230Y-61100D01*
X77230Y-61100D01*
X77230Y-61100D01*
G37*
G36*
X77880Y-60894D02*
X77880Y-60965D01*
X77880Y-61037D01*
X77491Y-61037D01*
X77102Y-61037D01*
X77102Y-60965D01*
X77102Y-60894D01*
X77491Y-60894D01*
X77880Y-60894D01*
X77880Y-60894D01*
X77880Y-60894D01*
G37*
G36*
X77880Y-59791D02*
X77880Y-59792D01*
X77880Y-59798D01*
X77880Y-59806D01*
X77880Y-59817D01*
X77880Y-59831D01*
X77880Y-59847D01*
X77880Y-59865D01*
X77880Y-59885D01*
X77880Y-59906D01*
X77880Y-59918D01*
X77880Y-60046D01*
X77710Y-60288D01*
X77540Y-60530D01*
X77540Y-60569D01*
X77540Y-60608D01*
X77710Y-60608D01*
X77880Y-60608D01*
X77880Y-60680D01*
X77880Y-60752D01*
X77491Y-60752D01*
X77102Y-60752D01*
X77102Y-60680D01*
X77102Y-60608D01*
X77257Y-60608D01*
X77412Y-60608D01*
X77412Y-60565D01*
X77412Y-60522D01*
X77257Y-60301D01*
X77102Y-60080D01*
X77102Y-59958D01*
X77102Y-59835D01*
X77107Y-59843D01*
X77109Y-59845D01*
X77113Y-59850D01*
X77118Y-59858D01*
X77126Y-59869D01*
X77135Y-59882D01*
X77145Y-59897D01*
X77158Y-59915D01*
X77171Y-59934D01*
X77186Y-59956D01*
X77201Y-59978D01*
X77218Y-60003D01*
X77236Y-60028D01*
X77254Y-60055D01*
X77273Y-60082D01*
X77293Y-60111D01*
X77312Y-60139D01*
X77331Y-60166D01*
X77350Y-60193D01*
X77367Y-60218D01*
X77384Y-60242D01*
X77399Y-60265D01*
X77414Y-60285D01*
X77427Y-60304D01*
X77439Y-60322D01*
X77449Y-60337D01*
X77458Y-60349D01*
X77465Y-60359D01*
X77470Y-60367D01*
X77473Y-60372D01*
X77475Y-60374D01*
X77476Y-60373D01*
X77477Y-60371D01*
X77480Y-60368D01*
X77484Y-60362D01*
X77490Y-60355D01*
X77496Y-60346D01*
X77504Y-60335D01*
X77513Y-60322D01*
X77524Y-60306D01*
X77537Y-60288D01*
X77551Y-60268D01*
X77566Y-60245D01*
X77584Y-60220D01*
X77603Y-60192D01*
X77624Y-60161D01*
X77648Y-60127D01*
X77673Y-60091D01*
X77678Y-60083D01*
X77698Y-60053D01*
X77718Y-60024D01*
X77738Y-59996D01*
X77756Y-59969D01*
X77774Y-59943D01*
X77791Y-59919D01*
X77806Y-59897D01*
X77821Y-59876D01*
X77834Y-59857D01*
X77845Y-59840D01*
X77855Y-59825D01*
X77864Y-59813D01*
X77871Y-59803D01*
X77876Y-59796D01*
X77879Y-59792D01*
X77880Y-59791D01*
X77880Y-59791D01*
X77880Y-59791D01*
G37*
G36*
X77098Y-63977D02*
X77487Y-63977D01*
X77876Y-63978D01*
X77876Y-64049D01*
X77876Y-64065D01*
X77876Y-64079D01*
X77876Y-64093D01*
X77876Y-64104D01*
X77876Y-64112D01*
X77876Y-64118D01*
X77875Y-64121D01*
X77875Y-64121D01*
X77873Y-64121D01*
X77868Y-64121D01*
X77859Y-64121D01*
X77846Y-64121D01*
X77831Y-64121D01*
X77813Y-64122D01*
X77792Y-64122D01*
X77769Y-64122D01*
X77743Y-64122D01*
X77715Y-64122D01*
X77685Y-64122D01*
X77653Y-64122D01*
X77619Y-64122D01*
X77584Y-64122D01*
X77548Y-64122D01*
X77511Y-64122D01*
X77486Y-64122D01*
X77098Y-64122D01*
X77098Y-64049D01*
X77098Y-63977D01*
X77098Y-63977D01*
X77098Y-63977D01*
G37*
G36*
X77877Y-62913D02*
X77877Y-63001D01*
X77877Y-63089D01*
X77573Y-63394D01*
X77270Y-63698D01*
X77573Y-63698D01*
X77877Y-63699D01*
X77877Y-63771D01*
X77877Y-63843D01*
X77487Y-63843D01*
X77098Y-63843D01*
X77099Y-63754D01*
X77099Y-63665D01*
X77402Y-63361D01*
X77705Y-63057D01*
X77402Y-63057D01*
X77098Y-63057D01*
X77098Y-62985D01*
X77098Y-62913D01*
X77487Y-62913D01*
X77877Y-62913D01*
X77877Y-62913D01*
X77877Y-62913D01*
G37*
G36*
X77877Y-62040D02*
X77877Y-62412D01*
X77877Y-62783D01*
X77487Y-62783D01*
X77098Y-62783D01*
X77098Y-62413D01*
X77098Y-62044D01*
X77162Y-62044D01*
X77227Y-62044D01*
X77227Y-62342D01*
X77227Y-62639D01*
X77319Y-62639D01*
X77412Y-62639D01*
X77412Y-62353D01*
X77412Y-62067D01*
X77476Y-62067D01*
X77540Y-62067D01*
X77540Y-62353D01*
X77540Y-62639D01*
X77643Y-62639D01*
X77746Y-62639D01*
X77746Y-62340D01*
X77746Y-62040D01*
X77811Y-62040D01*
X77877Y-62040D01*
X77877Y-62040D01*
X77877Y-62040D01*
G37*
G54D10*
X95650Y-63575D02*
X95650Y-62975D01*
X95350Y-63275D02*
X95950Y-63275D01*
X92950Y-63275D02*
X92450Y-63275D01*
G54D13*
X95150Y-63275D02*
G75*
G03X95150Y-63275I-1000J0D01*
G74*
G01*
G54D10*
X95650Y-76700D02*
X95650Y-76100D01*
X95350Y-76400D02*
X95950Y-76400D01*
X92950Y-76400D02*
X92450Y-76400D01*
G54D13*
X95150Y-76400D02*
G75*
G03X95150Y-76400I-1000J0D01*
G74*
G01*
G54D10*
X53150Y-65250D02*
X52350Y-65250D01*
X52350Y-63050D02*
X52350Y-65550D01*
X53150Y-65550D02*
X52350Y-65550D01*
X53150Y-63050D02*
X53150Y-65550D01*
X52750Y-63050D02*
X52350Y-63050D01*
X52750Y-63050D02*
X53150Y-63050D01*
X52750Y-65800D02*
X52750Y-65550D01*
X52750Y-62800D02*
X52750Y-63050D01*
X52306Y-61000D02*
G75*
G03X52306Y-61000I-556J0D01*
G74*
G01*
X67175Y-64621D02*
X67156Y-64640D01*
X67100Y-64659D01*
X67062Y-64659D01*
X67006Y-64640D01*
X66968Y-64603D01*
X66950Y-64565D01*
X66931Y-64490D01*
X66931Y-64434D01*
X66950Y-64359D01*
X66968Y-64321D01*
X67006Y-64284D01*
X67062Y-64265D01*
X67100Y-64265D01*
X67156Y-64284D01*
X67175Y-64303D01*
X67343Y-64659D02*
X67343Y-64265D01*
X67437Y-64265D01*
X67493Y-64284D01*
X67531Y-64321D01*
X67550Y-64359D01*
X67568Y-64434D01*
X67568Y-64490D01*
X67550Y-64565D01*
X67531Y-64603D01*
X67493Y-64640D01*
X67437Y-64659D01*
X67343Y-64659D01*
X67906Y-64396D02*
X67906Y-64659D01*
X67812Y-64246D02*
X67718Y-64528D01*
X67962Y-64528D01*
X68187Y-64265D02*
X68224Y-64265D01*
X68262Y-64284D01*
X68281Y-64303D01*
X68299Y-64340D01*
X68318Y-64415D01*
X68318Y-64509D01*
X68299Y-64584D01*
X68281Y-64621D01*
X68262Y-64640D01*
X68224Y-64659D01*
X68187Y-64659D01*
X68149Y-64640D01*
X68131Y-64621D01*
X68112Y-64584D01*
X68093Y-64509D01*
X68093Y-64415D01*
X68112Y-64340D01*
X68131Y-64303D01*
X68149Y-64284D01*
X68187Y-64265D01*
X68506Y-64659D02*
X68581Y-64659D01*
X68618Y-64640D01*
X68637Y-64621D01*
X68674Y-64565D01*
X68693Y-64490D01*
X68693Y-64340D01*
X68674Y-64303D01*
X68656Y-64284D01*
X68618Y-64265D01*
X68543Y-64265D01*
X68506Y-64284D01*
X68487Y-64303D01*
X68468Y-64340D01*
X68468Y-64434D01*
X68487Y-64471D01*
X68506Y-64490D01*
X68543Y-64509D01*
X68618Y-64509D01*
X68656Y-64490D01*
X68674Y-64471D01*
X68693Y-64434D01*
X68824Y-64265D02*
X69068Y-64265D01*
X68937Y-64415D01*
X68993Y-64415D01*
X69031Y-64434D01*
X69049Y-64453D01*
X69068Y-64490D01*
X69068Y-64584D01*
X69049Y-64621D01*
X69031Y-64640D01*
X68993Y-64659D01*
X68881Y-64659D01*
X68843Y-64640D01*
X68824Y-64621D01*
X96737Y-66621D02*
X96718Y-66640D01*
X96662Y-66659D01*
X96625Y-66659D01*
X96568Y-66640D01*
X96531Y-66603D01*
X96512Y-66565D01*
X96493Y-66490D01*
X96493Y-66434D01*
X96512Y-66359D01*
X96531Y-66321D01*
X96568Y-66284D01*
X96625Y-66265D01*
X96662Y-66265D01*
X96718Y-66284D01*
X96737Y-66303D01*
X96906Y-66659D02*
X96906Y-66265D01*
X97000Y-66265D01*
X97056Y-66284D01*
X97093Y-66321D01*
X97112Y-66359D01*
X97131Y-66434D01*
X97131Y-66490D01*
X97112Y-66565D01*
X97093Y-66603D01*
X97056Y-66640D01*
X97000Y-66659D01*
X96906Y-66659D01*
X97468Y-66396D02*
X97468Y-66659D01*
X97375Y-66246D02*
X97281Y-66528D01*
X97525Y-66528D01*
X97750Y-66265D02*
X97787Y-66265D01*
X97824Y-66284D01*
X97843Y-66303D01*
X97862Y-66340D01*
X97881Y-66415D01*
X97881Y-66509D01*
X97862Y-66584D01*
X97843Y-66621D01*
X97824Y-66640D01*
X97787Y-66659D01*
X97750Y-66659D01*
X97712Y-66640D01*
X97693Y-66621D01*
X97675Y-66584D01*
X97656Y-66509D01*
X97656Y-66415D01*
X97675Y-66340D01*
X97693Y-66303D01*
X97712Y-66284D01*
X97750Y-66265D01*
X98256Y-66659D02*
X98031Y-66659D01*
X98143Y-66659D02*
X98143Y-66265D01*
X98106Y-66321D01*
X98068Y-66359D01*
X98031Y-66378D01*
X98499Y-66265D02*
X98537Y-66265D01*
X98574Y-66284D01*
X98593Y-66303D01*
X98612Y-66340D01*
X98631Y-66415D01*
X98631Y-66509D01*
X98612Y-66584D01*
X98593Y-66621D01*
X98574Y-66640D01*
X98537Y-66659D01*
X98499Y-66659D01*
X98462Y-66640D01*
X98443Y-66621D01*
X98424Y-66584D01*
X98406Y-66509D01*
X98406Y-66415D01*
X98424Y-66340D01*
X98443Y-66303D01*
X98462Y-66284D01*
X98499Y-66265D01*
X98968Y-66265D02*
X98893Y-66265D01*
X98856Y-66284D01*
X98837Y-66303D01*
X98799Y-66359D01*
X98781Y-66434D01*
X98781Y-66584D01*
X98799Y-66621D01*
X98818Y-66640D01*
X98856Y-66659D01*
X98931Y-66659D01*
X98968Y-66640D01*
X98987Y-66621D01*
X99006Y-66584D01*
X99006Y-66490D01*
X98987Y-66453D01*
X98968Y-66434D01*
X98931Y-66415D01*
X98856Y-66415D01*
X98818Y-66434D01*
X98799Y-66453D01*
X98781Y-66490D01*
X115603Y-47371D02*
X115584Y-47390D01*
X115528Y-47409D01*
X115490Y-47409D01*
X115434Y-47390D01*
X115396Y-47353D01*
X115378Y-47315D01*
X115359Y-47240D01*
X115359Y-47184D01*
X115378Y-47109D01*
X115396Y-47071D01*
X115434Y-47034D01*
X115490Y-47015D01*
X115528Y-47015D01*
X115584Y-47034D01*
X115603Y-47053D01*
X115771Y-47409D02*
X115771Y-47015D01*
X115771Y-47203D02*
X115996Y-47203D01*
X115996Y-47409D02*
X115996Y-47015D01*
X116165Y-47296D02*
X116353Y-47296D01*
X116128Y-47409D02*
X116259Y-47015D01*
X116390Y-47409D01*
X116596Y-47015D02*
X116671Y-47015D01*
X116709Y-47034D01*
X116746Y-47071D01*
X116765Y-47146D01*
X116765Y-47278D01*
X116746Y-47353D01*
X116709Y-47390D01*
X116671Y-47409D01*
X116596Y-47409D01*
X116559Y-47390D01*
X116521Y-47353D01*
X116503Y-47278D01*
X116503Y-47146D01*
X116521Y-47071D01*
X116559Y-47034D01*
X116596Y-47015D01*
X116915Y-47390D02*
X116971Y-47409D01*
X117065Y-47409D01*
X117103Y-47390D01*
X117121Y-47371D01*
X117140Y-47334D01*
X117140Y-47296D01*
X117121Y-47259D01*
X117103Y-47240D01*
X117065Y-47221D01*
X116990Y-47203D01*
X116953Y-47184D01*
X116934Y-47165D01*
X116915Y-47128D01*
X116915Y-47090D01*
X116934Y-47053D01*
X116953Y-47034D01*
X116990Y-47015D01*
X117084Y-47015D01*
X117140Y-47034D01*
X95543Y-47371D02*
X95525Y-47390D01*
X95468Y-47409D01*
X95431Y-47409D01*
X95375Y-47390D01*
X95337Y-47353D01*
X95318Y-47315D01*
X95300Y-47240D01*
X95300Y-47184D01*
X95318Y-47109D01*
X95337Y-47071D01*
X95375Y-47034D01*
X95431Y-47015D01*
X95468Y-47015D01*
X95525Y-47034D01*
X95543Y-47053D01*
X95900Y-47409D02*
X95712Y-47409D01*
X95712Y-47015D01*
X96031Y-47015D02*
X96031Y-47334D01*
X96050Y-47371D01*
X96068Y-47390D01*
X96106Y-47409D01*
X96181Y-47409D01*
X96218Y-47390D01*
X96237Y-47371D01*
X96256Y-47334D01*
X96256Y-47015D01*
X96425Y-47390D02*
X96481Y-47409D01*
X96574Y-47409D01*
X96612Y-47390D01*
X96631Y-47371D01*
X96649Y-47334D01*
X96649Y-47296D01*
X96631Y-47259D01*
X96612Y-47240D01*
X96574Y-47221D01*
X96500Y-47203D01*
X96462Y-47184D01*
X96443Y-47165D01*
X96425Y-47128D01*
X96425Y-47090D01*
X96443Y-47053D01*
X96462Y-47034D01*
X96500Y-47015D01*
X96593Y-47015D01*
X96649Y-47034D01*
X96762Y-47015D02*
X96987Y-47015D01*
X96874Y-47409D02*
X96874Y-47015D01*
X97118Y-47203D02*
X97249Y-47203D01*
X97306Y-47409D02*
X97118Y-47409D01*
X97118Y-47015D01*
X97306Y-47015D01*
X97699Y-47409D02*
X97568Y-47221D01*
X97474Y-47409D02*
X97474Y-47015D01*
X97624Y-47015D01*
X97662Y-47034D01*
X97681Y-47053D01*
X97699Y-47090D01*
X97699Y-47146D01*
X97681Y-47184D01*
X97662Y-47203D01*
X97624Y-47221D01*
X97474Y-47221D01*
X105418Y-47409D02*
X105418Y-47015D01*
X105512Y-47015D01*
X105568Y-47034D01*
X105606Y-47071D01*
X105625Y-47109D01*
X105643Y-47184D01*
X105643Y-47240D01*
X105625Y-47315D01*
X105606Y-47353D01*
X105568Y-47390D01*
X105512Y-47409D01*
X105418Y-47409D01*
X105812Y-47015D02*
X105812Y-47334D01*
X105831Y-47371D01*
X105850Y-47390D01*
X105887Y-47409D01*
X105962Y-47409D01*
X106000Y-47390D01*
X106018Y-47371D01*
X106037Y-47334D01*
X106037Y-47015D01*
X106206Y-47296D02*
X106393Y-47296D01*
X106168Y-47409D02*
X106300Y-47015D01*
X106431Y-47409D01*
X106750Y-47409D02*
X106562Y-47409D01*
X106562Y-47015D01*
X107106Y-47409D02*
X106974Y-47221D01*
X106881Y-47409D02*
X106881Y-47015D01*
X107031Y-47015D01*
X107068Y-47034D01*
X107087Y-47053D01*
X107106Y-47090D01*
X107106Y-47146D01*
X107087Y-47184D01*
X107068Y-47203D01*
X107031Y-47221D01*
X106881Y-47221D01*
X107274Y-47409D02*
X107274Y-47015D01*
X107462Y-47409D02*
X107462Y-47015D01*
X107687Y-47409D01*
X107687Y-47015D01*
X108081Y-47034D02*
X108043Y-47015D01*
X107987Y-47015D01*
X107931Y-47034D01*
X107893Y-47071D01*
X107874Y-47109D01*
X107856Y-47184D01*
X107856Y-47240D01*
X107874Y-47315D01*
X107893Y-47353D01*
X107931Y-47390D01*
X107987Y-47409D01*
X108024Y-47409D01*
X108081Y-47390D01*
X108099Y-47371D01*
X108099Y-47240D01*
X108024Y-47240D01*
X49200Y-59784D02*
X49162Y-59765D01*
X49106Y-59765D01*
X49050Y-59784D01*
X49012Y-59821D01*
X48993Y-59859D01*
X48975Y-59934D01*
X48975Y-59990D01*
X48993Y-60065D01*
X49012Y-60103D01*
X49050Y-60140D01*
X49106Y-60159D01*
X49143Y-60159D01*
X49200Y-60140D01*
X49218Y-60121D01*
X49218Y-59990D01*
X49143Y-59990D01*
X49387Y-60159D02*
X49387Y-59765D01*
X49612Y-60159D01*
X49612Y-59765D01*
X49799Y-60159D02*
X49799Y-59765D01*
X49893Y-59765D01*
X49949Y-59784D01*
X49987Y-59821D01*
X50006Y-59859D01*
X50024Y-59934D01*
X50024Y-59990D01*
X50006Y-60065D01*
X49987Y-60103D01*
X49949Y-60140D01*
X49893Y-60159D01*
X49799Y-60159D01*
X88450Y-47034D02*
X88412Y-47015D01*
X88356Y-47015D01*
X88300Y-47034D01*
X88262Y-47071D01*
X88243Y-47109D01*
X88225Y-47184D01*
X88225Y-47240D01*
X88243Y-47315D01*
X88262Y-47353D01*
X88300Y-47390D01*
X88356Y-47409D01*
X88393Y-47409D01*
X88450Y-47390D01*
X88468Y-47371D01*
X88468Y-47240D01*
X88393Y-47240D01*
X88637Y-47409D02*
X88637Y-47015D01*
X88862Y-47409D01*
X88862Y-47015D01*
X89049Y-47409D02*
X89049Y-47015D01*
X89143Y-47015D01*
X89199Y-47034D01*
X89237Y-47071D01*
X89256Y-47109D01*
X89274Y-47184D01*
X89274Y-47240D01*
X89256Y-47315D01*
X89237Y-47353D01*
X89199Y-47390D01*
X89143Y-47409D01*
X89049Y-47409D01*
X77040Y-49659D02*
X76815Y-49659D01*
X76928Y-49659D02*
X76928Y-49265D01*
X76890Y-49321D01*
X76853Y-49359D01*
X76815Y-49378D01*
X77284Y-49265D02*
X77321Y-49265D01*
X77359Y-49284D01*
X77378Y-49303D01*
X77396Y-49340D01*
X77415Y-49415D01*
X77415Y-49509D01*
X77396Y-49584D01*
X77378Y-49621D01*
X77359Y-49640D01*
X77321Y-49659D01*
X77284Y-49659D01*
X77246Y-49640D01*
X77228Y-49621D01*
X77209Y-49584D01*
X77190Y-49509D01*
X77190Y-49415D01*
X77209Y-49340D01*
X77228Y-49303D01*
X77246Y-49284D01*
X77284Y-49265D01*
X77659Y-49265D02*
X77696Y-49265D01*
X77734Y-49284D01*
X77753Y-49303D01*
X77771Y-49340D01*
X77790Y-49415D01*
X77790Y-49509D01*
X77771Y-49584D01*
X77753Y-49621D01*
X77734Y-49640D01*
X77696Y-49659D01*
X77659Y-49659D01*
X77621Y-49640D01*
X77603Y-49621D01*
X77584Y-49584D01*
X77565Y-49509D01*
X77565Y-49415D01*
X77584Y-49340D01*
X77603Y-49303D01*
X77621Y-49284D01*
X77659Y-49265D01*
X77959Y-49659D02*
X77959Y-49265D01*
X78184Y-49659D02*
X78015Y-49434D01*
X78184Y-49265D02*
X77959Y-49490D01*
X57040Y-49659D02*
X56815Y-49659D01*
X56928Y-49659D02*
X56928Y-49265D01*
X56890Y-49321D01*
X56853Y-49359D01*
X56815Y-49378D01*
X57284Y-49265D02*
X57321Y-49265D01*
X57359Y-49284D01*
X57378Y-49303D01*
X57396Y-49340D01*
X57415Y-49415D01*
X57415Y-49509D01*
X57396Y-49584D01*
X57378Y-49621D01*
X57359Y-49640D01*
X57321Y-49659D01*
X57284Y-49659D01*
X57246Y-49640D01*
X57228Y-49621D01*
X57209Y-49584D01*
X57190Y-49509D01*
X57190Y-49415D01*
X57209Y-49340D01*
X57228Y-49303D01*
X57246Y-49284D01*
X57284Y-49265D01*
X57659Y-49265D02*
X57696Y-49265D01*
X57734Y-49284D01*
X57753Y-49303D01*
X57771Y-49340D01*
X57790Y-49415D01*
X57790Y-49509D01*
X57771Y-49584D01*
X57753Y-49621D01*
X57734Y-49640D01*
X57696Y-49659D01*
X57659Y-49659D01*
X57621Y-49640D01*
X57603Y-49621D01*
X57584Y-49584D01*
X57565Y-49509D01*
X57565Y-49415D01*
X57584Y-49340D01*
X57603Y-49303D01*
X57621Y-49284D01*
X57659Y-49265D01*
X57959Y-49659D02*
X57959Y-49265D01*
X58184Y-49659D02*
X58015Y-49434D01*
X58184Y-49265D02*
X57959Y-49490D01*
X67040Y-49659D02*
X66815Y-49659D01*
X66928Y-49659D02*
X66928Y-49265D01*
X66890Y-49321D01*
X66853Y-49359D01*
X66815Y-49378D01*
X67284Y-49265D02*
X67321Y-49265D01*
X67359Y-49284D01*
X67378Y-49303D01*
X67396Y-49340D01*
X67415Y-49415D01*
X67415Y-49509D01*
X67396Y-49584D01*
X67378Y-49621D01*
X67359Y-49640D01*
X67321Y-49659D01*
X67284Y-49659D01*
X67246Y-49640D01*
X67228Y-49621D01*
X67209Y-49584D01*
X67190Y-49509D01*
X67190Y-49415D01*
X67209Y-49340D01*
X67228Y-49303D01*
X67246Y-49284D01*
X67284Y-49265D01*
X67659Y-49265D02*
X67696Y-49265D01*
X67734Y-49284D01*
X67753Y-49303D01*
X67771Y-49340D01*
X67790Y-49415D01*
X67790Y-49509D01*
X67771Y-49584D01*
X67753Y-49621D01*
X67734Y-49640D01*
X67696Y-49659D01*
X67659Y-49659D01*
X67621Y-49640D01*
X67603Y-49621D01*
X67584Y-49584D01*
X67565Y-49509D01*
X67565Y-49415D01*
X67584Y-49340D01*
X67603Y-49303D01*
X67621Y-49284D01*
X67659Y-49265D01*
X67959Y-49659D02*
X67959Y-49265D01*
X68184Y-49659D02*
X68015Y-49434D01*
X68184Y-49265D02*
X67959Y-49490D01*
X87040Y-49659D02*
X86815Y-49659D01*
X86928Y-49659D02*
X86928Y-49265D01*
X86890Y-49321D01*
X86853Y-49359D01*
X86815Y-49378D01*
X87284Y-49265D02*
X87321Y-49265D01*
X87359Y-49284D01*
X87378Y-49303D01*
X87396Y-49340D01*
X87415Y-49415D01*
X87415Y-49509D01*
X87396Y-49584D01*
X87378Y-49621D01*
X87359Y-49640D01*
X87321Y-49659D01*
X87284Y-49659D01*
X87246Y-49640D01*
X87228Y-49621D01*
X87209Y-49584D01*
X87190Y-49509D01*
X87190Y-49415D01*
X87209Y-49340D01*
X87228Y-49303D01*
X87246Y-49284D01*
X87284Y-49265D01*
X87659Y-49265D02*
X87696Y-49265D01*
X87734Y-49284D01*
X87753Y-49303D01*
X87771Y-49340D01*
X87790Y-49415D01*
X87790Y-49509D01*
X87771Y-49584D01*
X87753Y-49621D01*
X87734Y-49640D01*
X87696Y-49659D01*
X87659Y-49659D01*
X87621Y-49640D01*
X87603Y-49621D01*
X87584Y-49584D01*
X87565Y-49509D01*
X87565Y-49415D01*
X87584Y-49340D01*
X87603Y-49303D01*
X87621Y-49284D01*
X87659Y-49265D01*
X87959Y-49659D02*
X87959Y-49265D01*
X88184Y-49659D02*
X88015Y-49434D01*
X88184Y-49265D02*
X87959Y-49490D01*
X77915Y-73659D02*
X77690Y-73659D01*
X77803Y-73659D02*
X77803Y-73265D01*
X77765Y-73321D01*
X77728Y-73359D01*
X77690Y-73378D01*
X78084Y-73659D02*
X78084Y-73265D01*
X78309Y-73659D02*
X78140Y-73434D01*
X78309Y-73265D02*
X78084Y-73490D01*
X58540Y-71159D02*
X58315Y-71159D01*
X58428Y-71159D02*
X58428Y-70765D01*
X58390Y-70821D01*
X58353Y-70859D01*
X58315Y-70878D01*
X58784Y-70765D02*
X58821Y-70765D01*
X58859Y-70784D01*
X58878Y-70803D01*
X58896Y-70840D01*
X58915Y-70915D01*
X58915Y-71009D01*
X58896Y-71084D01*
X58878Y-71121D01*
X58859Y-71140D01*
X58821Y-71159D01*
X58784Y-71159D01*
X58746Y-71140D01*
X58728Y-71121D01*
X58709Y-71084D01*
X58690Y-71009D01*
X58690Y-70915D01*
X58709Y-70840D01*
X58728Y-70803D01*
X58746Y-70784D01*
X58784Y-70765D01*
X59159Y-70765D02*
X59196Y-70765D01*
X59234Y-70784D01*
X59253Y-70803D01*
X59271Y-70840D01*
X59290Y-70915D01*
X59290Y-71009D01*
X59271Y-71084D01*
X59253Y-71121D01*
X59234Y-71140D01*
X59196Y-71159D01*
X59159Y-71159D01*
X59121Y-71140D01*
X59103Y-71121D01*
X59084Y-71084D01*
X59065Y-71009D01*
X59065Y-70915D01*
X59084Y-70840D01*
X59103Y-70803D01*
X59121Y-70784D01*
X59159Y-70765D01*
X59459Y-71159D02*
X59459Y-70765D01*
X59684Y-71159D02*
X59515Y-70934D01*
X59684Y-70765D02*
X59459Y-70990D01*
X75828Y-71159D02*
X75603Y-71159D01*
X75715Y-71159D02*
X75715Y-70765D01*
X75678Y-70821D01*
X75640Y-70859D01*
X75603Y-70878D01*
X76071Y-70765D02*
X76109Y-70765D01*
X76146Y-70784D01*
X76165Y-70803D01*
X76184Y-70840D01*
X76203Y-70915D01*
X76203Y-71009D01*
X76184Y-71084D01*
X76165Y-71121D01*
X76146Y-71140D01*
X76109Y-71159D01*
X76071Y-71159D01*
X76034Y-71140D01*
X76015Y-71121D01*
X75996Y-71084D01*
X75978Y-71009D01*
X75978Y-70915D01*
X75996Y-70840D01*
X76015Y-70803D01*
X76034Y-70784D01*
X76071Y-70765D01*
X76446Y-70765D02*
X76484Y-70765D01*
X76521Y-70784D01*
X76540Y-70803D01*
X76559Y-70840D01*
X76578Y-70915D01*
X76578Y-71009D01*
X76559Y-71084D01*
X76540Y-71121D01*
X76521Y-71140D01*
X76484Y-71159D01*
X76446Y-71159D01*
X76409Y-71140D01*
X76390Y-71121D01*
X76371Y-71084D01*
X76353Y-71009D01*
X76353Y-70915D01*
X76371Y-70840D01*
X76390Y-70803D01*
X76409Y-70784D01*
X76446Y-70765D01*
X76746Y-71159D02*
X76746Y-70765D01*
X76784Y-71009D02*
X76896Y-71159D01*
X76896Y-70896D02*
X76746Y-71046D01*
X67915Y-73659D02*
X67690Y-73659D01*
X67803Y-73659D02*
X67803Y-73265D01*
X67765Y-73321D01*
X67728Y-73359D01*
X67690Y-73378D01*
X68084Y-73659D02*
X68084Y-73265D01*
X68309Y-73659D02*
X68140Y-73434D01*
X68309Y-73265D02*
X68084Y-73490D01*
X117040Y-53159D02*
X116815Y-53159D01*
X116928Y-53159D02*
X116928Y-52765D01*
X116890Y-52821D01*
X116853Y-52859D01*
X116815Y-52878D01*
X117284Y-52765D02*
X117321Y-52765D01*
X117359Y-52784D01*
X117378Y-52803D01*
X117396Y-52840D01*
X117415Y-52915D01*
X117415Y-53009D01*
X117396Y-53084D01*
X117378Y-53121D01*
X117359Y-53140D01*
X117321Y-53159D01*
X117284Y-53159D01*
X117246Y-53140D01*
X117228Y-53121D01*
X117209Y-53084D01*
X117190Y-53009D01*
X117190Y-52915D01*
X117209Y-52840D01*
X117228Y-52803D01*
X117246Y-52784D01*
X117284Y-52765D01*
X117659Y-52765D02*
X117696Y-52765D01*
X117734Y-52784D01*
X117753Y-52803D01*
X117771Y-52840D01*
X117790Y-52915D01*
X117790Y-53009D01*
X117771Y-53084D01*
X117753Y-53121D01*
X117734Y-53140D01*
X117696Y-53159D01*
X117659Y-53159D01*
X117621Y-53140D01*
X117603Y-53121D01*
X117584Y-53084D01*
X117565Y-53009D01*
X117565Y-52915D01*
X117584Y-52840D01*
X117603Y-52803D01*
X117621Y-52784D01*
X117659Y-52765D01*
X117959Y-53159D02*
X117959Y-52765D01*
X118184Y-53159D02*
X118015Y-52934D01*
X118184Y-52765D02*
X117959Y-52990D01*
X82578Y-71159D02*
X82353Y-71159D01*
X82465Y-71159D02*
X82465Y-70765D01*
X82428Y-70821D01*
X82390Y-70859D01*
X82353Y-70878D01*
X82821Y-70765D02*
X82859Y-70765D01*
X82896Y-70784D01*
X82915Y-70803D01*
X82934Y-70840D01*
X82953Y-70915D01*
X82953Y-71009D01*
X82934Y-71084D01*
X82915Y-71121D01*
X82896Y-71140D01*
X82859Y-71159D01*
X82821Y-71159D01*
X82784Y-71140D01*
X82765Y-71121D01*
X82746Y-71084D01*
X82728Y-71009D01*
X82728Y-70915D01*
X82746Y-70840D01*
X82765Y-70803D01*
X82784Y-70784D01*
X82821Y-70765D01*
X83196Y-70765D02*
X83234Y-70765D01*
X83271Y-70784D01*
X83290Y-70803D01*
X83309Y-70840D01*
X83328Y-70915D01*
X83328Y-71009D01*
X83309Y-71084D01*
X83290Y-71121D01*
X83271Y-71140D01*
X83234Y-71159D01*
X83196Y-71159D01*
X83159Y-71140D01*
X83140Y-71121D01*
X83121Y-71084D01*
X83103Y-71009D01*
X83103Y-70915D01*
X83121Y-70840D01*
X83140Y-70803D01*
X83159Y-70784D01*
X83196Y-70765D01*
X83496Y-71159D02*
X83496Y-70765D01*
X83534Y-71009D02*
X83646Y-71159D01*
X83646Y-70896D02*
X83496Y-71046D01*
X91540Y-58159D02*
X91315Y-58159D01*
X91428Y-58159D02*
X91428Y-57765D01*
X91390Y-57821D01*
X91353Y-57859D01*
X91315Y-57878D01*
X91784Y-57765D02*
X91821Y-57765D01*
X91859Y-57784D01*
X91878Y-57803D01*
X91896Y-57840D01*
X91915Y-57915D01*
X91915Y-58009D01*
X91896Y-58084D01*
X91878Y-58121D01*
X91859Y-58140D01*
X91821Y-58159D01*
X91784Y-58159D01*
X91746Y-58140D01*
X91728Y-58121D01*
X91709Y-58084D01*
X91690Y-58009D01*
X91690Y-57915D01*
X91709Y-57840D01*
X91728Y-57803D01*
X91746Y-57784D01*
X91784Y-57765D01*
X92159Y-57765D02*
X92196Y-57765D01*
X92234Y-57784D01*
X92253Y-57803D01*
X92271Y-57840D01*
X92290Y-57915D01*
X92290Y-58009D01*
X92271Y-58084D01*
X92253Y-58121D01*
X92234Y-58140D01*
X92196Y-58159D01*
X92159Y-58159D01*
X92121Y-58140D01*
X92103Y-58121D01*
X92084Y-58084D01*
X92065Y-58009D01*
X92065Y-57915D01*
X92084Y-57840D01*
X92103Y-57803D01*
X92121Y-57784D01*
X92159Y-57765D01*
X92459Y-58159D02*
X92459Y-57765D01*
X92684Y-58159D02*
X92515Y-57934D01*
X92684Y-57765D02*
X92459Y-57990D01*
X87290Y-58159D02*
X87065Y-58159D01*
X87178Y-58159D02*
X87178Y-57765D01*
X87140Y-57821D01*
X87103Y-57859D01*
X87065Y-57878D01*
X87534Y-57765D02*
X87571Y-57765D01*
X87609Y-57784D01*
X87628Y-57803D01*
X87646Y-57840D01*
X87665Y-57915D01*
X87665Y-58009D01*
X87646Y-58084D01*
X87628Y-58121D01*
X87609Y-58140D01*
X87571Y-58159D01*
X87534Y-58159D01*
X87496Y-58140D01*
X87478Y-58121D01*
X87459Y-58084D01*
X87440Y-58009D01*
X87440Y-57915D01*
X87459Y-57840D01*
X87478Y-57803D01*
X87496Y-57784D01*
X87534Y-57765D01*
X87909Y-57765D02*
X87946Y-57765D01*
X87984Y-57784D01*
X88003Y-57803D01*
X88021Y-57840D01*
X88040Y-57915D01*
X88040Y-58009D01*
X88021Y-58084D01*
X88003Y-58121D01*
X87984Y-58140D01*
X87946Y-58159D01*
X87909Y-58159D01*
X87871Y-58140D01*
X87853Y-58121D01*
X87834Y-58084D01*
X87815Y-58009D01*
X87815Y-57915D01*
X87834Y-57840D01*
X87853Y-57803D01*
X87871Y-57784D01*
X87909Y-57765D01*
X88209Y-58159D02*
X88209Y-57765D01*
X88434Y-58159D02*
X88265Y-57934D01*
X88434Y-57765D02*
X88209Y-57990D01*
X57915Y-73659D02*
X57690Y-73659D01*
X57803Y-73659D02*
X57803Y-73265D01*
X57765Y-73321D01*
X57728Y-73359D01*
X57690Y-73378D01*
X58084Y-73659D02*
X58084Y-73265D01*
X58309Y-73659D02*
X58140Y-73434D01*
X58309Y-73265D02*
X58084Y-73490D01*
X105915Y-60409D02*
X105690Y-60409D01*
X105803Y-60409D02*
X105803Y-60015D01*
X105765Y-60071D01*
X105728Y-60109D01*
X105690Y-60128D01*
X106084Y-60409D02*
X106084Y-60015D01*
X106309Y-60409D02*
X106140Y-60184D01*
X106309Y-60015D02*
X106084Y-60240D01*
X103262Y-68803D02*
X103281Y-68784D01*
X103318Y-68765D01*
X103412Y-68765D01*
X103450Y-68784D01*
X103468Y-68803D01*
X103487Y-68840D01*
X103487Y-68878D01*
X103468Y-68934D01*
X103243Y-69159D01*
X103487Y-69159D01*
X103637Y-68803D02*
X103656Y-68784D01*
X103693Y-68765D01*
X103787Y-68765D01*
X103824Y-68784D01*
X103843Y-68803D01*
X103862Y-68840D01*
X103862Y-68878D01*
X103843Y-68934D01*
X103618Y-69159D01*
X103862Y-69159D01*
X104106Y-68765D02*
X104143Y-68765D01*
X104181Y-68784D01*
X104199Y-68803D01*
X104218Y-68840D01*
X104237Y-68915D01*
X104237Y-69009D01*
X104218Y-69084D01*
X104199Y-69121D01*
X104181Y-69140D01*
X104143Y-69159D01*
X104106Y-69159D01*
X104068Y-69140D01*
X104049Y-69121D01*
X104031Y-69084D01*
X104012Y-69009D01*
X104012Y-68915D01*
X104031Y-68840D01*
X104049Y-68803D01*
X104068Y-68784D01*
X104106Y-68765D01*
X89346Y-67646D02*
X89346Y-67909D01*
X89253Y-67496D02*
X89159Y-67778D01*
X89403Y-67778D01*
X89571Y-67890D02*
X89571Y-67909D01*
X89553Y-67946D01*
X89534Y-67965D01*
X89703Y-67515D02*
X89965Y-67515D01*
X89796Y-67909D01*
X90115Y-67909D02*
X90115Y-67515D01*
X90340Y-67909D02*
X90171Y-67684D01*
X90340Y-67515D02*
X90115Y-67740D01*
X108253Y-50303D02*
X108271Y-50284D01*
X108309Y-50265D01*
X108403Y-50265D01*
X108440Y-50284D01*
X108459Y-50303D01*
X108478Y-50340D01*
X108478Y-50378D01*
X108459Y-50434D01*
X108234Y-50659D01*
X108478Y-50659D01*
X108628Y-50303D02*
X108646Y-50284D01*
X108684Y-50265D01*
X108778Y-50265D01*
X108815Y-50284D01*
X108834Y-50303D01*
X108853Y-50340D01*
X108853Y-50378D01*
X108834Y-50434D01*
X108609Y-50659D01*
X108853Y-50659D01*
X109021Y-50659D02*
X109021Y-50265D01*
X109246Y-50659D02*
X109078Y-50434D01*
X109246Y-50265D02*
X109021Y-50490D01*
X49540Y-57659D02*
X49315Y-57659D01*
X49428Y-57659D02*
X49428Y-57265D01*
X49390Y-57321D01*
X49353Y-57359D01*
X49315Y-57378D01*
X49784Y-57265D02*
X49821Y-57265D01*
X49859Y-57284D01*
X49878Y-57303D01*
X49896Y-57340D01*
X49915Y-57415D01*
X49915Y-57509D01*
X49896Y-57584D01*
X49878Y-57621D01*
X49859Y-57640D01*
X49821Y-57659D01*
X49784Y-57659D01*
X49746Y-57640D01*
X49728Y-57621D01*
X49709Y-57584D01*
X49690Y-57509D01*
X49690Y-57415D01*
X49709Y-57340D01*
X49728Y-57303D01*
X49746Y-57284D01*
X49784Y-57265D01*
X50159Y-57265D02*
X50196Y-57265D01*
X50234Y-57284D01*
X50253Y-57303D01*
X50271Y-57340D01*
X50290Y-57415D01*
X50290Y-57509D01*
X50271Y-57584D01*
X50253Y-57621D01*
X50234Y-57640D01*
X50196Y-57659D01*
X50159Y-57659D01*
X50121Y-57640D01*
X50103Y-57621D01*
X50084Y-57584D01*
X50065Y-57509D01*
X50065Y-57415D01*
X50084Y-57340D01*
X50103Y-57303D01*
X50121Y-57284D01*
X50159Y-57265D01*
X50459Y-57659D02*
X50459Y-57265D01*
X50684Y-57659D02*
X50515Y-57434D01*
X50684Y-57265D02*
X50459Y-57490D01*
X99665Y-75409D02*
X99440Y-75409D01*
X99553Y-75409D02*
X99553Y-75015D01*
X99515Y-75071D01*
X99478Y-75109D01*
X99440Y-75128D01*
X99834Y-75409D02*
X99834Y-75015D01*
X100059Y-75409D02*
X99890Y-75184D01*
X100059Y-75015D02*
X99834Y-75240D01*
X98003Y-50303D02*
X98021Y-50284D01*
X98059Y-50265D01*
X98153Y-50265D01*
X98190Y-50284D01*
X98209Y-50303D01*
X98228Y-50340D01*
X98228Y-50378D01*
X98209Y-50434D01*
X97984Y-50659D01*
X98228Y-50659D01*
X98378Y-50303D02*
X98396Y-50284D01*
X98434Y-50265D01*
X98528Y-50265D01*
X98565Y-50284D01*
X98584Y-50303D01*
X98603Y-50340D01*
X98603Y-50378D01*
X98584Y-50434D01*
X98359Y-50659D01*
X98603Y-50659D01*
X98771Y-50659D02*
X98771Y-50265D01*
X98996Y-50659D02*
X98828Y-50434D01*
X98996Y-50265D02*
X98771Y-50490D01*
X107415Y-75409D02*
X107190Y-75409D01*
X107303Y-75409D02*
X107303Y-75015D01*
X107265Y-75071D01*
X107228Y-75109D01*
X107190Y-75128D01*
X107584Y-75409D02*
X107584Y-75015D01*
X107809Y-75409D02*
X107640Y-75184D01*
X107809Y-75015D02*
X107584Y-75240D01*
X56040Y-57659D02*
X55815Y-57659D01*
X55928Y-57659D02*
X55928Y-57265D01*
X55890Y-57321D01*
X55853Y-57359D01*
X55815Y-57378D01*
X56284Y-57265D02*
X56321Y-57265D01*
X56359Y-57284D01*
X56378Y-57303D01*
X56396Y-57340D01*
X56415Y-57415D01*
X56415Y-57509D01*
X56396Y-57584D01*
X56378Y-57621D01*
X56359Y-57640D01*
X56321Y-57659D01*
X56284Y-57659D01*
X56246Y-57640D01*
X56228Y-57621D01*
X56209Y-57584D01*
X56190Y-57509D01*
X56190Y-57415D01*
X56209Y-57340D01*
X56228Y-57303D01*
X56246Y-57284D01*
X56284Y-57265D01*
X56659Y-57265D02*
X56696Y-57265D01*
X56734Y-57284D01*
X56753Y-57303D01*
X56771Y-57340D01*
X56790Y-57415D01*
X56790Y-57509D01*
X56771Y-57584D01*
X56753Y-57621D01*
X56734Y-57640D01*
X56696Y-57659D01*
X56659Y-57659D01*
X56621Y-57640D01*
X56603Y-57621D01*
X56584Y-57584D01*
X56565Y-57509D01*
X56565Y-57415D01*
X56584Y-57340D01*
X56603Y-57303D01*
X56621Y-57284D01*
X56659Y-57265D01*
X56959Y-57659D02*
X56959Y-57265D01*
X57184Y-57659D02*
X57015Y-57434D01*
X57184Y-57265D02*
X56959Y-57490D01*
X110762Y-75053D02*
X110781Y-75034D01*
X110818Y-75015D01*
X110912Y-75015D01*
X110950Y-75034D01*
X110968Y-75053D01*
X110987Y-75090D01*
X110987Y-75128D01*
X110968Y-75184D01*
X110743Y-75409D01*
X110987Y-75409D01*
X111137Y-75053D02*
X111156Y-75034D01*
X111193Y-75015D01*
X111287Y-75015D01*
X111324Y-75034D01*
X111343Y-75053D01*
X111362Y-75090D01*
X111362Y-75128D01*
X111343Y-75184D01*
X111118Y-75409D01*
X111362Y-75409D01*
X111606Y-75015D02*
X111643Y-75015D01*
X111681Y-75034D01*
X111699Y-75053D01*
X111718Y-75090D01*
X111737Y-75165D01*
X111737Y-75259D01*
X111718Y-75334D01*
X111699Y-75371D01*
X111681Y-75390D01*
X111643Y-75409D01*
X111606Y-75409D01*
X111568Y-75390D01*
X111549Y-75371D01*
X111531Y-75334D01*
X111512Y-75259D01*
X111512Y-75165D01*
X111531Y-75090D01*
X111549Y-75053D01*
X111568Y-75034D01*
X111606Y-75015D01*
X73040Y-57659D02*
X72815Y-57659D01*
X72928Y-57659D02*
X72928Y-57265D01*
X72890Y-57321D01*
X72853Y-57359D01*
X72815Y-57378D01*
X73284Y-57265D02*
X73321Y-57265D01*
X73359Y-57284D01*
X73378Y-57303D01*
X73396Y-57340D01*
X73415Y-57415D01*
X73415Y-57509D01*
X73396Y-57584D01*
X73378Y-57621D01*
X73359Y-57640D01*
X73321Y-57659D01*
X73284Y-57659D01*
X73246Y-57640D01*
X73228Y-57621D01*
X73209Y-57584D01*
X73190Y-57509D01*
X73190Y-57415D01*
X73209Y-57340D01*
X73228Y-57303D01*
X73246Y-57284D01*
X73284Y-57265D01*
X73659Y-57265D02*
X73696Y-57265D01*
X73734Y-57284D01*
X73753Y-57303D01*
X73771Y-57340D01*
X73790Y-57415D01*
X73790Y-57509D01*
X73771Y-57584D01*
X73753Y-57621D01*
X73734Y-57640D01*
X73696Y-57659D01*
X73659Y-57659D01*
X73621Y-57640D01*
X73603Y-57621D01*
X73584Y-57584D01*
X73565Y-57509D01*
X73565Y-57415D01*
X73584Y-57340D01*
X73603Y-57303D01*
X73621Y-57284D01*
X73659Y-57265D01*
X73959Y-57659D02*
X73959Y-57265D01*
X74184Y-57659D02*
X74015Y-57434D01*
X74184Y-57265D02*
X73959Y-57490D01*
X90846Y-70896D02*
X90846Y-71159D01*
X90753Y-70746D02*
X90659Y-71028D01*
X90903Y-71028D01*
X91071Y-71140D02*
X91071Y-71159D01*
X91053Y-71196D01*
X91034Y-71215D01*
X91203Y-70765D02*
X91465Y-70765D01*
X91296Y-71159D01*
X91615Y-71159D02*
X91615Y-70765D01*
X91840Y-71159D02*
X91671Y-70934D01*
X91840Y-70765D02*
X91615Y-70990D01*
X85596Y-72396D02*
X85596Y-72659D01*
X85503Y-72246D02*
X85409Y-72528D01*
X85653Y-72528D01*
X85821Y-72640D02*
X85821Y-72659D01*
X85803Y-72696D01*
X85784Y-72715D01*
X85953Y-72265D02*
X86215Y-72265D01*
X86046Y-72659D01*
X86365Y-72659D02*
X86365Y-72265D01*
X86590Y-72659D02*
X86421Y-72434D01*
X86590Y-72265D02*
X86365Y-72490D01*
X79790Y-57659D02*
X79565Y-57659D01*
X79678Y-57659D02*
X79678Y-57265D01*
X79640Y-57321D01*
X79603Y-57359D01*
X79565Y-57378D01*
X80034Y-57265D02*
X80071Y-57265D01*
X80109Y-57284D01*
X80128Y-57303D01*
X80146Y-57340D01*
X80165Y-57415D01*
X80165Y-57509D01*
X80146Y-57584D01*
X80128Y-57621D01*
X80109Y-57640D01*
X80071Y-57659D01*
X80034Y-57659D01*
X79996Y-57640D01*
X79978Y-57621D01*
X79959Y-57584D01*
X79940Y-57509D01*
X79940Y-57415D01*
X79959Y-57340D01*
X79978Y-57303D01*
X79996Y-57284D01*
X80034Y-57265D01*
X80409Y-57265D02*
X80446Y-57265D01*
X80484Y-57284D01*
X80503Y-57303D01*
X80521Y-57340D01*
X80540Y-57415D01*
X80540Y-57509D01*
X80521Y-57584D01*
X80503Y-57621D01*
X80484Y-57640D01*
X80446Y-57659D01*
X80409Y-57659D01*
X80371Y-57640D01*
X80353Y-57621D01*
X80334Y-57584D01*
X80315Y-57509D01*
X80315Y-57415D01*
X80334Y-57340D01*
X80353Y-57303D01*
X80371Y-57284D01*
X80409Y-57265D01*
X80709Y-57659D02*
X80709Y-57265D01*
X80934Y-57659D02*
X80765Y-57434D01*
X80934Y-57265D02*
X80709Y-57490D01*
X107762Y-67796D02*
X107950Y-67796D01*
X107725Y-67909D02*
X107856Y-67515D01*
X107987Y-67909D01*
X108062Y-67515D02*
X108287Y-67515D01*
X108175Y-67909D02*
X108175Y-67515D01*
X108362Y-67515D02*
X108587Y-67515D01*
X108475Y-67909D02*
X108475Y-67515D01*
X108718Y-67909D02*
X108718Y-67515D01*
X108906Y-67909D02*
X108906Y-67515D01*
X109131Y-67909D01*
X109131Y-67515D01*
X109393Y-67721D02*
X109393Y-67909D01*
X109262Y-67515D02*
X109393Y-67721D01*
X109524Y-67515D01*
X109824Y-67646D02*
X109824Y-67909D01*
X109731Y-67496D02*
X109637Y-67778D01*
X109881Y-67778D01*
X110218Y-67515D02*
X110031Y-67515D01*
X110012Y-67703D01*
X110031Y-67684D01*
X110068Y-67665D01*
X110162Y-67665D01*
X110199Y-67684D01*
X110218Y-67703D01*
X110237Y-67740D01*
X110237Y-67834D01*
X110218Y-67871D01*
X110199Y-67890D01*
X110162Y-67909D01*
X110068Y-67909D01*
X110031Y-67890D01*
X110012Y-67871D01*
X108512Y-58046D02*
X108700Y-58046D01*
X108475Y-58159D02*
X108606Y-57765D01*
X108737Y-58159D01*
X108812Y-57765D02*
X109037Y-57765D01*
X108925Y-58159D02*
X108925Y-57765D01*
X109112Y-57765D02*
X109337Y-57765D01*
X109225Y-58159D02*
X109225Y-57765D01*
X109468Y-58159D02*
X109468Y-57765D01*
X109656Y-58159D02*
X109656Y-57765D01*
X109881Y-58159D01*
X109881Y-57765D01*
X110143Y-57971D02*
X110143Y-58159D01*
X110012Y-57765D02*
X110143Y-57971D01*
X110274Y-57765D01*
X110574Y-57896D02*
X110574Y-58159D01*
X110481Y-57746D02*
X110387Y-58028D01*
X110631Y-58028D01*
X110968Y-57765D02*
X110781Y-57765D01*
X110762Y-57953D01*
X110781Y-57934D01*
X110818Y-57915D01*
X110912Y-57915D01*
X110949Y-57934D01*
X110968Y-57953D01*
X110987Y-57990D01*
X110987Y-58084D01*
X110968Y-58121D01*
X110949Y-58140D01*
X110912Y-58159D01*
X110818Y-58159D01*
X110781Y-58140D01*
X110762Y-58121D01*
X94675Y-60871D02*
X94656Y-60890D01*
X94600Y-60909D01*
X94562Y-60909D01*
X94506Y-60890D01*
X94468Y-60853D01*
X94450Y-60815D01*
X94431Y-60740D01*
X94431Y-60684D01*
X94450Y-60609D01*
X94468Y-60571D01*
X94506Y-60534D01*
X94562Y-60515D01*
X94600Y-60515D01*
X94656Y-60534D01*
X94675Y-60553D01*
X94843Y-60909D02*
X94843Y-60515D01*
X94937Y-60515D01*
X94993Y-60534D01*
X95031Y-60571D01*
X95050Y-60609D01*
X95068Y-60684D01*
X95068Y-60740D01*
X95050Y-60815D01*
X95031Y-60853D01*
X94993Y-60890D01*
X94937Y-60909D01*
X94843Y-60909D01*
X95406Y-60646D02*
X95406Y-60909D01*
X95312Y-60496D02*
X95218Y-60778D01*
X95462Y-60778D01*
X95687Y-60515D02*
X95724Y-60515D01*
X95762Y-60534D01*
X95781Y-60553D01*
X95799Y-60590D01*
X95818Y-60665D01*
X95818Y-60759D01*
X95799Y-60834D01*
X95781Y-60871D01*
X95762Y-60890D01*
X95724Y-60909D01*
X95687Y-60909D01*
X95649Y-60890D01*
X95631Y-60871D01*
X95612Y-60834D01*
X95593Y-60759D01*
X95593Y-60665D01*
X95612Y-60590D01*
X95631Y-60553D01*
X95649Y-60534D01*
X95687Y-60515D01*
X95949Y-60515D02*
X96212Y-60515D01*
X96043Y-60909D01*
X96324Y-60515D02*
X96587Y-60515D01*
X96418Y-60909D01*
X63425Y-56871D02*
X63406Y-56890D01*
X63350Y-56909D01*
X63312Y-56909D01*
X63256Y-56890D01*
X63218Y-56853D01*
X63200Y-56815D01*
X63181Y-56740D01*
X63181Y-56684D01*
X63200Y-56609D01*
X63218Y-56571D01*
X63256Y-56534D01*
X63312Y-56515D01*
X63350Y-56515D01*
X63406Y-56534D01*
X63425Y-56553D01*
X63593Y-56909D02*
X63593Y-56515D01*
X63687Y-56515D01*
X63743Y-56534D01*
X63781Y-56571D01*
X63800Y-56609D01*
X63818Y-56684D01*
X63818Y-56740D01*
X63800Y-56815D01*
X63781Y-56853D01*
X63743Y-56890D01*
X63687Y-56909D01*
X63593Y-56909D01*
X64156Y-56646D02*
X64156Y-56909D01*
X64062Y-56496D02*
X63968Y-56778D01*
X64212Y-56778D01*
X64437Y-56515D02*
X64474Y-56515D01*
X64512Y-56534D01*
X64531Y-56553D01*
X64549Y-56590D01*
X64568Y-56665D01*
X64568Y-56759D01*
X64549Y-56834D01*
X64531Y-56871D01*
X64512Y-56890D01*
X64474Y-56909D01*
X64437Y-56909D01*
X64399Y-56890D01*
X64381Y-56871D01*
X64362Y-56834D01*
X64343Y-56759D01*
X64343Y-56665D01*
X64362Y-56590D01*
X64381Y-56553D01*
X64399Y-56534D01*
X64437Y-56515D01*
X64756Y-56909D02*
X64831Y-56909D01*
X64868Y-56890D01*
X64887Y-56871D01*
X64924Y-56815D01*
X64943Y-56740D01*
X64943Y-56590D01*
X64924Y-56553D01*
X64906Y-56534D01*
X64868Y-56515D01*
X64793Y-56515D01*
X64756Y-56534D01*
X64737Y-56553D01*
X64718Y-56590D01*
X64718Y-56684D01*
X64737Y-56721D01*
X64756Y-56740D01*
X64793Y-56759D01*
X64868Y-56759D01*
X64906Y-56740D01*
X64924Y-56721D01*
X64943Y-56684D01*
X65074Y-56515D02*
X65318Y-56515D01*
X65187Y-56665D01*
X65243Y-56665D01*
X65281Y-56684D01*
X65299Y-56703D01*
X65318Y-56740D01*
X65318Y-56834D01*
X65299Y-56871D01*
X65281Y-56890D01*
X65243Y-56909D01*
X65131Y-56909D01*
X65093Y-56890D01*
X65074Y-56871D01*
X101656Y-58909D02*
X101431Y-58909D01*
X101543Y-58909D02*
X101543Y-58515D01*
X101506Y-58571D01*
X101468Y-58609D01*
X101431Y-58628D01*
X101825Y-58909D02*
X101825Y-58515D01*
X102050Y-58909D01*
X102050Y-58515D01*
X102406Y-58646D02*
X102406Y-58909D01*
X102312Y-58496D02*
X102218Y-58778D01*
X102462Y-58778D01*
X102818Y-58909D02*
X102593Y-58909D01*
X102706Y-58909D02*
X102706Y-58515D01*
X102668Y-58571D01*
X102631Y-58609D01*
X102593Y-58628D01*
X103156Y-58646D02*
X103156Y-58909D01*
X103062Y-58496D02*
X102968Y-58778D01*
X103212Y-58778D01*
X103418Y-58684D02*
X103381Y-58665D01*
X103362Y-58646D01*
X103343Y-58609D01*
X103343Y-58590D01*
X103362Y-58553D01*
X103381Y-58534D01*
X103418Y-58515D01*
X103493Y-58515D01*
X103531Y-58534D01*
X103549Y-58553D01*
X103568Y-58590D01*
X103568Y-58609D01*
X103549Y-58646D01*
X103531Y-58665D01*
X103493Y-58684D01*
X103418Y-58684D01*
X103381Y-58703D01*
X103362Y-58721D01*
X103343Y-58759D01*
X103343Y-58834D01*
X103362Y-58871D01*
X103381Y-58890D01*
X103418Y-58909D01*
X103493Y-58909D01*
X103531Y-58890D01*
X103549Y-58871D01*
X103568Y-58834D01*
X103568Y-58759D01*
X103549Y-58721D01*
X103531Y-58703D01*
X103493Y-58684D01*
X79790Y-55265D02*
X79715Y-55265D01*
X79678Y-55284D01*
X79659Y-55303D01*
X79621Y-55359D01*
X79603Y-55434D01*
X79603Y-55584D01*
X79621Y-55621D01*
X79640Y-55640D01*
X79678Y-55659D01*
X79753Y-55659D01*
X79790Y-55640D01*
X79809Y-55621D01*
X79828Y-55584D01*
X79828Y-55490D01*
X79809Y-55453D01*
X79790Y-55434D01*
X79753Y-55415D01*
X79678Y-55415D01*
X79640Y-55434D01*
X79621Y-55453D01*
X79603Y-55490D01*
X80053Y-55434D02*
X80015Y-55415D01*
X79996Y-55396D01*
X79978Y-55359D01*
X79978Y-55340D01*
X79996Y-55303D01*
X80015Y-55284D01*
X80053Y-55265D01*
X80128Y-55265D01*
X80165Y-55284D01*
X80184Y-55303D01*
X80203Y-55340D01*
X80203Y-55359D01*
X80184Y-55396D01*
X80165Y-55415D01*
X80128Y-55434D01*
X80053Y-55434D01*
X80015Y-55453D01*
X79996Y-55471D01*
X79978Y-55509D01*
X79978Y-55584D01*
X79996Y-55621D01*
X80015Y-55640D01*
X80053Y-55659D01*
X80128Y-55659D01*
X80165Y-55640D01*
X80184Y-55621D01*
X80203Y-55584D01*
X80203Y-55509D01*
X80184Y-55471D01*
X80165Y-55453D01*
X80128Y-55434D01*
X80371Y-55396D02*
X80371Y-55659D01*
X80371Y-55434D02*
X80390Y-55415D01*
X80428Y-55396D01*
X80484Y-55396D01*
X80521Y-55415D01*
X80540Y-55453D01*
X80540Y-55659D01*
X80859Y-55453D02*
X80728Y-55453D01*
X80728Y-55659D02*
X80728Y-55265D01*
X80915Y-55265D01*
X62390Y-68159D02*
X62165Y-68159D01*
X62278Y-68159D02*
X62278Y-67765D01*
X62240Y-67821D01*
X62203Y-67859D01*
X62165Y-67878D01*
X62634Y-67765D02*
X62671Y-67765D01*
X62709Y-67784D01*
X62728Y-67803D01*
X62746Y-67840D01*
X62765Y-67915D01*
X62765Y-68009D01*
X62746Y-68084D01*
X62728Y-68121D01*
X62709Y-68140D01*
X62671Y-68159D01*
X62634Y-68159D01*
X62596Y-68140D01*
X62578Y-68121D01*
X62559Y-68084D01*
X62540Y-68009D01*
X62540Y-67915D01*
X62559Y-67840D01*
X62578Y-67803D01*
X62596Y-67784D01*
X62634Y-67765D01*
X63009Y-67765D02*
X63046Y-67765D01*
X63084Y-67784D01*
X63103Y-67803D01*
X63121Y-67840D01*
X63140Y-67915D01*
X63140Y-68009D01*
X63121Y-68084D01*
X63103Y-68121D01*
X63084Y-68140D01*
X63046Y-68159D01*
X63009Y-68159D01*
X62971Y-68140D01*
X62953Y-68121D01*
X62934Y-68084D01*
X62915Y-68009D01*
X62915Y-67915D01*
X62934Y-67840D01*
X62953Y-67803D01*
X62971Y-67784D01*
X63009Y-67765D01*
X63309Y-67896D02*
X63309Y-68159D01*
X63309Y-67934D02*
X63328Y-67915D01*
X63365Y-67896D01*
X63421Y-67896D01*
X63459Y-67915D01*
X63478Y-67953D01*
X63478Y-68159D01*
X63796Y-67953D02*
X63665Y-67953D01*
X63665Y-68159D02*
X63665Y-67765D01*
X63853Y-67765D01*
X100040Y-48015D02*
X99965Y-48015D01*
X99928Y-48034D01*
X99909Y-48053D01*
X99871Y-48109D01*
X99853Y-48184D01*
X99853Y-48334D01*
X99871Y-48371D01*
X99890Y-48390D01*
X99928Y-48409D01*
X100003Y-48409D01*
X100040Y-48390D01*
X100059Y-48371D01*
X100078Y-48334D01*
X100078Y-48240D01*
X100059Y-48203D01*
X100040Y-48184D01*
X100003Y-48165D01*
X99928Y-48165D01*
X99890Y-48184D01*
X99871Y-48203D01*
X99853Y-48240D01*
X100303Y-48184D02*
X100265Y-48165D01*
X100246Y-48146D01*
X100228Y-48109D01*
X100228Y-48090D01*
X100246Y-48053D01*
X100265Y-48034D01*
X100303Y-48015D01*
X100378Y-48015D01*
X100415Y-48034D01*
X100434Y-48053D01*
X100453Y-48090D01*
X100453Y-48109D01*
X100434Y-48146D01*
X100415Y-48165D01*
X100378Y-48184D01*
X100303Y-48184D01*
X100265Y-48203D01*
X100246Y-48221D01*
X100228Y-48259D01*
X100228Y-48334D01*
X100246Y-48371D01*
X100265Y-48390D01*
X100303Y-48409D01*
X100378Y-48409D01*
X100415Y-48390D01*
X100434Y-48371D01*
X100453Y-48334D01*
X100453Y-48259D01*
X100434Y-48221D01*
X100415Y-48203D01*
X100378Y-48184D01*
X100621Y-48146D02*
X100621Y-48409D01*
X100621Y-48184D02*
X100640Y-48165D01*
X100678Y-48146D01*
X100734Y-48146D01*
X100771Y-48165D01*
X100790Y-48203D01*
X100790Y-48409D01*
X101109Y-48203D02*
X100978Y-48203D01*
X100978Y-48409D02*
X100978Y-48015D01*
X101165Y-48015D01*
X57390Y-61909D02*
X57165Y-61909D01*
X57278Y-61909D02*
X57278Y-61515D01*
X57240Y-61571D01*
X57203Y-61609D01*
X57165Y-61628D01*
X57634Y-61515D02*
X57671Y-61515D01*
X57709Y-61534D01*
X57728Y-61553D01*
X57746Y-61590D01*
X57765Y-61665D01*
X57765Y-61759D01*
X57746Y-61834D01*
X57728Y-61871D01*
X57709Y-61890D01*
X57671Y-61909D01*
X57634Y-61909D01*
X57596Y-61890D01*
X57578Y-61871D01*
X57559Y-61834D01*
X57540Y-61759D01*
X57540Y-61665D01*
X57559Y-61590D01*
X57578Y-61553D01*
X57596Y-61534D01*
X57634Y-61515D01*
X58009Y-61515D02*
X58046Y-61515D01*
X58084Y-61534D01*
X58103Y-61553D01*
X58121Y-61590D01*
X58140Y-61665D01*
X58140Y-61759D01*
X58121Y-61834D01*
X58103Y-61871D01*
X58084Y-61890D01*
X58046Y-61909D01*
X58009Y-61909D01*
X57971Y-61890D01*
X57953Y-61871D01*
X57934Y-61834D01*
X57915Y-61759D01*
X57915Y-61665D01*
X57934Y-61590D01*
X57953Y-61553D01*
X57971Y-61534D01*
X58009Y-61515D01*
X58309Y-61646D02*
X58309Y-61909D01*
X58309Y-61684D02*
X58328Y-61665D01*
X58365Y-61646D01*
X58421Y-61646D01*
X58459Y-61665D01*
X58478Y-61703D01*
X58478Y-61909D01*
X58796Y-61703D02*
X58665Y-61703D01*
X58665Y-61909D02*
X58665Y-61515D01*
X58853Y-61515D01*
X49790Y-55265D02*
X49715Y-55265D01*
X49678Y-55284D01*
X49659Y-55303D01*
X49621Y-55359D01*
X49603Y-55434D01*
X49603Y-55584D01*
X49621Y-55621D01*
X49640Y-55640D01*
X49678Y-55659D01*
X49753Y-55659D01*
X49790Y-55640D01*
X49809Y-55621D01*
X49828Y-55584D01*
X49828Y-55490D01*
X49809Y-55453D01*
X49790Y-55434D01*
X49753Y-55415D01*
X49678Y-55415D01*
X49640Y-55434D01*
X49621Y-55453D01*
X49603Y-55490D01*
X50053Y-55434D02*
X50015Y-55415D01*
X49996Y-55396D01*
X49978Y-55359D01*
X49978Y-55340D01*
X49996Y-55303D01*
X50015Y-55284D01*
X50053Y-55265D01*
X50128Y-55265D01*
X50165Y-55284D01*
X50184Y-55303D01*
X50203Y-55340D01*
X50203Y-55359D01*
X50184Y-55396D01*
X50165Y-55415D01*
X50128Y-55434D01*
X50053Y-55434D01*
X50015Y-55453D01*
X49996Y-55471D01*
X49978Y-55509D01*
X49978Y-55584D01*
X49996Y-55621D01*
X50015Y-55640D01*
X50053Y-55659D01*
X50128Y-55659D01*
X50165Y-55640D01*
X50184Y-55621D01*
X50203Y-55584D01*
X50203Y-55509D01*
X50184Y-55471D01*
X50165Y-55453D01*
X50128Y-55434D01*
X50371Y-55396D02*
X50371Y-55659D01*
X50371Y-55434D02*
X50390Y-55415D01*
X50428Y-55396D01*
X50484Y-55396D01*
X50521Y-55415D01*
X50540Y-55453D01*
X50540Y-55659D01*
X50859Y-55453D02*
X50728Y-55453D01*
X50728Y-55659D02*
X50728Y-55265D01*
X50915Y-55265D01*
X56040Y-55265D02*
X55965Y-55265D01*
X55928Y-55284D01*
X55909Y-55303D01*
X55871Y-55359D01*
X55853Y-55434D01*
X55853Y-55584D01*
X55871Y-55621D01*
X55890Y-55640D01*
X55928Y-55659D01*
X56003Y-55659D01*
X56040Y-55640D01*
X56059Y-55621D01*
X56078Y-55584D01*
X56078Y-55490D01*
X56059Y-55453D01*
X56040Y-55434D01*
X56003Y-55415D01*
X55928Y-55415D01*
X55890Y-55434D01*
X55871Y-55453D01*
X55853Y-55490D01*
X56303Y-55434D02*
X56265Y-55415D01*
X56246Y-55396D01*
X56228Y-55359D01*
X56228Y-55340D01*
X56246Y-55303D01*
X56265Y-55284D01*
X56303Y-55265D01*
X56378Y-55265D01*
X56415Y-55284D01*
X56434Y-55303D01*
X56453Y-55340D01*
X56453Y-55359D01*
X56434Y-55396D01*
X56415Y-55415D01*
X56378Y-55434D01*
X56303Y-55434D01*
X56265Y-55453D01*
X56246Y-55471D01*
X56228Y-55509D01*
X56228Y-55584D01*
X56246Y-55621D01*
X56265Y-55640D01*
X56303Y-55659D01*
X56378Y-55659D01*
X56415Y-55640D01*
X56434Y-55621D01*
X56453Y-55584D01*
X56453Y-55509D01*
X56434Y-55471D01*
X56415Y-55453D01*
X56378Y-55434D01*
X56621Y-55396D02*
X56621Y-55659D01*
X56621Y-55434D02*
X56640Y-55415D01*
X56678Y-55396D01*
X56734Y-55396D01*
X56771Y-55415D01*
X56790Y-55453D01*
X56790Y-55659D01*
X57109Y-55453D02*
X56978Y-55453D01*
X56978Y-55659D02*
X56978Y-55265D01*
X57165Y-55265D01*
X73290Y-55265D02*
X73215Y-55265D01*
X73178Y-55284D01*
X73159Y-55303D01*
X73121Y-55359D01*
X73103Y-55434D01*
X73103Y-55584D01*
X73121Y-55621D01*
X73140Y-55640D01*
X73178Y-55659D01*
X73253Y-55659D01*
X73290Y-55640D01*
X73309Y-55621D01*
X73328Y-55584D01*
X73328Y-55490D01*
X73309Y-55453D01*
X73290Y-55434D01*
X73253Y-55415D01*
X73178Y-55415D01*
X73140Y-55434D01*
X73121Y-55453D01*
X73103Y-55490D01*
X73553Y-55434D02*
X73515Y-55415D01*
X73496Y-55396D01*
X73478Y-55359D01*
X73478Y-55340D01*
X73496Y-55303D01*
X73515Y-55284D01*
X73553Y-55265D01*
X73628Y-55265D01*
X73665Y-55284D01*
X73684Y-55303D01*
X73703Y-55340D01*
X73703Y-55359D01*
X73684Y-55396D01*
X73665Y-55415D01*
X73628Y-55434D01*
X73553Y-55434D01*
X73515Y-55453D01*
X73496Y-55471D01*
X73478Y-55509D01*
X73478Y-55584D01*
X73496Y-55621D01*
X73515Y-55640D01*
X73553Y-55659D01*
X73628Y-55659D01*
X73665Y-55640D01*
X73684Y-55621D01*
X73703Y-55584D01*
X73703Y-55509D01*
X73684Y-55471D01*
X73665Y-55453D01*
X73628Y-55434D01*
X73871Y-55396D02*
X73871Y-55659D01*
X73871Y-55434D02*
X73890Y-55415D01*
X73928Y-55396D01*
X73984Y-55396D01*
X74021Y-55415D01*
X74040Y-55453D01*
X74040Y-55659D01*
X74359Y-55453D02*
X74228Y-55453D01*
X74228Y-55659D02*
X74228Y-55265D01*
X74415Y-55265D01*
X77390Y-77909D02*
X77165Y-77909D01*
X77278Y-77909D02*
X77278Y-77515D01*
X77240Y-77571D01*
X77203Y-77609D01*
X77165Y-77628D01*
X77634Y-77515D02*
X77671Y-77515D01*
X77709Y-77534D01*
X77728Y-77553D01*
X77746Y-77590D01*
X77765Y-77665D01*
X77765Y-77759D01*
X77746Y-77834D01*
X77728Y-77871D01*
X77709Y-77890D01*
X77671Y-77909D01*
X77634Y-77909D01*
X77596Y-77890D01*
X77578Y-77871D01*
X77559Y-77834D01*
X77540Y-77759D01*
X77540Y-77665D01*
X77559Y-77590D01*
X77578Y-77553D01*
X77596Y-77534D01*
X77634Y-77515D01*
X78009Y-77515D02*
X78046Y-77515D01*
X78084Y-77534D01*
X78103Y-77553D01*
X78121Y-77590D01*
X78140Y-77665D01*
X78140Y-77759D01*
X78121Y-77834D01*
X78103Y-77871D01*
X78084Y-77890D01*
X78046Y-77909D01*
X78009Y-77909D01*
X77971Y-77890D01*
X77953Y-77871D01*
X77934Y-77834D01*
X77915Y-77759D01*
X77915Y-77665D01*
X77934Y-77590D01*
X77953Y-77553D01*
X77971Y-77534D01*
X78009Y-77515D01*
X78309Y-77646D02*
X78309Y-77909D01*
X78309Y-77684D02*
X78328Y-77665D01*
X78365Y-77646D01*
X78421Y-77646D01*
X78459Y-77665D01*
X78478Y-77703D01*
X78478Y-77909D01*
X78796Y-77703D02*
X78665Y-77703D01*
X78665Y-77909D02*
X78665Y-77515D01*
X78853Y-77515D01*
X58353Y-66553D02*
X58371Y-66534D01*
X58409Y-66515D01*
X58503Y-66515D01*
X58540Y-66534D01*
X58559Y-66553D01*
X58578Y-66590D01*
X58578Y-66628D01*
X58559Y-66684D01*
X58334Y-66909D01*
X58578Y-66909D01*
X58728Y-66553D02*
X58746Y-66534D01*
X58784Y-66515D01*
X58878Y-66515D01*
X58915Y-66534D01*
X58934Y-66553D01*
X58953Y-66590D01*
X58953Y-66628D01*
X58934Y-66684D01*
X58709Y-66909D01*
X58953Y-66909D01*
X59121Y-66646D02*
X59121Y-66909D01*
X59121Y-66684D02*
X59140Y-66665D01*
X59178Y-66646D01*
X59234Y-66646D01*
X59271Y-66665D01*
X59290Y-66703D01*
X59290Y-66909D01*
X59609Y-66703D02*
X59478Y-66703D01*
X59478Y-66909D02*
X59478Y-66515D01*
X59665Y-66515D01*
X73078Y-68409D02*
X72853Y-68409D01*
X72965Y-68409D02*
X72965Y-68015D01*
X72928Y-68071D01*
X72890Y-68109D01*
X72853Y-68128D01*
X73321Y-68015D02*
X73359Y-68015D01*
X73396Y-68034D01*
X73415Y-68053D01*
X73434Y-68090D01*
X73453Y-68165D01*
X73453Y-68259D01*
X73434Y-68334D01*
X73415Y-68371D01*
X73396Y-68390D01*
X73359Y-68409D01*
X73321Y-68409D01*
X73284Y-68390D01*
X73265Y-68371D01*
X73246Y-68334D01*
X73228Y-68259D01*
X73228Y-68165D01*
X73246Y-68090D01*
X73265Y-68053D01*
X73284Y-68034D01*
X73321Y-68015D01*
X73621Y-68146D02*
X73621Y-68409D01*
X73621Y-68184D02*
X73640Y-68165D01*
X73678Y-68146D01*
X73734Y-68146D01*
X73771Y-68165D01*
X73790Y-68203D01*
X73790Y-68409D01*
X74109Y-68203D02*
X73978Y-68203D01*
X73978Y-68409D02*
X73978Y-68015D01*
X74165Y-68015D01*
X68140Y-50659D02*
X67915Y-50659D01*
X68028Y-50659D02*
X68028Y-50265D01*
X67990Y-50321D01*
X67953Y-50359D01*
X67915Y-50378D01*
X68384Y-50265D02*
X68421Y-50265D01*
X68459Y-50284D01*
X68478Y-50303D01*
X68496Y-50340D01*
X68515Y-50415D01*
X68515Y-50509D01*
X68496Y-50584D01*
X68478Y-50621D01*
X68459Y-50640D01*
X68421Y-50659D01*
X68384Y-50659D01*
X68346Y-50640D01*
X68328Y-50621D01*
X68309Y-50584D01*
X68290Y-50509D01*
X68290Y-50415D01*
X68309Y-50340D01*
X68328Y-50303D01*
X68346Y-50284D01*
X68384Y-50265D01*
X68759Y-50265D02*
X68796Y-50265D01*
X68834Y-50284D01*
X68853Y-50303D01*
X68871Y-50340D01*
X68890Y-50415D01*
X68890Y-50509D01*
X68871Y-50584D01*
X68853Y-50621D01*
X68834Y-50640D01*
X68796Y-50659D01*
X68759Y-50659D01*
X68721Y-50640D01*
X68703Y-50621D01*
X68684Y-50584D01*
X68665Y-50509D01*
X68665Y-50415D01*
X68684Y-50340D01*
X68703Y-50303D01*
X68721Y-50284D01*
X68759Y-50265D01*
X69059Y-50396D02*
X69059Y-50659D01*
X69059Y-50434D02*
X69078Y-50415D01*
X69115Y-50396D01*
X69171Y-50396D01*
X69209Y-50415D01*
X69228Y-50453D01*
X69228Y-50659D01*
X69546Y-50453D02*
X69415Y-50453D01*
X69415Y-50659D02*
X69415Y-50265D01*
X69603Y-50265D01*
X87390Y-51659D02*
X87165Y-51659D01*
X87278Y-51659D02*
X87278Y-51265D01*
X87240Y-51321D01*
X87203Y-51359D01*
X87165Y-51378D01*
X87634Y-51265D02*
X87671Y-51265D01*
X87709Y-51284D01*
X87728Y-51303D01*
X87746Y-51340D01*
X87765Y-51415D01*
X87765Y-51509D01*
X87746Y-51584D01*
X87728Y-51621D01*
X87709Y-51640D01*
X87671Y-51659D01*
X87634Y-51659D01*
X87596Y-51640D01*
X87578Y-51621D01*
X87559Y-51584D01*
X87540Y-51509D01*
X87540Y-51415D01*
X87559Y-51340D01*
X87578Y-51303D01*
X87596Y-51284D01*
X87634Y-51265D01*
X88009Y-51265D02*
X88046Y-51265D01*
X88084Y-51284D01*
X88103Y-51303D01*
X88121Y-51340D01*
X88140Y-51415D01*
X88140Y-51509D01*
X88121Y-51584D01*
X88103Y-51621D01*
X88084Y-51640D01*
X88046Y-51659D01*
X88009Y-51659D01*
X87971Y-51640D01*
X87953Y-51621D01*
X87934Y-51584D01*
X87915Y-51509D01*
X87915Y-51415D01*
X87934Y-51340D01*
X87953Y-51303D01*
X87971Y-51284D01*
X88009Y-51265D01*
X88309Y-51396D02*
X88309Y-51659D01*
X88309Y-51434D02*
X88328Y-51415D01*
X88365Y-51396D01*
X88421Y-51396D01*
X88459Y-51415D01*
X88478Y-51453D01*
X88478Y-51659D01*
X88796Y-51453D02*
X88665Y-51453D01*
X88665Y-51659D02*
X88665Y-51265D01*
X88853Y-51265D01*
X79603Y-68053D02*
X79621Y-68034D01*
X79659Y-68015D01*
X79753Y-68015D01*
X79790Y-68034D01*
X79809Y-68053D01*
X79828Y-68090D01*
X79828Y-68128D01*
X79809Y-68184D01*
X79584Y-68409D01*
X79828Y-68409D01*
X79978Y-68053D02*
X79996Y-68034D01*
X80034Y-68015D01*
X80128Y-68015D01*
X80165Y-68034D01*
X80184Y-68053D01*
X80203Y-68090D01*
X80203Y-68128D01*
X80184Y-68184D01*
X79959Y-68409D01*
X80203Y-68409D01*
X80371Y-68146D02*
X80371Y-68409D01*
X80371Y-68184D02*
X80390Y-68165D01*
X80428Y-68146D01*
X80484Y-68146D01*
X80521Y-68165D01*
X80540Y-68203D01*
X80540Y-68409D01*
X80859Y-68203D02*
X80728Y-68203D01*
X80728Y-68409D02*
X80728Y-68015D01*
X80915Y-68015D01*
X57390Y-77909D02*
X57165Y-77909D01*
X57278Y-77909D02*
X57278Y-77515D01*
X57240Y-77571D01*
X57203Y-77609D01*
X57165Y-77628D01*
X57634Y-77515D02*
X57671Y-77515D01*
X57709Y-77534D01*
X57728Y-77553D01*
X57746Y-77590D01*
X57765Y-77665D01*
X57765Y-77759D01*
X57746Y-77834D01*
X57728Y-77871D01*
X57709Y-77890D01*
X57671Y-77909D01*
X57634Y-77909D01*
X57596Y-77890D01*
X57578Y-77871D01*
X57559Y-77834D01*
X57540Y-77759D01*
X57540Y-77665D01*
X57559Y-77590D01*
X57578Y-77553D01*
X57596Y-77534D01*
X57634Y-77515D01*
X58009Y-77515D02*
X58046Y-77515D01*
X58084Y-77534D01*
X58103Y-77553D01*
X58121Y-77590D01*
X58140Y-77665D01*
X58140Y-77759D01*
X58121Y-77834D01*
X58103Y-77871D01*
X58084Y-77890D01*
X58046Y-77909D01*
X58009Y-77909D01*
X57971Y-77890D01*
X57953Y-77871D01*
X57934Y-77834D01*
X57915Y-77759D01*
X57915Y-77665D01*
X57934Y-77590D01*
X57953Y-77553D01*
X57971Y-77534D01*
X58009Y-77515D01*
X58309Y-77646D02*
X58309Y-77909D01*
X58309Y-77684D02*
X58328Y-77665D01*
X58365Y-77646D01*
X58421Y-77646D01*
X58459Y-77665D01*
X58478Y-77703D01*
X58478Y-77909D01*
X58796Y-77703D02*
X58665Y-77703D01*
X58665Y-77909D02*
X58665Y-77515D01*
X58853Y-77515D01*
X67390Y-77909D02*
X67165Y-77909D01*
X67278Y-77909D02*
X67278Y-77515D01*
X67240Y-77571D01*
X67203Y-77609D01*
X67165Y-77628D01*
X67634Y-77515D02*
X67671Y-77515D01*
X67709Y-77534D01*
X67728Y-77553D01*
X67746Y-77590D01*
X67765Y-77665D01*
X67765Y-77759D01*
X67746Y-77834D01*
X67728Y-77871D01*
X67709Y-77890D01*
X67671Y-77909D01*
X67634Y-77909D01*
X67596Y-77890D01*
X67578Y-77871D01*
X67559Y-77834D01*
X67540Y-77759D01*
X67540Y-77665D01*
X67559Y-77590D01*
X67578Y-77553D01*
X67596Y-77534D01*
X67634Y-77515D01*
X68009Y-77515D02*
X68046Y-77515D01*
X68084Y-77534D01*
X68103Y-77553D01*
X68121Y-77590D01*
X68140Y-77665D01*
X68140Y-77759D01*
X68121Y-77834D01*
X68103Y-77871D01*
X68084Y-77890D01*
X68046Y-77909D01*
X68009Y-77909D01*
X67971Y-77890D01*
X67953Y-77871D01*
X67934Y-77834D01*
X67915Y-77759D01*
X67915Y-77665D01*
X67934Y-77590D01*
X67953Y-77553D01*
X67971Y-77534D01*
X68009Y-77515D01*
X68309Y-77646D02*
X68309Y-77909D01*
X68309Y-77684D02*
X68328Y-77665D01*
X68365Y-77646D01*
X68421Y-77646D01*
X68459Y-77665D01*
X68478Y-77703D01*
X68478Y-77909D01*
X68796Y-77703D02*
X68665Y-77703D01*
X68665Y-77909D02*
X68665Y-77515D01*
X68853Y-77515D01*
X53756Y-59515D02*
X53831Y-59515D01*
X53868Y-59534D01*
X53906Y-59571D01*
X53925Y-59646D01*
X53925Y-59778D01*
X53906Y-59853D01*
X53868Y-59890D01*
X53831Y-59909D01*
X53756Y-59909D01*
X53718Y-59890D01*
X53681Y-59853D01*
X53662Y-59778D01*
X53662Y-59646D01*
X53681Y-59571D01*
X53718Y-59534D01*
X53756Y-59515D01*
X54093Y-59909D02*
X54093Y-59515D01*
X54318Y-59909D01*
X54318Y-59515D01*
X54787Y-59496D02*
X54450Y-60003D01*
X54993Y-59515D02*
X55068Y-59515D01*
X55106Y-59534D01*
X55143Y-59571D01*
X55162Y-59646D01*
X55162Y-59778D01*
X55143Y-59853D01*
X55106Y-59890D01*
X55068Y-59909D01*
X54993Y-59909D01*
X54956Y-59890D01*
X54918Y-59853D01*
X54899Y-59778D01*
X54899Y-59646D01*
X54918Y-59571D01*
X54956Y-59534D01*
X54993Y-59515D01*
X55462Y-59703D02*
X55331Y-59703D01*
X55331Y-59909D02*
X55331Y-59515D01*
X55518Y-59515D01*
X55799Y-59703D02*
X55668Y-59703D01*
X55668Y-59909D02*
X55668Y-59515D01*
X55856Y-59515D01*
X107634Y-53659D02*
X107409Y-53659D01*
X107521Y-53659D02*
X107521Y-53265D01*
X107484Y-53321D01*
X107446Y-53359D01*
X107409Y-53378D01*
X107878Y-53265D02*
X107915Y-53265D01*
X107953Y-53284D01*
X107971Y-53303D01*
X107990Y-53340D01*
X108009Y-53415D01*
X108009Y-53509D01*
X107990Y-53584D01*
X107971Y-53621D01*
X107953Y-53640D01*
X107915Y-53659D01*
X107878Y-53659D01*
X107840Y-53640D01*
X107821Y-53621D01*
X107803Y-53584D01*
X107784Y-53509D01*
X107784Y-53415D01*
X107803Y-53340D01*
X107821Y-53303D01*
X107840Y-53284D01*
X107878Y-53265D01*
X108346Y-53396D02*
X108346Y-53659D01*
X108178Y-53396D02*
X108178Y-53603D01*
X108196Y-53640D01*
X108234Y-53659D01*
X108290Y-53659D01*
X108328Y-53640D01*
X108346Y-53621D01*
X108478Y-53396D02*
X108628Y-53396D01*
X108534Y-53659D02*
X108534Y-53321D01*
X108553Y-53284D01*
X108590Y-53265D01*
X108628Y-53265D01*
X98821Y-55659D02*
X98596Y-55659D01*
X98709Y-55659D02*
X98709Y-55265D01*
X98671Y-55321D01*
X98634Y-55359D01*
X98596Y-55378D01*
X99159Y-55396D02*
X99159Y-55659D01*
X98990Y-55396D02*
X98990Y-55603D01*
X99009Y-55640D01*
X99046Y-55659D01*
X99103Y-55659D01*
X99140Y-55640D01*
X99159Y-55621D01*
X99290Y-55396D02*
X99440Y-55396D01*
X99346Y-55659D02*
X99346Y-55321D01*
X99365Y-55284D01*
X99403Y-55265D01*
X99440Y-55265D01*
X88134Y-78659D02*
X87909Y-78659D01*
X88021Y-78659D02*
X88021Y-78265D01*
X87984Y-78321D01*
X87946Y-78359D01*
X87909Y-78378D01*
X88378Y-78265D02*
X88415Y-78265D01*
X88453Y-78284D01*
X88471Y-78303D01*
X88490Y-78340D01*
X88509Y-78415D01*
X88509Y-78509D01*
X88490Y-78584D01*
X88471Y-78621D01*
X88453Y-78640D01*
X88415Y-78659D01*
X88378Y-78659D01*
X88340Y-78640D01*
X88321Y-78621D01*
X88303Y-78584D01*
X88284Y-78509D01*
X88284Y-78415D01*
X88303Y-78340D01*
X88321Y-78303D01*
X88340Y-78284D01*
X88378Y-78265D01*
X88846Y-78396D02*
X88846Y-78659D01*
X88678Y-78396D02*
X88678Y-78603D01*
X88696Y-78640D01*
X88734Y-78659D01*
X88790Y-78659D01*
X88828Y-78640D01*
X88846Y-78621D01*
X88978Y-78396D02*
X89128Y-78396D01*
X89034Y-78659D02*
X89034Y-78321D01*
X89053Y-78284D01*
X89090Y-78265D01*
X89128Y-78265D01*
X101821Y-55659D02*
X101596Y-55659D01*
X101709Y-55659D02*
X101709Y-55265D01*
X101671Y-55321D01*
X101634Y-55359D01*
X101596Y-55378D01*
X102159Y-55396D02*
X102159Y-55659D01*
X101990Y-55396D02*
X101990Y-55603D01*
X102009Y-55640D01*
X102046Y-55659D01*
X102103Y-55659D01*
X102140Y-55640D01*
X102159Y-55621D01*
X102290Y-55396D02*
X102440Y-55396D01*
X102346Y-55659D02*
X102346Y-55321D01*
X102365Y-55284D01*
X102403Y-55265D01*
X102440Y-55265D01*
X115571Y-57409D02*
X115346Y-57409D01*
X115459Y-57409D02*
X115459Y-57015D01*
X115421Y-57071D01*
X115384Y-57109D01*
X115346Y-57128D01*
X115909Y-57146D02*
X115909Y-57409D01*
X115740Y-57146D02*
X115740Y-57353D01*
X115759Y-57390D01*
X115796Y-57409D01*
X115853Y-57409D01*
X115890Y-57390D01*
X115909Y-57371D01*
X116040Y-57146D02*
X116190Y-57146D01*
X116096Y-57409D02*
X116096Y-57071D01*
X116115Y-57034D01*
X116153Y-57015D01*
X116190Y-57015D01*
X54140Y-69159D02*
X53915Y-69159D01*
X54028Y-69159D02*
X54028Y-68765D01*
X53990Y-68821D01*
X53953Y-68859D01*
X53915Y-68878D01*
X54384Y-68765D02*
X54421Y-68765D01*
X54459Y-68784D01*
X54478Y-68803D01*
X54496Y-68840D01*
X54515Y-68915D01*
X54515Y-69009D01*
X54496Y-69084D01*
X54478Y-69121D01*
X54459Y-69140D01*
X54421Y-69159D01*
X54384Y-69159D01*
X54346Y-69140D01*
X54328Y-69121D01*
X54309Y-69084D01*
X54290Y-69009D01*
X54290Y-68915D01*
X54309Y-68840D01*
X54328Y-68803D01*
X54346Y-68784D01*
X54384Y-68765D01*
X54759Y-68765D02*
X54796Y-68765D01*
X54834Y-68784D01*
X54853Y-68803D01*
X54871Y-68840D01*
X54890Y-68915D01*
X54890Y-69009D01*
X54871Y-69084D01*
X54853Y-69121D01*
X54834Y-69140D01*
X54796Y-69159D01*
X54759Y-69159D01*
X54721Y-69140D01*
X54703Y-69121D01*
X54684Y-69084D01*
X54665Y-69009D01*
X54665Y-68915D01*
X54684Y-68840D01*
X54703Y-68803D01*
X54721Y-68784D01*
X54759Y-68765D01*
X55228Y-68896D02*
X55228Y-69159D01*
X55059Y-68896D02*
X55059Y-69103D01*
X55078Y-69140D01*
X55115Y-69159D01*
X55171Y-69159D01*
X55209Y-69140D01*
X55228Y-69121D01*
X55546Y-68953D02*
X55415Y-68953D01*
X55415Y-69159D02*
X55415Y-68765D01*
X55603Y-68765D01*
X49909Y-64396D02*
X49909Y-64659D01*
X49815Y-64246D02*
X49721Y-64528D01*
X49965Y-64528D01*
X50078Y-64265D02*
X50340Y-64265D01*
X50171Y-64659D01*
X50565Y-64265D02*
X50603Y-64265D01*
X50640Y-64284D01*
X50659Y-64303D01*
X50678Y-64340D01*
X50696Y-64415D01*
X50696Y-64509D01*
X50678Y-64584D01*
X50659Y-64621D01*
X50640Y-64640D01*
X50603Y-64659D01*
X50565Y-64659D01*
X50528Y-64640D01*
X50509Y-64621D01*
X50490Y-64584D01*
X50471Y-64509D01*
X50471Y-64415D01*
X50490Y-64340D01*
X50509Y-64303D01*
X50528Y-64284D01*
X50565Y-64265D01*
X51034Y-64396D02*
X51034Y-64659D01*
X50865Y-64396D02*
X50865Y-64603D01*
X50884Y-64640D01*
X50921Y-64659D01*
X50978Y-64659D01*
X51015Y-64640D01*
X51034Y-64621D01*
X51165Y-64396D02*
X51315Y-64396D01*
X51221Y-64659D02*
X51221Y-64321D01*
X51240Y-64284D01*
X51278Y-64265D01*
X51315Y-64265D01*
X49896Y-78659D02*
X49709Y-78659D01*
X49709Y-78265D01*
X50028Y-78659D02*
X50028Y-78265D01*
X50159Y-78546D01*
X50290Y-78265D01*
X50290Y-78659D01*
X50440Y-78265D02*
X50703Y-78265D01*
X50534Y-78659D01*
X50909Y-78434D02*
X50871Y-78415D01*
X50853Y-78396D01*
X50834Y-78359D01*
X50834Y-78340D01*
X50853Y-78303D01*
X50871Y-78284D01*
X50909Y-78265D01*
X50984Y-78265D01*
X51021Y-78284D01*
X51040Y-78303D01*
X51059Y-78340D01*
X51059Y-78359D01*
X51040Y-78396D01*
X51021Y-78415D01*
X50984Y-78434D01*
X50909Y-78434D01*
X50871Y-78453D01*
X50853Y-78471D01*
X50834Y-78509D01*
X50834Y-78584D01*
X50853Y-78621D01*
X50871Y-78640D01*
X50909Y-78659D01*
X50984Y-78659D01*
X51021Y-78640D01*
X51040Y-78621D01*
X51059Y-78584D01*
X51059Y-78509D01*
X51040Y-78471D01*
X51021Y-78453D01*
X50984Y-78434D01*
X51303Y-78265D02*
X51340Y-78265D01*
X51378Y-78284D01*
X51396Y-78303D01*
X51415Y-78340D01*
X51434Y-78415D01*
X51434Y-78509D01*
X51415Y-78584D01*
X51396Y-78621D01*
X51378Y-78640D01*
X51340Y-78659D01*
X51303Y-78659D01*
X51265Y-78640D01*
X51246Y-78621D01*
X51228Y-78584D01*
X51209Y-78509D01*
X51209Y-78415D01*
X51228Y-78340D01*
X51246Y-78303D01*
X51265Y-78284D01*
X51303Y-78265D01*
X51790Y-78265D02*
X51603Y-78265D01*
X51584Y-78453D01*
X51603Y-78434D01*
X51640Y-78415D01*
X51734Y-78415D01*
X51771Y-78434D01*
X51790Y-78453D01*
X51809Y-78490D01*
X51809Y-78584D01*
X51790Y-78621D01*
X51771Y-78640D01*
X51734Y-78659D01*
X51640Y-78659D01*
X51603Y-78640D01*
X51584Y-78621D01*
X52521Y-47265D02*
X52334Y-47265D01*
X52315Y-47453D01*
X52334Y-47434D01*
X52371Y-47415D01*
X52465Y-47415D01*
X52503Y-47434D01*
X52521Y-47453D01*
X52540Y-47490D01*
X52540Y-47584D01*
X52521Y-47621D01*
X52503Y-47640D01*
X52465Y-47659D01*
X52371Y-47659D01*
X52334Y-47640D01*
X52315Y-47621D01*
X52784Y-47265D02*
X52821Y-47265D01*
X52859Y-47284D01*
X52878Y-47303D01*
X52896Y-47340D01*
X52915Y-47415D01*
X52915Y-47509D01*
X52896Y-47584D01*
X52878Y-47621D01*
X52859Y-47640D01*
X52821Y-47659D01*
X52784Y-47659D01*
X52746Y-47640D01*
X52728Y-47621D01*
X52709Y-47584D01*
X52690Y-47509D01*
X52690Y-47415D01*
X52709Y-47340D01*
X52728Y-47303D01*
X52746Y-47284D01*
X52784Y-47265D01*
X53159Y-47265D02*
X53196Y-47265D01*
X53234Y-47284D01*
X53253Y-47303D01*
X53271Y-47340D01*
X53290Y-47415D01*
X53290Y-47509D01*
X53271Y-47584D01*
X53253Y-47621D01*
X53234Y-47640D01*
X53196Y-47659D01*
X53159Y-47659D01*
X53121Y-47640D01*
X53103Y-47621D01*
X53084Y-47584D01*
X53065Y-47509D01*
X53065Y-47415D01*
X53084Y-47340D01*
X53103Y-47303D01*
X53121Y-47284D01*
X53159Y-47265D01*
X53459Y-47659D02*
X53459Y-47265D01*
X53684Y-47659D02*
X53515Y-47434D01*
X53684Y-47265D02*
X53459Y-47490D01*
X62521Y-47265D02*
X62334Y-47265D01*
X62315Y-47453D01*
X62334Y-47434D01*
X62371Y-47415D01*
X62465Y-47415D01*
X62503Y-47434D01*
X62521Y-47453D01*
X62540Y-47490D01*
X62540Y-47584D01*
X62521Y-47621D01*
X62503Y-47640D01*
X62465Y-47659D01*
X62371Y-47659D01*
X62334Y-47640D01*
X62315Y-47621D01*
X62784Y-47265D02*
X62821Y-47265D01*
X62859Y-47284D01*
X62878Y-47303D01*
X62896Y-47340D01*
X62915Y-47415D01*
X62915Y-47509D01*
X62896Y-47584D01*
X62878Y-47621D01*
X62859Y-47640D01*
X62821Y-47659D01*
X62784Y-47659D01*
X62746Y-47640D01*
X62728Y-47621D01*
X62709Y-47584D01*
X62690Y-47509D01*
X62690Y-47415D01*
X62709Y-47340D01*
X62728Y-47303D01*
X62746Y-47284D01*
X62784Y-47265D01*
X63159Y-47265D02*
X63196Y-47265D01*
X63234Y-47284D01*
X63253Y-47303D01*
X63271Y-47340D01*
X63290Y-47415D01*
X63290Y-47509D01*
X63271Y-47584D01*
X63253Y-47621D01*
X63234Y-47640D01*
X63196Y-47659D01*
X63159Y-47659D01*
X63121Y-47640D01*
X63103Y-47621D01*
X63084Y-47584D01*
X63065Y-47509D01*
X63065Y-47415D01*
X63084Y-47340D01*
X63103Y-47303D01*
X63121Y-47284D01*
X63159Y-47265D01*
X63459Y-47659D02*
X63459Y-47265D01*
X63684Y-47659D02*
X63515Y-47434D01*
X63684Y-47265D02*
X63459Y-47490D01*
X72521Y-47265D02*
X72334Y-47265D01*
X72315Y-47453D01*
X72334Y-47434D01*
X72371Y-47415D01*
X72465Y-47415D01*
X72503Y-47434D01*
X72521Y-47453D01*
X72540Y-47490D01*
X72540Y-47584D01*
X72521Y-47621D01*
X72503Y-47640D01*
X72465Y-47659D01*
X72371Y-47659D01*
X72334Y-47640D01*
X72315Y-47621D01*
X72784Y-47265D02*
X72821Y-47265D01*
X72859Y-47284D01*
X72878Y-47303D01*
X72896Y-47340D01*
X72915Y-47415D01*
X72915Y-47509D01*
X72896Y-47584D01*
X72878Y-47621D01*
X72859Y-47640D01*
X72821Y-47659D01*
X72784Y-47659D01*
X72746Y-47640D01*
X72728Y-47621D01*
X72709Y-47584D01*
X72690Y-47509D01*
X72690Y-47415D01*
X72709Y-47340D01*
X72728Y-47303D01*
X72746Y-47284D01*
X72784Y-47265D01*
X73159Y-47265D02*
X73196Y-47265D01*
X73234Y-47284D01*
X73253Y-47303D01*
X73271Y-47340D01*
X73290Y-47415D01*
X73290Y-47509D01*
X73271Y-47584D01*
X73253Y-47621D01*
X73234Y-47640D01*
X73196Y-47659D01*
X73159Y-47659D01*
X73121Y-47640D01*
X73103Y-47621D01*
X73084Y-47584D01*
X73065Y-47509D01*
X73065Y-47415D01*
X73084Y-47340D01*
X73103Y-47303D01*
X73121Y-47284D01*
X73159Y-47265D01*
X73459Y-47659D02*
X73459Y-47265D01*
X73684Y-47659D02*
X73515Y-47434D01*
X73684Y-47265D02*
X73459Y-47490D01*
X82521Y-47265D02*
X82334Y-47265D01*
X82315Y-47453D01*
X82334Y-47434D01*
X82371Y-47415D01*
X82465Y-47415D01*
X82503Y-47434D01*
X82521Y-47453D01*
X82540Y-47490D01*
X82540Y-47584D01*
X82521Y-47621D01*
X82503Y-47640D01*
X82465Y-47659D01*
X82371Y-47659D01*
X82334Y-47640D01*
X82315Y-47621D01*
X82784Y-47265D02*
X82821Y-47265D01*
X82859Y-47284D01*
X82878Y-47303D01*
X82896Y-47340D01*
X82915Y-47415D01*
X82915Y-47509D01*
X82896Y-47584D01*
X82878Y-47621D01*
X82859Y-47640D01*
X82821Y-47659D01*
X82784Y-47659D01*
X82746Y-47640D01*
X82728Y-47621D01*
X82709Y-47584D01*
X82690Y-47509D01*
X82690Y-47415D01*
X82709Y-47340D01*
X82728Y-47303D01*
X82746Y-47284D01*
X82784Y-47265D01*
X83159Y-47265D02*
X83196Y-47265D01*
X83234Y-47284D01*
X83253Y-47303D01*
X83271Y-47340D01*
X83290Y-47415D01*
X83290Y-47509D01*
X83271Y-47584D01*
X83253Y-47621D01*
X83234Y-47640D01*
X83196Y-47659D01*
X83159Y-47659D01*
X83121Y-47640D01*
X83103Y-47621D01*
X83084Y-47584D01*
X83065Y-47509D01*
X83065Y-47415D01*
X83084Y-47340D01*
X83103Y-47303D01*
X83121Y-47284D01*
X83159Y-47265D01*
X83459Y-47659D02*
X83459Y-47265D01*
X83684Y-47659D02*
X83515Y-47434D01*
X83684Y-47265D02*
X83459Y-47490D01*
X93396Y-48796D02*
X93584Y-48796D01*
X93359Y-48909D02*
X93490Y-48515D01*
X93621Y-48909D01*
X93959Y-48909D02*
X93734Y-48909D01*
X93846Y-48909D02*
X93846Y-48515D01*
X93809Y-48571D01*
X93771Y-48609D01*
X93734Y-48628D01*
X94203Y-48515D02*
X94240Y-48515D01*
X94278Y-48534D01*
X94296Y-48553D01*
X94315Y-48590D01*
X94334Y-48665D01*
X94334Y-48759D01*
X94315Y-48834D01*
X94296Y-48871D01*
X94278Y-48890D01*
X94240Y-48909D01*
X94203Y-48909D01*
X94165Y-48890D01*
X94146Y-48871D01*
X94128Y-48834D01*
X94109Y-48759D01*
X94109Y-48665D01*
X94128Y-48590D01*
X94146Y-48553D01*
X94165Y-48534D01*
X94203Y-48515D01*
X94578Y-48515D02*
X94615Y-48515D01*
X94653Y-48534D01*
X94671Y-48553D01*
X94690Y-48590D01*
X94709Y-48665D01*
X94709Y-48759D01*
X94690Y-48834D01*
X94671Y-48871D01*
X94653Y-48890D01*
X94615Y-48909D01*
X94578Y-48909D01*
X94540Y-48890D01*
X94521Y-48871D01*
X94503Y-48834D01*
X94484Y-48759D01*
X94484Y-48665D01*
X94503Y-48590D01*
X94521Y-48553D01*
X94540Y-48534D01*
X94578Y-48515D01*
X94878Y-48909D02*
X94878Y-48515D01*
X95103Y-48909D02*
X94934Y-48684D01*
X95103Y-48515D02*
X94878Y-48740D01*
X103396Y-48796D02*
X103584Y-48796D01*
X103359Y-48909D02*
X103490Y-48515D01*
X103621Y-48909D01*
X103959Y-48909D02*
X103734Y-48909D01*
X103846Y-48909D02*
X103846Y-48515D01*
X103809Y-48571D01*
X103771Y-48609D01*
X103734Y-48628D01*
X104203Y-48515D02*
X104240Y-48515D01*
X104278Y-48534D01*
X104296Y-48553D01*
X104315Y-48590D01*
X104334Y-48665D01*
X104334Y-48759D01*
X104315Y-48834D01*
X104296Y-48871D01*
X104278Y-48890D01*
X104240Y-48909D01*
X104203Y-48909D01*
X104165Y-48890D01*
X104146Y-48871D01*
X104128Y-48834D01*
X104109Y-48759D01*
X104109Y-48665D01*
X104128Y-48590D01*
X104146Y-48553D01*
X104165Y-48534D01*
X104203Y-48515D01*
X104578Y-48515D02*
X104615Y-48515D01*
X104653Y-48534D01*
X104671Y-48553D01*
X104690Y-48590D01*
X104709Y-48665D01*
X104709Y-48759D01*
X104690Y-48834D01*
X104671Y-48871D01*
X104653Y-48890D01*
X104615Y-48909D01*
X104578Y-48909D01*
X104540Y-48890D01*
X104521Y-48871D01*
X104503Y-48834D01*
X104484Y-48759D01*
X104484Y-48665D01*
X104503Y-48590D01*
X104521Y-48553D01*
X104540Y-48534D01*
X104578Y-48515D01*
X104878Y-48909D02*
X104878Y-48515D01*
X105103Y-48909D02*
X104934Y-48684D01*
X105103Y-48515D02*
X104878Y-48740D01*
X113396Y-48796D02*
X113584Y-48796D01*
X113359Y-48909D02*
X113490Y-48515D01*
X113621Y-48909D01*
X113959Y-48909D02*
X113734Y-48909D01*
X113846Y-48909D02*
X113846Y-48515D01*
X113809Y-48571D01*
X113771Y-48609D01*
X113734Y-48628D01*
X114203Y-48515D02*
X114240Y-48515D01*
X114278Y-48534D01*
X114296Y-48553D01*
X114315Y-48590D01*
X114334Y-48665D01*
X114334Y-48759D01*
X114315Y-48834D01*
X114296Y-48871D01*
X114278Y-48890D01*
X114240Y-48909D01*
X114203Y-48909D01*
X114165Y-48890D01*
X114146Y-48871D01*
X114128Y-48834D01*
X114109Y-48759D01*
X114109Y-48665D01*
X114128Y-48590D01*
X114146Y-48553D01*
X114165Y-48534D01*
X114203Y-48515D01*
X114578Y-48515D02*
X114615Y-48515D01*
X114653Y-48534D01*
X114671Y-48553D01*
X114690Y-48590D01*
X114709Y-48665D01*
X114709Y-48759D01*
X114690Y-48834D01*
X114671Y-48871D01*
X114653Y-48890D01*
X114615Y-48909D01*
X114578Y-48909D01*
X114540Y-48890D01*
X114521Y-48871D01*
X114503Y-48834D01*
X114484Y-48759D01*
X114484Y-48665D01*
X114503Y-48590D01*
X114521Y-48553D01*
X114540Y-48534D01*
X114578Y-48515D01*
X114878Y-48909D02*
X114878Y-48515D01*
X115103Y-48909D02*
X114934Y-48684D01*
X115103Y-48515D02*
X114878Y-48740D01*
X62521Y-60515D02*
X62334Y-60515D01*
X62315Y-60703D01*
X62334Y-60684D01*
X62371Y-60665D01*
X62465Y-60665D01*
X62503Y-60684D01*
X62521Y-60703D01*
X62540Y-60740D01*
X62540Y-60834D01*
X62521Y-60871D01*
X62503Y-60890D01*
X62465Y-60909D01*
X62371Y-60909D01*
X62334Y-60890D01*
X62315Y-60871D01*
X62784Y-60515D02*
X62821Y-60515D01*
X62859Y-60534D01*
X62878Y-60553D01*
X62896Y-60590D01*
X62915Y-60665D01*
X62915Y-60759D01*
X62896Y-60834D01*
X62878Y-60871D01*
X62859Y-60890D01*
X62821Y-60909D01*
X62784Y-60909D01*
X62746Y-60890D01*
X62728Y-60871D01*
X62709Y-60834D01*
X62690Y-60759D01*
X62690Y-60665D01*
X62709Y-60590D01*
X62728Y-60553D01*
X62746Y-60534D01*
X62784Y-60515D01*
X63159Y-60515D02*
X63196Y-60515D01*
X63234Y-60534D01*
X63253Y-60553D01*
X63271Y-60590D01*
X63290Y-60665D01*
X63290Y-60759D01*
X63271Y-60834D01*
X63253Y-60871D01*
X63234Y-60890D01*
X63196Y-60909D01*
X63159Y-60909D01*
X63121Y-60890D01*
X63103Y-60871D01*
X63084Y-60834D01*
X63065Y-60759D01*
X63065Y-60665D01*
X63084Y-60590D01*
X63103Y-60553D01*
X63121Y-60534D01*
X63159Y-60515D01*
X63459Y-60909D02*
X63459Y-60515D01*
X63684Y-60909D02*
X63515Y-60684D01*
X63684Y-60515D02*
X63459Y-60740D01*
X72521Y-60515D02*
X72334Y-60515D01*
X72315Y-60703D01*
X72334Y-60684D01*
X72371Y-60665D01*
X72465Y-60665D01*
X72503Y-60684D01*
X72521Y-60703D01*
X72540Y-60740D01*
X72540Y-60834D01*
X72521Y-60871D01*
X72503Y-60890D01*
X72465Y-60909D01*
X72371Y-60909D01*
X72334Y-60890D01*
X72315Y-60871D01*
X72784Y-60515D02*
X72821Y-60515D01*
X72859Y-60534D01*
X72878Y-60553D01*
X72896Y-60590D01*
X72915Y-60665D01*
X72915Y-60759D01*
X72896Y-60834D01*
X72878Y-60871D01*
X72859Y-60890D01*
X72821Y-60909D01*
X72784Y-60909D01*
X72746Y-60890D01*
X72728Y-60871D01*
X72709Y-60834D01*
X72690Y-60759D01*
X72690Y-60665D01*
X72709Y-60590D01*
X72728Y-60553D01*
X72746Y-60534D01*
X72784Y-60515D01*
X73159Y-60515D02*
X73196Y-60515D01*
X73234Y-60534D01*
X73253Y-60553D01*
X73271Y-60590D01*
X73290Y-60665D01*
X73290Y-60759D01*
X73271Y-60834D01*
X73253Y-60871D01*
X73234Y-60890D01*
X73196Y-60909D01*
X73159Y-60909D01*
X73121Y-60890D01*
X73103Y-60871D01*
X73084Y-60834D01*
X73065Y-60759D01*
X73065Y-60665D01*
X73084Y-60590D01*
X73103Y-60553D01*
X73121Y-60534D01*
X73159Y-60515D01*
X73459Y-60909D02*
X73459Y-60515D01*
X73684Y-60909D02*
X73515Y-60684D01*
X73684Y-60515D02*
X73459Y-60740D01*
X82521Y-60515D02*
X82334Y-60515D01*
X82315Y-60703D01*
X82334Y-60684D01*
X82371Y-60665D01*
X82465Y-60665D01*
X82503Y-60684D01*
X82521Y-60703D01*
X82540Y-60740D01*
X82540Y-60834D01*
X82521Y-60871D01*
X82503Y-60890D01*
X82465Y-60909D01*
X82371Y-60909D01*
X82334Y-60890D01*
X82315Y-60871D01*
X82784Y-60515D02*
X82821Y-60515D01*
X82859Y-60534D01*
X82878Y-60553D01*
X82896Y-60590D01*
X82915Y-60665D01*
X82915Y-60759D01*
X82896Y-60834D01*
X82878Y-60871D01*
X82859Y-60890D01*
X82821Y-60909D01*
X82784Y-60909D01*
X82746Y-60890D01*
X82728Y-60871D01*
X82709Y-60834D01*
X82690Y-60759D01*
X82690Y-60665D01*
X82709Y-60590D01*
X82728Y-60553D01*
X82746Y-60534D01*
X82784Y-60515D01*
X83159Y-60515D02*
X83196Y-60515D01*
X83234Y-60534D01*
X83253Y-60553D01*
X83271Y-60590D01*
X83290Y-60665D01*
X83290Y-60759D01*
X83271Y-60834D01*
X83253Y-60871D01*
X83234Y-60890D01*
X83196Y-60909D01*
X83159Y-60909D01*
X83121Y-60890D01*
X83103Y-60871D01*
X83084Y-60834D01*
X83065Y-60759D01*
X83065Y-60665D01*
X83084Y-60590D01*
X83103Y-60553D01*
X83121Y-60534D01*
X83159Y-60515D01*
X83459Y-60909D02*
X83459Y-60515D01*
X83684Y-60909D02*
X83515Y-60684D01*
X83684Y-60515D02*
X83459Y-60740D01*
X103771Y-60515D02*
X103584Y-60515D01*
X103565Y-60703D01*
X103584Y-60684D01*
X103621Y-60665D01*
X103715Y-60665D01*
X103753Y-60684D01*
X103771Y-60703D01*
X103790Y-60740D01*
X103790Y-60834D01*
X103771Y-60871D01*
X103753Y-60890D01*
X103715Y-60909D01*
X103621Y-60909D01*
X103584Y-60890D01*
X103565Y-60871D01*
X104034Y-60515D02*
X104071Y-60515D01*
X104109Y-60534D01*
X104128Y-60553D01*
X104146Y-60590D01*
X104165Y-60665D01*
X104165Y-60759D01*
X104146Y-60834D01*
X104128Y-60871D01*
X104109Y-60890D01*
X104071Y-60909D01*
X104034Y-60909D01*
X103996Y-60890D01*
X103978Y-60871D01*
X103959Y-60834D01*
X103940Y-60759D01*
X103940Y-60665D01*
X103959Y-60590D01*
X103978Y-60553D01*
X103996Y-60534D01*
X104034Y-60515D01*
X104409Y-60515D02*
X104446Y-60515D01*
X104484Y-60534D01*
X104503Y-60553D01*
X104521Y-60590D01*
X104540Y-60665D01*
X104540Y-60759D01*
X104521Y-60834D01*
X104503Y-60871D01*
X104484Y-60890D01*
X104446Y-60909D01*
X104409Y-60909D01*
X104371Y-60890D01*
X104353Y-60871D01*
X104334Y-60834D01*
X104315Y-60759D01*
X104315Y-60665D01*
X104334Y-60590D01*
X104353Y-60553D01*
X104371Y-60534D01*
X104409Y-60515D01*
X104709Y-60909D02*
X104709Y-60515D01*
X104934Y-60909D02*
X104765Y-60684D01*
X104934Y-60515D02*
X104709Y-60740D01*
X113771Y-60515D02*
X113584Y-60515D01*
X113565Y-60703D01*
X113584Y-60684D01*
X113621Y-60665D01*
X113715Y-60665D01*
X113753Y-60684D01*
X113771Y-60703D01*
X113790Y-60740D01*
X113790Y-60834D01*
X113771Y-60871D01*
X113753Y-60890D01*
X113715Y-60909D01*
X113621Y-60909D01*
X113584Y-60890D01*
X113565Y-60871D01*
X114034Y-60515D02*
X114071Y-60515D01*
X114109Y-60534D01*
X114128Y-60553D01*
X114146Y-60590D01*
X114165Y-60665D01*
X114165Y-60759D01*
X114146Y-60834D01*
X114128Y-60871D01*
X114109Y-60890D01*
X114071Y-60909D01*
X114034Y-60909D01*
X113996Y-60890D01*
X113978Y-60871D01*
X113959Y-60834D01*
X113940Y-60759D01*
X113940Y-60665D01*
X113959Y-60590D01*
X113978Y-60553D01*
X113996Y-60534D01*
X114034Y-60515D01*
X114409Y-60515D02*
X114446Y-60515D01*
X114484Y-60534D01*
X114503Y-60553D01*
X114521Y-60590D01*
X114540Y-60665D01*
X114540Y-60759D01*
X114521Y-60834D01*
X114503Y-60871D01*
X114484Y-60890D01*
X114446Y-60909D01*
X114409Y-60909D01*
X114371Y-60890D01*
X114353Y-60871D01*
X114334Y-60834D01*
X114315Y-60759D01*
X114315Y-60665D01*
X114334Y-60590D01*
X114353Y-60553D01*
X114371Y-60534D01*
X114409Y-60515D01*
X114709Y-60909D02*
X114709Y-60515D01*
X114934Y-60909D02*
X114765Y-60684D01*
X114934Y-60515D02*
X114709Y-60740D01*
X62271Y-78765D02*
X62084Y-78765D01*
X62065Y-78953D01*
X62084Y-78934D01*
X62121Y-78915D01*
X62215Y-78915D01*
X62253Y-78934D01*
X62271Y-78953D01*
X62290Y-78990D01*
X62290Y-79084D01*
X62271Y-79121D01*
X62253Y-79140D01*
X62215Y-79159D01*
X62121Y-79159D01*
X62084Y-79140D01*
X62065Y-79121D01*
X62534Y-78765D02*
X62571Y-78765D01*
X62609Y-78784D01*
X62628Y-78803D01*
X62646Y-78840D01*
X62665Y-78915D01*
X62665Y-79009D01*
X62646Y-79084D01*
X62628Y-79121D01*
X62609Y-79140D01*
X62571Y-79159D01*
X62534Y-79159D01*
X62496Y-79140D01*
X62478Y-79121D01*
X62459Y-79084D01*
X62440Y-79009D01*
X62440Y-78915D01*
X62459Y-78840D01*
X62478Y-78803D01*
X62496Y-78784D01*
X62534Y-78765D01*
X62909Y-78765D02*
X62946Y-78765D01*
X62984Y-78784D01*
X63003Y-78803D01*
X63021Y-78840D01*
X63040Y-78915D01*
X63040Y-79009D01*
X63021Y-79084D01*
X63003Y-79121D01*
X62984Y-79140D01*
X62946Y-79159D01*
X62909Y-79159D01*
X62871Y-79140D01*
X62853Y-79121D01*
X62834Y-79084D01*
X62815Y-79009D01*
X62815Y-78915D01*
X62834Y-78840D01*
X62853Y-78803D01*
X62871Y-78784D01*
X62909Y-78765D01*
X63209Y-79159D02*
X63209Y-78765D01*
X63434Y-79159D02*
X63265Y-78934D01*
X63434Y-78765D02*
X63209Y-78990D01*
X72521Y-78765D02*
X72334Y-78765D01*
X72315Y-78953D01*
X72334Y-78934D01*
X72371Y-78915D01*
X72465Y-78915D01*
X72503Y-78934D01*
X72521Y-78953D01*
X72540Y-78990D01*
X72540Y-79084D01*
X72521Y-79121D01*
X72503Y-79140D01*
X72465Y-79159D01*
X72371Y-79159D01*
X72334Y-79140D01*
X72315Y-79121D01*
X72784Y-78765D02*
X72821Y-78765D01*
X72859Y-78784D01*
X72878Y-78803D01*
X72896Y-78840D01*
X72915Y-78915D01*
X72915Y-79009D01*
X72896Y-79084D01*
X72878Y-79121D01*
X72859Y-79140D01*
X72821Y-79159D01*
X72784Y-79159D01*
X72746Y-79140D01*
X72728Y-79121D01*
X72709Y-79084D01*
X72690Y-79009D01*
X72690Y-78915D01*
X72709Y-78840D01*
X72728Y-78803D01*
X72746Y-78784D01*
X72784Y-78765D01*
X73159Y-78765D02*
X73196Y-78765D01*
X73234Y-78784D01*
X73253Y-78803D01*
X73271Y-78840D01*
X73290Y-78915D01*
X73290Y-79009D01*
X73271Y-79084D01*
X73253Y-79121D01*
X73234Y-79140D01*
X73196Y-79159D01*
X73159Y-79159D01*
X73121Y-79140D01*
X73103Y-79121D01*
X73084Y-79084D01*
X73065Y-79009D01*
X73065Y-78915D01*
X73084Y-78840D01*
X73103Y-78803D01*
X73121Y-78784D01*
X73159Y-78765D01*
X73459Y-79159D02*
X73459Y-78765D01*
X73684Y-79159D02*
X73515Y-78934D01*
X73684Y-78765D02*
X73459Y-78990D01*
X82521Y-78765D02*
X82334Y-78765D01*
X82315Y-78953D01*
X82334Y-78934D01*
X82371Y-78915D01*
X82465Y-78915D01*
X82503Y-78934D01*
X82521Y-78953D01*
X82540Y-78990D01*
X82540Y-79084D01*
X82521Y-79121D01*
X82503Y-79140D01*
X82465Y-79159D01*
X82371Y-79159D01*
X82334Y-79140D01*
X82315Y-79121D01*
X82784Y-78765D02*
X82821Y-78765D01*
X82859Y-78784D01*
X82878Y-78803D01*
X82896Y-78840D01*
X82915Y-78915D01*
X82915Y-79009D01*
X82896Y-79084D01*
X82878Y-79121D01*
X82859Y-79140D01*
X82821Y-79159D01*
X82784Y-79159D01*
X82746Y-79140D01*
X82728Y-79121D01*
X82709Y-79084D01*
X82690Y-79009D01*
X82690Y-78915D01*
X82709Y-78840D01*
X82728Y-78803D01*
X82746Y-78784D01*
X82784Y-78765D01*
X83159Y-78765D02*
X83196Y-78765D01*
X83234Y-78784D01*
X83253Y-78803D01*
X83271Y-78840D01*
X83290Y-78915D01*
X83290Y-79009D01*
X83271Y-79084D01*
X83253Y-79121D01*
X83234Y-79140D01*
X83196Y-79159D01*
X83159Y-79159D01*
X83121Y-79140D01*
X83103Y-79121D01*
X83084Y-79084D01*
X83065Y-79009D01*
X83065Y-78915D01*
X83084Y-78840D01*
X83103Y-78803D01*
X83121Y-78784D01*
X83159Y-78765D01*
X83459Y-79159D02*
X83459Y-78765D01*
X83684Y-79159D02*
X83515Y-78934D01*
X83684Y-78765D02*
X83459Y-78990D01*
X103771Y-78765D02*
X103584Y-78765D01*
X103565Y-78953D01*
X103584Y-78934D01*
X103621Y-78915D01*
X103715Y-78915D01*
X103753Y-78934D01*
X103771Y-78953D01*
X103790Y-78990D01*
X103790Y-79084D01*
X103771Y-79121D01*
X103753Y-79140D01*
X103715Y-79159D01*
X103621Y-79159D01*
X103584Y-79140D01*
X103565Y-79121D01*
X104034Y-78765D02*
X104071Y-78765D01*
X104109Y-78784D01*
X104128Y-78803D01*
X104146Y-78840D01*
X104165Y-78915D01*
X104165Y-79009D01*
X104146Y-79084D01*
X104128Y-79121D01*
X104109Y-79140D01*
X104071Y-79159D01*
X104034Y-79159D01*
X103996Y-79140D01*
X103978Y-79121D01*
X103959Y-79084D01*
X103940Y-79009D01*
X103940Y-78915D01*
X103959Y-78840D01*
X103978Y-78803D01*
X103996Y-78784D01*
X104034Y-78765D01*
X104409Y-78765D02*
X104446Y-78765D01*
X104484Y-78784D01*
X104503Y-78803D01*
X104521Y-78840D01*
X104540Y-78915D01*
X104540Y-79009D01*
X104521Y-79084D01*
X104503Y-79121D01*
X104484Y-79140D01*
X104446Y-79159D01*
X104409Y-79159D01*
X104371Y-79140D01*
X104353Y-79121D01*
X104334Y-79084D01*
X104315Y-79009D01*
X104315Y-78915D01*
X104334Y-78840D01*
X104353Y-78803D01*
X104371Y-78784D01*
X104409Y-78765D01*
X104709Y-79159D02*
X104709Y-78765D01*
X104934Y-79159D02*
X104765Y-78934D01*
X104934Y-78765D02*
X104709Y-78990D01*
X113771Y-78765D02*
X113584Y-78765D01*
X113565Y-78953D01*
X113584Y-78934D01*
X113621Y-78915D01*
X113715Y-78915D01*
X113753Y-78934D01*
X113771Y-78953D01*
X113790Y-78990D01*
X113790Y-79084D01*
X113771Y-79121D01*
X113753Y-79140D01*
X113715Y-79159D01*
X113621Y-79159D01*
X113584Y-79140D01*
X113565Y-79121D01*
X114034Y-78765D02*
X114071Y-78765D01*
X114109Y-78784D01*
X114128Y-78803D01*
X114146Y-78840D01*
X114165Y-78915D01*
X114165Y-79009D01*
X114146Y-79084D01*
X114128Y-79121D01*
X114109Y-79140D01*
X114071Y-79159D01*
X114034Y-79159D01*
X113996Y-79140D01*
X113978Y-79121D01*
X113959Y-79084D01*
X113940Y-79009D01*
X113940Y-78915D01*
X113959Y-78840D01*
X113978Y-78803D01*
X113996Y-78784D01*
X114034Y-78765D01*
X114409Y-78765D02*
X114446Y-78765D01*
X114484Y-78784D01*
X114503Y-78803D01*
X114521Y-78840D01*
X114540Y-78915D01*
X114540Y-79009D01*
X114521Y-79084D01*
X114503Y-79121D01*
X114484Y-79140D01*
X114446Y-79159D01*
X114409Y-79159D01*
X114371Y-79140D01*
X114353Y-79121D01*
X114334Y-79084D01*
X114315Y-79009D01*
X114315Y-78915D01*
X114334Y-78840D01*
X114353Y-78803D01*
X114371Y-78784D01*
X114409Y-78765D01*
X114709Y-79159D02*
X114709Y-78765D01*
X114934Y-79159D02*
X114765Y-78934D01*
X114934Y-78765D02*
X114709Y-78990D01*
X66803Y-62265D02*
X66803Y-62546D01*
X66784Y-62603D01*
X66747Y-62640D01*
X66690Y-62659D01*
X66653Y-62659D01*
X66990Y-62265D02*
X66990Y-62584D01*
X67009Y-62621D01*
X67028Y-62640D01*
X67065Y-62659D01*
X67140Y-62659D01*
X67178Y-62640D01*
X67196Y-62621D01*
X67215Y-62584D01*
X67215Y-62265D01*
X67403Y-62659D02*
X67403Y-62265D01*
X67534Y-62546D01*
X67665Y-62265D01*
X67665Y-62659D01*
X67853Y-62659D02*
X67853Y-62265D01*
X68003Y-62265D01*
X68040Y-62284D01*
X68059Y-62303D01*
X68078Y-62340D01*
X68078Y-62396D01*
X68059Y-62434D01*
X68040Y-62453D01*
X68003Y-62471D01*
X67853Y-62471D01*
X68246Y-62453D02*
X68378Y-62453D01*
X68434Y-62659D02*
X68246Y-62659D01*
X68246Y-62265D01*
X68434Y-62265D01*
X68827Y-62659D02*
X68696Y-62471D01*
X68603Y-62659D02*
X68603Y-62265D01*
X68753Y-62265D01*
X68790Y-62284D01*
X68809Y-62303D01*
X68827Y-62340D01*
X68827Y-62396D01*
X68809Y-62434D01*
X68790Y-62453D01*
X68753Y-62471D01*
X68603Y-62471D01*
X86553Y-61515D02*
X86553Y-61796D01*
X86534Y-61853D01*
X86497Y-61890D01*
X86440Y-61909D01*
X86403Y-61909D01*
X86740Y-61515D02*
X86740Y-61834D01*
X86759Y-61871D01*
X86778Y-61890D01*
X86815Y-61909D01*
X86890Y-61909D01*
X86928Y-61890D01*
X86946Y-61871D01*
X86965Y-61834D01*
X86965Y-61515D01*
X87153Y-61909D02*
X87153Y-61515D01*
X87284Y-61796D01*
X87415Y-61515D01*
X87415Y-61909D01*
X87603Y-61909D02*
X87603Y-61515D01*
X87753Y-61515D01*
X87790Y-61534D01*
X87809Y-61553D01*
X87828Y-61590D01*
X87828Y-61646D01*
X87809Y-61684D01*
X87790Y-61703D01*
X87753Y-61721D01*
X87603Y-61721D01*
X87996Y-61703D02*
X88128Y-61703D01*
X88184Y-61909D02*
X87996Y-61909D01*
X87996Y-61515D01*
X88184Y-61515D01*
X88577Y-61909D02*
X88446Y-61721D01*
X88353Y-61909D02*
X88353Y-61515D01*
X88503Y-61515D01*
X88540Y-61534D01*
X88559Y-61553D01*
X88577Y-61590D01*
X88577Y-61646D01*
X88559Y-61684D01*
X88540Y-61703D01*
X88503Y-61721D01*
X88353Y-61721D01*
X88803Y-72765D02*
X88803Y-73046D01*
X88784Y-73103D01*
X88747Y-73140D01*
X88690Y-73159D01*
X88653Y-73159D01*
X88990Y-72765D02*
X88990Y-73084D01*
X89009Y-73121D01*
X89028Y-73140D01*
X89065Y-73159D01*
X89140Y-73159D01*
X89178Y-73140D01*
X89196Y-73121D01*
X89215Y-73084D01*
X89215Y-72765D01*
X89403Y-73159D02*
X89403Y-72765D01*
X89534Y-73046D01*
X89665Y-72765D01*
X89665Y-73159D01*
X89853Y-73159D02*
X89853Y-72765D01*
X90003Y-72765D01*
X90040Y-72784D01*
X90059Y-72803D01*
X90078Y-72840D01*
X90078Y-72896D01*
X90059Y-72934D01*
X90040Y-72953D01*
X90003Y-72971D01*
X89853Y-72971D01*
X90246Y-72953D02*
X90378Y-72953D01*
X90434Y-73159D02*
X90246Y-73159D01*
X90246Y-72765D01*
X90434Y-72765D01*
X90827Y-73159D02*
X90696Y-72971D01*
X90603Y-73159D02*
X90603Y-72765D01*
X90753Y-72765D01*
X90790Y-72784D01*
X90809Y-72803D01*
X90827Y-72840D01*
X90827Y-72896D01*
X90809Y-72934D01*
X90790Y-72953D01*
X90753Y-72971D01*
X90603Y-72971D01*
X93859Y-62009D02*
X93859Y-61615D01*
X93953Y-61615D01*
X94009Y-61634D01*
X94046Y-61671D01*
X94065Y-61709D01*
X94084Y-61784D01*
X94084Y-61840D01*
X94065Y-61915D01*
X94046Y-61953D01*
X94009Y-61990D01*
X93953Y-62009D01*
X93859Y-62009D01*
X94459Y-62009D02*
X94234Y-62009D01*
X94346Y-62009D02*
X94346Y-61615D01*
X94309Y-61671D01*
X94271Y-61709D01*
X94234Y-61728D01*
X93859Y-75159D02*
X93859Y-74765D01*
X93953Y-74765D01*
X94009Y-74784D01*
X94046Y-74821D01*
X94065Y-74859D01*
X94084Y-74934D01*
X94084Y-74990D01*
X94065Y-75065D01*
X94046Y-75103D01*
X94009Y-75140D01*
X93953Y-75159D01*
X93859Y-75159D01*
X94215Y-74765D02*
X94459Y-74765D01*
X94328Y-74915D01*
X94384Y-74915D01*
X94421Y-74934D01*
X94440Y-74953D01*
X94459Y-74990D01*
X94459Y-75084D01*
X94440Y-75121D01*
X94421Y-75140D01*
X94384Y-75159D01*
X94271Y-75159D01*
X94234Y-75140D01*
X94215Y-75121D01*
X52871Y-64792D02*
X52571Y-64792D01*
X52571Y-64721D01*
X52585Y-64678D01*
X52614Y-64650D01*
X52642Y-64635D01*
X52700Y-64621D01*
X52742Y-64621D01*
X52800Y-64635D01*
X52828Y-64650D01*
X52857Y-64678D01*
X52871Y-64721D01*
X52871Y-64792D01*
X52871Y-64492D02*
X52571Y-64492D01*
X52571Y-64292D02*
X52571Y-64235D01*
X52585Y-64207D01*
X52614Y-64178D01*
X52671Y-64164D01*
X52771Y-64164D01*
X52828Y-64178D01*
X52857Y-64207D01*
X52871Y-64235D01*
X52871Y-64292D01*
X52857Y-64321D01*
X52828Y-64350D01*
X52771Y-64364D01*
X52671Y-64364D01*
X52614Y-64350D01*
X52585Y-64321D01*
X52571Y-64292D01*
X52871Y-64035D02*
X52571Y-64035D01*
X52571Y-63964D01*
X52585Y-63921D01*
X52614Y-63892D01*
X52642Y-63878D01*
X52700Y-63864D01*
X52742Y-63864D01*
X52800Y-63878D01*
X52828Y-63892D01*
X52857Y-63921D01*
X52871Y-63964D01*
X52871Y-64035D01*
X52714Y-63735D02*
X52714Y-63635D01*
X52871Y-63592D02*
X52871Y-63735D01*
X52571Y-63735D01*
X52571Y-63592D01*
X51506Y-60159D02*
X51581Y-60159D01*
X51618Y-60140D01*
X51637Y-60121D01*
X51675Y-60065D01*
X51693Y-59990D01*
X51693Y-59840D01*
X51675Y-59803D01*
X51656Y-59784D01*
X51618Y-59765D01*
X51543Y-59765D01*
X51506Y-59784D01*
X51487Y-59803D01*
X51468Y-59840D01*
X51468Y-59934D01*
X51487Y-59971D01*
X51506Y-59990D01*
X51543Y-60009D01*
X51618Y-60009D01*
X51656Y-59990D01*
X51675Y-59971D01*
X51693Y-59934D01*
X51806Y-59765D02*
X51937Y-60159D01*
X52068Y-59765D01*
M02*
