G04 (created by PCBNEW (2013-07-07 BZR 4022)-stable) date 20/01/2017 15:23:36*
%MOIN*%
G04 Gerber Fmt 3.4, Leading zero omitted, Abs format*
%FSLAX34Y34*%
G01*
G70*
G90*
G04 APERTURE LIST*
%ADD10C,0.00590551*%
%ADD11R,0.09X0.062*%
%ADD12O,0.09X0.062*%
%ADD13R,0.062X0.09*%
%ADD14O,0.062X0.09*%
%ADD15C,0.0984252*%
%ADD16C,0.0866142*%
%ADD17O,0.15748X0.11811*%
%ADD18R,0.35X0.35*%
%ADD19C,0.0787402*%
%ADD20R,0.0787402X0.0787402*%
%ADD21O,0.0708661X0.102362*%
%ADD22C,0.11811*%
%ADD23C,0.0708661*%
G04 APERTURE END LIST*
G54D10*
G54D11*
X69500Y-71750D03*
G54D12*
X69500Y-70750D03*
X69500Y-69750D03*
X69500Y-68750D03*
X69500Y-67750D03*
X69500Y-66750D03*
X69500Y-65750D03*
X66500Y-65750D03*
X66500Y-66750D03*
X66500Y-67750D03*
X66500Y-68750D03*
X66500Y-69750D03*
X66500Y-70750D03*
X66500Y-71750D03*
G54D13*
X100750Y-67750D03*
G54D14*
X99750Y-67750D03*
X98750Y-67750D03*
X97750Y-67750D03*
X96750Y-67750D03*
X95750Y-67750D03*
X94750Y-67750D03*
X94750Y-70750D03*
X95750Y-70750D03*
X96750Y-70750D03*
X97750Y-70750D03*
X98750Y-70750D03*
X99750Y-70750D03*
X100750Y-70750D03*
G54D15*
X114250Y-47250D03*
X94250Y-47250D03*
X104250Y-47250D03*
X49500Y-61000D03*
X90250Y-47250D03*
G54D16*
X76000Y-48000D03*
X76000Y-51000D03*
X56000Y-48000D03*
X56000Y-51000D03*
X66000Y-48000D03*
X66000Y-51000D03*
X86000Y-48000D03*
X86000Y-51000D03*
X79500Y-74500D03*
X76500Y-74500D03*
X57500Y-70000D03*
X60500Y-70000D03*
X77750Y-70000D03*
X74750Y-70000D03*
X69500Y-74500D03*
X66500Y-74500D03*
X117500Y-49000D03*
X117500Y-52000D03*
X84500Y-70000D03*
X81500Y-70000D03*
X90500Y-59500D03*
X90500Y-56500D03*
X89250Y-56500D03*
X89250Y-59500D03*
X59500Y-74500D03*
X56500Y-74500D03*
X107000Y-58750D03*
X107000Y-61750D03*
X102250Y-68000D03*
X105250Y-68000D03*
X88500Y-66250D03*
X88500Y-69250D03*
X107250Y-49000D03*
X107250Y-52000D03*
X51500Y-57500D03*
X54500Y-57500D03*
X100750Y-73750D03*
X100750Y-76750D03*
X97250Y-49000D03*
X97250Y-52000D03*
X108500Y-76750D03*
X108500Y-73750D03*
X57750Y-57500D03*
X60750Y-57500D03*
X110000Y-76750D03*
X110000Y-73750D03*
X78000Y-57500D03*
X75000Y-57500D03*
X92500Y-69500D03*
X92500Y-72500D03*
X87250Y-71000D03*
X87250Y-74000D03*
X84500Y-57500D03*
X81500Y-57500D03*
G54D13*
X110500Y-68750D03*
G54D14*
X109500Y-68750D03*
X108500Y-68750D03*
X107500Y-68750D03*
X107500Y-71750D03*
X108500Y-71750D03*
X109500Y-71750D03*
X110500Y-71750D03*
G54D13*
X111250Y-59000D03*
G54D14*
X110250Y-59000D03*
X109250Y-59000D03*
X108250Y-59000D03*
X108250Y-62000D03*
X109250Y-62000D03*
X110250Y-62000D03*
X111250Y-62000D03*
G54D11*
X100500Y-63750D03*
G54D12*
X100500Y-62750D03*
X100500Y-61750D03*
X100500Y-60750D03*
X100500Y-59750D03*
X100500Y-58750D03*
X100500Y-57750D03*
X97500Y-57750D03*
X97500Y-58750D03*
X97500Y-59750D03*
X97500Y-60750D03*
X97500Y-61750D03*
X97500Y-62750D03*
X97500Y-63750D03*
G54D11*
X69250Y-59750D03*
G54D12*
X69250Y-58750D03*
X69250Y-57750D03*
X69250Y-56750D03*
X69250Y-55750D03*
X69250Y-54750D03*
X69250Y-53750D03*
X66250Y-53750D03*
X66250Y-54750D03*
X66250Y-55750D03*
X66250Y-56750D03*
X66250Y-57750D03*
X66250Y-58750D03*
X66250Y-59750D03*
G54D16*
X104000Y-57750D03*
X104000Y-59750D03*
X82000Y-55500D03*
X84000Y-55500D03*
X63000Y-69250D03*
X63000Y-71250D03*
X100500Y-51500D03*
X100500Y-49500D03*
X58000Y-63000D03*
X58000Y-65000D03*
X54000Y-55500D03*
X52000Y-55500D03*
X60250Y-55500D03*
X58250Y-55500D03*
X75500Y-55500D03*
X77500Y-55500D03*
X79000Y-76500D03*
X77000Y-76500D03*
X60000Y-68000D03*
X58000Y-68000D03*
X77250Y-68000D03*
X75250Y-68000D03*
X67750Y-51750D03*
X69750Y-51750D03*
X89000Y-52750D03*
X87000Y-52750D03*
X82000Y-68000D03*
X84000Y-68000D03*
X59000Y-76500D03*
X57000Y-76500D03*
X69000Y-76500D03*
X67000Y-76500D03*
G54D17*
X54770Y-63275D03*
X54770Y-65275D03*
X54770Y-61275D03*
G54D16*
X109250Y-56250D03*
X110750Y-56250D03*
X93250Y-54750D03*
X93250Y-56250D03*
X91250Y-77500D03*
X91250Y-76000D03*
X103250Y-54750D03*
X103250Y-56250D03*
X113250Y-54750D03*
X113250Y-56250D03*
X54000Y-72500D03*
X55500Y-72500D03*
X49750Y-68000D03*
X51250Y-68000D03*
G54D18*
X50750Y-76250D03*
G54D19*
X51750Y-69750D03*
G54D20*
X50750Y-69750D03*
G54D19*
X49750Y-69750D03*
G54D21*
X51900Y-53100D03*
X52900Y-53100D03*
X53900Y-53100D03*
G54D19*
X51010Y-50146D03*
X54790Y-50150D03*
G54D21*
X61900Y-53100D03*
X62900Y-53100D03*
X63900Y-53100D03*
G54D19*
X61010Y-50146D03*
X64790Y-50150D03*
G54D21*
X71900Y-53100D03*
X72900Y-53100D03*
X73900Y-53100D03*
G54D19*
X71010Y-50146D03*
X74790Y-50150D03*
G54D21*
X81900Y-53100D03*
X82900Y-53100D03*
X83900Y-53100D03*
G54D19*
X81010Y-50146D03*
X84790Y-50150D03*
G54D21*
X93150Y-53100D03*
X94150Y-53100D03*
X95150Y-53100D03*
G54D19*
X92260Y-50146D03*
X96040Y-50150D03*
G54D21*
X103150Y-53100D03*
X104150Y-53100D03*
X105150Y-53100D03*
G54D19*
X102260Y-50146D03*
X106040Y-50150D03*
G54D21*
X113150Y-53100D03*
X114150Y-53100D03*
X115150Y-53100D03*
G54D19*
X112260Y-50146D03*
X116040Y-50150D03*
G54D21*
X61900Y-66225D03*
X62900Y-66225D03*
X63900Y-66225D03*
G54D19*
X61010Y-63271D03*
X64790Y-63275D03*
G54D21*
X71900Y-66225D03*
X72900Y-66225D03*
X73900Y-66225D03*
G54D19*
X71010Y-63271D03*
X74790Y-63275D03*
G54D21*
X81900Y-66225D03*
X82900Y-66225D03*
X83900Y-66225D03*
G54D19*
X81010Y-63271D03*
X84790Y-63275D03*
G54D21*
X103150Y-66225D03*
X104150Y-66225D03*
X105150Y-66225D03*
G54D19*
X102260Y-63271D03*
X106040Y-63275D03*
G54D21*
X113150Y-66225D03*
X114150Y-66225D03*
X115150Y-66225D03*
G54D19*
X112260Y-63271D03*
X116040Y-63275D03*
G54D21*
X63900Y-73450D03*
X62900Y-73450D03*
X61900Y-73450D03*
G54D19*
X64790Y-76404D03*
X61010Y-76400D03*
G54D21*
X73900Y-73450D03*
X72900Y-73450D03*
X71900Y-73450D03*
G54D19*
X74790Y-76404D03*
X71010Y-76400D03*
G54D21*
X83900Y-73450D03*
X82900Y-73450D03*
X81900Y-73450D03*
G54D19*
X84790Y-76404D03*
X81010Y-76400D03*
G54D21*
X105150Y-73450D03*
X104150Y-73450D03*
X103150Y-73450D03*
G54D19*
X106040Y-76404D03*
X102260Y-76400D03*
G54D21*
X115150Y-73450D03*
X114150Y-73450D03*
X113150Y-73450D03*
G54D19*
X116040Y-76404D03*
X112260Y-76400D03*
G54D16*
X69750Y-62000D03*
X65750Y-62000D03*
X86500Y-59750D03*
X86500Y-63750D03*
X88750Y-71000D03*
X88750Y-75000D03*
G54D22*
X58750Y-51250D03*
X110000Y-48250D03*
X114750Y-69750D03*
G54D23*
X94650Y-63275D03*
X93650Y-63275D03*
X94650Y-76400D03*
X93650Y-76400D03*
G54D15*
X52750Y-62300D03*
X52750Y-66300D03*
X51750Y-61000D03*
M02*
