M48
;DRILL file {Pcbnew (2013-07-07 BZR 4022)-stable} date 20/01/2017 15:23:41
;FORMAT={-:-/ absolute / inch / decimal}
FMAT,2
INCH,TZ
T1C0.032
T2C0.039
T3C0.040
T4C0.045
T5C0.087
T6C0.118
T7C0.120
%
G90
G05
M72
T1
X4.975Y-6.8
X5.125Y-6.8
X5.15Y-5.75
X5.2Y-5.55
X5.4Y-5.55
X5.4Y-7.25
X5.45Y-5.75
X5.55Y-7.25
X5.6Y-4.8
X5.6Y-5.1
X5.65Y-7.45
X5.7Y-7.65
X5.75Y-7.
X5.775Y-5.75
X5.8Y-6.3
X5.8Y-6.5
X5.8Y-6.8
X5.825Y-5.55
X5.9Y-7.65
X5.95Y-7.45
X6.Y-6.8
X6.025Y-5.55
X6.05Y-7.
X6.075Y-5.75
X6.3Y-6.925
X6.3Y-7.125
X6.575Y-6.2
X6.6Y-4.8
X6.6Y-5.1
X6.625Y-5.375
X6.625Y-5.475
X6.625Y-5.575
X6.625Y-5.675
X6.625Y-5.775
X6.625Y-5.875
X6.625Y-5.975
X6.65Y-6.575
X6.65Y-6.675
X6.65Y-6.775
X6.65Y-6.875
X6.65Y-6.975
X6.65Y-7.075
X6.65Y-7.175
X6.65Y-7.45
X6.7Y-7.65
X6.775Y-5.175
X6.9Y-7.65
X6.925Y-5.375
X6.925Y-5.475
X6.925Y-5.575
X6.925Y-5.675
X6.925Y-5.775
X6.925Y-5.875
X6.925Y-5.975
X6.95Y-6.575
X6.95Y-6.675
X6.95Y-6.775
X6.95Y-6.875
X6.95Y-6.975
X6.95Y-7.075
X6.95Y-7.175
X6.95Y-7.45
X6.975Y-5.175
X6.975Y-6.2
X7.475Y-7.
X7.5Y-5.75
X7.525Y-6.8
X7.55Y-5.55
X7.6Y-4.8
X7.6Y-5.1
X7.65Y-7.45
X7.7Y-7.65
X7.725Y-6.8
X7.75Y-5.55
X7.775Y-7.
X7.8Y-5.75
X7.9Y-7.65
X7.95Y-7.45
X8.15Y-5.75
X8.15Y-7.
X8.2Y-5.55
X8.2Y-6.8
X8.4Y-5.55
X8.4Y-6.8
X8.45Y-5.75
X8.45Y-7.
X8.6Y-4.8
X8.6Y-5.1
X8.65Y-5.975
X8.65Y-6.375
X8.7Y-5.275
X8.725Y-7.1
X8.725Y-7.4
X8.85Y-6.625
X8.85Y-6.925
X8.875Y-7.1
X8.875Y-7.5
X8.9Y-5.275
X8.925Y-5.65
X8.925Y-5.95
X9.05Y-5.65
X9.05Y-5.95
X9.125Y-7.6
X9.125Y-7.75
X9.25Y-6.95
X9.25Y-7.25
X9.325Y-5.475
X9.325Y-5.625
X9.365Y-6.3275
X9.365Y-7.64
X9.465Y-6.3275
X9.465Y-7.64
X9.475Y-6.775
X9.475Y-7.075
X9.575Y-6.775
X9.575Y-7.075
X9.675Y-6.775
X9.675Y-7.075
X9.725Y-4.9
X9.725Y-5.2
X9.75Y-5.775
X9.75Y-5.875
X9.75Y-5.975
X9.75Y-6.075
X9.75Y-6.175
X9.75Y-6.275
X9.75Y-6.375
X9.775Y-6.775
X9.775Y-7.075
X9.875Y-6.775
X9.875Y-7.075
X9.975Y-6.775
X9.975Y-7.075
X10.05Y-4.95
X10.05Y-5.15
X10.05Y-5.775
X10.05Y-5.875
X10.05Y-5.975
X10.05Y-6.075
X10.05Y-6.175
X10.05Y-6.275
X10.05Y-6.375
X10.075Y-6.775
X10.075Y-7.075
X10.075Y-7.375
X10.075Y-7.675
X10.225Y-6.8
X10.325Y-5.475
X10.325Y-5.625
X10.4Y-5.775
X10.4Y-5.975
X10.525Y-6.8
X10.7Y-5.875
X10.7Y-6.175
X10.725Y-4.9
X10.725Y-5.2
X10.75Y-6.875
X10.75Y-7.175
X10.825Y-5.9
X10.825Y-6.2
X10.85Y-6.875
X10.85Y-7.175
X10.85Y-7.375
X10.85Y-7.675
X10.925Y-5.625
X10.925Y-5.9
X10.925Y-6.2
X10.95Y-6.875
X10.95Y-7.175
X11.Y-7.375
X11.Y-7.675
X11.025Y-5.9
X11.025Y-6.2
X11.05Y-6.875
X11.05Y-7.175
X11.075Y-5.625
X11.125Y-5.9
X11.125Y-6.2
X11.325Y-5.475
X11.325Y-5.625
X11.75Y-4.9
X11.75Y-5.2
T2
X5.19Y-5.31
X5.29Y-5.31
X5.39Y-5.31
X6.19Y-5.31
X6.19Y-6.6225
X6.19Y-7.345
X6.29Y-5.31
X6.29Y-6.6225
X6.29Y-7.345
X6.39Y-5.31
X6.39Y-6.6225
X6.39Y-7.345
X7.19Y-5.31
X7.19Y-6.6225
X7.19Y-7.345
X7.29Y-5.31
X7.29Y-6.6225
X7.29Y-7.345
X7.39Y-5.31
X7.39Y-6.6225
X7.39Y-7.345
X8.19Y-5.31
X8.19Y-6.6225
X8.19Y-7.345
X8.29Y-5.31
X8.29Y-6.6225
X8.29Y-7.345
X8.39Y-5.31
X8.39Y-6.6225
X8.39Y-7.345
X9.315Y-5.31
X9.415Y-5.31
X9.515Y-5.31
X10.315Y-5.31
X10.315Y-6.6225
X10.315Y-7.345
X10.415Y-5.31
X10.415Y-6.6225
X10.415Y-7.345
X10.515Y-5.31
X10.515Y-6.6225
X10.515Y-7.345
X11.315Y-5.31
X11.315Y-6.6225
X11.315Y-7.345
X11.415Y-5.31
X11.415Y-6.6225
X11.415Y-7.345
X11.515Y-5.31
X11.515Y-6.6225
X11.515Y-7.345
T3
X4.95Y-6.1
X5.175Y-6.1
X5.275Y-6.23
X5.275Y-6.63
X9.025Y-4.725
X9.425Y-4.725
X10.425Y-4.725
X11.425Y-4.725
T4
X4.975Y-6.975
X5.075Y-6.975
X5.101Y-5.0146
X5.175Y-6.975
X5.479Y-5.015
X6.101Y-5.0146
X6.101Y-6.3271
X6.101Y-7.64
X6.479Y-5.015
X6.479Y-6.3275
X6.479Y-7.6404
X7.101Y-5.0146
X7.101Y-6.3271
X7.101Y-7.64
X7.479Y-5.015
X7.479Y-6.3275
X7.479Y-7.6404
X8.101Y-5.0146
X8.101Y-6.3271
X8.101Y-7.64
X8.479Y-5.015
X8.479Y-6.3275
X8.479Y-7.6404
X9.226Y-5.0146
X9.604Y-5.015
X10.226Y-5.0146
X10.226Y-6.3271
X10.226Y-7.64
X10.604Y-5.015
X10.604Y-6.3275
X10.604Y-7.6404
X11.226Y-5.0146
X11.226Y-6.3271
X11.226Y-7.64
X11.604Y-5.015
X11.604Y-6.3275
X11.604Y-7.6404
T5
X5.477Y-6.1275
X5.477Y-6.3275
X5.477Y-6.5275
T6
X5.875Y-5.125
X11.Y-4.825
X11.475Y-6.975
T7
X5.075Y-7.625
T0
M30
